<?xml version="1.0" encoding="utf-8"?>
<!-- Generator: Adobe Illustrator 27.5.0, SVG Export Plug-In . SVG Version: 6.00 Build 0)  -->
<svg version="1.1" id="Layer_1" xmlns="http://www.w3.org/2000/svg" xmlns:xlink="http://www.w3.org/1999/xlink" x="0px" y="0px"
	 viewBox="0 0 2926 2000" style="enable-background:new 0 0 2926 2000;" xml:space="preserve">
<g>
	<g>
		<g>
			<rect x="0.001" y="-0.001" style="fill:#FFFFFF;" width="2926" height="2000"/>
		</g>
	</g>
	<g>
		<path style="opacity:0.5;fill:#B8D8FF;" d="M2569.83,1835.244c82-67.137,200-279.983,190.406-492.494
			c-10.775-238.67-179.713-266.379-249.147-376.634c-77.775-123.5-29.62-237.512-180.552-370.655
			c-191.141-168.613-265.084-44.361-478.707-212.99c-290.735-229.501-750.387-224.646-1086.14-42.504
			C455.605,508.186,510.25,636.191,354.001,777.343c-181.941,164.362-107.685,342.476-83.006,407.532
			c21.494,56.66,57.314,151.55-33.933,270.297c-116.531,151.654-44.751,326.779,63.26,380.072H2569.83z"/>
	</g>
	<g>
		<g>
			<g>
				<g>
					<path style="fill:#E59F39;" d="M2512.5,1764.722v61.076c0,9.874-116.338,17.878-259.849,17.878s-259.85-8.004-259.85-17.878
						v-61.076H2512.5z"/>
					<g>
						<path style="fill:#EAB054;" d="M2324.452,1842.984v-78.263H2512.5v61.076
							C2512.5,1833.958,2433.041,1840.841,2324.452,1842.984z"/>
						<path style="fill:#EAB054;" d="M2315.7,1843.146c-20.187,0.347-41.306,0.53-63.049,0.53c-32.399,0-63.414-0.408-92.018-1.153
							v-77.801H2315.7V1843.146z"/>
						<path style="fill:#EAB054;" d="M2150.222,1842.232c-92.579-2.734-157.42-9.063-157.42-16.435v-61.076h157.42V1842.232z"/>
					</g>
					<ellipse style="fill:#E59F39;" cx="2252.651" cy="1764.073" rx="259.849" ry="17.878"/>
					<ellipse style="fill:#F7CC7F;" cx="2252.651" cy="1764.073" rx="213.98" ry="12.396"/>
				</g>
				<g>
					<path style="fill:#E59F39;" d="M2556.958,1700.092v61.076c0,9.873-116.338,17.878-259.849,17.878s-259.85-8.005-259.85-17.878
						v-61.076H2556.958z"/>
					<g>
						<path style="fill:#EAB054;" d="M2368.91,1778.354v-78.263h188.048v61.076
							C2556.958,1769.328,2477.498,1776.211,2368.91,1778.354z"/>
						<path style="fill:#EAB054;" d="M2360.158,1778.516c-20.187,0.346-41.306,0.53-63.049,0.53
							c-32.399,0-63.414-0.408-92.018-1.153v-77.801h155.066V1778.516z"/>
						<path style="fill:#EAB054;" d="M2194.68,1777.604c-92.579-2.735-157.42-9.065-157.42-16.436v-61.076h157.42V1777.604z"/>
					</g>
					<path style="fill:#E59F39;" d="M2037.26,1699.443c0,9.873,116.339,17.878,259.85,17.878s259.849-8.005,259.849-17.878
						c0-9.874-116.338-17.879-259.849-17.879S2037.26,1689.569,2037.26,1699.443z"/>
					<path style="fill:#F7CC7F;" d="M2083.129,1699.443c0,6.846,95.803,12.395,213.98,12.395s213.979-5.55,213.979-12.395
						c0-6.846-95.802-12.397-213.979-12.397S2083.129,1692.598,2083.129,1699.443z"/>
				</g>
				<g>
					<path style="fill:#E59F39;" d="M2527.338,1633.744v61.075c0,9.874-116.339,17.878-259.85,17.878s-259.85-8.004-259.85-17.878
						v-61.075H2527.338z"/>
					<g>
						<path style="fill:#EAB054;" d="M2339.289,1712.006v-78.262h188.049v61.075
							C2527.338,1702.979,2447.877,1709.863,2339.289,1712.006z"/>
						<path style="fill:#EAB054;" d="M2330.537,1712.168c-20.186,0.346-41.305,0.529-63.049,0.529
							c-32.399,0-63.414-0.408-92.018-1.154v-77.799h155.066V1712.168z"/>
						<path style="fill:#EAB054;" d="M2165.06,1711.255c-92.58-2.734-157.421-9.063-157.421-16.435v-61.075h157.421V1711.255z"/>
					</g>
					<ellipse style="fill:#E59F39;" cx="2267.488" cy="1633.095" rx="259.85" ry="17.878"/>
					<ellipse style="fill:#F7CC7F;" cx="2267.488" cy="1633.095" rx="213.98" ry="12.396"/>
				</g>
				<g>
					<path style="fill:#E59F39;" d="M2556.958,1568.305v61.076c0,9.874-116.338,17.878-259.849,17.878s-259.85-8.004-259.85-17.878
						v-61.076H2556.958z"/>
					<g>
						<path style="fill:#EAB054;" d="M2368.91,1646.567v-78.263h188.048v61.076
							C2556.958,1637.541,2477.498,1644.424,2368.91,1646.567z"/>
						<path style="fill:#EAB054;" d="M2360.158,1646.729c-20.187,0.347-41.306,0.53-63.049,0.53
							c-32.399,0-63.414-0.408-92.018-1.153v-77.801h155.066V1646.729z"/>
						<path style="fill:#EAB054;" d="M2194.68,1645.816c-92.579-2.734-157.42-9.064-157.42-16.436v-61.076h157.42V1645.816z"/>
					</g>
					<path style="fill:#E59F39;" d="M2037.26,1567.656c0,9.873,116.339,17.877,259.85,17.877s259.849-8.004,259.849-17.877
						s-116.338-17.878-259.849-17.878S2037.26,1557.783,2037.26,1567.656z"/>
					<path style="fill:#F7CC7F;" d="M2083.129,1567.656c0,6.846,95.803,12.394,213.98,12.394s213.979-5.549,213.979-12.394
						s-95.802-12.396-213.979-12.396S2083.129,1560.811,2083.129,1567.656z"/>
				</g>
			</g>
			<g>
				<g>
					<path style="fill:#E59F39;" d="M2478.098,1506.58v61.076c0,9.873-116.339,17.877-259.85,17.877s-259.849-8.004-259.849-17.877
						v-61.076H2478.098z"/>
					<g>
						<path style="fill:#EAB054;" d="M2290.05,1584.843v-78.263h188.048v61.076
							C2478.098,1575.816,2398.638,1582.699,2290.05,1584.843z"/>
						<path style="fill:#EAB054;" d="M2281.297,1585.004c-20.186,0.346-41.305,0.529-63.049,0.529
							c-32.399,0-63.414-0.407-92.018-1.152v-77.801h155.066V1585.004z"/>
						<path style="fill:#EAB054;" d="M2115.819,1584.092c-92.58-2.735-157.42-9.064-157.42-16.436v-61.076h157.42V1584.092z"/>
					</g>
					<path style="fill:#E59F39;" d="M1958.399,1505.932c0,9.873,116.338,17.877,259.849,17.877s259.85-8.004,259.85-17.877
						c0-9.874-116.339-17.878-259.85-17.878S1958.399,1496.058,1958.399,1505.932z"/>
					<path style="fill:#F7CC7F;" d="M2004.268,1505.932c0,6.846,95.803,12.394,213.98,12.394c118.179,0,213.98-5.549,213.98-12.394
						s-95.802-12.396-213.98-12.396C2100.07,1493.535,2004.268,1499.086,2004.268,1505.932z"/>
				</g>
				<g>
					<path style="fill:#E59F39;" d="M2535.927,1441.949v61.076c0,9.874-116.338,17.879-259.849,17.879s-259.85-8.005-259.85-17.879
						v-61.076H2535.927z"/>
					<g>
						<path style="fill:#EAB054;" d="M2347.879,1520.213v-78.264h188.048v61.076
							C2535.927,1511.186,2456.468,1518.068,2347.879,1520.213z"/>
						<path style="fill:#EAB054;" d="M2339.127,1520.374c-20.186,0.346-41.306,0.53-63.049,0.53
							c-32.399,0-63.414-0.408-92.018-1.154v-77.801h155.066V1520.374z"/>
						<path style="fill:#EAB054;" d="M2173.648,1519.461c-92.579-2.734-157.42-9.065-157.42-16.436v-61.076h157.42V1519.461z"/>
					</g>
					<path style="fill:#E59F39;" d="M2016.229,1441.301c0,9.874,116.339,17.879,259.85,17.879s259.849-8.005,259.849-17.879
						c0-9.873-116.338-17.878-259.849-17.878S2016.229,1431.428,2016.229,1441.301z"/>
					<ellipse style="fill:#F7CC7F;" cx="2276.078" cy="1441.301" rx="213.98" ry="12.396"/>
				</g>
				<g>
					<path style="fill:#E59F39;" d="M2518.748,1375.601v61.076c0,9.873-116.339,17.878-259.85,17.878s-259.849-8.005-259.849-17.878
						v-61.076H2518.748z"/>
					<g>
						<path style="fill:#EAB054;" d="M2330.699,1453.864v-78.263h188.049v61.076
							C2518.748,1444.838,2439.288,1451.721,2330.699,1453.864z"/>
						<path style="fill:#EAB054;" d="M2321.947,1454.025c-20.186,0.346-41.305,0.53-63.049,0.53
							c-32.399,0-63.414-0.408-92.018-1.153v-77.801h155.066V1454.025z"/>
						<path style="fill:#EAB054;" d="M2156.47,1453.113c-92.58-2.736-157.42-9.064-157.42-16.435v-61.076h157.42V1453.113z"/>
					</g>
					<path style="fill:#E59F39;" d="M1999.05,1374.953c0,9.873,116.338,17.877,259.849,17.877s259.85-8.004,259.85-17.877
						c0-9.875-116.339-17.878-259.85-17.878S1999.05,1365.078,1999.05,1374.953z"/>
					<path style="fill:#F7CC7F;" d="M2044.918,1374.953c0,6.846,95.803,12.395,213.981,12.395s213.98-5.549,213.98-12.395
						c0-6.847-95.803-12.396-213.98-12.396S2044.918,1368.106,2044.918,1374.953z"/>
				</g>
				<g>
					<path style="fill:#E59F39;" d="M2590.386,1310.162v61.076c0,9.875-116.338,17.879-259.849,17.879s-259.85-8.004-259.85-17.879
						v-61.076H2590.386z"/>
					<g>
						<path style="fill:#EAB054;" d="M2402.338,1388.426v-78.264h188.048v61.076
							C2590.386,1379.398,2510.926,1386.281,2402.338,1388.426z"/>
						<path style="fill:#EAB054;" d="M2393.586,1388.587c-20.187,0.347-41.306,0.53-63.049,0.53
							c-32.399,0-63.414-0.408-92.018-1.154v-77.801h155.066V1388.587z"/>
						<path style="fill:#EAB054;" d="M2228.107,1387.674c-92.579-2.734-157.42-9.063-157.42-16.436v-61.076h157.42V1387.674z"/>
					</g>
					<path style="fill:#E59F39;" d="M2070.688,1309.514c0,9.874,116.339,17.879,259.85,17.879s259.849-8.005,259.849-17.879
						c0-9.873-116.338-17.877-259.849-17.877S2070.688,1299.641,2070.688,1309.514z"/>
					<path style="fill:#F7CC7F;" d="M2116.557,1309.514c0,6.846,95.803,12.397,213.98,12.397s213.98-5.551,213.98-12.397
						s-95.803-12.394-213.98-12.394S2116.557,1302.668,2116.557,1309.514z"/>
				</g>
			</g>
		</g>
		<g>
			<rect x="1074.476" y="754.78" style="fill:#3C8F7C;" width="1001.044" height="907.211"/>
			<g>
				<g>
					
						<rect x="983.044" y="809.592" transform="matrix(-1 -1.224647e-16 1.224647e-16 -1 2093.3687 2453.0879)" style="fill:#96D9C9;" width="127.281" height="833.904"/>
					<g>
						<path style="fill:#50BFA5;" d="M1047.629,1573.58h-1.89c-4.15,0-7.514-3.364-7.514-7.514V865.411
							c0-4.149,3.364-7.513,7.514-7.513h1.89c4.149,0,7.513,3.364,7.513,7.513v700.656
							C1055.143,1570.216,1051.779,1573.58,1047.629,1573.58z"/>
						<path style="fill:#50BFA5;" d="M1011.378,1573.58h-1.89c-4.149,0-7.514-3.364-7.514-7.514V865.411
							c0-4.149,3.364-7.513,7.514-7.513h1.89c4.149,0,7.514,3.364,7.514,7.513v700.656
							C1018.892,1570.216,1015.528,1573.58,1011.378,1573.58z"/>
						<path style="fill:#50BFA5;" d="M1083.88,1573.58h-1.891c-4.149,0-7.513-3.364-7.513-7.514V865.411
							c0-4.149,3.364-7.513,7.513-7.513h1.891c4.15,0,7.513,3.364,7.513,7.513v700.656
							C1091.393,1570.216,1088.03,1573.58,1083.88,1573.58z"/>
					</g>
				</g>
				<g>
					
						<rect x="1501.691" y="809.592" transform="matrix(-1 -1.224647e-16 1.224647e-16 -1 3130.6631 2453.0879)" style="fill:#96D9C9;" width="127.28" height="833.904"/>
					<g>
						<path style="fill:#50BFA5;" d="M1566.276,1573.58h-1.89c-4.149,0-7.514-3.364-7.514-7.514V865.411
							c0-4.149,3.364-7.513,7.514-7.513h1.89c4.15,0,7.514,3.364,7.514,7.513v700.656
							C1573.79,1570.216,1570.427,1573.58,1566.276,1573.58z"/>
						<path style="fill:#50BFA5;" d="M1530.025,1573.58h-1.89c-4.149,0-7.514-3.364-7.514-7.514V865.411
							c0-4.149,3.364-7.513,7.514-7.513h1.89c4.15,0,7.514,3.364,7.514,7.513v700.656
							C1537.539,1570.216,1534.176,1573.58,1530.025,1573.58z"/>
						<path style="fill:#50BFA5;" d="M1602.527,1573.58h-1.89c-4.149,0-7.514-3.364-7.514-7.514V865.411
							c0-4.149,3.364-7.513,7.514-7.513h1.89c4.149,0,7.514,3.364,7.514,7.513v700.656
							C1610.041,1570.216,1606.677,1573.58,1602.527,1573.58z"/>
					</g>
				</g>
				<g>
					
						<rect x="2020.339" y="809.592" transform="matrix(-1 -1.224647e-16 1.224647e-16 -1 4167.958 2453.0879)" style="fill:#96D9C9;" width="127.28" height="833.904"/>
					<g>
						<path style="fill:#50BFA5;" d="M2084.924,1573.58h-1.89c-4.149,0-7.514-3.364-7.514-7.514V865.411
							c0-4.149,3.364-7.513,7.514-7.513h1.89c4.15,0,7.514,3.364,7.514,7.513v700.656
							C2092.438,1570.216,2089.074,1573.58,2084.924,1573.58z"/>
						<path style="fill:#50BFA5;" d="M2048.674,1573.58h-1.891c-4.149,0-7.514-3.364-7.514-7.514V865.411
							c0-4.149,3.364-7.513,7.514-7.513h1.891c4.148,0,7.513,3.364,7.513,7.513v700.656
							C2056.187,1570.216,2052.822,1573.58,2048.674,1573.58z"/>
						<path style="fill:#50BFA5;" d="M2121.175,1573.58h-1.89c-4.15,0-7.514-3.364-7.514-7.514V865.411
							c0-4.149,3.363-7.513,7.514-7.513h1.89c4.149,0,7.514,3.364,7.514,7.513v700.656
							C2128.688,1570.216,2125.324,1573.58,2121.175,1573.58z"/>
					</g>
				</g>
				<path style="fill:#96D9C9;" d="M1619.357,857.897h-108.052c-26.678,0-48.305-21.627-48.305-48.306l0,0h204.663l0,0
					C1667.663,836.271,1646.036,857.897,1619.357,857.897z"/>
				<path style="fill:#96D9C9;" d="M2138.005,857.897h-108.052c-26.678,0-48.306-21.627-48.306-48.306l0,0h204.663l0,0
					C2186.311,836.271,2164.684,857.897,2138.005,857.897z"/>
				<path style="fill:#96D9C9;" d="M1100.71,857.897H992.658c-26.678,0-48.305-21.627-48.305-48.306l0,0h204.663l0,0
					C1149.016,836.271,1127.388,857.897,1100.71,857.897z"/>
				<path style="fill:#96D9C9;" d="M1700.714,1643.496h-270.765l0,0c0-38.613,31.303-69.916,69.916-69.916h130.932
					C1669.411,1573.58,1700.714,1604.883,1700.714,1643.496L1700.714,1643.496z"/>
				<path style="fill:#96D9C9;" d="M2219.361,1643.496h-270.765l0,0c0-38.613,31.303-69.916,69.916-69.916h130.933
					C2188.059,1573.58,2219.361,1604.883,2219.361,1643.496L2219.361,1643.496z"/>
				<path style="fill:#96D9C9;" d="M1182.066,1643.496H911.302l0,0c0-38.613,31.302-69.916,69.916-69.916h130.933
					C1150.764,1573.58,1182.066,1604.883,1182.066,1643.496L1182.066,1643.496z"/>
				<rect x="871.259" y="1640.635" style="fill:#50BFA5;" width="1388.145" height="88.984"/>
				<rect x="805.986" y="1729.619" style="fill:#96D9C9;" width="1518.692" height="110.49"/>
				<rect x="887.71" y="697.824" style="fill:#50BFA5;" width="1355.243" height="113.914"/>
				<polygon style="fill:#96D9C9;" points="2301.989,697.824 828.674,697.824 828.674,697.824 1565.332,382.471 2301.989,697.824 
									"/>
				
					<ellipse transform="matrix(0.998 -0.0626 0.0626 0.998 -31.9046 99.1221)" style="fill:#3C8F7C;" cx="1565.332" cy="558.531" rx="62.027" ry="62.027"/>
			</g>
		</g>
	</g>
	<path style="fill:#184655;" d="M2710.214,1817.805H170.245c-3.176,0-5.75,6.609-5.75,14.766l0,0c0,8.153,2.574,14.766,5.75,14.766
		h2539.969c3.175,0,5.749-6.612,5.749-14.766l0,0C2715.963,1824.414,2713.389,1817.805,2710.214,1817.805z"/>
	<g>
		<path style="fill:#E59F39;" d="M1303.608,1749.91v64.508c0,10.429-116.338,18.883-259.849,18.883s-259.849-8.454-259.849-18.883
			v-64.508H1303.608z"/>
		<g>
			<path style="fill:#EAB054;" d="M1115.559,1832.57v-82.66h188.048v64.508C1303.608,1823.037,1224.148,1830.307,1115.559,1832.57z"
				/>
			<path style="fill:#EAB054;" d="M1106.808,1832.741c-20.186,0.365-41.305,0.559-63.049,0.559c-32.399,0-63.414-0.432-92.018-1.219
				v-82.172h155.066V1832.741z"/>
			<path style="fill:#EAB054;" d="M941.33,1831.777c-92.58-2.889-157.42-9.574-157.42-17.359v-64.508h157.42V1831.777z"/>
		</g>
		<path style="fill:#E59F39;" d="M783.91,1749.226c0,10.428,116.338,18.881,259.849,18.881s259.849-8.453,259.849-18.881
			c0-10.43-116.338-18.883-259.849-18.883S783.91,1738.797,783.91,1749.226z"/>
		<path style="fill:#F7CC7F;" d="M829.778,1749.226c0,7.229,95.803,13.091,213.98,13.091c118.178,0,213.98-5.862,213.98-13.091
			c0-7.23-95.802-13.093-213.98-13.093C925.581,1736.134,829.778,1741.996,829.778,1749.226z"/>
	</g>
	<g>
		<path style="fill:#E59F39;" d="M1348.066,1681.65v64.506c0,10.43-116.338,18.883-259.849,18.883s-259.85-8.453-259.85-18.883
			v-64.506H1348.066z"/>
		<g>
			<path style="fill:#EAB054;" d="M1160.018,1764.309v-82.659h188.048v64.506
				C1348.066,1754.775,1268.606,1762.045,1160.018,1764.309z"/>
			<path style="fill:#EAB054;" d="M1151.265,1764.48c-20.186,0.365-41.305,0.559-63.048,0.559c-32.4,0-63.414-0.43-92.018-1.218
				v-82.171h155.066V1764.48z"/>
			<path style="fill:#EAB054;" d="M985.788,1763.516c-92.58-2.889-157.42-9.572-157.42-17.359v-64.506h157.42V1763.516z"/>
		</g>
		<path style="fill:#E59F39;" d="M828.367,1680.965c0,10.428,116.339,18.882,259.85,18.882s259.849-8.454,259.849-18.882
			c0-10.429-116.338-18.883-259.849-18.883S828.367,1670.536,828.367,1680.965z"/>
		<ellipse style="fill:#F7CC7F;" cx="1088.217" cy="1680.965" rx="213.98" ry="13.092"/>
	</g>
	<g>
		<path style="fill:#E59F39;" d="M1318.445,1611.574v64.507c0,10.429-116.338,18.882-259.849,18.882
			c-143.511,0-259.85-8.453-259.85-18.882v-64.507H1318.445z"/>
		<g>
			<path style="fill:#EAB054;" d="M1130.397,1694.234v-82.66h188.048v64.507C1318.445,1684.699,1238.985,1691.969,1130.397,1694.234
				z"/>
			<path style="fill:#EAB054;" d="M1121.645,1694.404c-20.186,0.365-41.305,0.559-63.048,0.559c-32.4,0-63.414-0.43-92.018-1.217
				v-82.172h155.066V1694.404z"/>
			<path style="fill:#EAB054;" d="M956.167,1693.439c-92.58-2.889-157.42-9.572-157.42-17.358v-64.507h157.42V1693.439z"/>
		</g>
		<path style="fill:#E59F39;" d="M798.747,1610.889c0,10.428,116.338,18.883,259.85,18.883c143.511,0,259.849-8.455,259.849-18.883
			c0-10.428-116.338-18.882-259.849-18.882C915.085,1592.007,798.747,1600.461,798.747,1610.889z"/>
		<ellipse style="fill:#F7CC7F;" cx="1058.596" cy="1610.889" rx="213.98" ry="13.092"/>
	</g>
	<g>
		<path style="fill:#E59F39;" d="M1348.066,1542.459v64.507c0,10.429-116.338,18.883-259.849,18.883s-259.85-8.454-259.85-18.883
			v-64.507H1348.066z"/>
		<g>
			<path style="fill:#EAB054;" d="M1160.018,1625.119v-82.66h188.048v64.507C1348.066,1615.584,1268.606,1622.854,1160.018,1625.119
				z"/>
			<path style="fill:#EAB054;" d="M1151.265,1625.289c-20.186,0.365-41.305,0.56-63.048,0.56c-32.4,0-63.414-0.431-92.018-1.218
				v-82.172h155.066V1625.289z"/>
			<path style="fill:#EAB054;" d="M985.788,1624.325c-92.58-2.89-157.42-9.573-157.42-17.359v-64.507h157.42V1624.325z"/>
		</g>
		<path style="fill:#E59F39;" d="M828.367,1541.773c0,10.429,116.339,18.883,259.85,18.883s259.849-8.454,259.849-18.883
			c0-10.428-116.338-18.882-259.849-18.882S828.367,1531.346,828.367,1541.773z"/>
		<ellipse style="fill:#F7CC7F;" cx="1088.217" cy="1541.773" rx="213.98" ry="13.092"/>
	</g>
	<g>
		<g>
			
				<rect x="530.131" y="1667.62" transform="matrix(-1 -1.224647e-16 1.224647e-16 -1 1515.4814 3500.9209)" style="fill:#50BFA5;" width="455.22" height="165.681"/>
			<g>
				
					<rect x="530.131" y="1691.766" transform="matrix(-1 -1.224647e-16 1.224647e-16 -1 1515.4814 3404.8438)" style="fill:#96D9C9;" width="455.22" height="21.313"/>
				
					<rect x="530.131" y="1733.398" transform="matrix(-1 -1.224647e-16 1.224647e-16 -1 1515.4814 3488.1104)" style="fill:#96D9C9;" width="455.22" height="21.313"/>
				
					<rect x="530.131" y="1775.031" transform="matrix(-1 -1.224647e-16 1.224647e-16 -1 1515.4814 3571.376)" style="fill:#96D9C9;" width="455.22" height="21.313"/>
				
					<rect x="530.131" y="1811.987" transform="matrix(-1 -1.224647e-16 1.224647e-16 -1 1515.4814 3645.2881)" style="fill:#96D9C9;" width="455.22" height="21.313"/>
				
					<rect x="699.591" y="1667.62" transform="matrix(-1 -1.224647e-16 1.224647e-16 -1 1493.8579 3500.9209)" style="fill:#F7CC7F;" width="94.675" height="165.681"/>
			</g>
			
				<rect x="979.826" y="1667.62" transform="matrix(-1 -1.224647e-16 1.224647e-16 -1 2028.3993 3500.9209)" style="fill:#3C8F7C;" width="68.747" height="165.681"/>
		</g>
		<g>
			<path style="fill:#F8A492;" d="M914.194,1188.795c-17.83,2.891-16.777,5.803-19.07,6.11c-2.712,0.363-34.896-15.8-34.896-15.8
				s-95.184-46.978-100.23-49.703l-68.704-86.438l-52.947,24.42c0,0,77.267,91.899,82.155,95.947
				c4.889,4.049,141.367,51.906,153.235,56.522c0,0,11.966,10.938,19.709,17.544c7.744,6.605,18.098,9.225,20.57,10.73
				c0.365,0.221,8.905,4.73,20.973,7.355c10.4,2.262,1.734-4.803,1.734-4.803s-18.4-7.768-17.495-9.171
				c0.698-1.083,10.479,3.776,21.956,6.403c2.951,0.675,5.867,1.33,8.55,1.91c7.044,1.522,10.139-2.509,3.061-5.315
				c-2.5-0.991-6.694-2.532-9.854-3.19c-3.413-0.713-6.28-2.504-9.042-3.556c-5.483-2.087-9.51-3.537-9.294-3.726
				c0.281-0.244-0.491-1.456,2.667-0.84c3.797,0.74,11.454,4.157,17.137,4.801c3.222,0.363,9.895,1.549,9.895,1.549
				s11.808,1.129,11.889-0.527c0.177-3.617-7.094-5.639-11.559-5.545c-2.815-1.435-9.877-2.475-9.877-2.475
				s-13.696-5.406-12.9-7.434c0.316-0.809,8.609,0.437,17.406,1.038c9.301,0.638,16.039,0.635,16.535-1.165
				c0.788-2.858-6.615-3.941-6.615-3.941s-6.527-0.951-8.664-1.438c-2.506-0.572-9.86-2.875-9.86-2.875s-25.19-9.254-24.28-11.113
				c0.909-1.859,5.069-5.751,6.846-5.74c1.775,0.01,4.953,1.781,6.73,1.793c1.775,0.01,5.597-0.334,5.863-2.568
				c0.266-2.234-9.598-6.863-9.598-6.863S919.34,1187.962,914.194,1188.795z"/>
			<path style="fill:#355389;" d="M739.104,1096.5c0,0-17.14,15.571-24.27,20.697c-5.926,4.262-34.808,18.172-34.808,18.172
				s-28.734-43.998-41.298-66.063c-15.242-26.769-25.796-66.577-22.194-67.656c10.112-3.028,24.024-4.881,36.873,1.017
				C697.864,1023.072,739.104,1096.5,739.104,1096.5z"/>
			<path style="fill:#FE875E;" d="M897.544,1211.789c7.628,1.204,15.427-0.245,18.807-7.228
				C917.112,1212.844,904.56,1216.952,897.544,1211.789z"/>
		</g>
		<path style="fill:#F7A491;" d="M457.767,1770.9c0,0-1.901,33.687-1.912,33.756c-0.699,4.277-3.452,14.844-3.452,18.731
			c0,14.606,64.802-12.4,50.279-18.872c-1.315-0.586-8.201-5.018-8.633-9.988c-0.667-7.66-2.356-23.154-2.356-23.154L457.767,1770.9
			z"/>
		<path style="fill:#F7CC7F;" d="M503.303,1804.66c0,0-15.213,4.469-23.006,5.585c-7.792,1.117-18.065-8.288-23.577-5.747
			c-6.066,2.796-5.829,27.967-5.829,27.967s81.587,7.164,104.528-0.248C564.509,1829.28,534.406,1815.066,503.303,1804.66z"/>
		<path style="fill:#F7A491;" d="M349.853,1769.154c0,0-1.901,33.687-1.912,33.756c-0.699,4.276-3.451,14.844-3.451,18.731
			c0,14.606,64.801-12.4,50.278-18.872c-1.314-0.586-10.243-8.325-10.675-13.296c-0.666-7.659-0.314-19.847-0.314-19.847
			L349.853,1769.154z"/>
		<path style="fill:#F7CC7F;" d="M394.607,1802.631c0,0-15.213,4.469-23.005,5.585c-7.792,1.117-18.065-8.288-23.577-5.747
			c-6.066,2.795-6.309,27.965-6.309,27.965s81.006,3.328,105.008-0.246C456.17,1828.781,425.711,1813.038,394.607,1802.631z"/>
		<path style="fill:#355389;" d="M369.074,1234.111c0,0-10.982,56.824-6.507,99.912c4.475,43.087,4.827,196.146,4.827,196.146
			l-20.644,244.813l44.088,1.027c0,0,48.051-244.777,47.156-238.494c-0.895,6.284,16.111-172.348,16.111-172.348l-57.285-136.443
			L369.074,1234.111z"/>
		<path style="fill:#466EB6;" d="M384.438,1197.412c0,0-49.75,52.403-31.245,109.642c7.433,22.992,76.772,242.631,77.666,260.583
			c0.896,17.953,23.449,216.388,23.449,216.388l47.119-1.418l10.193-220.62l-13.467-297.258l-28.601-50.132L384.438,1197.412z"/>
		<path style="fill:#F47458;" d="M686.493,1026.85c-16.289-18.177-51.751-44.041-51.751-44.041s-21.123-18.043-29.735-21.013
			c-12.674-4.369-34.383-16.027-65.785,31.562c-22.47,34.055-164.262,210.389-187.537,216.325l151.996,72.717
			c4.161-34.733,79.287-100.344,90.097-112.586C617.94,1142.449,701.916,1044.059,686.493,1026.85z"/>
		<path style="fill:#F7A491;" d="M679.406,952.969l-47.348,27.72c0,0-1.333,40.415,14.146,50.913
			c12.987,8.809,22.872-12.332,22.872-12.332s17.607-24.398,30.98-31.998C713.43,979.671,679.406,952.969,679.406,952.969z"/>
		<path style="fill:#F47458;" d="M671.461,970.758c1.781,8.431,5.904,20.623,12.289,30.664c5.216-5.643,11.079-11.18,16.306-14.15
			c6.172-3.508,2.244-11.082-3.771-18.224c-8.496-8.845-16.879-16.079-16.879-16.079l-9.1,5.327
			C669.72,961.747,670.868,967.95,671.461,970.758z"/>
		<path style="fill:#F7A491;" d="M704.067,883.501c-0.795-0.984-39.716,47.464-34.917,70.19c4.8,22.725,28.328,43.463,44.682,37.761
			c18.088-6.307,51.722-63.344,39.659-91.037C741.428,872.722,704.067,883.501,704.067,883.501z"/>
		<path style="fill:#F7CC7F;" d="M746.684,868.22c-16.966-9.439-44.644-12.147-65.322-1.32
			c-25.426,13.313-31.218,46.807-23.258,67.237c7.96,20.431-1.155,31.979-1.155,31.979l13.488-7.877c0,0,7.876-12.296,8.906-22.097
			c1.029-9.8,15.327-8.065,22.306-12.51c5.374-3.422,12.233-14.544,20.928-20.315c0,0,21.894-2.687,32.661,3.356
			C773.594,916.973,770.986,881.739,746.684,868.22z"/>
		<path style="fill:#F7A491;" d="M690.71,931.798c0.125,7.269-3.31,13.219-7.673,13.291c-4.363,0.071-8.003-5.763-8.128-13.031
			c-0.126-7.269,3.31-13.219,7.673-13.29C686.945,918.695,690.584,924.529,690.71,931.798z"/>
		<path style="fill:#FFFFFF;" d="M730.574,970.377l-20.605-15.408c0,0-5.448,8.325,3.416,15.368
			C724.191,978.924,730.574,970.377,730.574,970.377z"/>
		<g>
			
				<ellipse transform="matrix(0.9843 -0.1763 0.1763 0.9843 -208.4209 184.3171)" style="fill:#E59F39;" cx="932.911" cy="1264.908" rx="218.642" ry="220.421"/>
			
				<ellipse transform="matrix(0.9843 -0.1763 0.1763 0.9843 -208.428 184.3246)" style="fill:#F7CC7F;" cx="932.911" cy="1264.908" rx="188.988" ry="190.525"/>
			<g>
				<path style="fill:#E59F39;" d="M939.263,1409.923l-6.332-34.882c-15.887,2.154-31.885,1.992-45.385,0.141
					c-11.268-1.545-19.398-11.575-18.586-22.921l0.098-1.368c0.895-12.5,12.226-21.682,24.619-19.809
					c12.628,1.909,26.704,2.241,41.072-0.366c20.929-3.799,33.783-14.477,31.118-29.162c-2.532-13.952-15.882-20.632-44.719-24.881
					c-41.685-6.087-71.821-19.58-78.285-55.196c-5.865-32.311,12.302-61.776,50.188-76.618l-6.331-34.881l35.984-6.53l5.864,32.311
					c13.46-1.825,24.756-2.028,34.38-1.247c11.759,0.957,20.515,11.278,19.67,23.046v0.001
					c-0.874,12.167-11.653,21.214-23.782,19.909c-9.093-0.977-20.127-1.071-33.086,1.28c-23.866,4.332-29.709,16.012-27.843,26.292
					c2.199,12.116,16.448,17.495,49.791,23.579c46.491,7.492,67.78,24.488,73.778,57.531c5.931,32.68-12.136,64.783-53.027,79.789
					l6.798,37.452L939.263,1409.923z"/>
			</g>
			<path style="opacity:0.3;fill:#F7CC7F;" d="M905.429,1076.377c-57.965,8.418-105.893,42.525-134.115,89.238
				c28.829-36.21,70.82-61.908,120.063-69.061c103.292-15.001,199.332,57.246,214.51,161.369
				c6.661,45.691-3.36,89.928-25.43,126.455c31.642-39.742,47.424-92.149,39.482-146.633
				C1104.76,1133.623,1008.721,1061.375,905.429,1076.377z"/>
		</g>
		<path style="fill:#F8A492;" d="M782.327,1276.876c-5.162-7.538-7.413-18.422-14.549-26.723c-2.397-2.789-6.21-5.931-10.556-9.062
			c-34.332-20.086-123.761-71.863-127.242-75.883c-4.125-4.762-65.165-106.175-65.165-106.175l54.822-12.421l53.573,94.602
			c4.474,3.551,89.516,66.402,89.516,66.402s16.909,13.215,26.153,19.396c4.671,2.726,9.2,4.49,13.164,5.869
			c4.988,1.734,14.497,6.472,16.418,8.163c2.233,1.966,6.704,6.169,9.361,8.733c2.657,2.564,5.88,5.463,7.124,6.989
			c0.757,0.929,3.108,2.21,4.833,3.071c2.569,1.282,2.236,5.086-0.527,5.867c-2.603,0.736-6.12-0.896-8.301-1.92
			c-6.155-2.895-13.677-10.705-14.075-9.75c-0.399,0.955,7.239,17.691,7.988,19.662c0.75,1.969,9.521,21.471,9.97,25.818
			c0.45,4.349-2.169,5.352-4.118,3.762c-1.677-1.367-15.782-27.408-15.782-27.408s-1.806-3.317-2.508-1.419
			c-0.701,1.897,12.058,25.565,13.304,29.45c1.246,3.886,0.254,7.07-3.337,5.709c-4.368-1.656-16.433-27.76-16.433-27.76
			s-1.569-3.246-2.643-2.115c-1.072,1.13,10.12,21.086,10.245,23.385c0.125,2.299-1.951,4.566-4.97,2.646
			c-3.556-2.263-14.127-25.659-14.127-25.659s-1.305-1.548-1.715-0.459c-0.41,1.087,7.918,18.782,7.296,21.367
			c-0.522,2.173-2.475,1.737-2.475,1.737C793.213,1302.74,787.489,1284.414,782.327,1276.876z"/>
		<path style="fill:#355389;" d="M579.827,1112.603c0,0,17.854-5.68,29.305-10.923c7.669-3.512,41.123-20.158,41.123-20.158
			s-14.423-60.841-24.172-82.717c-35.782-80.283-76.446-24.915-81.963-12.01C531.78,1015.664,579.827,1112.603,579.827,1112.603z"/>
	</g>
	<g>
		<polygon style="fill:#50BFA5;" points="2296.282,711.153 1565.331,398.244 834.381,711.153 822.968,684.494 1565.331,366.698 
			2307.695,684.494 		"/>
	</g>
</g>
</svg>
