<?xml version="1.0" encoding="utf-8"?>
<!-- Generator: Adobe Illustrator 27.5.0, SVG Export Plug-In . SVG Version: 6.00 Build 0)  -->
<svg version="1.1" xmlns="http://www.w3.org/2000/svg" xmlns:xlink="http://www.w3.org/1999/xlink" x="0px" y="0px"
	 viewBox="0 0 750 500" style="enable-background:new 0 0 750 500;" xml:space="preserve">
<g id="Background">
	<rect style="fill:#FFFFFF;" width="750" height="500"/>
	<rect style="fill:#FFFFFF;" width="750" height="500"/>
</g>
<g id="Design">
	<g>
		<path style="fill:#D9EEF7;" d="M175.018,81.572c0.1-0.426,0.168-0.858,0.168-1.302c0-4.816-6.104-8.721-13.633-8.721
			c-3.004,0-5.771,0.629-8.024,1.682c-2.188-8.238-9.676-14.317-18.602-14.317c-0.333,0-0.657,0.033-0.986,0.05
			c-4.343-7.639-12.54-12.801-21.955-12.801c-11.44,0-21.091,7.611-24.197,18.042c-0.351-0.026-0.702-0.053-1.059-0.053
			c-5.72,0-10.631,3.427-12.816,8.336c-1.844-0.595-3.921-0.938-6.127-0.938c-7.529,0-13.632,3.904-13.632,8.721
			c0,0.444,0.069,0.876,0.168,1.302H175.018z"/>
		<path style="fill:#D9EEF7;" d="M238.029,135.89c0.076-0.325,0.128-0.655,0.128-0.993c0-3.674-4.656-6.652-10.399-6.652
			c-2.291,0-4.402,0.48-6.121,1.283c-1.669-6.284-7.38-10.92-14.189-10.92c-0.254,0-0.501,0.025-0.752,0.038
			c-3.313-5.826-9.565-9.764-16.747-9.764c-8.726,0-16.088,5.805-18.457,13.762c-0.268-0.02-0.535-0.041-0.808-0.041
			c-4.363,0-8.109,2.614-9.776,6.358c-1.406-0.454-2.991-0.716-4.674-0.716c-5.743,0-10.399,2.978-10.399,6.652
			c0,0.338,0.052,0.668,0.128,0.993H238.029z"/>
		<path style="fill:#D9EEF7;" d="M688.844,65.777c0.111-0.472,0.187-0.951,0.187-1.442c0-5.336-6.762-9.661-15.103-9.661
			c-3.328,0-6.394,0.697-8.89,1.863c-2.425-9.126-10.719-15.861-20.609-15.861c-0.369,0-0.728,0.037-1.092,0.055
			c-4.812-8.462-13.892-14.182-24.323-14.182c-12.674,0-23.366,8.432-26.807,19.988c-0.389-0.029-0.777-0.059-1.174-0.059
			c-6.336,0-11.778,3.797-14.198,9.235c-2.043-0.66-4.344-1.039-6.788-1.039c-8.341,0-15.103,4.326-15.103,9.661
			c0,0.491,0.076,0.97,0.187,1.442H688.844z"/>
		<g>
			<path style="fill:#D9EEF7;" d="M62.375,460.126c0.14-65.538,115.945-156.242,163.846-166.419
				c3.951-0.84,8.197-1.516,11.228-5.044c2.541-2.957,3.773-7.408,5.084-11.579c16.112-51.287,60.525-83.152,100.982-72.45
				c23.542-58.821,78.949-90.489,126.572-72.344c4.331,1.65,8.831,3.68,13.235,2.43c3.599-1.022,6.65-4.112,9.66-6.967
				c37.113-35.198,87.138-44.063,129.71-22.986c8.485,4.201,16.806,9.55,25.777,11.021c4.638,0.76,9.35,0.46,13.978,1.329
				c11.761,2.209,21.975,11.686,31.699,20.895v322.115H150.355H62.375z"/>
		</g>
		<ellipse style="fill:#9BD1E8;" cx="302.97" cy="462.187" rx="67.227" ry="10.524"/>
		<g>
			<rect x="47.677" y="315.038" style="fill:#CDDBE3;" width="29.395" height="145.088"/>
		</g>
		<g>
			<path style="fill:#FFFFFF;" d="M196.837,460.126c1.451-3.16,2.24-6.52,2.24-10.008c0-18.408-21.799-33.331-48.688-33.331
				c-3.626,0-7.148,0.292-10.548,0.807c-2.429-7.602-10.886-13.222-20.978-13.222c-9.926,0-18.277,5.436-20.86,12.848
				c-4.583-2.373-9.774-3.736-15.292-3.736c-18.408,0-33.33,14.923-33.33,33.331c0,4.735,1.001,9.232,2.781,13.311H196.837z"/>
		</g>
		<g>
			<rect x="633.329" y="257.28" style="fill:#BCDBE8;" width="60.857" height="202.564"/>
		</g>
		<g>
			<rect x="348.194" y="209.036" style="fill:#CDDBE3;" width="48.293" height="250.808"/>
		</g>
		<g>
			<rect x="642.666" y="80.883" style="fill:#9BD1E8;" width="33.847" height="175.779"/>
		</g>
		<g>
			<rect x="446.752" y="230.214" style="fill:#CDDBE3;" width="8.945" height="184.011"/>
		</g>
		<g>
			<g>
				<path style="fill:#D9AB53;" d="M625.059,457.902h54.815c12.527-8.695,20.745-23.163,20.745-39.567
					c0-26.594-21.559-48.153-48.153-48.153c-26.594,0-48.153,21.559-48.153,48.153C604.313,434.739,612.532,449.207,625.059,457.902
					z"/>
			</g>
			<g>
				<path style="fill:#D9AB53;" d="M369.628,457.902h60.356c1.087-1.078,2.119-2.212,3.086-3.401c1.076,1.19,2.22,2.317,3.403,3.401
					h112.604c3.37-4.74,5.371-10.52,5.371-16.779c0-16.025-12.991-29.015-29.015-29.015c-1.764,0-3.483,0.183-5.161,0.485
					c-3.877-24.035-24.659-42.41-49.788-42.41c-18.332,0-34.334,9.802-43.18,24.418c-7.443-6.231-17.025-9.993-27.492-9.993
					c-23.675,0-42.867,19.192-42.867,42.867C356.946,439.374,361.8,450.135,369.628,457.902z"/>
			</g>
		</g>
		<g>
			<g>
				<rect x="530.102" y="106.472" style="fill:#8F8F8F;" width="80.544" height="352.161"/>
			</g>
			<g>
				<rect x="610.646" y="237.058" style="fill:#808080;" width="22.683" height="221.574"/>
			</g>
			<g>
				<rect x="525.433" y="81.878" style="fill:#C2C2C2;" width="9.337" height="376.755"/>
			</g>
			<g>
				<rect x="557.583" y="81.878" style="fill:#C2C2C2;" width="9.337" height="376.755"/>
			</g>
			<g>
				<rect x="589.733" y="81.878" style="fill:#C2C2C2;" width="9.337" height="376.755"/>
			</g>
			<g>
				<rect x="633.329" y="81.878" style="fill:#8F8F8F;" width="9.337" height="376.755"/>
			</g>
			<g>
				<rect x="534.9" y="178.361" style="fill:#C2C2C2;" width="22.683" height="4.563"/>
			</g>
			<g>
				<rect x="566.92" y="178.361" style="fill:#C2C2C2;" width="22.683" height="4.563"/>
			</g>
			<g>
				<rect x="610.646" y="178.361" style="fill:#C2C2C2;" width="22.683" height="4.563"/>
			</g>
			<g>
				<rect x="534.9" y="182.924" style="fill:#696969;" width="22.683" height="4.563"/>
			</g>
			<g>
				<rect x="566.92" y="182.924" style="fill:#696969;" width="22.683" height="4.563"/>
			</g>
			<g>
				<rect x="610.646" y="182.924" style="fill:#696969;" width="22.683" height="4.563"/>
			</g>
			<g>
				<rect x="534.9" y="203.147" style="fill:#C2C2C2;" width="22.683" height="4.563"/>
			</g>
			<g>
				<rect x="566.92" y="203.147" style="fill:#C2C2C2;" width="22.683" height="4.563"/>
			</g>
			<g>
				<rect x="610.646" y="203.147" style="fill:#C2C2C2;" width="22.683" height="4.563"/>
			</g>
			<g>
				<rect x="534.9" y="207.71" style="fill:#696969;" width="22.683" height="4.563"/>
			</g>
			<g>
				<rect x="566.92" y="207.71" style="fill:#696969;" width="22.683" height="4.563"/>
			</g>
			<g>
				<rect x="610.646" y="207.71" style="fill:#696969;" width="22.683" height="4.563"/>
			</g>
			<g>
				<rect x="534.9" y="227.932" style="fill:#C2C2C2;" width="22.683" height="4.563"/>
			</g>
			<g>
				<rect x="566.92" y="227.932" style="fill:#C2C2C2;" width="22.683" height="4.563"/>
			</g>
			<g>
				<rect x="610.646" y="227.932" style="fill:#C2C2C2;" width="22.683" height="4.563"/>
			</g>
			<g>
				<rect x="534.9" y="232.495" style="fill:#696969;" width="22.683" height="4.563"/>
			</g>
			<g>
				<rect x="566.92" y="232.495" style="fill:#696969;" width="22.683" height="4.563"/>
			</g>
			<g>
				<rect x="610.646" y="232.495" style="fill:#696969;" width="22.683" height="4.563"/>
			</g>
			<g>
				<rect x="534.9" y="252.717" style="fill:#C2C2C2;" width="22.683" height="4.563"/>
			</g>
			<g>
				<rect x="566.92" y="252.717" style="fill:#C2C2C2;" width="22.683" height="4.563"/>
			</g>
			<g>
				<rect x="610.646" y="252.717" style="fill:#C2C2C2;" width="22.683" height="4.563"/>
			</g>
			<g>
				<rect x="534.9" y="257.28" style="fill:#696969;" width="22.683" height="4.563"/>
			</g>
			<g>
				<rect x="566.92" y="257.28" style="fill:#696969;" width="22.683" height="4.563"/>
			</g>
			<g>
				<rect x="610.646" y="257.28" style="fill:#696969;" width="22.683" height="4.563"/>
			</g>
			<g>
				<rect x="534.9" y="277.503" style="fill:#C2C2C2;" width="22.683" height="4.563"/>
			</g>
			<g>
				<rect x="566.92" y="277.503" style="fill:#C2C2C2;" width="22.683" height="4.563"/>
			</g>
			<g>
				<rect x="610.646" y="277.503" style="fill:#C2C2C2;" width="22.683" height="4.563"/>
			</g>
			<g>
				<rect x="534.9" y="282.066" style="fill:#696969;" width="22.683" height="4.563"/>
			</g>
			<g>
				<rect x="566.92" y="282.066" style="fill:#696969;" width="22.683" height="4.563"/>
			</g>
			<g>
				<rect x="610.646" y="282.066" style="fill:#696969;" width="22.683" height="4.563"/>
			</g>
			<g>
				<rect x="534.9" y="302.288" style="fill:#C2C2C2;" width="22.683" height="4.563"/>
			</g>
			<g>
				<rect x="566.92" y="302.288" style="fill:#C2C2C2;" width="22.683" height="4.563"/>
			</g>
			<g>
				<rect x="610.646" y="302.288" style="fill:#C2C2C2;" width="22.683" height="4.563"/>
			</g>
			<g>
				<rect x="534.9" y="306.851" style="fill:#696969;" width="22.683" height="4.563"/>
			</g>
			<g>
				<rect x="566.92" y="306.851" style="fill:#696969;" width="22.683" height="4.563"/>
			</g>
			<g>
				<rect x="610.646" y="306.851" style="fill:#696969;" width="22.683" height="4.563"/>
			</g>
			<g>
				<rect x="534.9" y="327.073" style="fill:#C2C2C2;" width="22.683" height="4.563"/>
			</g>
			<g>
				<rect x="566.92" y="327.073" style="fill:#C2C2C2;" width="22.683" height="4.563"/>
			</g>
			<g>
				<rect x="610.646" y="327.073" style="fill:#C2C2C2;" width="22.683" height="4.563"/>
			</g>
			<g>
				<rect x="534.9" y="331.636" style="fill:#696969;" width="22.683" height="4.563"/>
			</g>
			<g>
				<rect x="566.92" y="331.636" style="fill:#696969;" width="22.683" height="4.563"/>
			</g>
			<g>
				<rect x="610.646" y="331.636" style="fill:#696969;" width="22.683" height="4.563"/>
			</g>
			<g>
				<rect x="534.9" y="351.858" style="fill:#C2C2C2;" width="22.683" height="4.563"/>
			</g>
			<g>
				<rect x="566.92" y="351.858" style="fill:#C2C2C2;" width="22.683" height="4.563"/>
			</g>
			<g>
				<rect x="610.646" y="351.858" style="fill:#C2C2C2;" width="22.683" height="4.563"/>
			</g>
			<g>
				<rect x="534.9" y="356.422" style="fill:#696969;" width="22.683" height="4.563"/>
			</g>
			<g>
				<rect x="566.92" y="356.422" style="fill:#696969;" width="22.683" height="4.563"/>
			</g>
			<g>
				<rect x="610.646" y="356.422" style="fill:#696969;" width="22.683" height="4.563"/>
			</g>
			<g>
				<rect x="534.9" y="376.644" style="fill:#C2C2C2;" width="22.683" height="4.563"/>
			</g>
			<g>
				<rect x="566.92" y="376.644" style="fill:#C2C2C2;" width="22.683" height="4.563"/>
			</g>
			<g>
				<rect x="610.646" y="376.644" style="fill:#C2C2C2;" width="22.683" height="4.563"/>
			</g>
			<g>
				<rect x="534.9" y="381.207" style="fill:#696969;" width="22.683" height="4.563"/>
			</g>
			<g>
				<rect x="566.92" y="381.207" style="fill:#696969;" width="22.683" height="4.563"/>
			</g>
			<g>
				<rect x="610.646" y="381.207" style="fill:#696969;" width="22.683" height="4.563"/>
			</g>
			<g>
				<rect x="534.9" y="401.429" style="fill:#C2C2C2;" width="22.683" height="4.563"/>
			</g>
			<g>
				<rect x="566.92" y="401.429" style="fill:#C2C2C2;" width="22.683" height="4.563"/>
			</g>
			<g>
				<rect x="610.646" y="401.429" style="fill:#C2C2C2;" width="22.683" height="4.563"/>
			</g>
			<g>
				<rect x="534.9" y="405.992" style="fill:#696969;" width="22.683" height="4.563"/>
			</g>
			<g>
				<rect x="566.92" y="405.992" style="fill:#696969;" width="22.683" height="4.563"/>
			</g>
			<g>
				<rect x="610.646" y="405.992" style="fill:#696969;" width="22.683" height="4.563"/>
			</g>
			<g>
				<rect x="534.9" y="426.214" style="fill:#C2C2C2;" width="22.683" height="4.563"/>
			</g>
			<g>
				<rect x="566.92" y="426.214" style="fill:#C2C2C2;" width="22.683" height="4.563"/>
			</g>
			<g>
				<rect x="610.646" y="426.214" style="fill:#C2C2C2;" width="22.683" height="4.563"/>
			</g>
			<g>
				<rect x="534.9" y="430.778" style="fill:#696969;" width="22.683" height="4.563"/>
			</g>
			<g>
				<rect x="566.92" y="430.778" style="fill:#696969;" width="22.683" height="4.563"/>
			</g>
			<g>
				<rect x="610.646" y="430.778" style="fill:#696969;" width="22.683" height="4.563"/>
			</g>
			<g>
				<rect x="534.9" y="451" style="fill:#C2C2C2;" width="22.683" height="4.563"/>
			</g>
			<g>
				<rect x="566.92" y="451" style="fill:#C2C2C2;" width="22.683" height="4.563"/>
			</g>
			<g>
				<rect x="610.646" y="451" style="fill:#C2C2C2;" width="22.683" height="4.563"/>
			</g>
			<g>
				<rect x="534.9" y="455.563" style="fill:#696969;" width="22.683" height="4.563"/>
			</g>
			<g>
				<rect x="566.92" y="455.563" style="fill:#696969;" width="22.683" height="4.563"/>
			</g>
			<g>
				<rect x="610.646" y="455.563" style="fill:#696969;" width="22.683" height="4.563"/>
			</g>
			<g>
				<rect x="599.07" y="106.472" style="fill:#ADADAD;" width="11.575" height="352.161"/>
			</g>
		</g>
		<g>
			<rect x="459.023" y="173.619" style="fill:#ADADAD;" width="43.851" height="281.461"/>
		</g>
		<g>
			<g>
				<g>
					<path style="fill:none;" d="M199.397,198.863"/>
				</g>
			</g>
		</g>
		<ellipse style="fill:#9BD1E8;" cx="138.324" cy="462.187" rx="67.227" ry="11.263"/>
		<g>
			<g>
				<polygon style="fill:#1A3342;" points="94.371,434.582 92.102,440.245 105.598,445.986 107.793,437.176 				"/>
			</g>
			<g>
				<rect x="103.803" y="193.902" style="fill:#9B8DDC;" width="33.368" height="59.026"/>
			</g>
			<g>
				<g>
					<g>
						<g>
							<path style="fill:#F89D83;" d="M135.845,190.468c-0.629,6.479-1.434,11.766-2.133,17.098c0,0,1.439,6.391,9.414,6.623
								c1.207,0.035,11.449-1.091,10.164-6.648c-0.68-2.942-1.569-9.411-3.113-17.962L135.845,190.468z"/>
						</g>
					</g>
				</g>
				<g>
					<g>
						<g>
							<path style="fill:#F89D83;" d="M141.096,168.936c-9.906-0.503-8.18,10.162-8.18,10.162s0.312,10.064,4.041,14.625
								c2.267,2.774,4.467-2.136,6.15-1.971c1.653-0.372,10.647,1.646,10.295-1.945c-0.617-6.29-1.901-11.861-1.901-11.861
								S150.881,167.212,141.096,168.936z"/>
						</g>
					</g>
				</g>
				<g>
					<g>
						<g>
							<path style="fill:#F89D83;" d="M132.973,180.262c0,0-1.138-0.421-1.415,0.088c-0.277,0.509-0.42,2.54,0.513,3.849
								s1.721,1.814,1.721,1.814L132.973,180.262z"/>
						</g>
					</g>
				</g>
			</g>
			<g>
				<path style="fill:#305D7A;" d="M113.679,280.055c0,0-12.516,38.322-13.252,79.698c-0.197,11.051-11.154,29.893-8.764,77.962
					c0,0,13.607,3.613,15.153,3.387c2.751-0.404,19.232-55.727,22.766-71.188c3.534-15.461,8.743-47.708,8.743-47.708
					s12.461,33.843,12.461,43.868c0,10.025,2.581,55.047,10.976,79.194l14.669-0.815c0,0,15.438-57.752-5.71-164.397
					C167.946,266.067,113.679,280.055,113.679,280.055z"/>
			</g>
			<g>
				<path style="fill:#24465C;" d="M170.719,276.117c-2.774-13.279-57.041,0-57.041,0s-1.845,5.372-4.159,14.197
					c8.306,3.531,36.04,13.376,64.335,1.847C172.894,286.927,171.863,281.594,170.719,276.117z"/>
			</g>
			<g>
				<path style="fill:#305D7A;" d="M154.851,202.428c0,0-25.564,1.242-33.452,4.289c-3.689,1.424-7.72,6.004-7.72,9.435
					c0,3.431,0,63.903,0,63.903s35.597,11.58,57.041,0l4.289-65.865C175.008,214.19,164.596,201.753,154.851,202.428z"/>
			</g>
			<g>
				<g>
					<g>
						<g>
							<path style="fill:#F89D83;" d="M191.717,187.898c0,0,2.776-0.183,4.131,1.362c0.528,0.602,0.84,1.467,0.688,2.707
								c-0.367,2.98-0.437,3.96-0.216,5.019c1.17,5.612-1.507,9.065-1.507,9.065s-7.306-2.25-7.714-2.547
								c-0.409-0.297-1.229-6.872-0.429-9.1C188.647,188.899,191.717,187.898,191.717,187.898z"/>
						</g>
					</g>
				</g>
				<g>
					<g>
						<g>
							<path style="fill:#F89D83;" d="M193.078,195.473c0,0,0.408-8.131,2.77-6.213c3.967,3.221,1.166,9.275,0.03,9.562
								C194.743,199.108,193.078,195.473,193.078,195.473z"/>
						</g>
					</g>
				</g>
				<g>
					<g>
						<g>
							<polygon style="fill:#F89D83;" points="193.726,216.143 194.812,206.051 186.975,203.428 184.551,212.508 							"/>
						</g>
					</g>
				</g>
				<g>
					<path style="fill:#F89D83;" d="M192.875,179.395c1.31-0.166,0.013,4.857-1.035,8.278l-2.718,0.095
						C190.211,184.879,192.06,179.498,192.875,179.395z"/>
				</g>
				<g>
					<path style="fill:#F89D83;" d="M192.708,192.717c-1.099,0.405-4.14,2.759-4.14,2.759s0.393-6.212,3.677-8.85
						c1.25-1.004,3.888,3.394,3.888,3.394C195.215,192.211,193.146,192.555,192.708,192.717z"/>
				</g>
				<g>
					<path style="fill:#F89D83;" d="M186.368,196.175c0,0-0.205-7.509,0.83-7.731c1.036-0.222,2.497,2.17,2.497,2.17
						L186.368,196.175z"/>
				</g>
				<g>
					<polygon style="fill:#F89D83;" points="189.122,187.768 188.37,191.62 192.238,189.771 191.84,187.673 					"/>
				</g>
			</g>
			<g>
				<g>
					<g>
						<g>
							<path style="fill:#F89D83;" d="M101.454,204.102c0,0,0.996-1.544,2.342-3.835c0.406-0.69,0.187,3.789,0.106,5.036
								c-0.149,2.297,2.984,2.875,5.266,6.565c3.015,4.875,1.846,9.002,1.846,9.002s-5.586-1.582-6.074-1.713
								s-5.654-3.869-5.706-6.236C99.104,207.074,101.454,204.102,101.454,204.102z"/>
						</g>
					</g>
				</g>
				<g>
					<g>
						<g>
							<polygon style="fill:#F89D83;" points="113.621,230.681 111.014,220.871 104.08,218.38 103.753,230.58 							"/>
						</g>
					</g>
				</g>
				<g>
					<path style="fill:#F89D83;" d="M99.461,213.83c0,0-2.759-6.083-1.872-6.662c0.887-0.579,3.11,1.13,3.11,1.13L99.461,213.83z"/>
				</g>
				<g>
					<path style="fill:#F89D83;" d="M103.796,200.267c-3.097,3.999-3.973,7.651-3.973,7.651l2.946-1.319l1.027-2.149
						C103.796,204.451,104.436,199.441,103.796,200.267z"/>
				</g>
			</g>
			<g>
				<path style="fill:#305D7A;" d="M154.851,202.428c0,0-11.294,33.331,23.595,58.665c2.608,1.893,13.318-2.06,12.28-10.618
					c-1.037-8.559-16.74-39.887-17.29-40.442C165.895,202.428,163.168,203.034,154.851,202.428z"/>
			</g>
			<g>
				<path style="fill:#305D7A;" d="M184.713,211.534l15.049,6.005c0,0-3.629,28.939-10.182,39.378l-8.284,4.641
					C181.296,261.558,172.21,251.264,184.713,211.534z"/>
			</g>
			<g>
				<path style="fill:#305D7A;" d="M121.398,206.717c0,0-12.87,3.405-15.637,20.719c-2.766,17.313-3.804,32.183-3.804,32.183
					s6.225,12.104,15.908,6.916C127.548,261.348,121.398,206.717,121.398,206.717z"/>
			</g>
			<g>
				<path d="M104.634,211.934c-0.398-1.536-3.61-3.443-4.817-4.046l0.286-0.572c0.187,0.096,4.599,2.329,5.147,4.456
					L104.634,211.934z"/>
			</g>
			<g>
				<path style="fill:#FAC925;" d="M172.501,250.144l-5.583-45.56c-2.885-1.996-7.813-2.44-12.066-2.161c0,0-0.884,0.041-2.36,0.125
					c0.316,2.106-0.147,5.088-10.929,5.088c-7.437,0-8.598-1.963-8.926-3.365c-4.591,0.585-8.775,1.321-11.237,2.223
					c-0.612,0.224-1.229,0.555-1.839,0.925l-4.893,27.393l-0.988,3.845c0,17.146-5.855,44.75-5.855,44.75s33.592,19.762,67.185,1.87
					L172.501,250.144z"/>
			</g>
			<g>
				<polygon style="fill:#305D7A;" points="100.293,229.616 101.958,259.619 110.131,229.616 				"/>
			</g>
			<g>
				<polygon style="fill:#DB8B74;" points="104.08,218.38 106.453,219.633 103.902,225.036 				"/>
			</g>
			<g>
				<polygon style="fill:#DEB321;" points="172.505,256.204 164.465,244.617 173.659,269.786 				"/>
			</g>
			<g>
				<path style="fill:#FFFFFF;" d="M110.665,267.978c-0.583,3.57-1.155,6.755-1.637,9.313c21.643,3.837,39.319,6.617,65.443,0.47
					l-0.676-9.473C151.756,274.672,131.545,271.681,110.665,267.978z"/>
			</g>
			<g>
				<path style="fill:#FAC925;" d="M104.541,263.286c2.69,3.062,7.345,6.452,13.325,3.249c5.853-3.135,5.919-24.327,5.057-40.608
					c-2.116-7.389-4.069-14.074-4.069-14.074s-9.574,6.873-11.03,22.954C106.769,246.451,105.282,257.86,104.541,263.286z"/>
			</g>
			<g>
				<path style="fill:#FFFFFF;" d="M112.562,254.589c-0.374,3.179-0.805,6.356-1.263,9.376c20.597,3.402,41.59,3.492,62.206,0.253
					l-0.676-9.473C152.863,257.969,132.516,257.915,112.562,254.589z"/>
			</g>
			<g>
				<path style="fill:#DBDBDB;" d="M171.714,264.462c0.491-0.073,0.985-0.125,1.475-0.202l-0.684-8.057l-0.894-1.288
					c-1.072,0.166-2.146,0.306-3.219,0.453L171.714,264.462z"/>
			</g>
			<g>
				<path style="fill:#DEB321;" d="M113.716,242.846l-5.426,23.609c0.947,0.552,1.995,0.962,3.123,1.183L113.716,242.846z"/>
			</g>
			<g>
				<path style="fill:#FAC925;" d="M189.204,256.609c-0.022-0.453-0.026-0.895-0.082-1.367c-0.76-6.408-21.585-45.211-21.585-45.211
					l-4.369,26.514c0,0-0.276,1.367,1.297,8.071c8.689,13.467,9.126,12.949,13.982,16.475
					C180.313,262.448,186.316,260.793,189.204,256.609z"/>
			</g>
			<g>
				<polygon style="fill:#FAC925;" points="183.32,216.143 189.681,217.818 185.687,235.794 180.951,225.204 				"/>
			</g>
			<g>
				<path style="fill:#305D7A;" d="M135.429,191.782c0,0,2.774,2.758,3.81,3.018c1.036,0.259,1.995,0.843,1.995,0.843v-1.362
					l0.726,0.648l1.494-1.491l0.536,1.167c0,0,2.904-0.407,4.515-4.309c1.768-4.283,1.279-11.201,1.132-11.186
					c0,0-2.789-6.183-8.664-4.365c-5.875,1.818-7.999,5.518-7.999,5.518s0.562,7.08,1.143,8.831
					C134.116,189.093,134.114,190.55,135.429,191.782z"/>
			</g>
			<g>
				<g>
					<g>
						<g>
							<path style="fill:#FAC925;" d="M151.167,175.023c0.383,1.77-2.01,0.882-2.01,1.729c0,2.81-0.986,7.29-7.949,7.997
								c-9.775,0.993-8-2.186-8.821-5.666c-1.873-7.93,2.115-12.534,7.196-13.394C144.664,164.829,149.811,168.748,151.167,175.023z
								"/>
						</g>
					</g>
				</g>
				<g>
					<polygon style="fill:#FAC925;" points="156.02,174.969 148.687,176.925 150.243,173.294 					"/>
				</g>
				<g>
					<path d="M150.614,173.201l-2.329,0.771c-1.374,0.283-2.3,1.547-2.152,2.942l0.278,2.636c-4.134,4.2-13.361,1.826-13.709,1.734
						c0.034,0.294,0.071,0.58,0.124,0.851c0.867,0.21,3.222,0.713,5.911,0.713c2.947,0,6.265-0.609,8.381-2.886l0.123-0.132
						l-0.316-2.999c-0.106-0.986,0.547-1.878,1.563-2.09l2.355-0.778C150.769,173.708,150.703,173.447,150.614,173.201z"/>
				</g>
				<g>
					<g>
						<g>
							<path style="fill:#FAC925;" d="M140.447,169.007l-4.005,0.678c-0.148,0.025-0.287-0.074-0.312-0.222l-0.797-4.711
								c-0.025-0.147,0.074-0.287,0.222-0.312l4.005-0.678c0.147-0.025,0.287,0.074,0.312,0.222l0.797,4.711
								C140.694,168.843,140.595,168.982,140.447,169.007z"/>
						</g>
					</g>
				</g>
				<g>
					<g>
						<g>
							<path style="fill:#BF433B;" d="M140.225,165.637l0.489,3.325l0.491-3.148C140.883,165.735,140.556,165.677,140.225,165.637z"
								/>
						</g>
					</g>
				</g>
			</g>
			<g>
				<g>
					<g>
						<path style="fill:#F89D83;" d="M150.78,177.305c0,0-1.138-0.421-1.415,0.088c-0.277,0.509-0.42,2.54,0.513,3.849
							c0.933,1.309,1.721,1.814,1.721,1.814L150.78,177.305z"/>
					</g>
				</g>
			</g>
			<g>
				<g>
					<path style="fill:#DEB321;" d="M163.545,242.23c-3.935-7.19-5.381-22.226-5.442-22.863l0.793-0.075
						c0.014,0.156,1.491,15.508,5.349,22.558L163.545,242.23z"/>
				</g>
			</g>
			<g>
				<g>
					<g>
						<g>
							<g>
								<path style="fill:#1A3342;" d="M178.469,450.269c0,0,13.244,8.824,19.133,9.382c1.025,0.097,1.898,0.959,1.973,2.114
									c0.074,1.147-0.509,2.483-3.136,3.244c-3.868,1.119-21.072,0.697-29.879,0.397c-3-0.102-5.282-2.24-5.357-5.017
									c-0.04-1.494-0.088-3.21-0.139-4.96c-0.072-2.439,0.698-10.163,0.698-10.163l14.669-0.815L178.469,450.269z"/>
							</g>
						</g>
					</g>
				</g>
			</g>
			<g>
				<g>
					<path style="fill:#1A3342;" d="M105.598,445.986l-13.496-5.742c0,0-0.915,2.198-2.193,4.276
						c-0.917,1.491-1.819,2.952-2.605,4.223c-1.461,2.362-0.726,5.402,1.726,7.133c4.412,3.116,15.79,5.307,24.078,6.311
						l0.991-8.454C109.761,450.19,105.598,445.986,105.598,445.986z"/>
				</g>
				<g>
					<path style="fill:#1A3342;" d="M120.455,454.117c-1.923,0.137-4.557-0.131-7.233-0.55l-0.114,8.62
						c9.34-0.827,11.907-4.801,11.901-5.246C124.994,455.784,125.579,453.752,120.455,454.117z"/>
				</g>
			</g>
			<g>
				<polygon style="fill:#1A3342;" points="138.324,322.205 132.303,315.359 131.328,361.648 				"/>
			</g>
			<g>
				<line style="fill:#1A3342;" x1="161.357" y1="461.49" x2="199.575" y2="461.49"/>
				<rect x="161.356" y="461.093" style="fill:#FFFFFF;" width="38.219" height="0.796"/>
			</g>
			<g>
				<polygon style="fill:#FFFFFF;" points="113.549,460.092 113.431,460.057 86.445,452.056 86.669,451.291 113.537,459.258 
					124.878,455.502 125.127,456.26 				"/>
			</g>
			<g>
				<path d="M145.891,289.638c-13.972,0-24.16-4.077-24.325-4.142l0.243-0.591c0.261,0.109,26.831,10.732,53.053-2.659l0.292,0.566
					C164.936,288.03,154.667,289.638,145.891,289.638z"/>
			</g>
			<g>
				
					<rect x="129.723" y="198.655" transform="matrix(0.1265 -0.992 0.992 0.1265 -79.5972 307.5582)" width="10.227" height="0.64"/>
			</g>
			<g>
				<path d="M180.578,261.749c-0.718,0-1.468-0.103-2.23-0.355c-4.105-1.356-13.083-14.967-13.465-15.546l0.535-0.348
					c0.09,0.14,9.236,14.003,13.13,15.291c3.24,1.06,6.294-0.824,7.302-1.443c0.33-0.199,0.41-0.252,0.581-0.202l0.14,0.047
					l0.059,0.143l-0.299,0.118l0.093,0.292c-0.044,0.022-0.124,0.072-0.24,0.146C185.345,260.409,183.171,261.749,180.578,261.749z"
					/>
			</g>
			<g>
				<rect x="150.606" y="363.299" width="8.931" height="0.634"/>
			</g>
			<g>
				<rect x="160.958" y="441.591" width="15.826" height="0.634"/>
			</g>
			<g>
				<polygon points="106.422,436.383 91.374,432.754 91.523,432.132 106.571,435.761 				"/>
			</g>
			<g>
				<path d="M132.078,315.583c-8.39-8.586-7.964-17.909-7.958-18.003l0.634,0.037c-0.003,0.09-0.404,9.146,7.778,17.517
					L132.078,315.583z"/>
			</g>
			<g>
				<polygon points="113.994,238.718 113.366,238.6 117.287,218.321 117.916,218.439 				"/>
			</g>
			<g>
				<polygon style="fill:#305D7A;" points="133.712,200.195 151.599,198.975 154.851,202.424 132.636,204.272 				"/>
			</g>
		</g>
		<g>
			<g>
				<g>
					<g>
						<g>
							<g>
								<path style="fill:#F89D83;" d="M219.179,234.469c0,0-0.537-1.757-1.418-4.264c-0.266-0.756,3.015,2.303,3.915,3.169
									c1.659,1.596,4.122-0.424,8.414,0.214c5.67,0.843,8.068,4.4,8.068,4.4s-4.814,3.245-5.228,3.534s-6.604,1.822-8.446,0.334
									C219.932,238.181,219.179,234.469,219.179,234.469z"/>
							</g>
						</g>
					</g>
					<g>
						<g>
							<g>
								<polygon style="fill:#F89D83;" points="247.334,242.327 238.157,237.988 231.78,241.677 240.888,249.801 								"/>
							</g>
						</g>
					</g>
					<g>
						<path style="fill:#F89D83;" d="M225.324,242.269c0,0-6.427-1.818-6.297-2.869c0.13-1.051,2.87-1.646,2.87-1.646
							L225.324,242.269z"/>
					</g>
					<g>
						<path style="fill:#F89D83;" d="M217.282,227.969c0.018,5.058,3.759,10.209,3.759,10.209l1.882-4.075l-1.863-2.709
							C221.06,231.393,217.273,225.53,217.282,227.969z"/>
					</g>
				</g>
				<g>
					<path d="M221.01,238.16l-0.249-0.585c0.196-0.081,4.745-2.015,6.727-1.054l-0.28,0.572
						C225.79,236.415,222.251,237.631,221.01,238.16z"/>
				</g>
				<g>
					<polygon style="fill:#DB8B74;" points="231.78,241.677 234.269,240.673 236.749,246.109 					"/>
				</g>
			</g>
			<g>
				<path style="fill:#FAC925;" d="M242.435,240.011l-11.493,11.208c0,0,23.516,18.036,36.982,2.769l-9.221-4.46L242.435,240.011z"
					/>
			</g>
			<g>
				<path style="fill:#305D7A;" d="M332.876,286.291c15.125,73.303,6.999,153.73,6.999,153.73l-17.161,0.73l-10.927-49.747
					l-1.979-23.668l-8.828-46.381l6.07-32.816C307.05,288.138,331.568,279.951,332.876,286.291z"/>
			</g>
			<g>
				<path style="fill:#305D7A;" d="M268.541,288.138c0,0-5.647,71.029-4.592,88.666c1.055,17.637,3.635,63.624,3.635,63.624
					l14.669,0.815c0,0,5.836-12.566,11.796-60.462c1.749-14.051,3.247-37.694,10.704-52.737l2.298-39.906
					C307.05,288.138,269.296,278.266,268.541,288.138z"/>
			</g>
			<g>
				<rect x="221.83" y="235.427" style="fill:#6855C2;" width="47.187" height="3.254"/>
			</g>
			<g>
				<g>
					<g>
						<polygon style="fill:#41367A;" points="223.994,235.363 263.189,235.363 247.513,208.158 246.493,207.51 208.317,208.158 
													"/>
					</g>
				</g>
				<g>
					<g>
						<polygon style="fill:#9B8DDC;" points="222.974,234.715 262.17,234.715 246.493,207.51 207.298,207.51 						"/>
					</g>
				</g>
			</g>
			<g>
				<g>
					<g>
						<polygon style="fill:#41367A;" points="226.515,232.456 258.703,232.456 245.829,210.115 244.992,209.583 213.641,210.115 
													"/>
					</g>
				</g>
				<g>
					<g>
						<polygon style="fill:#6855C2;" points="225.677,231.924 257.866,231.924 244.992,209.583 212.803,209.583 						"/>
					</g>
				</g>
			</g>
			<g>
				<g>
					<g>
						<g>
							<path style="fill:#F89D83;" d="M297.041,187.071c-0.629,6.479-1.434,11.766-2.133,17.098c0,0,1.439,6.391,9.414,6.623
								c1.207,0.035,11.449-1.091,10.164-6.648c-0.68-2.942-1.569-9.411-3.113-17.962L297.041,187.071z"/>
						</g>
					</g>
				</g>
				<g>
					<g>
						<g>
							<path style="fill:#F89D83;" d="M302.292,165.539c-9.906-0.503-8.18,10.162-8.18,10.162s0.313,10.064,4.041,14.625
								c2.267,2.774,4.467-2.136,6.15-1.971c1.653-0.372,10.647,1.646,10.295-1.945c-0.617-6.29-1.901-11.861-1.901-11.861
								S312.076,163.816,302.292,165.539z"/>
						</g>
					</g>
				</g>
				<g>
					<g>
						<g>
							<path style="fill:#F89D83;" d="M294.169,176.866c0,0-1.138-0.421-1.415,0.088c-0.277,0.509-0.42,2.54,0.513,3.849
								c0.933,1.309,1.721,1.814,1.721,1.814L294.169,176.866z"/>
						</g>
					</g>
				</g>
			</g>
			<g>
				<path style="fill:#24465C;" d="M271.676,272.093c2.774-13.279,57.041,0,57.041,0s1.845,5.372,4.159,14.197
					c-8.306,3.531-36.04,13.376-64.335,1.847C269.501,282.903,270.533,277.57,271.676,272.093z"/>
			</g>
			<g>
				<path style="fill:#305D7A;" d="M287.545,198.404c0,0,25.564,1.242,33.453,4.289c3.689,1.424,7.72,6.004,7.72,9.435
					c0,3.431,0,63.903,0,63.903s-35.597,11.58-57.041,0l-4.289-65.865C267.388,210.166,277.8,197.729,287.545,198.404z"/>
			</g>
			<g>
				<path style="fill:#305D7A;" d="M287.545,198.404c0,0,11.294,33.331-23.595,58.665c-2.608,1.894-13.318-2.059-12.28-10.618
					c1.037-8.559,16.74-39.887,17.29-40.442C276.501,198.404,279.228,199.01,287.545,198.404z"/>
			</g>
			<g>
				<path style="fill:#305D7A;" d="M320.997,202.693c0,0,12.87,3.405,15.637,20.719c2.766,17.313,3.804,32.184,3.804,32.184
					s-6.225,12.104-15.908,6.916C314.847,257.324,320.997,202.693,320.997,202.693z"/>
			</g>
			<g>
				<path style="fill:#FAC925;" d="M269.895,246.12l5.583-45.56c2.885-1.996,7.813-2.44,12.067-2.161c0,0,3.525,0.22,5.001,0.305
					c-0.316,2.106,21.417,3.625,21.746,2.223c4.591,0.585,4.244,0.641,6.706,1.544c0.612,0.224,1.229,0.555,1.839,0.925
					l4.892,27.393l0.988,3.845c0,17.146,5.855,44.75,5.855,44.75s-33.592,19.762-67.185,1.87L269.895,246.12z"/>
			</g>
			<g>
				<polygon style="fill:#DEB321;" points="269.891,252.18 277.931,240.594 268.737,265.762 				"/>
			</g>
			<g>
				<path style="fill:#FFFFFF;" d="M331.73,263.954c0.583,3.57,1.155,6.755,1.637,9.313c-21.643,3.837-39.319,6.617-65.443,0.47
					l0.676-9.473C290.64,270.647,310.851,267.657,331.73,263.954z"/>
			</g>
			<g>
				<path style="fill:#FAC925;" d="M337.855,259.262c-2.69,3.062-7.345,6.452-13.325,3.249c-5.853-3.135-5.919-24.327-5.057-40.608
					c2.116-7.389,4.069-14.074,4.069-14.074s9.573,6.873,11.03,22.954C335.627,242.427,337.113,253.836,337.855,259.262z"/>
			</g>
			<g>
				<path style="fill:#FFFFFF;" d="M329.833,250.564c0.374,3.179,0.805,6.356,1.263,9.376c-20.597,3.402-41.59,3.492-62.206,0.253
					l0.676-9.473C289.532,253.945,309.88,253.891,329.833,250.564z"/>
			</g>
			<g>
				<path style="fill:#DBDBDB;" d="M270.682,260.438c-0.491-0.072-0.985-0.125-1.475-0.202l0.684-8.057l0.894-1.288
					c1.071,0.166,2.146,0.306,3.219,0.453L270.682,260.438z"/>
			</g>
			<g>
				<path style="fill:#DEB321;" d="M325.602,218.531l12.253,40.731c-0.947,0.552-5.745,4.132-6.872,4.353L325.602,218.531z"/>
			</g>
			<g>
				<path style="fill:#FAC925;" d="M253.191,252.585c0.022-0.453,0.026-0.895,0.082-1.367c0.76-6.408,21.585-45.211,21.585-45.211
					l4.369,26.514c0,0,0.276,1.368-1.297,8.072c-8.689,13.466-9.126,12.949-13.982,16.475
					C262.083,258.424,256.08,256.769,253.191,252.585z"/>
			</g>
			<g>
				<path style="fill:#305D7A;" d="M309.7,186.899c1.768-4.283,1.279-11.201,1.132-11.186c0,0-2.789-6.183-8.664-4.365
					c-5.875,1.819-7.999,5.518-7.999,5.518s0.471,7.113,1.143,8.831C299.197,195.63,308.089,190.801,309.7,186.899z"/>
			</g>
			<g>
				<g>
					<g>
						<g>
							<path style="fill:#FAC925;" d="M312.362,171.626c0.382,1.77-2.01,0.882-2.01,1.729c0,2.81-0.986,7.29-7.949,7.997
								c-9.775,0.993-8-2.186-8.821-5.666c-1.873-7.93,2.115-12.534,7.196-13.394C305.859,161.433,311.006,165.352,312.362,171.626z
								"/>
						</g>
					</g>
				</g>
				<g>
					<polygon style="fill:#FAC925;" points="317.216,171.572 309.882,173.528 311.438,169.897 					"/>
				</g>
				<g>
					<path d="M311.81,169.805l-2.328,0.771c-1.375,0.283-2.3,1.547-2.152,2.942l0.278,2.636c-4.134,4.2-13.361,1.826-13.708,1.734
						c0.034,0.294,0.07,0.58,0.124,0.851c0.867,0.21,3.221,0.712,5.911,0.712c2.947,0,6.265-0.609,8.381-2.886l0.123-0.132
						l-0.316-2.999c-0.106-0.986,0.547-1.878,1.563-2.09l2.355-0.778C311.964,170.311,311.898,170.05,311.81,169.805z"/>
				</g>
				<g>
					<g>
						<g>
							<path style="fill:#FAC925;" d="M301.643,165.611l-4.004,0.678c-0.147,0.025-0.287-0.074-0.312-0.222l-0.797-4.711
								c-0.025-0.147,0.074-0.287,0.222-0.312l4.005-0.678c0.147-0.025,0.287,0.074,0.312,0.222l0.797,4.711
								C301.889,165.446,301.79,165.586,301.643,165.611z"/>
						</g>
					</g>
				</g>
				<g>
					<g>
						<g>
							<path style="fill:#BF433B;" d="M301.421,162.241l0.489,3.325l0.491-3.148C302.078,162.339,301.751,162.281,301.421,162.241z"
								/>
						</g>
					</g>
				</g>
			</g>
			<g>
				<g>
					<g>
						<path style="fill:#F89D83;" d="M311.975,173.908c0,0-1.138-0.421-1.415,0.088c-0.276,0.509-0.42,2.541,0.513,3.849
							c0.933,1.309,1.721,1.814,1.721,1.814L311.975,173.908z"/>
					</g>
				</g>
			</g>
			<g>
				<g>
					<path style="fill:#DEB321;" d="M278.85,238.206c3.935-7.19,5.382-22.226,5.442-22.863l-0.793-0.075
						c-0.014,0.155-1.491,15.508-5.349,22.558L278.85,238.206z"/>
				</g>
			</g>
			<g>
				<g>
					<g>
						<g>
							<g>
								<path style="fill:#1A3342;" d="M263.927,446.245c0,0-13.244,8.824-19.133,9.382c-1.026,0.097-1.898,0.959-1.973,2.114
									c-0.074,1.147,0.509,2.483,3.136,3.244c3.868,1.12,21.072,0.697,29.879,0.397c3-0.102,5.282-2.24,5.357-5.016
									c0.04-1.494,0.088-3.21,0.139-4.96c0.072-2.439,0.921-10.163,0.921-10.163l-14.669-0.815L263.927,446.245z"/>
							</g>
						</g>
					</g>
				</g>
			</g>
			<g>
				<line style="fill:#1A3342;" x1="281.039" y1="457.466" x2="242.821" y2="457.466"/>
				<rect x="242.822" y="457.067" style="fill:#FFFFFF;" width="38.216" height="0.796"/>
			</g>
			<g>
				<g>
					<g>
						<g>
							<g>
								<path style="fill:#1A3342;" d="M344.118,446.245c0,0,13.244,8.824,19.133,9.382c1.026,0.097,1.898,0.959,1.973,2.114
									c0.074,1.147-0.509,2.483-3.136,3.244c-3.868,1.12-21.072,0.697-29.879,0.397c-3-0.102-5.283-2.24-5.357-5.016
									c-0.04-1.494-0.088-3.21-0.139-4.96c-0.072-2.439-1.506-10.57-1.506-10.57l14.668-0.815L344.118,446.245z"/>
							</g>
						</g>
					</g>
				</g>
			</g>
			<g>
				<line style="fill:#1A3342;" x1="327.006" y1="457.466" x2="365.224" y2="457.466"/>
				<rect x="327.004" y="457.067" style="fill:#FFFFFF;" width="38.219" height="0.796"/>
			</g>
			<g>
				<path d="M296.504,285.615c-8.776,0-19.044-1.608-29.263-6.826l0.292-0.566c26.219,13.385,52.792,2.768,53.056,2.659l0.243,0.591
					C320.667,281.538,310.476,285.615,296.504,285.615z"/>
			</g>
			<g>
				<polygon points="296.112,195.677 295.484,195.584 296.609,188.086 297.238,188.18 				"/>
			</g>
			<g>
				<path d="M264.05,257.369l-0.199-0.603c3.893-1.284,13.036-15.148,13.126-15.288l0.535,0.348
					C277.13,242.405,268.152,256.016,264.05,257.369z"/>
			</g>
			<g>
				<rect x="327.628" y="214.138" transform="matrix(0.9906 -0.137 0.137 0.9906 -29.3922 47.1554)" width="0.634" height="46.02"/>
			</g>
			<g>
				<polygon style="fill:#305D7A;" points="313.06,193.273 295.798,195.63 292.546,199.079 314.437,201.163 				"/>
			</g>
			<g>
				<path style="fill:#305D7A;" d="M255.365,260.07c-11.752-1.036-20.631-12.549-20.631-12.549h0l-3.792,3.698
					C230.942,251.218,241.361,262.076,255.365,260.07z"/>
			</g>
			<g>
				<polygon points="292.775,199.297 292.315,198.862 295.568,195.413 296.028,195.848 				"/>
			</g>
			<g>
				<polygon style="fill:#24465C;" points="302.872,330.637 307.05,320.608 308.493,360.427 				"/>
			</g>
		</g>
		<g>
			<g>
				<rect x="397.437" y="188.489" style="fill:#203E52;" width="3.184" height="230.634"/>
			</g>
			<g>
				<g>
					
						<rect x="391.349" y="193.3" transform="matrix(0.7071 -0.7071 0.7071 0.7071 -34.4107 339.478)" style="fill:#264A61;" width="2.393" height="35.946"/>
				</g>
				<g>
					
						<rect x="374.572" y="210.077" transform="matrix(0.7071 -0.7071 0.7071 0.7071 -34.4186 339.452)" style="fill:#305D7A;" width="35.946" height="2.393"/>
				</g>
			</g>
			<g>
				<g>
					
						<rect x="391.349" y="396.251" transform="matrix(0.7071 -0.7071 0.7071 0.7071 -177.9276 398.8954)" style="fill:#305D7A;" width="2.392" height="35.948"/>
				</g>
				<g>
					
						<rect x="374.571" y="413.029" transform="matrix(0.7071 -0.7071 0.7071 0.7071 -177.9281 398.9122)" style="fill:#305D7A;" width="35.948" height="2.392"/>
				</g>
			</g>
			<g>
				<path style="fill:#305D7A;" d="M349.391,113.63H245.058V96.004h104.333V113.63z M247.452,111.236h99.544V98.398h-99.544V111.236
					z"/>
			</g>
			<g>
				<rect x="378.244" y="139.569" style="fill:#305D7A;" width="3.184" height="279.554"/>
			</g>
			<g>
				<rect x="403.871" y="139.569" style="fill:#305D7A;" width="3.184" height="279.554"/>
			</g>
			<g>
				<path style="fill:#305D7A;" d="M407.056,112.075h-28.812V91.883h28.812V112.075z M381.428,108.891h22.443V95.068h-22.443
					V108.891z"/>
			</g>
			<g>
				<rect x="368.039" y="437.181" style="fill:#305D7A;" width="49.185" height="20.015"/>
			</g>
			<g>
				<rect x="368.039" y="419.123" style="fill:#305D7A;" width="49.185" height="7.301"/>
			</g>
			<g>
				<rect x="368.039" y="428.298" style="fill:#305D7A;" width="49.185" height="7.301"/>
			</g>
			<g>
				<rect x="368.039" y="437.473" style="fill:#203E52;" width="49.185" height="7.301"/>
			</g>
			<g>
				<path style="fill:#305D7A;" d="M620.123,131.201H404.266v-21.147h193.04L620.123,131.201z M406.661,128.806h207.354
					l-17.648-16.357H406.661V128.806z"/>
			</g>
			<g>
				<rect x="391.454" y="34.259" style="fill:#305D7A;" width="2.394" height="59.217"/>
			</g>
			<g>
				
					<rect x="397.861" y="33.574" transform="matrix(0.9774 -0.2115 0.2115 0.9774 -4.4811 85.8332)" style="fill:#305D7A;" width="2.392" height="60.587"/>
			</g>
			<g>
				<polygon style="fill:#305D7A;" points="381.014,93.69 378.657,93.261 387.035,47.501 389.392,47.93 				"/>
			</g>
			<g>
				<polygon style="fill:#305D7A;" points="397.866,93.603 392.651,44.416 395.033,44.161 400.249,93.348 				"/>
			</g>
			<g>
				<polygon style="fill:#305D7A;" points="437.037,130.796 421.355,113.08 406.378,130.778 404.549,129.229 421.314,109.423 
					438.828,129.21 				"/>
			</g>
			<g>
				<polygon style="fill:#305D7A;" points="469.51,130.796 453.827,113.08 438.847,130.778 437.019,129.229 453.783,109.423 
					471.301,129.21 				"/>
			</g>
			<g>
				<polygon style="fill:#305D7A;" points="501.979,130.796 486.296,113.08 471.319,130.778 469.491,129.229 486.253,109.423 
					503.77,129.21 				"/>
			</g>
			<g>
				<polygon style="fill:#305D7A;" points="534.448,130.796 518.766,113.08 503.789,130.778 501.96,129.229 518.722,109.423 
					536.24,129.21 				"/>
			</g>
			<g>
				<polygon style="fill:#305D7A;" points="566.917,130.796 551.235,113.08 536.258,130.778 534.43,129.229 551.198,109.423 
					568.709,129.21 				"/>
			</g>
			<g>
				<polygon style="fill:#305D7A;" points="599.39,130.796 583.707,113.08 568.727,130.778 566.899,129.229 583.664,109.423 
					601.181,129.21 				"/>
			</g>
			<g>
				<path style="fill:#305D7A;" d="M412.936,191.055h-39.485V157.96h39.485V191.055z M375.846,188.66h34.696v-28.305h-34.696V188.66
					z"/>
			</g>
			<g>
				<path style="fill:#305D7A;" d="M420.135,160.563h-53.883v-22.4h53.883V160.563z M369.063,157.752h48.261v-16.777h-48.261
					V157.752z"/>
			</g>
			<g>
				<g>
					
						<rect x="391.349" y="249.59" transform="matrix(0.7071 -0.7071 0.7071 0.7071 -74.2229 355.9395)" style="fill:#305D7A;" width="2.392" height="35.948"/>
				</g>
				<g>
					
						<rect x="374.571" y="266.368" transform="matrix(0.7071 -0.7071 0.7071 0.7071 -74.2203 355.9532)" style="fill:#305D7A;" width="35.948" height="2.392"/>
				</g>
			</g>
			<g>
				<g>
					
						<rect x="391.349" y="279.559" transform="matrix(0.7071 -0.7071 0.7071 0.7071 -95.4142 364.7172)" style="fill:#305D7A;" width="2.392" height="35.948"/>
				</g>
				<g>
					
						<rect x="374.571" y="296.337" transform="matrix(0.7071 -0.7071 0.7071 0.7071 -95.4122 364.7316)" style="fill:#305D7A;" width="35.948" height="2.392"/>
				</g>
			</g>
			<g>
				<g>
					
						<rect x="391.349" y="309.528" transform="matrix(0.7071 -0.7071 0.7071 0.7071 -116.6055 373.4949)" style="fill:#305D7A;" width="2.393" height="35.948"/>
				</g>
				<g>
					
						<rect x="374.571" y="326.306" transform="matrix(0.7071 -0.7071 0.7071 0.7071 -116.6055 373.4949)" style="fill:#305D7A;" width="35.948" height="2.393"/>
				</g>
			</g>
			<g>
				<g>
					
						<rect x="391.349" y="339.5" transform="matrix(0.7071 -0.7071 0.7071 0.7071 -137.7964 382.3054)" style="fill:#305D7A;" width="2.392" height="35.946"/>
				</g>
				<g>
					
						<rect x="374.572" y="356.277" transform="matrix(0.7071 -0.7071 0.7071 0.7071 -137.7971 382.2888)" style="fill:#305D7A;" width="35.946" height="2.392"/>
				</g>
			</g>
			<g>
				<g>
					
						<rect x="391.349" y="369.469" transform="matrix(0.7071 -0.7071 0.7071 0.7071 -158.9889 391.0844)" style="fill:#305D7A;" width="2.392" height="35.946"/>
				</g>
				<g>
					
						<rect x="374.572" y="386.246" transform="matrix(0.7071 -0.7071 0.7071 0.7071 -158.9891 391.0671)" style="fill:#305D7A;" width="35.946" height="2.392"/>
				</g>
			</g>
			<g>
				<polygon style="fill:#305D7A;" points="399.057,139.568 348.194,139.568 348.194,92.012 379.836,92.012 399.029,107.949 				"/>
			</g>
			<g>
				<polygon style="fill:#FAC925;" points="368.684,96.155 378.28,96.155 396.45,110.482 396.45,117.572 368.684,117.572 				"/>
			</g>
			<g>
				<rect x="272.545" y="97.201" style="fill:#305D7A;" width="2.395" height="15.232"/>
			</g>
			<g>
				<rect x="279.651" y="97.201" style="fill:#305D7A;" width="2.395" height="15.232"/>
			</g>
			<g>
				<rect x="286.754" y="97.201" style="fill:#305D7A;" width="2.395" height="15.232"/>
			</g>
			<g>
				<rect x="293.859" y="97.201" style="fill:#305D7A;" width="2.395" height="15.232"/>
			</g>
			<g>
				<rect x="300.962" y="97.201" style="fill:#305D7A;" width="2.395" height="15.232"/>
			</g>
			<g>
				<rect x="308.068" y="97.201" style="fill:#305D7A;" width="2.395" height="15.232"/>
			</g>
			<g>
				<rect x="315.174" y="97.201" style="fill:#305D7A;" width="2.394" height="15.232"/>
			</g>
			<g>
				<rect x="322.277" y="97.201" style="fill:#305D7A;" width="2.395" height="15.232"/>
			</g>
			<g>
				<rect x="329.383" y="97.201" style="fill:#305D7A;" width="2.395" height="15.232"/>
			</g>
			<g>
				<rect x="336.485" y="97.201" style="fill:#305D7A;" width="2.395" height="15.232"/>
			</g>
			<g>
				<path style="fill:#203E52;" d="M478.348,456.276h-46.246V186.269h46.246V456.276z M434.496,453.881h41.457V188.663h-41.457
					V453.881z"/>
			</g>
			<g>
				<g>
					
						<rect x="391.349" y="219.621" transform="matrix(0.7071 -0.7071 0.7071 0.7071 -53.0238 347.1884)" style="fill:#305D7A;" width="2.392" height="35.946"/>
				</g>
				<g>
					
						<rect x="374.572" y="236.398" transform="matrix(0.7071 -0.7071 0.7071 0.7071 -53.0272 347.1744)" style="fill:#264A61;" width="35.946" height="2.392"/>
				</g>
			</g>
		</g>
		<g>
			<rect x="433.299" y="206.513" style="fill:#203E52;" width="43.851" height="2.395"/>
		</g>
		<g>
			<rect x="489.3" y="243.025" style="fill:#203E52;" width="2.395" height="214.171"/>
		</g>
		<g>
			<rect x="501.677" y="243.025" style="fill:#203E52;" width="2.395" height="214.171"/>
		</g>
		<g>
			<rect x="514.054" y="243.025" style="fill:#203E52;" width="2.395" height="214.171"/>
		</g>
		<g>
			<rect x="641.469" y="243.025" style="fill:#203E52;" width="2.395" height="214.171"/>
		</g>
		<g>
			<rect x="554.944" y="214.187" style="fill:#203E52;" width="2.395" height="214.171"/>
		</g>
		<g>
			<rect x="348.194" y="240.76" style="fill:#203E52;" width="2.395" height="214.171"/>
		</g>
		<g>
			<path style="fill:#FAC663;" d="M567.328,460.126c1.451-3.16,2.24-6.52,2.24-10.008c0-18.408-21.798-33.331-48.688-33.331
				c-3.626,0-7.148,0.292-10.548,0.807c-2.429-7.602-10.886-13.222-20.978-13.222c-9.926,0-18.277,5.436-20.86,12.848
				c-4.583-2.373-9.775-3.736-15.292-3.736c-18.408,0-33.331,14.923-33.331,33.331c0,4.735,1.001,9.232,2.781,13.311H567.328z"/>
		</g>
		<g>
			<path style="fill:#FAC663;" d="M695.483,460.126H558.02v-15.59h132.93c2.503,0,4.533,2.03,4.533,4.533V460.126z"/>
		</g>
		<g>
			<g>
				<rect x="353.019" y="122.386" style="fill:#FAC925;" width="2.395" height="15.232"/>
			</g>
		</g>
		<g>
			<g>
				<rect x="360.125" y="122.386" style="fill:#FAC925;" width="2.395" height="15.232"/>
			</g>
		</g>
		<g>
			<path style="fill:#24465C;" d="M303.149,330.891l-0.554-0.506c5.011-5.478,7.973-30.826,8.003-31.082l0.745,0.086
				C311.222,300.441,308.323,325.234,303.149,330.891z"/>
		</g>
	</g>
</g>
</svg>
