<?xml version="1.0" encoding="utf-8"?>
<!-- Generator: Adobe Illustrator 27.5.0, SVG Export Plug-In . SVG Version: 6.00 Build 0)  -->
<svg version="1.1" id="_x2018_лой_x5F_1" xmlns="http://www.w3.org/2000/svg" xmlns:xlink="http://www.w3.org/1999/xlink"
	 x="0px" y="0px" viewBox="0 0 3200 2000" style="enable-background:new 0 0 3200 2000;" xml:space="preserve">
<rect style="fill:#FFFFFF;" width="3200" height="2000"/>
<g>
	<path style="fill:#EBF3FA;" d="M336.911,1845.865l903.894-4.693l240.938-0.072l79.821-0.028l241.397-0.071l1102.852-0.302
		c0,0,252.255-323.469-17.197-630.692c-279.372-318.534-415.215-59.118-501.09-507.492
		C2171.366-426.107,34.23,230.776,594.785,1191.188C796.622,1537.002,197.485,1353.198,336.911,1845.865z"/>
	<g>
		<g>
			<path style="fill:#AFCDFB;" d="M1168.468,1610.321l-4.888-2.677c-5.217-2.856-7.138-9.426-4.281-14.644l22.456-41.01
				c2.857-5.217,9.426-7.138,14.644-4.281l7,3.833c1.022,0.561,1.397,1.844,0.838,2.866c-0.561,1.022-1.843,1.397-2.866,0.838
				l-7-3.833c-3.175-1.739-7.173-0.57-8.912,2.605l-22.456,41.01c-1.739,3.175-0.57,7.173,2.605,8.912l4.888,2.676
				c3.176,1.739,7.174,0.57,8.913-2.605l14.907-27.223c0.56-1.023,1.843-1.398,2.866-0.838c1.022,0.56,1.397,1.843,0.837,2.865
				l-14.907,27.224C1180.254,1611.258,1173.686,1613.178,1168.468,1610.321z"/>
		</g>
		<g>
			<path style="fill:#AFCDFB;" d="M1147.633,1653.385l-8.762-4.798c-8.135-4.454-10.87-15.169-6.098-23.885l33.76-61.654
				c0.56-1.022,1.843-1.397,2.866-0.838s1.397,1.843,0.838,2.865l-33.76,61.655c-3.654,6.674-1.67,14.817,4.422,18.153l8.762,4.798
				c6.093,3.336,14.022,0.621,17.677-6.053l38.455-70.229c3.654-6.674,1.67-14.817-4.423-18.153
				c-1.022-0.561-1.397-1.844-0.837-2.866s1.843-1.397,2.866-0.838c8.135,4.455,10.87,15.17,6.098,23.885l-38.455,70.229
				C1166.269,1654.372,1155.768,1657.839,1147.633,1653.385z"/>
		</g>
	</g>
	<g>
		<path style="opacity:0.6;fill:#FFFFFF;" d="M1991.685,1382.242H916.192c-26.44,0-47.875-21.434-47.875-47.874V431.691
			c0-26.44,21.434-47.874,47.875-47.874h1075.493c26.439,0,47.874,21.434,47.874,47.874v902.677
			C2039.559,1360.809,2018.124,1382.242,1991.685,1382.242z"/>
		<path style="fill:#699DEE;" d="M2039.559,494.606H868.317v-75.048c0-19.739,16.001-35.74,35.74-35.74h1099.761
			c19.738,0,35.74,16.001,35.74,35.74V494.606z"/>
		<g>
			<path style="fill:#DDE7FE;" d="M915.682,438.545c0-7.315,5.931-13.246,13.246-13.246c7.315,0,13.245,5.93,13.245,13.246
				c0,7.315-5.93,13.245-13.245,13.245C921.612,451.79,915.682,445.86,915.682,438.545z"/>
			<path style="fill:#DDE7FE;" d="M971.275,438.545c0-7.315,5.93-13.246,13.246-13.246c7.315,0,13.245,5.93,13.245,13.246
				c0,7.315-5.93,13.245-13.245,13.245C977.206,451.79,971.275,445.86,971.275,438.545z"/>
			<path style="fill:#DDE7FE;" d="M1026.869,438.545c0-7.315,5.93-13.246,13.246-13.246c7.315,0,13.245,5.93,13.245,13.246
				c0,7.315-5.93,13.245-13.245,13.245C1032.799,451.79,1026.869,445.86,1026.869,438.545z"/>
		</g>
		<rect x="961.137" y="582.515" style="opacity:0.5;fill:#CDE0FB;" width="332.008" height="332.008"/>
		<path style="opacity:0.5;fill:#7C9AF2;" d="M1647.506,607.263h-264.085c-6.93,0-12.547-5.618-12.547-12.547l0,0
			c0-6.929,5.618-12.547,12.547-12.547h264.085c6.93,0,12.547,5.618,12.547,12.547l0,0
			C1660.053,601.645,1654.436,607.263,1647.506,607.263z"/>
		<path style="opacity:0.5;fill:#7C9AF2;" d="M1963.305,590.434H1699.22c-6.93,0-12.548-5.618-12.548-12.547l0,0
			c0-6.93,5.618-12.547,12.548-12.547h264.085c6.93,0,12.547,5.618,12.547,12.547l0,0
			C1975.852,584.816,1970.234,590.434,1963.305,590.434z"/>
		<g style="opacity:0.3;">
			<path style="fill:#BDD1F9;" d="M1699.781,703.854h-320.775c-4.491,0-8.132-3.641-8.132-8.132l0,0
				c0-4.491,3.641-8.132,8.132-8.132h320.775c4.492,0,8.133,3.641,8.133,8.132l0,0
				C1707.914,700.213,1704.273,703.854,1699.781,703.854z"/>
			<path style="fill:#BDD1F9;" d="M1821.727,703.854h-84.677c-4.491,0-8.133-3.641-8.133-8.132l0,0c0-4.491,3.642-8.132,8.133-8.132
				h84.677c4.491,0,8.132,3.641,8.132,8.132l0,0C1829.858,700.213,1826.218,703.854,1821.727,703.854z"/>
			<path style="fill:#BDD1F9;" d="M1500.038,754.292h-121.032c-4.491,0-8.132-3.641-8.132-8.133l0,0
				c0-4.491,3.641-8.132,8.132-8.132h121.032c4.492,0,8.133,3.641,8.133,8.132l0,0
				C1508.171,750.651,1504.53,754.292,1500.038,754.292z"/>
			<path style="fill:#BDD1F9;" d="M1696.075,754.292h-165.846c-4.491,0-8.132-3.641-8.132-8.133l0,0
				c0-4.491,3.641-8.132,8.132-8.132h165.846c4.491,0,8.132,3.641,8.132,8.132l0,0
				C1704.207,750.651,1700.566,754.292,1696.075,754.292z"/>
			<path style="fill:#BDD1F9;" d="M1821.727,754.292h-84.677c-4.491,0-8.133-3.641-8.133-8.133l0,0c0-4.491,3.642-8.132,8.133-8.132
				h84.677c4.491,0,8.132,3.641,8.132,8.132l0,0C1829.858,750.651,1826.218,754.292,1821.727,754.292z"/>
			<path style="fill:#BDD1F9;" d="M1543.234,797.904h-164.228c-4.491,0-8.132-3.641-8.132-8.132l0,0
				c0-4.492,3.641-8.133,8.132-8.133h164.228c4.492,0,8.132,3.641,8.132,8.133l0,0
				C1551.366,794.263,1547.726,797.904,1543.234,797.904z"/>
			<path style="fill:#BDD1F9;" d="M1856.841,797.904h-268.596c-4.492,0-8.132-3.641-8.132-8.132l0,0
				c0-4.492,3.641-8.133,8.132-8.133h268.596c4.491,0,8.132,3.641,8.132,8.133l0,0
				C1864.973,794.263,1861.332,797.904,1856.841,797.904z"/>
		</g>
		<g style="opacity:0.3;">
			<path style="fill:#BDD1F9;" d="M1699.781,864.085h-320.775c-4.491,0-8.132-3.641-8.132-8.132l0,0
				c0-4.491,3.641-8.132,8.132-8.132h320.775c4.492,0,8.133,3.641,8.133,8.132l0,0
				C1707.914,860.444,1704.273,864.085,1699.781,864.085z"/>
			<path style="fill:#BDD1F9;" d="M1821.727,864.085h-84.677c-4.491,0-8.133-3.641-8.133-8.132l0,0c0-4.491,3.642-8.132,8.133-8.132
				h84.677c4.491,0,8.132,3.641,8.132,8.132l0,0C1829.858,860.444,1826.218,864.085,1821.727,864.085z"/>
			<path style="fill:#BDD1F9;" d="M1500.038,914.523h-121.032c-4.491,0-8.132-3.641-8.132-8.133l0,0
				c0-4.491,3.641-8.132,8.132-8.132h121.032c4.492,0,8.133,3.641,8.133,8.132l0,0
				C1508.171,910.882,1504.53,914.523,1500.038,914.523z"/>
			<path style="fill:#BDD1F9;" d="M1696.075,914.523h-165.846c-4.491,0-8.132-3.641-8.132-8.133l0,0
				c0-4.491,3.641-8.132,8.132-8.132h165.846c4.491,0,8.132,3.641,8.132,8.132l0,0
				C1704.207,910.882,1700.566,914.523,1696.075,914.523z"/>
		</g>
		<g>
			<path style="fill:#BDD1F9;" d="M1109.998,632.006h34.288l92.636,212.042h-39.099l-21.355-50.829h-99.554l-21.656,50.829h-37.897
				L1109.998,632.006z M1162.934,760.434l-36.394-84.214l-36.092,84.214H1162.934z"/>
		</g>
		<g>
			<rect x="961.137" y="981.4" style="fill:#F99746;" width="185.465" height="35.805"/>
			<rect x="961.137" y="1017.205" style="fill:#ED7D2B;" width="185.465" height="35.805"/>
			<rect x="961.137" y="1053.01" style="fill:#474FEA;" width="185.465" height="35.804"/>
		</g>
		<g>
			<path style="fill:#BDD1F9;" d="M1283.25,1001.671h-102.044c-4.271,0-7.732-3.462-7.732-7.732l0,0c0-4.27,3.461-7.732,7.732-7.732
				h102.044c4.271,0,7.732,3.461,7.732,7.732l0,0C1290.982,998.209,1287.521,1001.671,1283.25,1001.671z"/>
			<path style="fill:#BDD1F9;" d="M1248.872,1028.925h-67.666c-4.271,0-7.732-3.462-7.732-7.731l0,0
				c0-4.271,3.461-7.732,7.732-7.732h67.666c4.27,0,7.731,3.461,7.731,7.732l0,0
				C1256.604,1025.463,1253.142,1028.925,1248.872,1028.925z"/>
		</g>
		<g>
			<rect x="961.137" y="1166.523" style="fill:#F99746;" width="185.465" height="73.159"/>
			<rect x="961.137" y="1221.615" style="fill:#B5453C;" width="185.465" height="52.322"/>
			<polygon style="fill:#474FEA;" points="961.137,1166.523 1027.671,1222.41 961.137,1273.938 			"/>
		</g>
		<g>
			<path style="fill:#BDD1F9;" d="M1283.25,1186.794h-102.044c-4.271,0-7.732-3.462-7.732-7.731l0,0
				c0-4.271,3.461-7.731,7.732-7.731h102.044c4.271,0,7.732,3.461,7.732,7.731l0,0
				C1290.982,1183.332,1287.521,1186.794,1283.25,1186.794z"/>
			<path style="fill:#BDD1F9;" d="M1248.872,1214.048h-67.666c-4.271,0-7.732-3.461-7.732-7.731l0,0c0-4.27,3.461-7.731,7.732-7.731
				h67.666c4.27,0,7.731,3.462,7.731,7.731l0,0C1256.604,1210.587,1253.142,1214.048,1248.872,1214.048z"/>
		</g>
	</g>
	<g>
		<path style="fill:#233862;" d="M2051.385,474.236c0,0,4.826,57.568-8.289,56.696c-13.114-0.871-39.012-26.215-91.27-22.093
			s-116.197,15.556-154.849-52.839c-38.646-68.396,49.432-88.081,49.432-88.081L2051.385,474.236L2051.385,474.236z"/>
		<polygon style="fill:#2B478B;" points="1940.295,470.02 2203.619,491.674 2209.094,479.96 1956.639,293.607 1701.625,263.815 
			1696.726,274.297 1940.295,470.02 		"/>
		<g>
			<path style="fill:#F99746;" d="M2119.497,668.33c-1.553-5.42-7.206-8.555-12.626-7.006c-5.419,1.552-8.555,7.203-7.003,12.625
				c1.55,5.419,7.202,8.555,12.622,7.006C2117.91,679.4,2121.046,673.75,2119.497,668.33L2119.497,668.33z"/>
			<path style="fill:#F99746;" d="M2110.718,671.165c10.563-0.822,13.031,95.278,13.031,95.278s-6.886,3.238-10.271,2.477
				c-3.386-0.762-5.114-13.739-5.114-13.739l-0.326,13.606c0,0-11.584,0.403-15.6-2.416
				C2092.438,766.371,2094.01,672.467,2110.718,671.165L2110.718,671.165z"/>
		</g>
		<polygon style="fill:#F99746;" points="2114.161,673.329 2112.254,463.372 2110.891,462.354 1973.346,360.606 1968.406,367.294 
			2104.581,468.025 2107.656,672.966 		"/>
	</g>
	<g>
		<g>
			<g>
				<path style="fill:#FCECDB;" d="M2291.62,1663.878h-578.484v-219.79h580.411c46.913,0,84.943,38.031,84.943,84.944v47.976
					C2378.49,1624.985,2339.598,1663.878,2291.62,1663.878z"/>
				<path style="fill:#699DEE;" d="M2874.731,1534.517v33.065c0,17.67-4.437,34.215-12.201,48.437
					c-15.587,28.619-44.579,47.854-77.771,47.854H1695.317c-7.209,0-13.05-6.252-13.05-13.956v-4.951
					c0-7.704,5.841-13.956,13.05-13.956h664.115c3.552-4.635,6.679-9.649,9.321-14.991c6.219-12.542,9.734-26.839,9.734-42.021
					v-42.032c0-7.729-0.932-15.232-2.689-22.368c-2.975-12.1-8.296-23.176-15.399-32.636h-665.082
					c-7.209,0-13.05-6.252-13.05-13.969v-4.938c0-7.717,5.841-13.969,13.05-13.969h1094.929c38.584,0,71.128,27.686,81.229,65.512
					C2873.598,1517.517,2874.731,1525.878,2874.731,1534.517z"/>
				<path style="fill:#548EE2;" d="M2871.475,1509.598h-495.676c-2.975-12.1-8.296-23.176-15.399-32.636h-665.082
					c-7.209,0-13.05-6.252-13.05-13.969v-4.938c0-7.717,5.841-13.969,13.05-13.969h1094.929
					C2828.83,1444.086,2861.374,1471.771,2871.475,1509.598z"/>
			</g>
			<polygon style="fill:#F4D2B8;" points="1713.136,1553.983 1793.802,1557.678 1713.136,1559.903 			"/>
			<polygon style="fill:#F4D2B8;" points="1713.136,1588.469 1905.047,1592.163 1713.136,1594.389 			"/>
		</g>
		<g>
			<g>
				<g>
					<path style="fill:#F99746;" d="M1628.605,1834.374h567.874v-170.958h-572.875c-42.546,0-77.037,34.49-77.037,77.037v11.883
						C1546.567,1797.645,1583.297,1834.374,1628.605,1834.374z"/>
					<path style="fill:#FCECDB;" d="M2169.119,1834.374h647.214v-170.958h-648.989c-43.259,0-78.326,35.068-78.326,78.327v12.528
						C2089.018,1798.511,2124.88,1834.374,2169.119,1834.374z"/>
					<path style="fill:#F99746;" d="M2046.257,1834.374h791.918c6.569,0,11.896-5.326,11.896-11.896v-1.777
						c0-6.57-5.326-11.896-11.896-11.896h-791.918c-6.569,0-11.896,5.325-11.896,11.896v1.777
						C2034.361,1829.048,2039.688,1834.374,2046.257,1834.374z"/>
					<path style="fill:#F99746;" d="M2046.257,1688.984h791.918c6.569,0,11.896-5.325,11.896-11.896v-1.777
						c0-6.569-5.326-11.896-11.896-11.896h-791.918c-6.569,0-11.896,5.326-11.896,11.896v1.777
						C2034.361,1683.659,2039.688,1688.984,2046.257,1688.984z"/>
				</g>
				<polygon style="fill:#F4D2B8;" points="2816.333,1748.896 2728.154,1751.769 2816.333,1753.5 				"/>
				<polygon style="fill:#F4D2B8;" points="2816.333,1709.552 2606.551,1712.426 2816.333,1714.156 				"/>
			</g>
			<g>
				<path style="fill:#699DEE;" d="M2608.711,1711.854c0,0,8.989,7.346,11.966,19.419c0.525,2.111,0.863,4.374,0.933,6.755
					c0.496,16.042,0,52.348,0,52.348l26.542-18.152l26.473,18.152v-49.207c0-9.305-2.272-18.355-6.489-24.282
					c-2.044-2.871-4.524-5.032-7.332-5.032H2608.711z"/>
				<path style="fill:#568CDB;" d="M2608.711,1711.854c0,0,8.989,7.346,11.966,19.419l53.189,0.719c0,0-2.087-17.288-13.063-20.138
					H2608.711z"/>
			</g>
		</g>
		<g>
			<g>
				<g>
					<path style="fill:#FCECDB;" d="M2126.089,1444.55H1567.17v-251.175h560.955c49.598,0,89.806,40.207,89.806,89.806v69.527
						C2217.931,1403.432,2176.812,1444.55,2126.089,1444.55z"/>
					<path style="fill:#AFCDFB;" d="M2218.251,1290.834v54.057c-0.138,23.087-10.839,43.118-26.564,53.828
						c-7.741,5.254-16.688,8.261-26.194,8.261h-615.449c-7.212,0-13.06,6.984-13.06,15.598v6.378c0,8.613,5.848,15.599,13.06,15.599
						H2613.24c30.51,0,57.466-18.112,73.751-45.835c10.269-17.467,16.296-38.736,16.296-61.71v-42.651
						c0-15.737-3.014-30.641-8.396-43.914c-13.673-33.773-42.628-57.063-76.15-57.063H1550.043c-7.212,0-13.06,6.972-13.06,15.585
						v6.378c0,8.614,5.848,15.599,13.06,15.599h617.331c14.753,0,28.108,7.502,37.437,19.501
						C2213.069,1261.077,2218.166,1275.235,2218.251,1290.834z"/>
					<path style="fill:#A4C4F4;" d="M1536.983,1422.577v6.378c0,8.613,5.848,15.599,13.06,15.599H2613.24
						c30.51,0,57.466-18.112,73.751-45.835h-495.305c-7.741,5.254-16.688,8.261-26.194,8.261h-615.449
						C1542.831,1406.979,1536.983,1413.964,1536.983,1422.577z"/>
				</g>
				<polygon style="fill:#F4D2B8;" points="1567.17,1318.963 1646.066,1323.185 1567.17,1325.729 				"/>
				<polygon style="fill:#F4D2B8;" points="1567.17,1261.158 1754.871,1265.381 1567.17,1267.924 				"/>
			</g>
			<g>
				<path style="fill:#F99746;" d="M1752.938,1264.541c0,0-12.387,7.965-16.489,21.057c-0.725,2.288-1.189,4.742-1.285,7.323
					c-0.683,17.395,0,56.761,0,56.761l-36.573-19.683l-36.478,19.683v-53.354c0-10.089,3.131-19.903,8.941-26.33
					c2.817-3.112,6.235-5.456,10.104-5.456H1752.938z"/>
				<path style="fill:#ED7D2B;" d="M1752.938,1264.541c0,0-12.387,7.965-16.489,21.057l-73.291,0.779
					c0,0,2.876-18.746,18.001-21.836H1752.938z"/>
			</g>
		</g>
	</g>
	<g id="girl_2_15_">
		<path style="fill:#ED985F;" d="M818.68,1422.333c0,0,114.567,49.915,135.364,49.007c20.796-0.907,148.943-39.032,148.943-39.032
			l-3.263,22.045c0,0-98.895,56.878-133.469,60.104c-34.04,3.177-150.432-30.55-161.669-37.671
			C793.35,1469.665,786.024,1429.54,818.68,1422.333z"/>
		<path style="fill:#233862;" d="M801.466,1238.71c0,0-42.265-8.027-63.314,7.344c-38.131,27.846-40.179,123.846-54.47,138.146
			c-14.291,14.301-48.74,8.199-51.806,82.195c-3.067,73.997,13.715,80.184-6.271,113.215c-19.986,33.032,8.456,66.093,8.456,66.093
			s-11.649-18.234-6.657-31.396c0,0,4.849,29.047,23.302,35.855c18.453,6.808,21.183,11.8,24.13,21.785
			c0,0,157.426-80.667,157.597-137.884s30.979-113.893,15.851-138.687c0,0,6.738,10.607,7.565,22.407c0,0,9.077-17.394-6.657-33.584
			c-15.734-16.191,18.457-49.699,13.395-88.505C859.109,1269.056,840.415,1239.87,801.466,1238.71z"/>
		<path style="fill:#FFB27D;" d="M832.603,1476.847c-10.062,6.981-22.679,12.737-38.517,16.393
			c-59.371,13.717-82.123-36.462-90.667-70.906c8.096-4.633,15.714-5.654,20.114-6.179c4.291-0.507,8.804-0.843,12.542-1.028
			c6.667-5.106,16.601-26.004,18.797-58.452l2.793,0.749l46.791,12.807c0,0-2.144,14.874-3.194,28.933
			c-0.813,11-0.94,21.514,1.144,24.086c3.651,0.793,5.842,1.31,5.842,1.31s0.003,0.016,0.023,0.044
			C808.9,1425.631,822.475,1447.955,832.603,1476.847z"/>
		<path style="fill:#ED985F;" d="M804.458,1370.238c0,0-2.152,14.861-3.193,28.932c-26.509-2.654-38.811-27.893-43.6-41.736
			L804.458,1370.238z"/>
		<path style="fill:#FFB27D;" d="M812.373,1384.2c0,0-62.921-3.472-60.156-42.623c2.765-39.15-3.494-65.966,36.797-65.404
			c40.291,0.562,47.032,16.051,49.288,29.344C840.558,1318.809,828.812,1384.094,812.373,1384.2z"/>
		<path style="fill:#233862;" d="M837.995,1283.615c-8.87-12.472-16.396-10.414-20.764-7.17
			c-32.997-21.349-57.134,4.984-57.134,4.984c-6.219,27.788-27.629,42.426-27.629,42.426s10.947,7.897,37.842,3.001
			c8.215-1.495,15.829-6.712,22.449-13.226c-11.972,17.146-27.444,29.01-27.444,29.01c32.59-12.318,48.404-55.281,49.999-59.83
			c3.59,3.721,10.615,11.747,12.394,19.248c2.418,10.194,12.848,26.13,18.879,25.861
			C846.587,1327.92,851.297,1302.32,837.995,1283.615z"/>
		<path style="fill:#F9DDBF;" d="M685.497,1604.775c-5.682-29.047-24.209-145.1-5.682-182.443
			c6.654-13.416,32.763-14.626,61.409-13.449c8.914,5.755,42.88,27.501,56.832,24.787c0.149-0.029,0.421-0.094,0.781-0.184
			c6.57-1.644,9.05-6.26,3.57-10.238c-0.012-0.008,14.188-1.368,31.807,1.949c9.952,1.874,36.793,15.762,36.793,15.762
			s-13.517,24.42-33.449,32.85c3.389,30.318-1.65,43.693-33.103,113.721c-26.578,59.192,3.585,112.484,3.585,112.484
			s-156.456,125.793-157.327,61.744C650.06,1713.539,692.759,1641.901,685.497,1604.775z"/>
		<path style="fill:#DD6D22;" d="M815.796,1836.796c8.509-0.96,16.169-5.618,20.926-12.738c0.755-1.13,1.562-2.345,2.418-3.643
			c17.809-26.96,24.739-109.524,64.797-197.482c9.758-21.413,44.782-25.265,54.331-49.474c0,0,23.506-78.461-44.991-80.775
			c-68.496-2.314-183.446,218.314-185.261,241.452C726.258,1756.551,682.731,1851.811,815.796,1836.796z"/>
		<path style="fill:#233862;" d="M1088.043,1834.992H990.55c0,0-3.645-15.55,2.756-26.131c5.666-9.362,3.494-14.696-0.702-22.441
			c4.417,1.808,10.13,3.452,16.42,3.092c4.857-0.279,9.994-2.483,14.499-5.1c4.196,4.784,22.163,25.146,27.777,29.182
			C1057.672,1818.172,1086.081,1816.54,1088.043,1834.992z"/>
		<path style="fill:#ED7D2B;" d="M960.497,1515.365c5.871,44.011,28.795,182.922,69.235,250.694
			c13.038,21.85-32.848,34.099-33.096,34.033c-6.154-1.609-16.407-11.422-21.132-15.681
			c-32.832-29.588-99.479-113.373-99.479-180.544c0-32.753-0.575-95.305,23.241-111.202
			C913.934,1482.875,958.165,1497.885,960.497,1515.365z"/>
		<path style="fill:#F99746;" d="M757.661,1834.993c0,0,3.613-5.029,9.913-14.578c7.498-11.356,15.794-33.704,25.861-62.352
			c10.575-30.073,23.12-67.072,38.796-105.568c4.838-11.883,9.976-23.91,15.44-35.919c9.758-21.413,36.599-18.454,46.149-42.663
			c0,0,37.262-83.919-31.235-86.234c-68.497-2.314-198.656,224.49-206.135,246.457
			C648.262,1758.182,608.313,1858.031,757.661,1834.993z"/>
		<path style="fill:#2B478B;" d="M1016.477,1834.992h-97.493c0,0-3.645-15.55,2.756-26.131c5.666-9.362,3.494-14.696-0.702-22.441
			c4.417,1.808,10.13,3.452,16.42,3.092c4.857-0.279,9.994-2.483,14.498-5.1c4.196,4.784,22.163,25.146,27.777,29.182
			C986.105,1818.172,1014.515,1816.54,1016.477,1834.992z"/>
		<path style="fill:#ED7D2B;" d="M793.435,1758.063c10.575-30.073,23.12-67.072,38.796-105.568
			c-4.094-29.166-12.926-54.682-27.776-64.966C804.455,1587.529,768.427,1699.143,793.435,1758.063z"/>
		<path style="fill:#F99746;" d="M903.587,1512.245c5.871,44.011,14.139,186.042,54.579,253.814
			c13.038,21.85-32.848,34.099-33.096,34.033c-6.155-1.609-16.407-11.422-21.133-15.681
			c-32.831-29.588-99.479-113.373-99.479-180.544c0-32.753,38.437-92.678,62.253-108.575
			C881.379,1485.502,901.255,1494.765,903.587,1512.245z"/>
		<path style="fill:#FFFFFF;" d="M824.153,1361.685c0,0-5.949-2.352-22.687-0.996c0,0,0.889,6.53,13.233,7.176
			C821.692,1368.229,824.153,1361.685,824.153,1361.685z"/>
		<g>
			<g>
				<polygon style="fill:#163560;" points="1115.214,1386.192 1095.002,1349.725 1051.277,1471.736 1077.073,1499.43 				"/>
				<polygon style="fill:#1C468A;" points="1009.676,1407.551 969.031,1523.666 1077.073,1499.43 1115.214,1386.192 				"/>
				<polygon style="fill:#EFDECE;" points="971.185,1517.81 969.292,1514.498 1007.752,1404.614 1009.676,1407.551 				"/>
				<polygon style="fill:#FCECDB;" points="1007.752,1404.614 1110.184,1384.681 1115.214,1386.192 1009.676,1407.551 				"/>
			</g>
			<polygon style="fill:#EFDECE;" points="1115.214,1386.192 1093.359,1351.497 1079.425,1390.666 1110.184,1384.681 			"/>
		</g>
		<path style="fill:#FFB27D;" d="M1040.872,1424.365c-3.514-0.676-11.051-3.518-18.683-5.616c2.279-1.769,4.814-3.942,5.52-6.173
			c1.362-4.301,2.269-5.685-2.269-4.323c-4.539,1.362-20.418,8.646-20.418,8.646s0.033,0.017,0.041,0.021
			c-9.023,2.636-17.336,15.389-17.336,15.389s-111.703,39.266-125.142,39.94c-20.79,1.044-159.166-49.915-159.166-49.915
			c-32.656,7.207-25.33,47.332-14.093,54.453s110.808,43.343,169.818,44.024c29.889,0.346,138.61-69.532,138.61-69.532
			s12.708-5.809,22.693-3.993s33.132,0,38.125-8.169C1063.564,1430.946,1046.772,1425.5,1040.872,1424.365z"/>
		<path style="fill:#F9DDBF;" d="M774.711,1447.465c0,0-12.376,39.178-54.88,48.093c0,0-70.189-21.624-35.242-69.441
			C684.59,1426.116,719.144,1400.441,774.711,1447.465z"/>
		<path style="fill:#FFB27D;" d="M1113.395,1427.315l-0.007,0.009c0.027-1.086-0.083-2.156-0.372-3.186
			c0,0-10.012-15.837-13.291-16.484c-9.987-1.973-9.987,11.178-7.869,19.661c1.475,5.907,5.229,11.582,8.268,14.644l-0.001,0.002
			l-0.397,12.392C1116.596,1445.081,1113.395,1427.315,1113.395,1427.315z"/>
	</g>
	<g>
		<path style="fill:#EBF3FA;" d="M526.961,1220.513c3.99-98.752-78.781-142.626-163.413-142.626
			c-84.633,0-176.733,21.929-184.713,153.241c-5.134,84.478,39.9,136.458,169.575,136.458c43.734,0,77.723-6.898,103.756-19.199
			l64.821,57.599l-31.854-79.615C513.351,1300.134,525.24,1263.127,526.961,1220.513z"/>
		<g>
			<path style="fill:#91B5F8;" d="M299.246,1187.495v23.069h15.088v-23.069h6.146v53.803h-6.146v-25.146h-15.088v25.146H293.1
				v-53.803H299.246z"/>
			<path style="fill:#91B5F8;" d="M333.575,1222.538c0,11.896,4.709,14.369,9.101,14.369c2.714,0,4.869-0.639,6.386-1.437
				l1.038,4.47c-2.155,1.118-5.428,1.836-8.541,1.836c-9.26,0-14.05-7.583-14.05-19.397c0-12.453,5.348-20.276,13.092-20.276
				c7.823,0,11.016,8.303,11.016,16.923c0,1.518-0.08,2.555-0.159,3.513H333.575z M345.708,1217.988
				c0.08-7.663-2.794-11.096-5.748-11.096c-4.071,0-6.067,5.827-6.306,11.096H345.708z"/>
			<path style="fill:#91B5F8;" d="M358.242,1186.059h6.146v55.239h-6.146V1186.059z"/>
			<path style="fill:#91B5F8;" d="M373.489,1186.059h6.146v55.239h-6.146V1186.059z"/>
			<path style="fill:#91B5F8;" d="M412.445,1221.979c0,14.928-6.865,19.957-12.852,19.957c-6.945,0-12.533-6.307-12.533-19.877
				c0-14.05,6.307-19.957,12.932-19.957C406.938,1202.103,412.445,1208.569,412.445,1221.979z M393.207,1221.979
				c0,6.387,1.118,15.088,6.706,15.088c5.269,0,6.386-9.021,6.386-15.088c0-5.906-1.117-15.007-6.546-15.007
				C394.245,1206.973,393.207,1216.073,393.207,1221.979z"/>
		</g>
	</g>
	<g>
		<path style="fill:#91B5F8;" d="M2222.201,924.141c3.648-90.281-72.021-130.39-149.395-130.39
			c-77.372,0-161.571,20.047-168.867,140.095c-4.692,77.229,36.478,124.751,155.027,124.751c39.982,0,71.056-6.306,94.855-17.552
			l59.261,52.657l-29.122-72.785C2209.759,996.932,2220.628,963.099,2222.201,924.141z"/>
		<g>
			<path style="fill:#FFFFFF;" d="M1983.204,908.477c2.161-0.54,4.659-0.878,7.563-0.878c4.119,0,7.63,0.878,10.061,3.174
				c1.959,1.823,2.972,4.524,2.972,7.766c0,4.659-2.566,8.306-7.022,10.061v0.203c5.267,1.418,8.44,5.672,8.44,11.614
				c0,3.782-1.216,6.821-3.241,9.049c-2.566,2.904-6.82,4.12-12.02,4.12c-3.309,0-5.335-0.203-6.753-0.473V908.477z
				 M1988.336,927.115h2.363c4.255,0,7.9-3.241,7.9-8.035c0-4.187-1.957-7.428-7.495-7.428c-1.216,0-2.16,0.135-2.769,0.337V927.115
				z M1988.336,949.196c0.608,0.136,1.486,0.271,2.634,0.271c5.335,0,8.846-3.173,8.846-9.049c0-6.279-4.321-9.25-9.183-9.318
				h-2.297V949.196z"/>
			<path style="fill:#FFFFFF;" d="M2031.419,936.974c0,12.628-5.809,16.882-10.872,16.882c-5.875,0-10.602-5.335-10.602-16.815
				c0-11.884,5.334-16.881,10.938-16.881C2026.759,920.16,2031.419,925.629,2031.419,936.974z M2015.145,936.974
				c0,5.403,0.945,12.763,5.672,12.763c4.457,0,5.402-7.63,5.402-12.763c0-4.996-0.945-12.694-5.537-12.694
				C2016.022,924.279,2015.145,931.977,2015.145,936.974z"/>
			<path style="fill:#FFFFFF;" d="M2037.227,929.073c0-3.849-0.202-5.808-0.27-8.441h4.524l0.271,3.984h0.135
				c1.418-2.633,4.052-4.457,7.496-4.457c4.523,0,7.9,3.309,7.9,11.209v21.946h-5.2v-21.001c0-3.917-0.743-7.766-4.524-7.766
				c-2.161,0-4.254,1.824-4.861,5.268c-0.203,0.811-0.271,1.823-0.271,2.971v20.528h-5.2V929.073z"/>
			<path style="fill:#FFFFFF;" d="M2059.04,962.702c1.485-0.405,3.309-0.945,4.39-2.566c1.147-1.756,1.553-4.187,1.553-10.399
				v-29.104h5.199v30.589c0,6.888-1.013,10.062-3.309,12.493c-1.958,2.026-5.132,3.039-7.158,3.106L2059.04,962.702z
				 M2070.655,912.192c0,2.026-1.216,3.377-3.106,3.377c-1.756,0-3.039-1.351-3.039-3.377s1.351-3.376,3.105-3.376
				C2069.439,908.815,2070.655,910.166,2070.655,912.192z"/>
			<path style="fill:#FFFFFF;" d="M2097.327,936.974c0,12.628-5.808,16.882-10.871,16.882c-5.875,0-10.603-5.335-10.603-16.815
				c0-11.884,5.335-16.881,10.939-16.881C2092.668,920.16,2097.327,925.629,2097.327,936.974z M2081.054,936.974
				c0,5.403,0.944,12.763,5.672,12.763c4.457,0,5.402-7.63,5.402-12.763c0-4.996-0.945-12.694-5.537-12.694
				C2081.932,924.279,2081.054,931.977,2081.054,936.974z"/>
			<path style="fill:#FFFFFF;" d="M2122.719,944.401c0,3.58,0.202,6.483,0.27,8.914h-4.523l-0.405-3.444h-0.135
				c-0.946,1.621-3.444,3.984-6.955,3.984c-5.673,0-7.969-4.457-7.969-12.56v-20.663h5.199v19.92c0,5.132,0.811,8.914,4.39,8.914
				c3.038,0,4.389-2.836,4.659-4.322c0.203-0.878,0.271-1.891,0.271-2.971v-21.541h5.199V944.401z"/>
			<path style="fill:#FFFFFF;" d="M2129.945,929.073c0-2.768-0.202-6.01-0.27-8.441h4.658l0.271,5.2h0.135
				c1.081-3.106,3.85-5.672,6.888-5.672c0.405,0,0.743,0,1.081,0.067v5.268c-0.338,0-0.676,0-1.081,0
				c-3.309,0-5.739,3.039-6.279,6.752c-0.136,0.878-0.203,1.891-0.203,2.971v18.097h-5.199V929.073z"/>
		</g>
	</g>
	<g>
		<path style="fill:#233862;" d="M2198.12,1400.481c18.36,32.483,41.651,45.136,41.651,45.136l97.264,0.687
			C2337.035,1446.304,2184.114,1375.701,2198.12,1400.481z"/>
		<g>
			<path style="fill:#FFB27D;" d="M2271.057,1651.321c2.514,2.923,2.814,6.171,1.535,9.628c-0.001,0.015-0.01,0.035-0.025,0.048
				c-2.365,6.395-10.079,13.499-19.032,20.585c-1.144,0.911-2.162,1.738-3.049,2.506c-0.233,0.201-0.466,0.402-0.685,0.605
				c-0.181,0.156-0.354,0.319-0.527,0.469c-8.355,7.594-5.244,9.369-20.268,24.793c-17.132,17.574-28.842,17.811-32.162,16.175
				c-2.808-1.395,2.984-10.738,9.402-21.241c0.311-0.506,0.615-1.02,0.935-1.531c0.854-1.396,1.704-2.814,2.553-4.218
				c7.524-12.642,5.657-18.612,4.028-37.517c-1.324-15.362-23.278-85.937-23.278-85.937l32.629-5.384
				c0,0,9.419,56.141,20.171,64.853c5.75,4.644,12.223,4.747,17.756,8.198c0.391,0.239,0.775,0.485,1.15,0.738
				C2265.334,1646.208,2268.535,1648.391,2271.057,1651.321z"/>
			<path style="fill:#233862;" d="M2271.057,1651.321c2.514,2.923,2.814,6.171,1.535,9.628c-0.001,0.015-0.01,0.035-0.025,0.048
				c-2.886,6.385-10.407,13.454-19.063,20.52c-1.131,0.926-2.13,1.776-3.019,2.571c-0.233,0.201-0.466,0.402-0.685,0.605
				c-0.181,0.156-0.354,0.319-0.527,0.469c-8.355,7.594-5.244,9.369-20.268,24.793c-17.132,17.574-28.842,17.811-32.162,16.175
				c-2.808-1.395,2.984-10.738,9.402-21.241c3.319-1.189,18.74-7.327,30.472-22.123c10.332-12.995,17.28-29.736,24.321-39.412
				c0.391,0.239,0.775,0.485,1.15,0.738C2265.334,1646.208,2268.535,1648.391,2271.057,1651.321z"/>
			<path style="fill:#FFB27D;" d="M2008.414,1629.112c-2.083,10.046-16.41,8.267-32.403,4.238c-15.993-4.027-12.218,0.653-35-2.032
				c-22.783-2.685-29.63-11.234-30.302-14.63c-0.602-3.013,10.672-3.994,22.766-5.301c1.521-0.159,3.049-0.337,4.577-0.515
				c13.655-1.615,23.709-10.349,36.152-17.491c11.787-6.767,29.502-34.546,29.502-34.546l31.252,2.697
				c0,0-16.585,24.807-23.008,35.598c-3.778,6.347-3.639,14.776-3.22,21.287C2008.947,1621.957,2009.153,1625.574,2008.414,1629.112
				z"/>
			<path style="fill:#233862;" d="M1976.011,1633.351c-15.993-4.027-12.218,0.653-35-2.032c-22.783-2.685-29.63-11.234-30.302-14.63
				c-0.602-3.013,10.672-3.994,22.766-5.301l0.111,0.233c0,0,13.605,9.791,32.582,10.38c15.466,0.485,31.882-3.831,42.563-3.583
				c0.217,3.539,0.423,7.156-0.316,10.694C2006.331,1639.158,1992.004,1637.379,1976.011,1633.351z"/>
			<path style="fill:#233862;" d="M2129.656,1430.018l28.676,78.862l37.438,102.972c0,0,10.35,1.073,20.286-1.71
				c9.149-2.574,19.676-9.405,19.676-9.405s-9.819-110.348-29.14-173.789c-4.951-16.283-10.536-29.467-16.749-36.908
				C2159.454,1353.607,2129.656,1430.018,2129.656,1430.018z"/>
			<path style="fill:#2B478B;" d="M2160.257,1305.311c19.193-6.042,73.757,2.274,128.548,13.402l11.621-18.867l118.574-8.419
				c0,0,38.494,86.998,16.695,142.105c-3.204,8.099-11.018,11.47-21.677,11.565c-0.005,0.006-0.009,0.011-0.013,0.016
				c0,0-70.729,1.228-93.632,1.066c-58.937-0.416-124.443-41.393-132.943-43.155c-13.911-2.885-19.681,24.938-33.817,54.095
				c-14.138,29.157-131.866,128.635-131.866,128.635s-17.986,0.052-25.396-2.787c-7.969-3.053-10.864-6.965-10.864-6.965
				S2116.973,1318.937,2160.257,1305.311z"/>
			<path style="fill:#233862;" d="M2302.273,1136.646c42.037,23.533,127.309,72.308,127.756,71.999c0,0,31.383,12.08,49.318,0.35
				c29.893-19.55,46.225-72.617-7.866-118.767c-26.977-23.017-46.217-28.709-48.89-65.175
				c-1.449-19.784-28.018-85.229-72.968-79.511c-3.757,0.478-7.54,0.813-11.324,0.664c-5.243-0.207-13.907,0.498-22.828,5.724
				C2289.949,966.882,2239.072,1127.206,2302.273,1136.646z"/>
			<path style="fill:#FFB27D;" d="M2337.784,1117.117c-0.187,0.119,20.713,7.419,34.765,1.313
				c13.219-5.73,23.355-27.342,23.159-27.354c-5.993-0.318-12.537-5.606-17.362-40.032l-2.56,0.898l-43.029,15.141
				c0,0,3.013,13.794,4.931,26.92C2339.305,1105.024,2340.14,1115.577,2337.784,1117.117z"/>
			<path style="fill:#ED975D;" d="M2332.757,1067.083c0,0,1.834,9.667,4.38,23.482c24.684-4.264,35.084-25.319,38.649-38.623
				L2332.757,1067.083z"/>
			<path style="fill:#FFB27D;" d="M2326.269,1080.707c0,0,58.778-7.467,53.564-44c-5.214-36.533-1.139-62.101-38.888-58.877
				c-37.749,3.223-43.035,18.202-44.261,30.819C2295.459,1021.266,2310.844,1081.708,2326.269,1080.707z"/>
			<path style="fill:#233862;" d="M2298.966,988.66c0,0,37.363,32.661,62.914,35.453c25.552,2.792,35.29-5.348,35.29-5.348
				s-14.984-12.62-23.911-32.879c-2.632-5.971-8.25-10.096-14.747-10.703C2340.265,973.478,2305.658,972.515,2298.966,988.66z"/>
			<path style="fill:#233862;" d="M2322.485,985.924c0,0-12.661,12.07-16.686,21.061c-3.884,8.677-5.177,29.483-2.191,37.772
				c0,0-19.325-38.237-8.102-56.67C2307.408,968.543,2322.485,985.924,2322.485,985.924z"/>
			<path style="fill:#F9DDBF;" d="M2287.726,1203.272c0.938,118.882-0.176,94.034,12.747,105.405
				c3.114,2.737,11.911,4.418,23.498,5.266c36.433,2.677,100.549-2.876,103.033-9.596c8.571-23.248,2.687-30.53,9.953-66.164
				c0.758-3.79,1.692-7.892,2.785-12.357c6.022-24.468,11.773-32.765-8.697-72.285c-18.565-35.799-37.908-64.884-39.674-63.852
				c-49.852,29.119-53.681,4.321-53.681,4.321S2287.265,1145.285,2287.726,1203.272z"/>
			<path style="fill:#2B478B;" d="M2158.332,1508.88l37.438,102.972c0,0,10.35,1.073,20.286-1.71
				c9.149-2.574,19.676-9.405,19.676-9.405s-9.819-110.348-29.14-173.789L2158.332,1508.88z"/>
			<path style="fill:#F9DDBF;" d="M2337.688,1094.003c0,0-51.142,8.301-57.296,30.251c-6.153,21.951-42.364,150.997-42.364,150.997
				s25.936,4.849,38.017-7.063s42.528-111.005,42.528-111.005L2337.688,1094.003z"/>
			<path style="fill:#F2CCAA;" d="M2323.971,1313.943c36.433,2.677,100.549-2.876,103.033-9.596
				c8.571-23.248,2.687-30.53,9.953-66.164l-17.231-49.629c0,0,2.519,55.146-13.842,69.532
				c-16.343,14.385-66.76,27.52-74.748,39.579C2327.282,1303.453,2324.734,1309.267,2323.971,1313.943z"/>
			<path style="fill:#FFB27D;" d="M2365.896,1291.053c0,0-35.903-8.261-41.729-5.11c-5.824,3.15-20.087,14.672-21.891,18.703
				c-1.805,4.032,12.939-2.979,17.728-4.227c3.101-0.808,11.228,2.08,15.251,3.453c16.932,5.777,27.352,2.94,27.352,2.94
				L2365.896,1291.053z"/>
			<path style="fill:#F9DDBF;" d="M2391.401,1089.663c0,0,48.263,3.315,64.813,26.746c23.298,32.983,68.986,173.171,42.104,191.636
				c-30.273,20.793-137.146,4.527-137.146,4.527s-3.443-16.665,1.567-24.68c5.01-8.015,85.597-20.449,89.338-24.139
				c3.741-3.688-45.928-72.772-45.85-83.918C2406.309,1168.69,2391.401,1089.663,2391.401,1089.663z"/>
			<path style="fill:#FFB27D;" d="M2322.357,1295.938c0,0-7.604,9.666-10.082,10.809c-2.478,1.144-4.071,0.842-4.071,0.842
				l5.142-9.103L2322.357,1295.938z"/>
			<path style="fill:#FFB27D;" d="M2324.168,1285.942l-21.98,10.483c0,0,0.921,1.531,3.619,1.427c2.698-0.104,9.52-2.544,9.52-2.544
				L2324.168,1285.942z"/>
		</g>
		<g>
			<g>
				<polygon style="fill:#F99746;" points="2316.963,1322.435 2143.679,1321.212 2092.467,1191.219 2265.483,1192.439 				"/>
				<polygon style="fill:#ED7D2B;" points="2141.684,1316.146 2370.506,1317.762 2370.471,1322.812 2143.679,1321.212 				"/>
			</g>
			<path style="fill:#FFFFFF;" d="M2187.879,1256.707c-1.274-4.565,1.387-8.24,5.943-8.208c4.557,0.031,9.283,3.759,10.558,8.325
				c1.274,4.565-1.386,8.241-5.942,8.209S2189.153,1261.273,2187.879,1256.707z"/>
		</g>
	</g>
	<g>
		
			<rect x="1474.772" y="1520.614" transform="matrix(1.958630e-04 -1 1 1.958630e-04 -257.0573 3310.6179)" style="fill:#C65447;" width="104.665" height="526.497"/>
		<path style="fill:#FCECDB;" d="M1263.843,1836.147l-77.381-33.102l-45.007-19.252l46.068-19.688l76.347-32.627
			c0,0,10.188,25.485,10.34,49.45C1274.448,1818.543,1263.843,1836.147,1263.843,1836.147z"/>
		<path style="fill:#FCECDB;" d="M1851.564,1766.314l-0.007,33.089c-0.003,20.354-16.507,36.852-36.861,36.848l-24.354-0.005
			l0.021-104.665l26.486,0.005C1836.025,1731.59,1851.568,1747.139,1851.564,1766.314z"/>
		<path style="fill:#2B478B;" d="M1187.523,1764.105c1.916,10.575,3.582,26.779-1.061,38.94l-45.007-19.252L1187.523,1764.105z"/>
	</g>
	<g>
		<path style="fill:#F99746;" d="M1377.042,1186.519c0,0,9.433,40.92,36.923,40.92c23.563,0,55.887-53.264,55.887-53.264
			L1377.042,1186.519z"/>
		<path style="fill:#2B478B;" d="M1692.654,1790.914l-17.663,12.144c0,0-84.942-90.537-105.449-177.323
			c-3.656-15.495-5.137-30.778-3.57-45.277c0,0-1.24-3.93-3.41-10.88c-0.096-0.304-0.192-0.616-0.289-0.928
			c-0.949-3.05-2.088-6.636-3.354-10.697c-4.117-13.114-9.775-31.06-16.221-51.491c-14.846-47.018-48.8-153.056-63.309-197.164
			l104.28-37.729c0,0,11.845,27.01,28.865,100.424c2.621,9.582,5.249,20.178,7.701,31.723c2.781,13.076,5.376,27.374,7.537,42.821
			c3.657,26.168,6.1,55.608,6.251,87.901c0.058,13.136-0.264,26.758-1.043,40.812c-0.569,10.306,0.961,24.039,3.834,39.661
			C1649.954,1686.335,1692.654,1790.914,1692.654,1790.914z"/>
		<path style="fill:#233862;" d="M1748.209,1834.544h-84.308c0,0-3.151-13.446,2.383-22.598c4.899-8.096,3.022-12.708-0.606-19.405
			c3.819,1.563,8.76,2.985,14.199,2.674c4.2-0.241,8.643-2.148,12.538-4.41c3.628,4.137,19.166,21.746,24.021,25.234
			C1721.945,1819.998,1746.513,1818.587,1748.209,1834.544z"/>
		<path style="fill:#233862;" d="M1627.773,1446.536l-65.5,122.113c-0.949-3.05-2.088-6.636-3.354-10.697
			c-4.117-13.114-9.775-31.06-16.221-51.491c-14.846-47.018-48.8-153.056-63.309-197.164l104.28-37.729
			c0,0,11.845,27.01,28.865,100.424c2.621,9.582,5.249,20.178,7.701,31.723C1623.018,1416.791,1625.612,1431.089,1627.773,1446.536z
			"/>
		<path style="fill:#233862;" d="M1477.693,1808.154c0,0-5.835,14.316-0.341,26.39h45.859c0,0,0.952-10.888-15.689-23.512
			C1494.917,1801.471,1477.693,1808.154,1477.693,1808.154z"/>
		<path style="fill:#2C3A64;" d="M1527.599,875.986c0.028-2.282,1.201-26.897,38.599-29.084c0,0-18.353,2.638-21.338,10.806
			c0,0,12.292-10.3,22.575-7.331c10.284,2.97,16.709,20.706,16.911,26.586c0.202,5.88-5.011,24.975-11.45,26.744
			c-2.439,0.669-5.269,0.574-7.845,0.199c1.788,2.649,3.549,5.577,5.243,8.853c15.674,30.298,2.152,65.988-10.571,62.982
			c-8.16-1.928-13.121,12.215-13.121,12.215l-78.478-67.487C1468.124,920.47,1495.617,859.896,1527.599,875.986z"/>
		<path style="fill:#FFB27D;" d="M1478.267,1081.055c8.701,6.036,19.612,11.015,33.308,14.175
			c51.341,11.862,71.017-31.53,78.405-61.316c-7.001-4.006-13.589-4.89-17.394-5.344c-3.71-0.438-7.613-0.728-10.845-0.888
			c-5.765-4.416-14.355-22.488-16.255-50.547l-2.416,0.647l-40.462,11.075c0,0,1.854,12.862,2.762,25.019
			c0.702,9.514,0.813,18.605-0.99,20.83c-3.157,0.685-5.052,1.132-5.052,1.132s-0.002,0.014-0.021,0.038
			C1498.764,1036.766,1487.026,1056.07,1478.267,1081.055z"/>
		<path style="fill:#ED985F;" d="M1502.605,988.864c0,0,1.86,12.851,2.761,25.019c22.924-2.295,33.562-24.121,37.704-36.092
			L1502.605,988.864z"/>
		<path style="fill:#FFB27D;" d="M1502.136,1008.167c0,0,52.779-13.563,43.827-46.301c-8.952-32.738-8.169-56.538-42.246-49.262
			c-34.077,7.275-37.181,21.55-36.851,33.205S1488.175,1010.852,1502.136,1008.167z"/>
		<path style="fill:#2C3A64;" d="M1463.431,927.182c5.418-12.075,12.149-11.6,16.401-9.585c24.383-23.675,49.298-5.414,49.298-5.414
			c9.963,22.518,30.592,31.32,30.592,31.32s-7.952,8.546-31.589,8.931c-7.22,0.118-14.558-3.021-21.271-7.429
			c13.047,12.523,28.172,19.973,28.172,19.973c-29.719-4.948-50.382-38.718-52.502-42.306c-2.417,3.761-7.021,11.754-7.264,18.417
			c-0.331,9.054,3.203,26.534-1.958,27.324C1473.311,968.412,1455.306,945.29,1463.431,927.182z"/>
		<path style="fill:#FFB27D;" d="M1486.955,1033.114c0,0,88.641-21.521,127.185,10.269l-19.262,268.633l-173.358-41.881
			c0,0,4.877-16.998,38.12-62.199C1492.881,1162.733,1478.422,1096.433,1486.955,1033.114z"/>
		<path style="fill:#2B478B;" d="M1538.63,1282.112c0,0-0.102,0.911-0.282,2.646c-0.079,0.745-0.181,1.648-0.291,2.7
			c-0.746,6.963-2.159,20.322-3.98,37.693c-4.757,45.56-12.222,118.733-17.309,176.491c-3.979,45.158-6.507,80.898-5.141,86.636
			c4.105,17.27,0,223.714,0,223.714c-14.734,7.065-37.074,0-37.074,0s-39.248-186.035-33.753-211.893
			c5.495-25.856-3.674-47.93-3.674-47.93c-30.472-141.913-27.136-220.566-21.084-258.221c1.758-10.95,3.752-18.431,5.212-22.991
			c1.232-3.878,2.088-5.651,2.088-5.651C1490.559,1247.221,1538.63,1282.112,1538.63,1282.112z"/>
		<path style="fill:#F99746;" d="M1626.09,1120.002c-4.277,32.317-21.397,71.863-27.513,93.151c0,0,10.221,73.904,0.463,94.195
			c-1.107,2.315-2.48,3.933-4.16,4.663c-36.147,15.746-176.922,0.455-182.865-44.955c-2.159-16.5,53.621-74.54,56.871-81.581
			c1.35-2.912,2.787-12.355-3.752-31.924c-9.27,28.58-60.434,20.361-60.434,20.361c6.005-10.275,20.966-81.361,37.67-113.45
			c12.56-24.122,46.093-27.615,46.093-27.615s13.957,22.136,47.71,18.996c33.753-3.14,39.925-23.801,39.925-23.801
			s29.936,3.98,39.16,11.422C1616.857,1040.754,1631.703,1077.661,1626.09,1120.002z"/>
		<path style="fill:#ED7D2B;" d="M1598.577,1213.153c0,0,10.221,73.904,0.463,94.195c-26.335-13.219-47.091-48.979-42.299-88.814
			c3.542-29.447,8.805-36.164,24.561-53.015c11.576-12.381,38.338-13.079,36.242-7.188
			C1611.3,1175.874,1601.807,1201.909,1598.577,1213.153z"/>
		<g>
			<polygon style="fill:#1C468A;" points="1488.642,1125.757 1549.001,1222.593 1446.299,1222.593 1388.79,1127.853 			"/>
			<polygon style="fill:#EFDECE;" points="1545.863,1217.729 1546.904,1214.348 1489.787,1122.708 1488.642,1125.757 			"/>
			<polygon style="fill:#FCECDB;" points="1489.787,1122.708 1393.036,1125.464 1388.79,1127.853 1488.642,1125.757 			"/>
			<polygon style="fill:#163560;" points="1388.79,1127.853 1334.513,1098.474 1397.782,1197.828 1446.299,1222.593 			"/>
		</g>
		<path style="fill:#FFB27D;" d="M1676.015,1195.71c-5.813,2.657-20.735,20.234-26.063,22.02
			c-23.948,8.012-125.87-13.312-125.87-13.312l3.156-17.851c0,0,100.036,2.656,111.032-0.285
			c2.071-0.558,12.882-17.466,17.037-19.894L1676.015,1195.71z"/>
		<path style="fill:#FFB27D;" d="M1527.244,1186.564c0,0-12.064-9.818-20.215-7.598c-8.151,2.221-20.146,12.53-24.599,14.971
			c-4.453,2.441-16.553,11.172-10.421,16.451c6.133,5.279,25.225,0.746,32.788-3.301c7.563-4.046,19.291-2.665,19.291-2.665
			L1527.244,1186.564z"/>
		<path style="fill:#FFB27D;" d="M1509.339,1178.646c0,0-14.662-1.748-18.666-1.668c-4.004,0.08-2.916,0.958-0.706,4.065
			c2.209,3.107,9.845,4.295,10.195,5.382S1509.339,1178.646,1509.339,1178.646z"/>
		<path style="fill:#F99746;" d="M1576.098,1028.043c0,0,43.477,5.158,55.448,23.801c15.137,23.573,50.856,117.459,49.705,141.116
			c0,0-26.117,44.448-115.674,37.335c0,0-9.318-32.91,9.521-43.776c0,0,45.998-8.18,51.297-12.847l-37.504-68.156L1576.098,1028.043
			z"/>
		<path style="fill:#FFB27D;" d="M1402.697,1163.25c-1.348-5.477-13.292-2.056-17.317,1.096c-0.978,0.767-2.029,2.07-3.061,3.599
			c-0.125-0.917-0.234-1.794-0.294-2.479c-0.227-2.573-3.224-7.182-3.968-3.731c-0.744,3.451-1.969,17.949-1.969,17.949
			c-0.146,11.679,7.362,16.496,12.185,12.696S1404.045,1168.727,1402.697,1163.25z"/>
	</g>
	<path style="fill:#2E3552;" d="M2998.538,1843.873H260.114c-1.94,0-3.528-1.587-3.528-3.527v-2.311c0-1.94,1.587-3.528,3.528-3.528
		h2738.424c1.94,0,3.528,1.588,3.528,3.528v2.311C3002.066,1842.286,3000.479,1843.873,2998.538,1843.873z"/>
</g>
</svg>
