<?xml version="1.0" encoding="utf-8"?>
<!-- Generator: Adobe Illustrator 27.5.0, SVG Export Plug-In . SVG Version: 6.00 Build 0)  -->
<svg version="1.1" xmlns="http://www.w3.org/2000/svg" xmlns:xlink="http://www.w3.org/1999/xlink" x="0px" y="0px"
	 viewBox="0 0 3500 2500" style="enable-background:new 0 0 3500 2500;" xml:space="preserve">
<g id="BG">
	<rect x="0" style="fill:#FFFFFF;" width="3500" height="2500"/>
</g>
<g id="room">
	<path style="fill:#C7EBFF;" d="M464.133,2170.001c234.377-314.207,82.191-592.781,7.062-965.377
		C287.092,611.201,1003.927,132.181,1720.807,595.808c444.716,287.611,859.935-3.503,1193.485,298.709
		c265.265,240.343,1.11,747.503-4.62,976.054c-4.517,180.162,150.549,299.429,150.549,299.429H464.133z"/>
	<path id="shadow" d="M3204.709,2181.833H265.292c-2.881,0-5.217-2.336-5.217-5.217l0,0c0-2.881,2.336-5.217,5.217-5.217h2939.417
		c2.881,0,5.217,2.336,5.217,5.217l0,0C3209.926,2179.497,3207.59,2181.833,3204.709,2181.833z"/>
	<g id="plant_2_">
		<g>
			<g>
				<path style="fill:#6BB2E3;" d="M2750.022,2087.945L2750.022,2087.945c67.19,0,121.658-54.468,121.658-121.658v-165.852h-243.317
					v165.852C2628.364,2033.477,2682.832,2087.945,2750.022,2087.945z"/>
				
					<rect x="2871.681" y="1925.774" transform="matrix(-1 -1.224647e-16 1.224647e-16 -1 5756.8457 4108.9746)" style="fill:#425899;" width="13.484" height="257.426"/>
				
					<rect x="2614.879" y="1925.774" transform="matrix(-1 -1.224647e-16 1.224647e-16 -1 5243.2432 4108.9746)" style="fill:#425899;" width="13.484" height="257.426"/>
				
					<rect x="2718.066" y="1925.774" transform="matrix(-1 -1.224647e-16 1.224647e-16 -1 5449.6167 4108.9746)" style="fill:#425899;" width="13.484" height="257.426"/>
			</g>
			
				<rect x="2749.71" y="1965.974" transform="matrix(-1.836970e-16 1 -1 -1.836970e-16 4851.1387 -661.7648)" style="fill:#425899;" width="13.484" height="257.426"/>
		</g>
		<g>
			<path style="fill:#A3CFFF;" d="M2709.547,1487.141c22.729,12.097,4.773,41.818,14.08,69.994
				c9.308,28.175,46.711,27.494,32.585,77.912c-8.701,31.053-39.522,11.588-38.817,51.959c0.705,40.371,15.992,39.383,4.128,60.139
				c-20.681,36.184-91.18,15.942-91.735-24.46c-0.555-40.402,33.263-54.145,4.69-72.937c-28.573-18.792-40.003-27.34-21.197-54.21
				c23.276-33.257,59.367-32.251,49.271-58.211C2652.457,1511.366,2679.485,1471.141,2709.547,1487.141z"/>
			<path style="fill:#425899;" d="M2697.537,1799.52l-5.922,1.7c-40.23-140.196-2.563-272.207-2.177-273.523l5.912,1.729
				C2694.971,1530.726,2657.816,1661.096,2697.537,1799.52z"/>
		</g>
		<g>
			<path style="fill:#A1D3FF;" d="M3011.204,1457.719c16.774,30.105-24.996,50.489-34.986,88.929
				c-9.991,38.441,34.78,49.495-17.713,95.933c-32.33,28.601-40.268,12.191-49.529,72.876c-8.154,53.427-50.944,5.233-79.354,37.824
				c-36.657,42.052-101.802-42.633-73.092-88.467c28.71-45.835,65.509-36.297,47.023-78.174
				c-18.486-41.876-0.787-75.081,39.87-91.642c50.32-20.497,71.004,21.555,78.5-14.968
				C2929.419,1443.508,2989.017,1417.9,3011.204,1457.719z"/>
			<path style="fill:#425899;" d="M2770.893,1800.264c55.869-184.599,192.277-304.119,193.647-305.303l-5.395-6.24
				c-1.389,1.202-139.591,122.294-196.146,309.153L2770.893,1800.264z"/>
		</g>
	</g>
</g>
<g id="characters">
	<g id="doctor">
		<g>
			<path style="fill:#61B8FF;" d="M699.255,999.275c2.498,15.15,10.919,28.889,22.483,38.801
				c11.564,9.913,26.311,16.078,41.46,16.078h142.15c20.025,0,35.779-10.759,42.71-26.795c3.546-8.22,4.795-17.809,3.103-28.083
				c-2.498-15.15-10.919-28.889-22.443-38.801c-11.604-9.912-26.311-16.078-41.46-16.078H745.107c-7.011,0-13.498,1.33-19.259,3.708
				C706.669,956.082,695.427,975.986,699.255,999.275z"/>
			<path style="fill:#123E80;" d="M898.154,1109.319L898.154,1109.319c5.445,0,9.309-5.306,7.639-10.488l-19.091-59.241
				c-1.069-3.316-4.155-5.564-7.639-5.564l0,0c-5.445,0-9.309,5.306-7.639,10.488l19.091,59.241
				C891.583,1107.071,894.67,1109.319,898.154,1109.319z"/>
			<path style="fill:#123E80;" d="M804.02,1109.319L804.02,1109.319c5.445,0,9.309-5.306,7.639-10.488l-19.091-59.241
				c-1.069-3.316-4.155-5.564-7.639-5.564l0,0c-5.445,0-9.309,5.306-7.639,10.488l19.091,59.241
				C797.449,1107.071,800.536,1109.319,804.02,1109.319z"/>
			<path style="fill:#9EDDFF;" d="M722.785,976.107c2.498,15.15,10.919,28.889,22.483,38.842
				c11.564,9.912,26.311,16.076,41.461,16.076h142.15c6.971,0,13.417-1.289,19.179-3.666c3.546-8.22,4.795-17.809,3.103-28.083
				c-2.498-15.15-10.919-28.889-22.443-38.801c-11.604-9.912-26.311-16.078-41.46-16.078H745.107c-7.011,0-13.498,1.33-19.259,3.708
				C722.342,956.324,721.093,965.872,722.785,976.107z"/>
		</g>
		<g>
			<g>
				<g>
					<g>
						<rect x="1302.518" y="2094.677" style="fill:#0D192B;" width="26.787" height="49.856"/>
						<rect x="1101.62" y="2094.677" style="fill:#0D192B;" width="26.787" height="49.856"/>
						<rect x="877.075" y="2094.677" style="fill:#0D192B;" width="26.787" height="49.856"/>
						<g>
							<g>
								<ellipse style="fill:#0D192B;" cx="897.118" cy="2144.377" rx="20.43" ry="32.303"/>
								<ellipse style="fill:#0D192B;" cx="916.917" cy="2144.377" rx="20.43" ry="32.303"/>
								<path style="fill:#0D192B;" d="M924.794,2174.066c-8.499,6.633-32.256,3.628-35.578,0.198l-0.151-59.589
									c6.376-5.584,28.869-5.386,35.719-0.307L924.794,2174.066z"/>
								<ellipse style="fill:#1E62CC;" cx="918.844" cy="2143.501" rx="14" ry="22.135"/>
							</g>
							<ellipse style="fill:#0D192B;" cx="917.362" cy="2144.135" rx="8.531" ry="13.489"/>
						</g>
						<g>
							<g>
								<ellipse style="fill:#0D192B;" cx="1110.975" cy="2144.377" rx="20.43" ry="32.303"/>
								<ellipse style="fill:#0D192B;" cx="1091.176" cy="2144.377" rx="20.43" ry="32.303"/>
								<path style="fill:#0D192B;" d="M1083.298,2174.066c8.499,6.633,32.256,3.628,35.578,0.198l0.151-59.589
									c-6.376-5.584-28.869-5.386-35.719-0.307L1083.298,2174.066z"/>
								<ellipse style="fill:#1E62CC;" cx="1089.248" cy="2143.501" rx="14" ry="22.135"/>
							</g>
							<ellipse style="fill:#0D192B;" cx="1090.73" cy="2144.135" rx="8.531" ry="13.489"/>
						</g>
						<g>
							<g>
								<ellipse style="fill:#0D192B;" cx="1315.027" cy="2144.377" rx="20.43" ry="32.303"/>
								<ellipse style="fill:#0D192B;" cx="1295.228" cy="2144.377" rx="20.43" ry="32.303"/>
								<path style="fill:#0D192B;" d="M1287.35,2174.066c8.499,6.633,32.256,3.628,35.578,0.198l0.151-59.589
									c-6.376-5.584-28.869-5.386-35.719-0.307L1287.35,2174.066z"/>
								<ellipse style="fill:#1E62CC;" cx="1293.3" cy="2143.501" rx="14" ry="22.135"/>
							</g>
							<ellipse style="fill:#0D192B;" cx="1294.782" cy="2144.135" rx="8.531" ry="13.489"/>
						</g>
						<rect x="1099.447" y="1679.675" style="fill:#0D192B;" width="39.022" height="406.399"/>
						<path style="fill:#1A56B3;" d="M1347.887,2099.585c0.054-0.335,0.307-0.662,0.307-1c0-21.511-106.369-38.951-237.584-38.951
							c-131.213,0-237.584,17.44-237.584,38.951c0,0.338,0.257,0.665,0.307,1H1347.887z"/>
						
							<rect x="1086.541" y="1722.954" transform="matrix(-1 -1.224647e-16 1.224647e-16 -1 2236.5132 3523.2644)" style="fill:#1A56B3;" width="63.431" height="77.355"/>
						
							<rect x="1086.541" y="1995.234" transform="matrix(-1 -1.224647e-16 1.224647e-16 -1 2236.5132 4067.8225)" style="fill:#1A56B3;" width="63.431" height="77.356"/>
					</g>
					<g>
						<path style="fill:#4A82DB;" d="M999.771,1072.739v0.084c-0.839-0.084-1.677-0.084-2.515-0.084H999.771z"/>
						<g>
							<path style="fill:#9EDDFF;" d="M698.817,1111.144c0,3.856,0.461,7.838,1.425,11.946l131.48,508.19
								c0.587,2.473,1.299,4.904,2.222,7.293c9.725,38.734,45.021,65.646,85.054,64.556l137.454-3.564h270.883
								c16.39,0,31.146-6.414,41.835-16.768c10.731-10.354,17.397-24.648,17.397-40.452c0-5.618-0.88-10.983-2.557-16.013
								c-7.587-23.182-31.398-39.027-58.268-39.027c0,0-121.818,3.312-157.323-30.81c-35.548-34.165-115.635-431.1-115.635-431.1
								c-6.791-28.212-35.338-51.267-64.556-52.567c-0.88-0.084-1.761-0.084-2.599-0.084c0,0-183.9-1.634-240.282-1.383
								c-4.276,0-7.839,0.041-10.522,0.084c-2.473,0.041-4.024,0.084-4.569,0.125c-0.126,0.043-0.168,0.043-0.168,0.043
								C711.058,1075.806,698.817,1091.315,698.817,1111.144z M871.756,1585.169h3.437l1.551,6.748l-2.18-2.934L871.756,1585.169z"
								/>
						</g>
					</g>
					<path style="fill:#1A56B3;" d="M884.683,1699.749c-0.051,0.252-0.293,0.498-0.293,0.752
						c0,16.169,101.417,29.278,226.524,29.278c125.105,0,226.524-13.109,226.524-29.278c0-0.254-0.245-0.5-0.293-0.752H884.683z"/>
				</g>
			</g>
			<path style="fill:#61B8FF;" d="M698.817,1111.144c0,3.856,0.461,7.838,1.425,11.946l131.48,508.19
				c0.587,2.473,1.299,4.904,2.222,7.293c9.725,38.734,45.021,65.646,85.054,64.556l137.454-3.564h270.883
				c16.39,0,31.146-6.414,41.835-16.768c10.731-10.354,17.397-24.648,17.397-40.452c0-5.618-0.88-10.983-2.557-16.013
				c-15.507,40.354-468.269,43.189-499.751-9.058c-30.769-26.703-96.615-481.483-138.911-545.912c-4.276,0-7.839,0.041-10.522,0.084
				c-2.473,0.041-4.024,0.084-4.569,0.125c-0.126,0.043-0.168,0.043-0.168,0.043
				C711.058,1075.806,698.817,1091.315,698.817,1111.144z"/>
		</g>
		<g>
			<path style="fill:#AAE0FF;" d="M927.391,1136.47c41.825-31.163,185.34-55.356,277.189-12.301
				c14.592,13.817,35.586,63.989,48.707,111.138l36.292,393.58H979.057L927.391,1136.47z"/>
			<path style="fill:#F7A594;" d="M1093.889,1154.726c-49.369,7.184-80.071-27.27-87.289-41.675l19.869-123.347l40.175,17.93
				c16.416,1.36,32.826,5.294,46.939,10.867l12.738,65.785l2.81,14.265C1135.537,1112.592,1143.258,1147.542,1093.889,1154.726z"/>
			<path style="fill:#E6836F;" d="M1039.319,1021.029c1.606,15.261,21.686,77.107,88.352,70.682l-12.373-64.34L1039.319,1021.029z"
				/>
			<g>
				<g>
					<g>
						<path style="fill:#F7A594;" d="M1194.5,943.959c-2.284,20.048-7.841,63.864-15.568,82.193
							c-11.762,27.904-48.15,50.488-71.911,46.648c-26.804-6.521-58.955-27.06-72.137-50.832
							c-6.172-16.669-16.209-54.565-16.528-84.702c-0.666-62.861,53.721-98.283,105.505-92.408
							C1175.644,850.733,1201.621,881.459,1194.5,943.959z"/>
						<path style="fill:#73382A;" d="M1022.301,979.956c-4.034-21.987,12.414-24.596,22.64-5.055
							c2.228-14.754,0.573-60.835,19.246-69.419c21.236-10.11,88.384,20.899,139.293-5.03c0,0-6.575-70.726-110.493-66.51
							C970.741,852.711,1022.301,979.956,1022.301,979.956z"/>
						
							<ellipse transform="matrix(0.9547 -0.2977 0.2977 0.9547 -243.2955 348.7156)" style="fill:#F7A594;" cx="1023.337" cy="973.202" rx="18.747" ry="24.286"/>
					</g>
					<g>
						<path style="fill:#A65B4A;" d="M1155.355,1027.704c-3.983,0.733-10.993,4.049-17.919,7.717
							c-10.053,5.332-19.905,11.408-19.905,11.408s-29.751-17.985-28.934-46.862c0.4,0.444,0.809,0.872,1.227,1.3
							C1112.934,1025.091,1155.355,1027.704,1155.355,1027.704z"/>
						<path style="fill:#FFFFFF;" d="M1155.355,1027.704c-3.983,0.733-10.993,4.049-17.919,7.717
							c-30.162-6.905-42.563-23.123-47.613-34.154C1112.934,1025.091,1155.355,1027.704,1155.355,1027.704z"/>
						<path style="fill:#A65B4A;" d="M1153.761,1013.707c-6.044-0.372-10.758-3.879-10.831-3.933
							c-0.541-0.411-0.646-1.181-0.236-1.723c0.409-0.541,1.182-0.649,1.723-0.239c0.398,0.302,9.842,7.278,18.401,0.671
							c4.701-3.628,3.475-6.056,0.202-12.546c-3.104-6.153-7.795-15.451-9.421-31.26c-0.07-0.676,0.422-1.281,1.099-1.349
							c0.673-0.071,1.28,0.422,1.35,1.098c1.579,15.357,6.147,24.411,9.17,30.404c3.377,6.692,5.415,10.733-0.895,15.604
							C1160.766,1013.177,1157.065,1013.91,1153.761,1013.707z"/>
						<g>
							<path style="fill:#1E1E1E;" d="M1120.957,953.038c-0.285,4.627-2.583,8.25-5.132,8.093c-2.549-0.157-4.385-4.035-4.1-8.662
								s2.583-8.25,5.132-8.093C1119.406,944.534,1121.242,948.412,1120.957,953.038z"/>
							<path style="fill:#1E1E1E;" d="M1185.641,956.069c-0.26,4.215-2.353,7.515-4.675,7.372c-2.322-0.143-3.994-3.676-3.735-7.89
								s2.353-7.515,4.675-7.372C1184.228,948.322,1185.9,951.854,1185.641,956.069z"/>
						</g>
					</g>
				</g>
				<path style="fill:#73382A;" d="M1190.321,903.761c0,0,50.975-4.971,35.052-54.711c-15.791,16.063-31.855,8.209-31.855,8.209
					s18.725-23.472-12.238-57.827c-4.939,21.428-47.466,30.856-71.815,24.544c-38.554-9.995-77.569,3.795-81.707,41.003
					c0,0-25.228,6.15-16.439,56.288c38.953-1.369,56.191-36.883,84.92-42.028C1124.968,874.095,1149.412,909.547,1190.321,903.761z"
					/>
				<path style="fill:#A65B4A;" d="M1141.091,1065.051c0,0-18.189,4.268-28.19,4.031c-13.201-0.313-34.073-7.616-34.073-7.616
					l34.645,18.532L1141.091,1065.051z"/>
			</g>
			<polygon style="fill:#1951A6;" points="1107.234,1155.788 1102.326,1173.458 1137.31,1392.643 1118.836,1428.251 
				1085.905,1392.911 1091.349,1173.726 1083.406,1162.035 1092.688,1148.738 			"/>
			<path style="fill:#61B8FF;" d="M1128.194,1092.075c-0.676,26.026-20.999,40.805-35.575,55.635
				c-43.21-11.281-75.981-37.751-85.559-62.271l-20.384,20.235c3.631,31.646,28.985,64.362,67.553,97.73
				c5.879-16.976,14.906-32.591,40.599-46.634l57.817,16.458c3.271-22.485,5.818-43.447-7.323-69.875L1128.194,1092.075z"/>
		</g>
		<path style="fill:#73382A;" d="M1448.409,2174.184c20.639,0,20.639-33.563,0-33.563c0,0-82.125-22.921-84.517-22.921
			c-2.392,0-90.099,2.456-90.099,2.456c-11.576,16.065-7.72,38.754-6.5,56.209L1448.409,2174.184z"/>
		<path style="fill:#73382A;" d="M981.03,2174.832c-1.52-17.377-3.986-35.903,8.007-51.7c20.446-7.523,59.122-24.896,98.952-2.428
			c0,0,0.766,11.234,31.659,24c7.68,8.724,10.775,17.504,7.269,30.127H981.03z"/>
		<path style="fill:#0D192B;" d="M1270.486,2117.688l86.633-445.313l-255.728-43.348l0.005-122.1c0,0,199.566,0.141,196.794,0.141
			c-8.765,0,187.625-13.571,215.133,93.047c27.508,106.619-139.243,516.262-139.243,516.262
			c-23.819-3.273-78.679,13.254-99.144,19.674C1257.447,2141.537,1252.646,2131.593,1270.486,2117.688z"/>
		<path style="fill:#0D192B;" d="M1254.719,1507.067l-192.749,157.369l15.903,455.371c-50.846-28.049-106.558,25.435-110.842,19.277
			c0,0-6.158-2.945,4.073-27.32c-19.503-98.025-90.579-465.473-68.446-506.333c25.569-47.204,68.458-101.136,68.458-101.136
			L1254.719,1507.067z"/>
		<path style="fill:#FFFFFF;" d="M991.942,1100.558c2.95,11.801,37.795,361.69,34.845,414.796
			c-2.95,53.106-132.328,64.776-129.814,174.068c2.67,116.083,6.179,166.372,6.179,166.372
			c-47.95-7.017-73.679-63.154-80.696-101.747c-11.015-67.012-3.133-143.188,46.781-239.75c0,0,13.329-365.334,29.944-377.155
			C928.823,1116.053,991.942,1100.558,991.942,1100.558z"/>
		<path style="fill:#D9F1FF;" d="M965.96,1257.705c0,0-16.6,48.46-16.6,68.54c0,20.08,97.187,62.275,97.187,62.275H887.782v-75.126
			L965.96,1257.705z"/>
		<g>
			<path style="fill:#F7B28A;" d="M1054.116,1403.558c0,0,19.053-17.207,49.254-19.604s56.69,55.079,56.69,55.079h-104.506
				L1054.116,1403.558z"/>
			<path style="fill:#F7B28A;" d="M1111.391,1384.672c0,0,47.533,13.438,54.165,15.204c3.1,12.538-29.608,7.127-44.741,1.554
				C1104.141,1395.289,1111.391,1384.672,1111.391,1384.672z"/>
		</g>
		<path style="fill:#FFFFFF;" d="M902.906,1133.493c-29.027,18.001-109.022,206.621-109.784,257.383
			c-0.336,22.386,9.049,44.568,51.571,47.296c23.484,1.506,222.791,3.222,222.791,3.222l-2.537-52.874l-150.232-42.881l45.89-76.153
			C1015.492,1241.235,968.488,1098.463,902.906,1133.493z"/>
		<g>
			<g>
				<path style="fill:#F7A594;" d="M1418.871,1132.663c0,0-18.397-45.021-16.138-57.286c2.259-12.265,47.515-28.121,49.75-22.676
					c2.236,5.445,6.941,18.876-22.68,26.96C1449.651,1097.948,1471.929,1134.397,1418.871,1132.663z"/>
				<g>
					<path style="fill:#F7A594;" d="M1416.479,1134.705c0,0-3.757-40.601,2.827-56.939c8.768-21.757,34.678-35.753,34.678-35.753
						s45.818,35.96,47.222,42.462c1.404,6.501-36.768,46.319-36.768,46.319S1435.999,1157.808,1416.479,1134.705z"/>
					<path style="fill:#F7A594;" d="M1421.905,1081.444c0,0,11.204-101.297,27.168-98.357c7.359,1.355-3.004,98.086-3.004,98.086
						L1421.905,1081.444z"/>
					<path style="fill:#E6836F;" d="M1413.728,1119.893c0.105,0.03,0.221,0.029,0.333-0.01c0.283-0.1,0.43-0.411,0.329-0.694
						c-4.721-13.246-12.444-36.54-11.123-43.715c1.743-9.46,31.381-21.898,44.165-23.227c3.806-0.396,4.447,0.405,4.55,0.659
						c1.476,3.594,2.678,7.89,0.406,12.508c-2.838,5.764-10.485,10.382-22.727,13.723l-0.945,0.258l0.719,0.665
						c8.244,7.594,18.095,19.54,21.02,30.292c0.081,0.292,0.382,0.462,0.667,0.383c0.288-0.08,0.46-0.377,0.381-0.667
						c-2.901-10.665-12.418-22.425-20.619-30.144c12.012-3.408,19.573-8.125,22.477-14.03c2.795-5.68,0.573-11.09-0.375-13.4
						c-0.511-1.236-2.359-1.671-5.667-1.327c-12.956,1.349-43.235,13.885-45.119,24.112c-1.368,7.423,6.408,30.926,11.166,44.275
						C1413.426,1119.724,1413.565,1119.846,1413.728,1119.893z"/>
					<path style="fill:#E6836F;" d="M1468.809,1100.659c0.154,0.044,0.306,0.084,0.458,0.12l0.374,0.085l0.205-0.325
						c6.505-10.265,22.021-14.404,22.176-14.444c0.291-0.075,0.465-0.372,0.389-0.663c-0.073-0.289-0.374-0.466-0.661-0.389
						c-0.648,0.169-15.763,4.198-22.605,14.583c-0.016-0.005-0.031-0.009-0.047-0.014c-9.737-2.803-23.422-25.83-23.561-26.066
						c-0.151-0.255-0.482-0.344-0.742-0.191s-0.345,0.485-0.192,0.744C1445.178,1075.076,1458.647,1097.734,1468.809,1100.659z"/>
				</g>
			</g>
			<polygon style="fill:#F7A594;" points="1418.245,1121.682 1401.658,1184.917 1452.796,1201.328 1459.061,1129.124 			"/>
		</g>
		<path style="fill:#FFFFFF;" d="M1261.491,1152.655l104.572,105.05l46.517-120.792l60.861,19.163c0,0-0.744,176.524-53.553,214.538
			c-80.872,49.405-219.439-101.339-219.439-101.339C1146.254,1193.483,1229.07,1108.695,1261.491,1152.655z"/>
		<path style="fill:#FFFFFF;" d="M1145.965,1104.925c0,0,27.936,383.777,78.091,416.23c50.155,32.453,227.395,10.352,227.395,10.352
			s-176.837-63.359-179.788-110.564c-2.95-47.205-14.367-272.206-14.367-272.206
			C1240.881,1128.582,1188.763,1104.699,1145.965,1104.925z"/>
		<g>
			<defs>
				<path id="SVGID_1_" d="M1128.2,1092.836l11.322,101.497c0,0-51.365,96.262-17.502,121.374
					c33.863,25.112,65.063-1.902,74.194-64.682s-24.731-178.447-54.79-200.895c-30.058-22.449-139.257-20.546-149.911-7.61
					c-10.654,12.936-117.236,251.35-75.245,300.235c41.991,48.885,177.363,4.387,177.363,4.387l-21.935-141.64l-59.539-41.991
					c0,0-3.499-77.037-3.092-75.818c0.406,1.219,8.3-37.75,8.3-37.75c37.401-10.813,65.71-12.156,102.611,2.746L1128.2,1092.836z"/>
			</defs>
			<clipPath id="SVGID_00000062151563858217569270000009581376512796565413_">
				<use xlink:href="#SVGID_1_"  style="overflow:visible;"/>
			</clipPath>
			<g style="clip-path:url(#SVGID_00000062151563858217569270000009581376512796565413_);">
				
					<ellipse transform="matrix(0.1815 -0.9834 0.9834 0.1815 -319.447 2186.1455)" style="fill:#1B658F;" cx="1153.551" cy="1284.973" rx="30.041" ry="16.934"/>
				<path style="fill:#2997D6;" d="M1154.263,1283.996c-1.962,10.629,1.305,20.142,7.297,21.248s12.439-6.614,14.401-17.243
					c1.962-10.629-1.305-20.142-7.297-21.248C1162.672,1265.647,1156.224,1273.367,1154.263,1283.996z"/>
				<path style="fill:#0D192B;" d="M1160.644,1262.974c1.393,0,2.54-1.109,2.577-2.51c0.016-0.588,1.46-59.55-7.294-121.28
					c-8.105-57.155-55.705-84.822-96.501-86.342c-39.548-1.484-70.047,20.136-77.685,55.054
					c-6.874,31.427,2.027,85.042,2.409,87.308c0.236,1.405,1.562,2.356,2.972,2.114c1.404-0.237,2.35-1.567,2.114-2.971
					c-0.092-0.546-9.116-54.9-2.456-85.349c7.079-32.359,35.55-52.372,72.454-51.002c38.721,1.443,83.898,27.692,91.588,81.913
					c8.691,61.287,7.26,119.836,7.245,120.42c-0.038,1.423,1.086,2.608,2.509,2.646
					C1160.598,1262.974,1160.622,1262.974,1160.644,1262.974z"/>
				<path style="fill:#0D192B;" d="M961.899,1342.803l16.372-2.104c1.412-0.182,2.411-1.474,2.229-2.887
					c-0.182-1.412-1.478-2.411-2.887-2.229l-12.391,1.592c-16.824-43.549-17.789-90.328-2.232-114.324
					c7.671-11.834,18.991-18.147,33.646-18.764c13.745-0.587,25.84,3.959,35.997,13.486c30.923,29.003,35.901,95.895,36.62,110.256
					l-9.378-0.358c-1.391-0.095-2.621,1.055-2.675,2.478c-0.054,1.423,1.055,2.621,2.478,2.675l14.903,0.569l-0.059-2.737
					c-0.074-3.362-2.206-82.727-38.354-116.639c-11.208-10.515-24.583-15.525-39.748-14.883
					c-16.421,0.692-29.124,7.795-37.757,21.112c-8.649,13.341-12.732,32.558-11.808,55.571c0.845,21.049,5.925,44.249,14.305,65.325
					L961.899,1342.803z"/>
				<path style="fill:#1B658F;" d="M1006.721,1195.53l-0.145,12.723c0,0-14.438-5.717-28.862,3.621
					c-3.69-5.104-6.291-8.943-6.291-8.943S982.958,1190.443,1006.721,1195.53z"/>
				<path style="fill:#1B658F;" d="M995.904,1200.014l-2.776-14.475c-4.033-2.196-12.674,0.136-13.991,3.283l3.2,14.087
					L995.904,1200.014z"/>
			</g>
		</g>
		<path style="fill:#2B7EAB;" d="M1202.924,1388.848c16.802-1.715,52.122-23.661,60.548-30.922l102.591,82.959H1207.11
			L1202.924,1388.848z"/>
		<path style="fill:#69BFF0;" d="M1351.061,1441.142c-4.31,0-132.772-78.369-132.772-78.369
			c-28.236,23.352-57.78,34.711-87.647,43.103c8.728,17.337,21.509,29.02,35.761,35.523L1351.061,1441.142z"/>
		<g>
			
				<rect x="712.149" y="1416.203" transform="matrix(-1 -1.224647e-16 1.224647e-16 -1 1582.7959 2857.0383)" style="fill:#BAE7FF;" width="158.498" height="24.631"/>
			
				<rect x="577.211" y="1416.203" transform="matrix(-1 -1.224647e-16 1.224647e-16 -1 1289.3597 2857.0383)" style="fill:#69BFF0;" width="134.938" height="24.631"/>
			<polygon style="fill:#69BFF0;" points="849.228,1424.235 722.323,1424.235 781.224,1436.016 			"/>
		</g>
	</g>
	<g id="table">
		<g>
			<rect x="761.075" y="1471.057" style="fill:#1951A6;" width="26.633" height="698.422"/>
			<rect x="761.075" y="1471.338" style="fill:#1951A6;" width="26.633" height="59.955"/>
			
				<rect x="1967.124" y="2051.137" transform="matrix(-1 -1.224647e-16 1.224647e-16 -1 3960.8835 4223.5332)" style="fill:#1951A6;" width="26.636" height="121.259"/>
			
				<rect x="1806.823" y="2051.137" transform="matrix(-1 -1.224647e-16 1.224647e-16 -1 3640.2817 4223.5332)" style="fill:#1951A6;" width="26.636" height="121.259"/>
			<polygon style="fill:#1951A6;" points="535.861,1463.592 535.861,2173.385 510.532,2169.369 510.532,1463.592 			"/>
			
				<rect x="1472.918" y="2051.137" transform="matrix(-1 -1.224647e-16 1.224647e-16 -1 2972.4717 4223.5332)" style="fill:#1951A6;" width="26.636" height="121.259"/>
			
				<rect x="1612.759" y="2051.137" transform="matrix(-1 -1.224647e-16 1.224647e-16 -1 3252.1538 4223.5332)" style="fill:#1951A6;" width="26.636" height="121.259"/>
			<g>
				
					<rect x="437.703" y="1440.996" transform="matrix(-1 -1.224647e-16 1.224647e-16 -1 2161.281 2912)" style="fill:#1951A6;" width="1285.874" height="30.008"/>
				<g>
					<rect x="1463.193" y="1468.433" style="fill:#1951A6;" width="164.59" height="584.623"/>
					<g>
						<rect x="1604.931" y="1468.433" style="fill:#1951A6;" width="404.893" height="584.623"/>
						<rect x="1625.078" y="1488.721" style="fill:#66A1FF;" width="373.743" height="564.336"/>
					</g>
				</g>
				
					<rect x="724.533" y="1440.996" transform="matrix(-1 -1.224647e-16 1.224647e-16 -1 2734.9412 2912)" style="fill:#66A1FF;" width="1285.874" height="30.008"/>
			</g>
		</g>
		<g>
			<g>
				<polygon style="fill:#ADADAD;" points="1783.838,1440.996 1854.782,1440.996 1840.796,1319.689 1769.851,1319.689 				"/>
				<polygon style="fill:#474747;" points="1763.197,1319.691 1763.25,1320.184 1770.81,1385.706 1777.181,1440.991 
					1848.132,1440.991 1835.133,1328.215 1835.09,1327.872 1834.148,1319.691 				"/>
				
					<rect x="1680.724" y="1428.343" transform="matrix(-1 -1.224647e-16 1.224647e-16 -1 3586.7947 2869.1108)" style="fill:#ADADAD;" width="225.346" height="12.424"/>
				<rect x="1664.984" y="1428.343" style="fill:#474747;" width="180.342" height="12.424"/>
				<polygon style="fill:#2B2B2B;" points="1763.25,1320.184 1770.81,1385.706 1835.133,1328.215 1835.465,1327.915 
					1835.09,1327.872 				"/>
				<g>
					<g>
						<path style="fill:#ADADAD;" d="M1582.515,1327.486h384.964c8.385,0,15.742-6.798,16.432-15.183l21.989-267.391
							c0.69-8.385-5.549-15.183-13.934-15.183h-384.964c-8.385,0-15.742,6.798-16.432,15.183l-21.989,267.391
							C1567.891,1320.688,1574.13,1327.486,1582.515,1327.486z"/>
					</g>
					<g>
						<path style="fill:#474747;" d="M1575.384,1327.153h384.964c8.385,0,15.742-6.798,16.432-15.183l21.989-267.391
							c0.69-8.385-5.549-15.183-13.934-15.183h-384.964c-8.385,0-15.742,6.798-16.432,15.183l-21.989,267.391
							C1560.76,1320.356,1566.999,1327.153,1575.384,1327.153z"/>
					</g>
					<polygon style="fill:#D9F3FF;" points="1583.84,1305.278 1957.617,1305.278 1977.981,1050.247 1604.204,1050.247 					"/>
				</g>
			</g>
			<g>
				<rect x="1496.499" y="1428.341" style="fill:#ADADAD;" width="117.827" height="12.425"/>
				<polygon style="fill:#474747;" points="1373.236,1435.985 1373.236,1440.766 1496.499,1440.766 1496.499,1428.341 				"/>
			</g>
		</g>
		<g>
			<g>
				<path style="fill:#80B2FF;" d="M1649.932,1261.111l256.29-3.098c10.772-0.13,20.16-9.251,20.97-20.372l9.549-131.16
					c0.81-11.121-7.266-20.031-18.038-19.901l-256.29,3.099c-10.772,0.13-20.16,9.251-20.97,20.372l-9.549,131.16
					C1631.084,1252.331,1639.16,1261.241,1649.932,1261.111z"/>
				<path style="fill:#D9F3FF;" d="M1672.107,1144.161l75.266-0.91c2.371-0.029,4.437-2.036,4.615-4.484l0,0
					c0.178-2.448-1.599-4.409-3.97-4.38l-75.266,0.91c-2.371,0.029-4.437,2.036-4.615,4.484l0,0
					C1667.959,1142.228,1669.736,1144.189,1672.107,1144.161z"/>
				<path style="fill:#D9F3FF;" d="M1670.344,1168.372l100.28-1.212c2.371-0.029,4.437-2.036,4.615-4.484l0,0
					c0.178-2.448-1.599-4.409-3.97-4.38l-100.281,1.212c-2.371,0.029-4.437,2.036-4.615,4.484l0,0
					C1666.196,1166.439,1667.974,1168.401,1670.344,1168.372z"/>
				<path style="fill:#D9F3FF;" d="M1668.268,1196.887l100.281-1.212c2.371-0.029,4.437-2.036,4.615-4.484l0,0
					c0.178-2.448-1.599-4.409-3.97-4.38l-100.281,1.212c-2.371,0.029-4.437,2.036-4.615,4.484l0,0
					C1664.12,1194.955,1665.897,1196.916,1668.268,1196.887z"/>
				<path style="fill:#D9F3FF;" d="M1666.192,1225.403l100.28-1.212c2.371-0.029,4.437-2.036,4.615-4.484l0,0
					c0.178-2.448-1.599-4.409-3.97-4.38l-100.281,1.212c-2.371,0.029-4.437,2.036-4.615,4.484l0,0
					C1662.044,1223.471,1663.822,1225.432,1666.192,1225.403z"/>
			</g>
			<g>
				<path style="fill:#D9F3FF;" d="M1861.921,1145.952c-7.784,6.699-13.249,55.122-3.147,68.711
					c4.627,6.224,12.608,6.286,19.543,8.039c8.207,2.074,14.807,11.247,18.218,6.89c6.293-8.039,7.816-40.355-2.65-61.246
					C1890.241,1161.072,1869.705,1139.253,1861.921,1145.952z"/>
				<path style="fill:#D9F3FF;" d="M1829.501,1145.952c7.784,6.699,13.249,55.122,3.147,68.711
					c-4.627,6.224-12.608,6.286-19.543,8.039c-8.207,2.074-14.807,11.247-18.218,6.89c-6.293-8.039-7.816-40.355,2.65-61.246
					C1801.181,1161.072,1821.717,1139.253,1829.501,1145.952z"/>
				<path style="fill:#D9F3FF;" d="M1841.501,1164.492v-51.268h7.273v50.514h0.004c0.004,0.42,0.218,10.307,10.235,12.516
					l-1.211,5.49c-6.657-1.468-10.495-5.504-12.56-9.64c-2.016,4.268-5.887,8.51-12.749,10.023l-1.211-5.49
					C1840.335,1174.641,1841.381,1166.375,1841.501,1164.492z"/>
			</g>
		</g>
	</g>
	<g id="lady">
		<g>
			<g>
				<g>
					<g>
						<g>
							
								<rect x="2025.05" y="2085.124" transform="matrix(-1 -1.224647e-16 1.224647e-16 -1 4076.887 4220.1035)" style="fill:#0D192B;" width="26.787" height="49.855"/>
							
								<rect x="2225.948" y="2085.124" transform="matrix(-1 -1.224647e-16 1.224647e-16 -1 4478.6836 4220.1035)" style="fill:#0D192B;" width="26.787" height="49.855"/>
							
								<rect x="2450.493" y="2085.124" transform="matrix(-1 -1.224647e-16 1.224647e-16 -1 4927.7734 4220.1035)" style="fill:#0D192B;" width="26.787" height="49.855"/>
							<g>
								<g>
									<ellipse style="fill:#0D192B;" cx="2457.237" cy="2134.823" rx="20.43" ry="32.303"/>
									<ellipse style="fill:#0D192B;" cx="2437.438" cy="2134.823" rx="20.43" ry="32.303"/>
									<path style="fill:#0D192B;" d="M2429.561,2164.513c8.5,6.633,32.256,3.628,35.578,0.198l0.151-59.589
										c-6.375-5.584-28.869-5.386-35.719-0.307L2429.561,2164.513z"/>
									<ellipse style="fill:#1E62CC;" cx="2435.511" cy="2133.948" rx="14" ry="22.136"/>
								</g>
								<ellipse style="fill:#0D192B;" cx="2436.993" cy="2134.582" rx="8.531" ry="13.489"/>
							</g>
							<g>
								<g>
									<ellipse style="fill:#0D192B;" cx="2243.38" cy="2134.823" rx="20.43" ry="32.303"/>
									<ellipse style="fill:#0D192B;" cx="2263.179" cy="2134.823" rx="20.43" ry="32.303"/>
									<path style="fill:#0D192B;" d="M2271.057,2164.513c-8.499,6.633-32.256,3.628-35.578,0.198l-0.151-59.589
										c6.376-5.584,28.869-5.386,35.719-0.307L2271.057,2164.513z"/>
									<ellipse style="fill:#1E62CC;" cx="2265.107" cy="2133.948" rx="14" ry="22.136"/>
								</g>
								<ellipse style="fill:#0D192B;" cx="2263.625" cy="2134.582" rx="8.531" ry="13.489"/>
							</g>
							<g>
								<g>
									<ellipse style="fill:#0D192B;" cx="2039.328" cy="2134.823" rx="20.43" ry="32.303"/>
									<ellipse style="fill:#0D192B;" cx="2059.127" cy="2134.823" rx="20.43" ry="32.303"/>
									<path style="fill:#0D192B;" d="M2067.005,2164.513c-8.499,6.633-32.256,3.628-35.578,0.198l-0.151-59.589
										c6.376-5.584,28.869-5.386,35.719-0.307L2067.005,2164.513z"/>
									<ellipse style="fill:#1E62CC;" cx="2061.055" cy="2133.948" rx="14" ry="22.136"/>
								</g>
								<ellipse style="fill:#0D192B;" cx="2059.573" cy="2134.582" rx="8.531" ry="13.489"/>
							</g>
							
								<rect x="2215.886" y="1670.122" transform="matrix(-1 -1.224647e-16 1.224647e-16 -1 4470.7939 3746.6433)" style="fill:#0D192B;" width="39.022" height="406.399"/>
							<path style="fill:#1A56B3;" d="M2006.468,2090.032c-0.054-0.335-0.307-0.662-0.307-1c0-21.511,106.369-38.951,237.584-38.951
								c131.214,0,237.584,17.44,237.584,38.951c0,0.338-0.257,0.665-0.307,1H2006.468z"/>
							<rect x="2204.383" y="1713.401" style="fill:#1A56B3;" width="63.431" height="77.356"/>
							<rect x="2204.383" y="1985.68" style="fill:#1A56B3;" width="63.431" height="77.355"/>
						</g>
						<g>
							<path style="fill:#4A82DB;" d="M2354.584,1063.186v0.084c0.838-0.084,1.677-0.084,2.515-0.084H2354.584z"/>
							<g>
								<path style="fill:#9EDDFF;" d="M2624.266,1062.061c0,0-0.042,0-0.168-0.043c-0.545-0.041-2.096-0.084-4.569-0.125
									c-2.683-0.043-6.246-0.084-10.522-0.084c-56.382-0.252-240.282,1.383-240.282,1.383c-0.838,0-1.719,0-2.599,0.084
									c-29.218,1.3-57.765,24.355-64.556,52.567c0,0-80.087,396.935-115.635,431.1c-35.506,34.122-157.323,30.81-157.323,30.81
									c-26.87,0-50.68,15.846-58.268,39.027c-1.677,5.03-2.557,10.396-2.557,16.014c0,15.804,6.665,30.098,17.397,40.452
									c10.689,10.354,25.445,16.768,41.835,16.768h270.883l175.842,3.564c40.033,1.09,75.329-25.822,85.054-64.557
									c0.922-2.389,1.635-4.82,2.222-7.293l93.092-508.19c0.964-4.108,1.425-8.09,1.425-11.946
									C2655.538,1081.762,2643.297,1066.253,2624.266,1062.061z M2518.179,1579.43l-2.18,2.934l1.551-6.749h3.437
									L2518.179,1579.43z"/>
							</g>
						</g>
						<path style="fill:#1A56B3;" d="M2508.06,1690.195c0.052,0.252,0.293,0.497,0.293,0.752
							c0,16.169-139.805,29.278-264.912,29.278c-125.106,0-226.524-13.109-226.524-29.278c0-0.254,0.245-0.5,0.293-0.752H2508.06z"
							/>
					</g>
				</g>
				<path style="fill:#61B8FF;" d="M2655.538,1101.59c0,3.856-0.461,7.839-1.425,11.946c-3.51,10.166-90.445,506.031-95.31,515.467
					c-9.729,38.75-45.025,65.662-85.058,64.572c-104.1-3.364-340.598-4.199-446.727-3.562
					c-37.828,0.776-68.662-36.872-56.673-73.235c-13.063,61.647,494.945,69.201,548.148-11.593
					c37.844-28.319,16.922-566.394,105.762-543.131C2643.297,1066.253,2655.538,1081.762,2655.538,1101.59z"/>
			</g>
		</g>
		<g>
			<path style="fill:#0E0E0E;" d="M2378.685,1052.937c49.827,350.842-283.047,300.118-273.415,158.901
				c8.298-121.657,81.923-135.887,62.736-215.664c-21.059-87.563,10.114-164.169,93.118-164.169
				c81.281,0,129.934,59.23,112.575,162.234C2370.256,1014.672,2376.574,1036.007,2378.685,1052.937z"/>
			<path style="fill:#FFA599;" d="M2066.727,2035.139c0.61,3.481,12.119,70.742,12.119,70.742l46.267-3.969l6.707-82.422
				L2066.727,2035.139z"/>
			<path style="fill:#0D192B;" d="M2361.108,1476.647c0,0,38.71,108.771-25.275,127.412
				c-63.985,18.642-171.037,25.706-171.037,25.706l-34.57,430.281c-12.815,5.101-26.55,9.643-58.52,3.124
				c0,0-78.758-433.136-56.04-485.063c22.718-51.927,200.424-104.724,200.424-104.724L2361.108,1476.647z"/>
			<path style="fill:#FFFFFF;" d="M2139.084,2113.15c-3.44,8.84-30.1,21.4-59.94,30.56c-20.39,6.27-42.27,10.94-59.23,11.75
				c-10.59,0.51-19.26-0.48-24.45-3.54c0,0-13.17-34.06,16.09-52.83c29.25-18.78,62.27-22.53,62.27-22.53
				c4.22,6.03,11.07,9.99,19.53,10.98c5.66,0.66,12.05-0.01,18.86-2.28c5.47-1.82,11.21-4.67,17.06-8.7c0,0,2.67,2.81,5.42,7.41
				c0.28,0.45,0.55,0.91,0.82,1.39C2139.344,2092.26,2142.874,2102.44,2139.084,2113.15z"/>
			<path style="fill:#DBF2FF;" d="M2136.894,2083.93l-1.38,1.43l-56.37,58.35c-20.39,6.27-42.27,10.94-59.23,11.75
				c-1.16-10.73-0.68-33.47,20.03-49.58c12.76-9.92,34.03-15.36,53.41-18.34c6.65-1.02,13.08-1.76,18.86-2.28
				c10.4-0.94,18.71-1.22,22.48-1.29C2136.114,2083.93,2136.894,2083.93,2136.894,2083.93z"/>
			<path style="fill:#FFA599;" d="M2110.133,2045.751c0.61,3.481,5.553,70.697,5.553,70.697l39.722-0.504l11.385-71.581
				L2110.133,2045.751z"/>
			<path style="fill:#FFFFFF;" d="M2163.165,2072.691c0,0,13.938,26.977,17.027,33.833c-15.547,45.393-121.78,80.729-132.765,67.103
				c0,0-19.807-30.673,5.03-54.994c24.837-24.321,60.73-35.587,60.73-35.587C2125.015,2094.192,2155.951,2091.15,2163.165,2072.691z
				"/>
			<path style="fill:#0D192B;" d="M2466.439,1492.027c0,0,20.952,94.766-58.834,120.448c-63.44,20.42-172.486,62.087-172.486,62.087
				l-69.228,385.597c-2.915,8.202-49.034,11.246-54.886,4.665c0,0-16.078-424.479,15.825-471.326
				c48.98-71.924,115.382-115.885,115.382-115.885C2309.397,1469.902,2407.377,1462.696,2466.439,1492.027z"/>
			<path style="fill:#2A518C;" d="M2109.434,2064.894c-0.756-17.069-18.123-418.667,16.07-472.242
				c8.886-13.923,19.584-27.96,31.796-41.722l2.354,2.088c-12.103,13.639-22.7,27.543-31.497,41.326
				c-33.662,52.742-15.765,466.24-15.58,470.411L2109.434,2064.894z"/>
			<g>
				<path style="fill:#FFA599;" d="M2205.259,1139.752c32.811-40.247,57.256-16.304,55.804,28.925
					c-1.452,45.229-32.017,242.309-68.609,228.765C2155.862,1383.898,2164.076,1190.269,2205.259,1139.752z"/>
				<path style="fill:#FD5655;" d="M2229.663,1314.65l-22.003,153.517c2.149,7.892,14.054,14.577,31.873,19.825
					c2.815,0.837,5.781,1.626,8.872,2.387c0,0,0.01,0.01,0.01,0c60.722,14.891,172.449,15.784,220.971-3.566
					c0,0-3.765-25.997-19.236-67.701c-11.762-31.692-30.276-72.465-59.039-117.802c-1.826-13.455,9.528-37.198,20.89-64.421
					c18.085-43.35,36.19-95.524,1.084-129.051c-57.156-54.599-206.68-39.109-216.502,68.9
					C2195.08,1246.606,2229.663,1314.65,2229.663,1314.65z"/>
				<path style="fill:#E64847;" d="M2231.546,1498.718c1.036-0.171,7.179-3.347,16.859-8.339c0,0,0.01,0.01,0.01,0
					c41.372-21.299,147.45-75.755,196.791-71.353c1.75,0.152,3.395,0.181,4.945,0.086c-11.762-31.692-30.276-72.465-59.039-117.802
					c-1.826-13.455,9.528-37.198,20.89-64.421l-64.583-73.312c0,0,0.228,1.673,0.628,4.688
					c3.452,26.415,19.854,156.455,11.001,177.45c-8.111,19.207-92.624,110.718-119.514,142.278
					C2233.695,1494.857,2230.566,1498.879,2231.546,1498.718z"/>
				<g>
					<g>
						<path style="fill:#FFA599;" d="M2247.377,1116.826c1.892,12.999,18.628,47.542,18.628,47.542s69.262-43.032,66.795-59.976
							l-11.237-45.442l-7.334-29.552l-70.573,10.273l2.438,50.483L2247.377,1116.826z"/>
						<polygon style="fill:#E87C5D;" points="2246.094,1090.153 2295.398,1057.147 2243.656,1039.67 						"/>
					</g>
					<path style="fill:#FFA599;" d="M2181.538,947.5c-3.987,63.209,31.792,115.341,79.914,116.443s86.25-49.336,85.162-112.662
						c-1.025-59.657-36.874-106.344-80.123-107.335C2223.243,842.956,2185.294,887.952,2181.538,947.5z"/>
					<path style="fill:#0E0E0E;" d="M2240.627,903.102c60.089,77.025,146.652,46.404,126.706,0.335c0,0-23.196-63.461-93.309-64.492
						C2186.343,837.655,2240.627,903.102,2240.627,903.102z"/>
					<path style="fill:#BD4A31;" d="M2257.453,993.742c-2.248-0.052-4.422-0.583-5.659-2.14c-3.047-3.831,5.147-22.559,6.82-26.275
						c0.21-0.465,0.757-0.671,1.223-0.464c0.465,0.21,0.673,0.757,0.463,1.223c-3.969,8.812-8.782,22.197-7.059,24.365
						c2.011,2.533,8.936,1.104,11.434,0.339c0.488-0.15,1.004,0.124,1.155,0.613c0.149,0.488-0.125,1.005-0.613,1.155
						C2264.585,992.753,2260.931,993.821,2257.453,993.742z"/>
					<path style="fill:#BD4A31;" d="M2244.445,1015.466c0,0,26.827,8.197,62.22-10.118
						C2287.202,1033.416,2261.733,1050.941,2244.445,1015.466z"/>
					<g>
						<path style="fill:#0E0E0E;" d="M2301.341,958.9c-0.107,4.657-2.064,8.389-4.371,8.337c-2.307-0.053-4.092-3.871-3.985-8.528
							c0.107-4.657,2.064-8.389,4.371-8.336C2299.663,950.425,2301.447,954.243,2301.341,958.9z"/>
					</g>
					<g>
						<path style="fill:#0E0E0E;" d="M2220.833,955.214c-0.107,4.657-2.064,8.389-4.371,8.336c-2.307-0.053-4.091-3.871-3.985-8.528
							c0.107-4.657,2.063-8.389,4.371-8.337C2219.155,946.739,2220.939,950.557,2220.833,955.214z"/>
					</g>
					<path style="fill:#0E0E0E;" d="M2240.243,888.541c0,0-10.671,58.596-60.272,62.483c-33.177,2.6,15.089-97.025,46.667-95.086
						C2245.269,857.083,2240.243,888.541,2240.243,888.541z"/>
				</g>
				<path style="fill:#FFA599;" d="M2424.398,1130.984c0,0-25.793-28.059-67.299,3.144
					c-33.981,25.545,23.452,188.322,23.452,188.322l-169.398,160.82l12.978,16.359c0,0,202.726-84.998,228.541-152.178
					C2461.524,1304.92,2444.318,1160.674,2424.398,1130.984z"/>
				<path style="fill:#FFA599;" d="M2227.807,1338.809l9.203,158.992l-21.866,3.656c0,0-47.314-109.118-45.164-170.749
					C2171.864,1276.698,2234.383,1289.609,2227.807,1338.809z"/>
				<path style="fill:#FFA599;" d="M2239.21,1487.912c0,0,23.979,14.344,12.437,24.066c-11.541,9.722-53.119,9.152-41.24-16.73
					S2239.21,1487.912,2239.21,1487.912z"/>
				<path style="fill:#FFA599;" d="M2211.034,1480.566c-1.871-0.369-43.537,29.192-30.981,42.023
					c12.556,12.832,75.354-25.662,62.938-41.344C2230.574,1465.563,2211.034,1480.566,2211.034,1480.566z"/>
			</g>
		</g>
	</g>
</g>
</svg>
