<?xml version="1.0" encoding="utf-8"?>
<!-- Generator: Adobe Illustrator 27.5.0, SVG Export Plug-In . SVG Version: 6.00 Build 0)  -->
<svg version="1.1" id="_x3C_Layer_x3E_" xmlns="http://www.w3.org/2000/svg" xmlns:xlink="http://www.w3.org/1999/xlink" x="0px"
	 y="0px" viewBox="0 0 2760 1840" style="enable-background:new 0 0 2760 1840;" xml:space="preserve">
<rect style="fill:#FFFFFF;" width="2760" height="1840"/>
<g>
	<g>
		<path style="fill:#DAEBE8;" d="M2239.894,1712.792c-191.555,26.104-388.906,15.227-792.146-12.088
			c-226.428-15.338-681.697,10.074-908.944,12.088c-165.674,1.468-299.991-133.177-299.991-297.459V914.247V390.812
			c0-164.282,134.597-307.122,299.991-297.459c153.595,8.974,379.514,44.501,615.018,22.747
			c280.097-25.872,811.741-47.857,1086.072-22.747c164.979,15.101,299.991,133.177,299.991,297.459v1024.521
			C2539.885,1579.615,2404.031,1690.425,2239.894,1712.792z"/>
	</g>
	<g>
		<ellipse style="fill:#B8D5DC;" cx="1365.752" cy="1400.14" rx="856.598" ry="140.019"/>
	</g>
	<g>
		<g>
			<g>
				<path style="fill:#B8D5DC;" d="M1705.944,523.377c4.565,5.505,9.534,10.72,14.889,15.591c7.15,6.504,9.388,16.859,5.348,25.626
					l-10.384,22.533c-5.042,10.94-0.304,23.964,10.582,29.09l34.623,16.305c10.887,5.127,23.801,0.412,28.841-10.531l13.954-30.299
					c3.541-7.688,11.163-12.716,19.593-12.679c2.033,0.009,4.063-0.024,6.088-0.097c8.634-0.314,16.622,4.67,20.338,12.544
					l15.226,32.267c5.157,10.929,18.116,15.62,28.947,10.477l34.464-16.366c10.838-5.146,15.437-18.188,10.27-29.122l-13.086-27.689
					c-4.02-8.506-2.186-18.603,4.517-25.121c0.081-0.079,0.162-0.158,0.243-0.237c6.432-6.281,16.083-7.852,24.229-4.01
					l25.888,12.211c10.884,5.134,23.801,0.426,28.847-10.514l16.053-34.802c5.047-10.942,0.308-23.973-10.582-29.099l-25.917-12.198
					c-8.148-3.835-13.162-12.315-12.543-21.333c0.007-0.102,0.014-0.203,0.021-0.305c0.625-9.376,7.09-17.288,16.114-19.65
					l29.406-7.697c11.598-3.036,18.514-14.977,15.447-26.671l-9.759-37.203c-3.068-11.695-14.959-18.713-26.557-15.673
					l-34.224,8.969c-8.353,2.189-17.265-0.787-22.582-7.67c-1.249-1.618-2.532-3.212-3.849-4.784
					c-5.449-6.505-6.547-15.64-3.002-23.329l13.963-30.289c5.042-10.938,0.308-23.961-10.575-29.089l-34.596-16.305
					c-10.886-5.131-23.802-0.419-28.844,10.523l-10.378,22.519c-4.044,8.774-13.335,13.703-22.867,12.344
					c-7.142-1.018-14.295-1.518-21.409-1.518c-8.458,0-16.2-4.832-19.842-12.536l-13.515-28.588
					c-5.164-10.924-18.124-15.606-28.951-10.458l-34.443,16.379c-10.83,5.15-15.424,18.185-10.261,29.114l9.546,20.206
					c4.123,8.728,2.092,19.119-5.004,25.571c-1.345,1.223-2.67,2.473-3.974,3.747c-6.382,6.24-16.01,7.717-24.103,3.912
					l-18.296-8.603c-10.882-5.117-23.782-0.405-28.824,10.526l-16.041,34.78c-5.046,10.941-0.308,23.97,10.581,29.097l18.273,8.603
					c8.103,3.815,13.184,12.231,12.556,21.198c-0.129,1.84-0.225,3.679-0.288,5.517c-0.332,9.632-6.895,17.874-16.15,20.294
					l-21.453,5.61c-11.601,3.034-18.52,14.977-15.452,26.673l9.751,37.176c3.066,11.69,14.948,18.707,26.543,15.677l30.332-7.926
					C1691.855,513.922,1700.504,516.816,1705.944,523.377z M1752.315,397.841c18.621-40.399,68.795-71.4,108.957-52.456
					c40.188,18.897,67.213,70.17,48.617,110.522c-18.621,40.399-81.683,67.43-121.882,48.497
					C1747.809,485.469,1733.683,438.203,1752.315,397.841z"/>
			</g>
			<g>
				<g>
					<path style="fill:#366F90;" d="M1888.027,660.443c-2.526,0-5.063-0.436-7.516-1.313c-5.671-2.027-10.217-6.158-12.8-11.632
						l-15.226-32.267c-3.632-7.696-11.354-12.478-19.722-12.169c-2.027,0.073-4.078,0.108-6.114,0.098c-0.029,0-0.059,0-0.088,0
						c-8.049,0-15.463,4.82-18.908,12.298l-13.954,30.299c-2.513,5.457-6.991,9.59-12.61,11.638
						c-5.607,2.044-11.683,1.764-17.104-0.788l-34.623-16.305c-11.192-5.27-16.081-18.709-10.896-29.957l10.385-22.532
						c3.911-8.489,1.824-18.483-5.194-24.868c-5.314-4.833-10.345-10.102-14.952-15.657c-5.278-6.364-13.764-9.151-21.607-7.099
						l-30.332,7.926c-11.93,3.116-24.19-4.126-27.343-16.145l-9.751-37.175c-1.528-5.825-0.714-11.89,2.292-17.079
						c3.007-5.19,7.847-8.881,13.627-10.393l21.453-5.61c9.043-2.365,15.336-10.275,15.661-19.683
						c0.063-1.846,0.16-3.71,0.289-5.541c0.601-8.584-4.294-16.846-12.182-20.56l-18.273-8.603
						c-11.197-5.272-16.085-18.713-10.896-29.964l16.041-34.78c2.514-5.45,6.989-9.579,12.604-11.626
						c5.604-2.044,11.677-1.766,17.093,0.782l18.296,8.603c7.873,3.701,17.264,2.179,23.367-3.788
						c1.302-1.273,2.645-2.539,3.991-3.764c6.934-6.304,8.884-16.272,4.852-24.806l-9.545-20.206
						c-5.309-11.237-0.566-24.689,10.572-29.985l34.443-16.378c5.365-2.551,11.411-2.854,17.018-0.853
						c5.672,2.023,10.22,6.151,12.807,11.622l13.515,28.588c3.492,7.387,11.048,12.161,19.25,12.161
						c7.171,0,14.405,0.513,21.502,1.525c9.348,1.336,18.267-3.477,22.18-11.97l10.378-22.518
						c2.515-5.456,6.994-9.588,12.613-11.634c5.607-2.043,11.687-1.762,17.105,0.793l34.596,16.305
						c11.188,5.273,16.074,18.711,10.891,29.956l-13.963,30.289c-3.461,7.508-2.319,16.393,2.909,22.634
						c1.313,1.568,2.614,3.185,3.865,4.804c5.141,6.655,13.735,9.577,21.897,7.437l34.224-8.969
						c11.93-3.126,24.203,4.114,27.357,16.141l9.759,37.203c1.527,5.824,0.714,11.889-2.291,17.077
						c-3.006,5.19-7.844,8.881-13.624,10.394l-29.405,7.697c-8.739,2.288-15.02,9.947-15.627,19.06l-0.021,0.305
						c-0.595,8.674,4.295,16.99,12.168,20.696l25.917,12.198c11.199,5.271,16.089,18.714,10.898,29.966l-16.054,34.802
						c-2.516,5.455-6.996,9.585-12.615,11.63c-5.612,2.041-11.686,1.758-17.106-0.798l-25.888-12.211
						c-7.871-3.711-17.312-2.15-23.492,3.887l-0.243,0.237c-6.517,6.336-8.277,16.13-4.383,24.372l13.086,27.689
						c5.314,11.244,0.568,24.699-10.581,29.993l-34.464,16.366C1894.513,659.721,1891.278,660.443,1888.027,660.443z
						 M1833.517,601.738c8.565,0,16.415,5.009,20.155,12.934l15.226,32.267c2.434,5.157,6.715,9.049,12.056,10.958
						c5.279,1.887,10.967,1.606,16.018-0.793l34.464-16.366c10.498-4.984,14.966-17.657,9.958-28.25l-13.086-27.689
						c-4.133-8.747-2.264-19.143,4.653-25.87l0.244-0.237c6.568-6.415,16.603-8.077,24.965-4.133l25.888,12.211
						c5.102,2.407,10.819,2.673,16.1,0.752c5.288-1.924,9.505-5.812,11.874-10.947l16.054-34.802
						c4.89-10.601,0.283-23.265-10.268-28.231l-25.917-12.198c-8.357-3.934-13.549-12.763-12.916-21.971l0.021-0.304
						c0.645-9.676,7.316-17.81,16.602-20.24l29.405-7.697c5.439-1.424,9.993-4.898,12.822-9.783
						c2.831-4.887,3.597-10.601,2.157-16.088l-9.759-37.203c-2.97-11.327-14.52-18.148-25.758-15.206l-34.224,8.969
						c-8.667,2.27-17.804-0.831-23.267-7.904c-1.24-1.606-2.53-3.208-3.832-4.763c-5.553-6.628-6.768-16.059-3.095-24.025
						l13.963-30.289c4.884-10.594,0.281-23.254-10.26-28.222l-34.596-16.305c-5.101-2.405-10.819-2.67-16.099-0.747
						c-5.288,1.926-9.505,5.816-11.872,10.952l-10.378,22.519c-4.158,9.022-13.62,14.133-23.555,12.718
						c-7.035-1.003-14.207-1.511-21.316-1.511c-8.706,0-16.728-5.069-20.436-12.912l-13.514-28.588
						c-2.438-5.155-6.721-9.043-12.063-10.948c-5.277-1.884-10.965-1.599-16.015,0.803l-34.443,16.378
						c-10.487,4.987-14.951,17.656-9.949,28.242l9.545,20.206c4.279,9.058,2.207,19.641-5.156,26.335
						c-1.334,1.213-2.666,2.469-3.956,3.73c-6.493,6.349-16.475,7.97-24.84,4.037l-18.296-8.603
						c-5.102-2.397-10.813-2.659-16.088-0.736c-5.283,1.926-9.496,5.813-11.862,10.944l-16.041,34.78
						c-4.889,10.6-0.283,23.264,10.266,28.229l18.273,8.604c8.372,3.942,13.568,12.718,12.93,21.837
						c-0.127,1.815-0.224,3.664-0.287,5.494c-0.344,9.991-7.03,18.393-16.638,20.905l-21.453,5.61
						c-5.44,1.423-9.995,4.897-12.825,9.783c-2.832,4.887-3.598,10.602-2.158,16.09l9.751,37.175
						c2.969,11.32,14.518,18.145,25.743,15.21l30.332-7.926c8.339-2.178,17.348,0.776,22.947,7.531v0
						c4.569,5.509,9.557,10.732,14.825,15.525c7.444,6.771,9.655,17.374,5.503,26.385l-10.385,22.532
						c-4.884,10.597-0.279,23.258,10.266,28.223l34.623,16.305c5.102,2.402,10.817,2.667,16.098,0.742
						c5.288-1.927,9.503-5.818,11.869-10.955l13.954-30.299c3.657-7.942,11.54-13.06,20.098-13.06
						c0.253-0.001,0.486,0.002,0.73,0.002c1.804,0,3.625-0.033,5.425-0.099C1832.984,601.743,1833.251,601.738,1833.517,601.738z"/>
				</g>
			</g>
		</g>
	</g>
	<g>
		<g>
			<path style="fill:#331832;" d="M1343.47,447.067c-1.113,0-2.228-0.206-3.298-0.621c-2.299-0.89-4.115-2.628-5.114-4.895
				l-4.973-11.28c-1.22-2.767-3.969-4.605-7.005-4.683c-2.813-0.072-5.646-0.346-8.421-0.816c-3.434-0.583-6.776,1.105-8.302,4.199
				l-4.282,8.675c-1.088,2.204-2.966,3.846-5.288,4.622c-2.319,0.775-4.804,0.595-6.996-0.51l-13.332-6.719
				c-4.523-2.28-6.376-7.831-4.132-12.375l5.76-11.662c1.353-2.74,1.019-6.033-0.852-8.388c-0.502-0.631-0.991-1.273-1.466-1.923
				c-1.833-2.508-4.979-3.67-8.012-2.962l-13.441,3.14c-4.919,1.152-9.86-1.946-11.022-6.898l-3.428-14.605
				c-0.567-2.414-0.162-4.899,1.141-6.997c1.289-2.075,3.303-3.521,5.673-4.073l11.539-2.689c3.25-0.757,5.645-3.524,5.958-6.885
				l0.013-0.134c0.305-3.197-1.421-6.318-4.297-7.765l-9.974-5.019c-4.524-2.277-6.381-7.828-4.14-12.373l6.61-13.403
				c1.088-2.206,2.966-3.848,5.288-4.624c2.322-0.776,4.807-0.594,6.998,0.511l9.977,5.031c2.87,1.447,6.369,0.962,8.708-1.203
				l0.088-0.081c2.467-2.275,3.213-5.875,1.856-8.957l-4.817-10.939c-2.05-4.655,0.039-10.107,4.655-12.151l13.604-6.025
				c2.226-0.987,4.704-1.043,6.979-0.162c2.3,0.891,4.116,2.631,5.114,4.899l5.603,12.734c1.267,2.879,4.093,4.715,7.162,4.69
				c0.801-0.008,1.604,0.001,2.406,0.025c3.024,0.099,5.783-1.619,7.133-4.355l5.755-11.662c1.088-2.204,2.965-3.845,5.286-4.622
				c2.318-0.777,4.803-0.597,6.996,0.508l13.325,6.711c4.523,2.278,6.379,7.829,4.136,12.374l-4.279,8.669
				c-1.531,3.1-0.854,6.816,1.684,9.247c2.043,1.956,3.968,4.078,5.723,6.306c1.888,2.397,4.993,3.508,7.905,2.83l11.915-2.774
				c4.913-1.142,9.857,1.952,11.017,6.905l3.419,14.601c0.565,2.413,0.159,4.896-1.143,6.993c-1.288,2.073-3.303,3.519-5.672,4.072
				l-8.42,1.963c-3.364,0.784-5.765,3.646-5.974,7.122c-0.042,0.72-0.099,1.44-0.167,2.161c-0.303,3.157,1.423,6.252,4.295,7.702
				l7.041,3.554c4.518,2.28,6.37,7.828,4.13,12.368l-6.605,13.393c-1.089,2.206-2.967,3.848-5.289,4.625
				c-2.317,0.775-4.805,0.594-6.996-0.511l-7.036-3.546c-2.875-1.449-6.358-0.981-8.67,1.165c-0.531,0.492-1.069,0.974-1.615,1.445
				c-2.617,2.259-3.431,5.92-2.025,9.108l3.516,7.98c2.051,4.656-0.036,10.107-4.654,12.152l-13.593,6.02
				C1345.971,446.806,1344.722,447.067,1343.47,447.067z M1331.347,429.715l4.973,11.28c0.85,1.928,2.395,3.407,4.35,4.164
				c1.93,0.748,4.033,0.699,5.919-0.137l13.593-6.021c3.922-1.738,5.694-6.374,3.949-10.334l-3.516-7.98
				c-1.651-3.748-0.692-8.052,2.387-10.71c0.534-0.46,1.06-0.932,1.578-1.412c2.731-2.537,6.843-3.095,10.23-1.386l7.036,3.546
				c1.859,0.937,3.97,1.092,5.938,0.434c1.971-0.659,3.564-2.053,4.488-3.926l6.605-13.394c1.906-3.864,0.331-8.585-3.513-10.525
				l-7.041-3.554c-3.376-1.704-5.405-5.347-5.049-9.066c0.068-0.704,0.123-1.408,0.164-2.111c0.246-4.091,3.074-7.46,7.039-8.385
				l8.419-1.963c2.011-0.468,3.719-1.696,4.813-3.456c1.107-1.783,1.452-3.896,0.972-5.95l-3.419-14.601
				c-0.986-4.212-5.187-6.848-9.36-5.875l-11.914,2.774c-3.434,0.8-7.086-0.504-9.304-3.321c-1.714-2.177-3.596-4.251-5.593-6.163
				c-2.975-2.85-3.766-7.212-1.967-10.855l4.279-8.669c1.909-3.867,0.331-8.591-3.519-10.53l-13.325-6.711
				c-1.86-0.937-3.968-1.089-5.937-0.432c-1.969,0.659-3.563,2.053-4.486,3.924l-5.755,11.662c-1.589,3.221-4.899,5.233-8.414,5.124
				c-0.786-0.025-1.571-0.032-2.351-0.025c-0.028,0-0.057,0-0.085,0c-3.604,0.001-6.876-2.157-8.354-5.515l-5.603-12.734
				c-0.849-1.93-2.394-3.41-4.35-4.168c-1.932-0.748-4.034-0.7-5.921,0.136l-13.604,6.025c-3.921,1.737-5.693,6.373-3.95,10.332
				l4.817,10.939c1.595,3.622,0.717,7.853-2.184,10.528l-0.555-0.427l0.469,0.506c-2.76,2.556-6.887,3.128-10.267,1.422
				l-9.977-5.031c-1.862-0.939-3.969-1.093-5.939-0.434c-1.971,0.659-3.564,2.053-4.488,3.926l-6.61,13.403
				c-1.908,3.869-0.328,8.592,3.522,10.529l9.974,5.019c3.38,1.701,5.409,5.37,5.05,9.129l-0.7,0.067l0.687,0.064
				c-0.368,3.954-3.188,7.21-7.018,8.102l-11.539,2.688c-2.011,0.468-3.721,1.696-4.814,3.457c-1.108,1.784-1.453,3.898-0.97,5.953
				l3.428,14.605c0.989,4.212,5.193,6.847,9.364,5.87l13.441-3.14c3.576-0.837,7.281,0.536,9.441,3.491
				c0.464,0.635,0.941,1.262,1.432,1.879c2.202,2.772,2.597,6.641,1.008,9.858l-5.76,11.662c-1.91,3.867-0.332,8.591,3.516,10.531
				l13.332,6.719c1.861,0.938,3.97,1.092,5.937,0.434c1.97-0.659,3.563-2.052,4.487-3.924l4.282-8.675
				c1.799-3.644,5.725-5.633,9.771-4.949c2.71,0.458,5.478,0.727,8.226,0.797C1326.682,424.3,1329.914,426.461,1331.347,429.715
				L1331.347,429.715z"/>
		</g>
		<g>
			<path style="fill:#331832;" d="M1322.095,398.847c-4.616,0-9.224-1.091-13.509-3.251l0,0c-15.3-7.71-23.289-34.031-15.264-50.292
				c3.229-6.542,9.27-11.569,17.007-14.154c9.474-3.165,20.352-2.418,29.102,1.998c15.706,7.903,18.724,31.473,10.93,47.267
				c-4.023,8.164-10.738,14.166-18.906,16.9C1328.397,398.339,1325.244,398.847,1322.095,398.847z M1322.443,330.592
				c-3.963,0-7.933,0.617-11.677,1.868c-7.386,2.467-13.142,7.246-16.207,13.456c-7.736,15.675-0.07,41.031,14.647,48.448l0,0
				c6.878,3.465,14.624,4.049,21.809,1.643c7.816-2.617,14.247-8.371,18.106-16.202c7.508-15.214,4.693-37.872-10.313-45.423
				C1333.837,331.871,1328.147,330.592,1322.443,330.592z"/>
		</g>
	</g>
	<g>
		<g>
			<path style="fill:#EF8062;" d="M1065.63,757.253l-1.388,29.53c-0.531,11.289,8.115,20.848,19.314,21.355l35.615,1.612
				c11.205,0.507,20.722-8.24,21.255-19.534l0.985-20.887c0.425-9.01,6.65-16.694,15.331-18.911c1.656-0.423,3.308-0.877,4.953-1.36
				c8.02-2.358,16.633,0.656,21.648,7.367l11.309,15.136c6.739,9.019,19.474,10.801,28.44,3.979l28.502-21.685
				c8.958-6.816,10.764-19.641,4.036-28.656l-11.313-15.157c-5.004-6.704-5.506-15.871-1.064-22.992
				c0.908-1.455,1.788-2.924,2.641-4.407c4.498-7.821,13.542-11.754,22.255-9.685l20.17,4.789c10.91,2.59,21.864-4.23,24.465-15.233
				l8.274-34.996c2.601-11-4.131-22.017-15.037-24.609l-28.54-6.784c-7.692-1.828-13.56-8.006-15.18-15.802
				c-1.362-6.557-3.186-13.051-5.478-19.432c-3.059-8.516-0.363-18.058,6.828-23.526l18.455-14.033
				c8.968-6.819,10.772-19.658,4.03-28.674l-21.426-28.653c-6.74-9.013-19.468-10.793-28.432-3.975l-24.823,18.879
				c-6.302,4.793-14.805,5.594-21.753,1.862c-1.678-0.901-3.372-1.768-5.08-2.598c-7.266-3.535-11.674-11.159-11.287-19.292
				l1.589-33.325c0.538-11.294-8.109-20.861-19.313-21.369l-35.641-1.613c-11.203-0.507-20.719,8.237-21.255,19.529l-1.357,28.631
				c-0.416,8.786-6.361,16.315-14.753,18.751c-0.091,0.026-0.182,0.053-0.273,0.079c-8.068,2.36-16.726-0.579-21.768-7.328
				l-16.036-21.467c-6.739-9.021-19.475-10.804-28.442-3.98l-28.52,21.701c-8.965,6.822-10.765,19.661-4.021,28.675l16.042,21.439
				c5.048,6.746,5.47,15.953,0.999,23.128c-0.056,0.09-0.112,0.181-0.169,0.271c-4.633,7.471-13.448,11.166-21.939,9.148
				l-27.641-6.568c-10.915-2.594-21.874,4.233-24.471,15.244l-8.258,35.013c-2.595,11.003,4.144,22.017,15.053,24.602l32.207,7.632
				c7.859,1.862,13.913,8.236,15.281,16.257c0.321,1.881,0.68,3.759,1.077,5.631c1.647,7.762-1.457,15.786-7.759,20.575
				l-24.834,18.873c-8.969,6.816-10.777,19.654-4.038,28.672l21.431,28.677c6.738,9.016,19.469,10.799,28.434,3.981l18.467-14.042
				c7.185-5.464,17.014-5.456,24.287-0.155c5.447,3.969,11.133,7.515,17.004,10.63
				C1061.721,741.884,1066.005,749.281,1065.63,757.253z M1056.234,658.768c-24.885-33.295-12.421-96.784,20.688-121.962
				c33.071-25.146,84.791-10.41,109.641,22.883c24.888,33.259,6.352,85.656-26.757,110.835
				C1126.732,695.705,1081.12,692.063,1056.234,658.768z"/>
		</g>
	</g>
	<g>
		<g>
			<path style="fill:#ACC9C5;" d="M1080.29,1063.572c0,0-234.033-362.633-330.047-295.432s210.664,208.249,275.448,315.972
				L1080.29,1063.572z"/>
		</g>
		<g>
			<g>
				<path style="fill:#92BCB5;" d="M1058.543,1057.59c0,0-382.816-306.737-483.048-190.074
					c-100.232,116.663,313.499,143.418,421.4,236.57L1058.543,1057.59z"/>
			</g>
			<g>
				<g>
					<path style="fill:#ACC9C5;" d="M1024.287,1083.903c-73.348-65.687-175.006-111.284-247.37-137.968
						c-78.452-28.928-140.293-42.466-140.909-42.6l0.834-3.844c0.618,0.134,62.729,13.73,141.437,42.753
						c72.685,26.802,174.823,72.627,248.632,138.728L1024.287,1083.903z"/>
				</g>
			</g>
		</g>
		<g>
			<g>
				<g>
					<path style="fill:#CCD39C;" d="M637.727,1279.489c75.38-8.068,98.946,102.277,172.562,55.984
						c62.336-39.247,65.894-47.357,95.945-35.524c9.809,3.862,19.169,9.006,27.427,15.558c10.248,8.131,29.368,19.775,51.856,16.468
						c133.091-19.577,243.479-262.535,78.313-321.593c-11.927-4.265-26.664-2.547-42.727,0.117
						c-87.117,14.503-100.338,61.074-197.917-14.94c-97.609-76.033-139.827,93.288-197.011,106.756
						c-57.183,13.467-111.656,13.018-135.452,86.216C466.94,1261.779,562.358,1287.607,637.727,1279.489z"/>
				</g>
			</g>
			<g>
				<g>
					<g>
						<path style="fill:#C2C68E;" d="M1068.567,1158.983l1.341-4.801c-2.115-0.593-216.032-57.918-583.619,54.366l1.457,4.771
							C853.953,1101.457,1066.461,1158.396,1068.567,1158.983z"/>
					</g>
				</g>
				<g>
					<g>
						<path style="fill:#C2C68E;" d="M794.965,1093.289c33.771-59.236,30.853-96.415,30.712-97.968l-4.966,0.446
							c0.033,0.366,2.829,37.33-30.08,95.054L794.965,1093.289z"/>
					</g>
				</g>
				<g>
					<g>
						<path style="fill:#C2C68E;" d="M803.545,1147.115c5.625-28.3-7.025-62.207-36.582-98.054
							c-22.134-26.846-46.257-45.658-46.497-45.844l-3.054,3.938c0.943,0.732,94.177,73.918,81.242,138.991L803.545,1147.115z"/>
					</g>
				</g>
				<g>
					<g>
						<path style="fill:#C2C68E;" d="M704.82,1170.68c4.138-6.688,6.202-10.828,6.295-11.018l-4.479-2.187
							c-0.427,0.876-43.975,88.008-141.237,117.002l1.425,4.775C645.195,1255.89,689.401,1195.599,704.82,1170.68z"/>
					</g>
				</g>
				<g>
					<g>
						<path style="fill:#C2C68E;" d="M693.769,1295.8c13.855-31.798,12.01-58.376,8.023-75.073
							c-4.34-18.174-11.925-28.7-12.245-29.141l-4.029,2.94c0.294,0.404,29.047,41.064,3.678,99.284L693.769,1295.8z"/>
					</g>
				</g>
			</g>
		</g>
	</g>
	<g>
		<g style="opacity:0.6;">
			<path style="fill:#ACC9C5;" d="M1565.86,1053.501c0,0,274.557-411.591,387.686-331.628
				c113.129,79.964-247.41,234.345-323.395,356.737L1565.86,1053.501z"/>
		</g>
		<g>
			<g>
				<path style="fill:#CCD39C;" d="M1521.82,1084.363c0,0,450.924-372.388,578.364-236.158
					c127.44,136.23-374.405,177.069-501.184,289.975L1521.82,1084.363z"/>
			</g>
			<g>
				<g>
					<path style="fill:#C2C68E;" d="M1564.73,1114.833c86.068-79.557,207.52-135.896,294.248-169.149
						c94.025-36.05,168.583-53.473,169.326-53.645l-1.197-4.543c-0.745,0.172-75.629,17.671-169.96,53.839
						c-87.114,33.401-209.137,90.021-295.747,170.078L1564.73,1114.833z"/>
				</g>
			</g>
		</g>
		<g>
			<g>
				<g>
					<path style="fill:#ACC9C5;" d="M2067.347,1253.629c-79.171-4.313-95.622,109.132-175.765,65.851
						c-67.771-36.646-72.159-44.74-102.498-31.233c-10.4,4.63-19.945,10.833-28.548,18.134c-10.31,8.75-28.928,20.724-51.873,18.59
						c-140.177-13.039-273.116-254.444-105.286-323.04c12.119-4.953,27.608-3.967,44.548-2.088
						c91.88,10.252,109.086,56.935,205.214-25.414c96.158-82.371,152.62,87.66,213.22,98.405
						c60.6,10.745,117.351,7.475,147.539,80.694C2244.076,1226.798,2146.51,1257.993,2067.347,1253.629z"/>
				</g>
			</g>
			<g style="opacity:0.5;">
				<g>
					<g>
						<path style="fill:#68A1BF;" d="M1609.367,1153.313l-1.751-4.814c2.161-0.712,220.937-70.062,612.376,25.159l-1.167,4.927
							C1828.855,1083.723,1611.52,1152.607,1609.367,1153.313z"/>
					</g>
				</g>
				<g>
					<g>
						<path style="fill:#68A1BF;" d="M1889.745,1072.37c-39.56-58.503-39.253-96.468-39.22-98.054l5.21,0.198
							c-0.007,0.374-0.204,38.113,38.347,95.123L1889.745,1072.37z"/>
					</g>
				</g>
				<g>
					<g>
						<path style="fill:#68A1BF;" d="M1884.759,1127.557c-7.945-28.492,2.748-63.631,30.922-101.617
							c21.098-28.447,44.861-48.826,45.098-49.027l3.474,3.848c-0.929,0.793-92.736,80.042-74.466,145.558L1884.759,1127.557z"/>
					</g>
				</g>
				<g>
					<g>
						<path style="fill:#68A1BF;" d="M1989.405,1146.426c-4.806-6.589-7.261-10.693-7.372-10.881l4.508-2.456
							c0.509,0.869,52.313,87.239,155.833,111.707l-1.134,4.93C2057.826,1230.013,2007.311,1170.975,1989.405,1146.426z"/>
					</g>
				</g>
				<g>
					<g>
						<path style="fill:#68A1BF;" d="M2010.126,1273.111c-16.781-31.625-16.813-58.753-13.885-75.94
							c3.188-18.709,10.32-29.806,10.621-30.271l4.417,2.782c-0.276,0.426-27.26,43.265,3.467,101.169L2010.126,1273.111z"/>
					</g>
				</g>
			</g>
		</g>
		<g>
			<path style="fill:#ACC9C5;" d="M2031.681,741.619c14.089-13.837,22.88-13.503,28.555-8.014
				c5.675,5.489,6.085,14.055-8.004,27.892c-25.665,25.206-48.345,27.449-48.345,27.449S2005.642,767.193,2031.681,741.619z"/>
		</g>
	</g>
	<g style="opacity:0.6;">
		<path style="fill:#FFFFFF;" d="M772.906,405.327c0,0-13.273-25.528-46.858-22.329c-33.585,3.198-29.587,28.787-45.58,26.388
			c-15.993-2.399-38.383,0-43.181,15.993c-4.798,15.993-26.389,7.197-27.188,20.791c-0.8,13.594,24.789,23.19,54.376,11.195
			c29.587-11.995,43.981,9.318,85.563,5.459c41.582-3.859,46.734-8.658,71.346-6.258c24.612,2.399,24.028-14.453,12.832-25.649
			C823.02,419.721,777.704,420.788,772.906,405.327z"/>
	</g>
	<g>
		<g>
			<path style="fill:#B8D5DC;" d="M1078.858,1392.804c0,0-21.156-20.844-13.877-32.716c7.28-11.872,19.564,25.502,19.564,25.502
				s-6.37-44.193,6.825-44.96c13.194-0.767,0,44.96,0,44.96s4.891-10.662,9.668-11.322c4.777-0.659,3.412,9.041-5.119,18.536"/>
		</g>
		<g>
			<path style="fill:#444092;" d="M1080.391,1393.345c-0.061-0.059-6.114-6.056-11.069-13.629
				c-6.767-10.345-8.377-18.561-4.785-24.418c1.343-2.189,2.956-3.19,4.78-2.977c6.205,0.725,13.006,16.391,16.505,25.654
				c-1.159-11.511-2.498-34.341,3.961-42.25c1.451-1.777,3.23-2.739,5.29-2.859c2-0.117,3.638,0.6,4.859,2.129
				c5.789,7.247,0.453,32.152-2.474,43.798c2.196-3.454,5.326-7.326,8.521-7.767c1.527-0.208,2.737,0.36,3.399,1.608
				c1.834,3.454-0.858,12.133-8.535,20.677l-1.132-1.017c7.539-8.391,9.678-16.395,8.323-18.947
				c-0.227-0.428-0.664-0.975-1.847-0.814c-4.106,0.566-8.884,9.147-10.379,12.405l-1.423-0.528
				c0.029-0.1,2.899-10.097,4.839-21.073c2.536-14.352,2.37-23.824-0.481-27.392c-0.908-1.137-2.07-1.652-3.582-1.559
				c-1.639,0.095-3.012,0.848-4.199,2.301c-8.172,10.008-2.886,47.449-2.832,47.826l-1.476,0.346
				c-2.756-8.382-11.275-30.297-17.513-31.026c-1.203-0.148-2.287,0.598-3.306,2.261c-7.85,12.801,15.389,35.935,15.625,36.167
				L1080.391,1393.345z"/>
		</g>
	</g>
	<g>
		<path style="fill:#502A53;" d="M1488.778,622.803l-50.235-8.861c-22.489-3.967-37.505-25.414-33.538-47.903l11.26-63.839
			c3.967-22.489,25.414-37.505,47.903-33.538l50.235,8.861c22.489,3.967,37.505,25.414,33.538,47.903l-11.26,63.839
			C1532.714,611.755,1511.267,626.77,1488.778,622.803z"/>
	</g>
	<g>
		<path style="fill:#EF8062;" d="M1545.283,526.97l-127.048-22.409c-16.898-2.98-28.18-19.095-25.2-35.993l0,0
			c2.98-16.898,19.095-28.18,35.992-25.199l127.048,22.409c16.898,2.98,28.18,19.095,25.2,35.993l0,0
			C1578.295,518.668,1562.181,529.951,1545.283,526.97z"/>
	</g>
	<g>
		
			<ellipse transform="matrix(0.1737 -0.9848 0.9848 0.1737 186.1554 2174.8945)" style="fill:#764678;" cx="1389.113" cy="976.516" rx="420.719" ry="427.562"/>
	</g>
	<g>
		
			<ellipse transform="matrix(0.1737 -0.9848 0.9848 0.1737 186.1505 2174.8896)" style="fill:#E6F1EF;" cx="1389.113" cy="976.516" rx="381.801" ry="388.011"/>
	</g>
	<g>
		<path style="fill:#CCD39C;" d="M1651.043,819.581l-199.633,102.58c-27.401,14.08-61.007,5.281-77.993-20.419l-138.941-210.227
			c-4.997-7.56-2.58-17.785,5.288-22.282c60.22-34.419,132.204-49.986,206.7-39.786c98.301,13.454,180.345,68.938,229.899,145.449
			C1688.487,793.617,1671.298,810.241,1651.043,819.581z"/>
	</g>
	<g>
		<g>
			<path style="fill:#331832;" d="M1109.241,937.514c-0.334,0-0.672-0.027-1.013-0.083l-44.953-7.417
				c-3.365-0.555-5.642-3.733-5.087-7.098c0.555-3.365,3.735-5.64,7.098-5.087l44.953,7.417c3.365,0.555,5.642,3.733,5.087,7.098
				C1114.826,935.368,1112.208,937.514,1109.241,937.514z"/>
		</g>
		<g>
			<path style="fill:#331832;" d="M1713.61,1037.229c-0.362,0-0.729-0.032-1.097-0.098l-47.994-8.605
				c-3.356-0.602-5.59-3.811-4.988-7.168c0.603-3.357,3.818-5.586,7.168-4.988l47.994,8.605c3.357,0.602,5.59,3.811,4.988,7.168
				C1719.145,1035.131,1716.543,1037.229,1713.61,1037.229z"/>
		</g>
	</g>
	<g>
		<g>
			<path style="fill:#331832;" d="M1438.135,715.296c-0.369,0-0.744-0.033-1.12-0.102c-3.355-0.615-5.575-3.832-4.96-7.187
				l9.766-53.276c0.615-3.354,3.832-5.578,7.187-4.96c3.355,0.615,5.575,3.832,4.96,7.187l-9.766,53.276
				C1443.655,713.211,1441.058,715.296,1438.135,715.296z"/>
		</g>
	</g>
	<g>
		<g>
			<path style="fill:#331832;" d="M1334.287,1304.06c-0.37,0-0.744-0.033-1.12-0.102c-3.354-0.615-5.575-3.833-4.96-7.187
				l9.766-53.276c0.614-3.355,3.835-5.576,7.187-4.96c3.354,0.615,5.575,3.833,4.96,7.187l-9.766,53.276
				C1339.807,1301.976,1337.21,1304.06,1334.287,1304.06z"/>
		</g>
	</g>
	<g>
		<g>
			<path style="fill:#331832;" d="M1525.524,1279.946c-2.349,0-4.595-1.348-5.628-3.627l-8.915-19.668
				c-1.408-3.106-0.031-6.765,3.075-8.173c3.104-1.407,6.765-0.031,8.173,3.075l8.915,19.668c1.408,3.106,0.032,6.765-3.075,8.173
				C1527.242,1279.769,1526.376,1279.946,1525.524,1279.946z"/>
		</g>
		<g>
			<path style="fill:#331832;" d="M1267.696,711.142c-2.349,0-4.595-1.348-5.627-3.627l-11.361-25.065
				c-1.408-3.106-0.031-6.765,3.075-8.173c3.106-1.408,6.765-0.031,8.173,3.074l11.361,25.065c1.408,3.106,0.031,6.765-3.075,8.173
				C1269.414,710.964,1268.548,711.142,1267.696,711.142z"/>
		</g>
	</g>
	<g>
		<g>
			<path style="fill:#331832;" d="M1649.53,1182.027c-1.315,0-2.642-0.419-3.764-1.284l-15.33-11.81
				c-2.702-2.081-3.205-5.958-1.123-8.659c2.08-2.703,5.959-3.205,8.659-1.123l15.33,11.81c2.702,2.081,3.205,5.958,1.123,8.659
				C1653.209,1181.199,1651.379,1182.027,1649.53,1182.027z"/>
		</g>
		<g>
			<path style="fill:#331832;" d="M1149.675,796.966c-1.315,0-2.641-0.418-3.763-1.283l-16.683-12.851
				c-2.702-2.081-3.205-5.958-1.124-8.66c2.081-2.702,5.958-3.205,8.66-1.123l16.682,12.851c2.702,2.081,3.205,5.958,1.124,8.66
				C1153.355,796.138,1151.525,796.966,1149.675,796.966z"/>
		</g>
	</g>
	<g>
		<g>
			<path style="fill:#331832;" d="M1172.408,1224.703c-1.668,0-3.331-0.672-4.548-1.996c-2.308-2.511-2.143-6.418,0.368-8.725
				l19.798-18.196c2.511-2.307,6.417-2.142,8.724,0.367c2.307,2.511,2.143,6.418-0.368,8.725l-19.798,18.196
				C1175.398,1224.164,1173.901,1224.703,1172.408,1224.703z"/>
		</g>
		<g>
			<path style="fill:#331832;" d="M1592.825,760.536c-1.479,0-2.961-0.528-4.144-1.598c-2.527-2.289-2.72-6.194-0.431-8.722
				l17.298-19.099c2.29-2.528,6.195-2.72,8.722-0.432c2.527,2.289,2.72,6.194,0.431,8.722l-17.299,19.099
				C1596.184,759.852,1594.507,760.536,1592.825,760.536z"/>
		</g>
	</g>
	<g>
		<g>
			<path style="fill:#331832;" d="M1087.852,1102.341c-2.465,0-4.792-1.486-5.749-3.918c-1.247-3.173,0.314-6.758,3.488-8.005
				l15.231-5.987c3.177-1.249,6.759,0.315,8.006,3.488c1.247,3.173-0.314,6.758-3.488,8.005l-15.231,5.987
				C1089.368,1102.202,1088.603,1102.341,1087.852,1102.341z"/>
		</g>
		<g>
			<path style="fill:#331832;" d="M1671.896,872.761c-2.464,0-4.792-1.485-5.748-3.917c-1.248-3.174,0.313-6.758,3.488-8.006
				l22.787-8.958c3.174-1.245,6.758,0.315,8.005,3.488c1.248,3.174-0.313,6.758-3.488,8.006l-22.787,8.957
				C1673.412,872.623,1672.647,872.761,1671.896,872.761z"/>
		</g>
	</g>
	<g>
		<g>
			<path style="fill:#FFB27D;" d="M1939.515,1123.973c-0.71,4.683,0.006,14.435-0.612,19.139c-0.268,2.039-0.691,9.005,1.322,9.737
				c1.749,0.635,4.726-4.489,5.834-7.129c7.664,15.897,23.444,33.98,9.605,1.544c0.014-0.005,0.029-0.01,0.043-0.015
				c1.4,2.707,11.002,22.883,14.757,19.84c2.75-2.229-5.642-18.624-7.899-23.097c0.037-0.022,0.074-0.044,0.111-0.066
				c2.669,4.384,10.028,18.006,12.77,16.012c3.609-2.623-6.43-19.917-6.43-19.917s7.981,14.53,10.604,10.055
				c1.478-2.523-3.514-10.986-6.696-16.216v0c0-0.001-0.001-0.001-0.001-0.002c-0.667-1.096-1.256-2.054-1.688-2.781
				c-0.358-0.604-0.738-1.105-1.133-1.531c-5.839-8.453-10.922-13.04-10.922-13.04s-5.094-6.361-12.657-2.986
				C1941.705,1115.671,1939.823,1121.943,1939.515,1123.973z"/>
		</g>
		<g>
			<path style="fill:#FFB27D;" d="M1633.272,920.633c-0.637-4.693-4.069-13.858-4.801-18.546c-0.317-2.033-1.872-8.839-4.011-8.982
				c-1.859-0.125-3.274,5.62-3.595,8.462c-11.834-13.139-32.078-26.127-9.657,1.181c-0.012,0.008-0.025,0.018-0.038,0.026
				c-2.106-2.211-17.006-18.921-19.755-14.958c-2.013,2.903,10.661,16.317,14.087,19.987c-0.029,0.031-0.059,0.063-0.089,0.094
				c-3.797-3.469-14.698-14.508-16.77-11.834c-2.726,3.52,11.782,17.341,11.782,17.341s-11.755-11.738-13.012-6.714
				c-0.709,2.832,6.467,9.574,10.995,13.714l0,0c0,0,0.001,0.001,0.002,0.001c0.949,0.868,1.784,1.624,2.403,2.202
				c0.514,0.481,1.02,0.857,1.519,1.156c7.986,6.498,14.158,9.492,14.158,9.492s6.682,4.695,12.994-0.642
				C1633.507,929.212,1633.548,922.668,1633.272,920.633z"/>
		</g>
		<g>
			<path style="fill:#331832;" d="M1805.147,1405.056c0,0,0.651,10.726-6.848,14.338c-7.499,3.612-29.755,8.052-20.746,14.293
				c5.169,3.581,27.676-0.705,34.093-1.194c6.418-0.49,12.672,1.66,17.089-2.711c4.86-4.809-2.31-26.349-2.31-26.349
				s-5.302,3.114-10.293,3.373C1808.941,1407.179,1805.147,1405.056,1805.147,1405.056z"/>
		</g>
		<g>
			<path style="fill:#331832;" d="M1915.965,1363.746c0,0,17.496,41.914,14.329,49.565c-3.167,7.651-16.781,25.68-5.873,24.376
				c6.259-0.748,20.164-18.826,24.62-23.434c4.457-4.609,10.563-7.142,10.923-13.322c0.395-6.799-21.996-27.966-21.996-27.966
				s-2.848-30.782-6.395-27.289C1926.46,1350.711,1915.965,1363.746,1915.965,1363.746z"/>
		</g>
		<g>
			<path style="fill:#331832;" d="M1789.699,898.635c0,0-7.405-19.369,9.861-22.457c17.265-3.087,14.483,9.523,17.935,12.395
				c3.452,2.871-3.679,12.787-11.942,14.713C1797.291,905.212,1789.699,898.635,1789.699,898.635z"/>
		</g>
		<g>
			<path style="fill:#EF8062;" d="M1739.624,1140.554c2.334-34.09,75.713,3.697,75.713,3.697s30.891,233.921,16.803,266.747
				c-2.78,6.479-14.766,6.372-20.376,5.765c-39.685-4.299-49.529-121.209-59.886-172.591
				C1746.682,1218.393,1738.212,1161.174,1739.624,1140.554z"/>
		</g>
		<g>
			<path style="fill:#331832;" d="M1880.958,1139.967c-2.086,8.372-35.341,17.154-75.148,8.28
				c-39.807-8.874-70.867-18.307-68.781-26.679c2.086-8.372,36.528-12.513,76.335-3.639
				C1853.171,1126.803,1883.045,1131.595,1880.958,1139.967z"/>
		</g>
		<g>
			<path style="fill:#68A1BF;" d="M1752.897,1010.557c-9.794-4.191-18.731-10.285-18.731-10.285s21.007-34.968,65.085-32.652
				c6.104,0.321,33.682,5.004,39.597,6.015c75.907,12.968,42.382,163.087,42.11,166.332
				c-76.727-32.286-143.929-18.399-143.929-18.399C1736.466,1064.348,1751.678,1013.417,1752.897,1010.557z"/>
		</g>
		<g>
			<path style="fill:#EF8062;" d="M1867.286,1141.712c0,0-66.89-20.137-122.222-16.875c-2.54,0.15-4.569,2.036-4.72,4.407
				c0,0-1.093,19.172-0.603,25.54c1.085,14.096,132.338,8.925,132.338,8.925L1867.286,1141.712z"/>
		</g>
		<g>
			<path style="fill:#FFB27D;" d="M1831.325,972.301c-6.724,7.291-14.273,9.635-24.117,9.635c-14.905,0-7.957-14.315-7.957-14.315
				c3.661-0.081,5.661-1.811,5.966-5.214l0.365-4.183l0.179-2.073l0.589-6.625l0.524-5.949l2.15-24.402l6.872,24.847l1.169,4.221
				l4.027,14.564c1.288,4.643,5.182,8.242,10.156,9.478C1831.272,972.286,1831.302,972.298,1831.325,972.301z"/>
		</g>
		<g>
			<path style="fill:#331832;" d="M1817.066,948.241c0,0-4.397,7.208-11.304,7.909l0.589-6.625
				C1810.66,948.727,1817.066,948.241,1817.066,948.241z"/>
		</g>
		<g>
			<path style="fill:#331832;" d="M1838.928,919.433c0,0-1.661,3.817-0.571,12.288c1.595,12.396-13.781,15.246-16.94,11.317
				c-0.391-0.486,3.581-20.601,3.581-20.601l5.08-1.904L1838.928,919.433z"/>
		</g>
		<g>
			
				<ellipse transform="matrix(0.2256 -0.9742 0.9742 0.2256 500.4483 2475.2954)" style="fill:#FFB27D;" cx="1807.208" cy="922.861" rx="28.381" ry="24.54"/>
		</g>
		<g>
			<path style="fill:#331832;" d="M1801.154,899.991c0.532,0.957-5.689,14.796,22.321,22.372
				c28.01,7.576,16.223-27.261-4.745-31.046c-30.275-5.466-37.886,12.993-36.104,20.291
				C1784.409,918.906,1801.154,899.991,1801.154,899.991z"/>
		</g>
		<g>
			<path style="fill:#331832;" d="M1821.087,917.324c0,0,9.768,13.18,3.763,24.336c0,0,7.924-5.924,8.503-8.48
				c0.579-2.556,0.328-12.125,0.328-12.125L1821.087,917.324z"/>
		</g>
		<g>
			<path style="fill:#FFB27D;" d="M1827.564,930.13c-3.162,2.054-7.053,1.748-8.693-0.684c-1.639-2.432-0.405-6.068,2.756-8.122
				c3.162-2.054,7.054-1.748,8.693,0.684C1831.959,924.44,1830.725,928.076,1827.564,930.13z"/>
		</g>
		<g>
			<g>
				<path style="fill:#080435;" d="M1804.813,922.79c-0.155-0.065-0.277-0.194-0.318-0.36c-0.069-0.281,0.117-0.56,0.418-0.626
					c0.177-0.038,4.196-1.285,6.91,2.525c0.171,0.24,0.113,0.562-0.141,0.727c-0.254,0.164-0.552,0.065-0.779-0.132
					c-2.274-1.96-5.59-2.134-5.738-2.103C1805.042,922.849,1804.92,922.835,1804.813,922.79z"/>
			</g>
		</g>
		<g>
			<path style="fill:#080435;" d="M1808.244,929.093c-0.163,1.236-1.074,2.149-2.036,2.039c-0.962-0.11-1.609-1.202-1.447-2.438
				c0.163-1.236,1.074-2.149,2.036-2.039C1807.759,926.765,1808.407,927.856,1808.244,929.093z"/>
		</g>
		<g>
			<g>
				<path style="fill:#080435;" d="M1784.629,922.621c-0.17-0.004-0.335-0.081-0.441-0.22c-0.179-0.235-0.12-0.56,0.131-0.727
					c0.148-0.098,3.355-2.679,7.42-0.121c0.256,0.161,0.334,0.48,0.167,0.722c-0.168,0.242-0.484,0.256-0.774,0.155
					c-2.903-1.004-6.04,0.014-6.164,0.095C1784.865,922.593,1784.746,922.624,1784.629,922.621z"/>
			</g>
		</g>
		<g>
			<path style="fill:#080435;" d="M1790.375,927.229c0.354,1.201-0.116,2.369-1.05,2.609c-0.934,0.24-1.979-0.539-2.333-1.74
				c-0.354-1.201,0.116-2.369,1.05-2.609C1788.976,925.248,1790.021,926.028,1790.375,927.229z"/>
		</g>
		<g style="opacity:0.3;">
			<path style="fill:#FFFFFF;" d="M1818.674,923.576c1.116,6.96-2.149,14.117-7.293,15.987c-5.144,1.87-10.218-2.256-11.334-9.216
				c-1.116-6.96,2.149-14.117,7.292-15.987C1812.484,912.49,1817.558,916.616,1818.674,923.576z"/>
		</g>
		<g style="opacity:0.3;">
			<path style="fill:#FFFFFF;" d="M1793.734,924.19c0.269,6.903-3.27,13.722-7.905,15.23c-4.635,1.508-8.611-2.866-8.88-9.769
				c-0.269-6.903,3.27-13.722,7.905-15.23C1789.489,912.913,1793.465,917.287,1793.734,924.19z"/>
		</g>
		<g>
			<g>
				<path style="fill:#331832;" d="M1819.452,926.293c0.036-0.919,0.011-1.856-0.101-2.786c-0.031-0.323-0.073-0.646-0.127-0.962
					c-0.091-0.54-0.196-1.061-0.334-1.578c-0.937-3.582-2.939-6.395-5.634-7.858c-2.128-1.162-4.461-1.341-6.747-0.53
					c-0.465,0.171-0.924,0.373-1.359,0.618c-3.526,1.933-6.053,6.176-6.732,10.964c-0.08,0.545-0.138,1.083-0.155,1.636
					c-0.078,1.3-0.009,2.611,0.209,3.924c0.216,1.263,0.55,2.453,0.997,3.541c1.071,2.648,2.793,4.715,4.971,5.895
					c0.879,0.475,1.807,0.788,2.741,0.933c0.281,0.041,0.563,0.072,0.849,0.083c1.045,0.052,2.105-0.112,3.158-0.486
					c1.097-0.387,2.112-0.985,3.029-1.756c2.312-1.93,4.015-4.931,4.782-8.326c0.089-0.344,0.159-0.702,0.219-1.061
					C1819.339,927.807,1819.421,927.054,1819.452,926.293z M1802.519,936.495c-0.88-0.982-1.628-2.182-2.179-3.544
					c-0.434-1.036-0.756-2.175-0.952-3.366c-0.196-1.191-0.264-2.382-0.217-3.558c0.019-0.563,0.068-1.112,0.148-1.657
					c0.628-4.667,3.069-8.783,6.501-10.531c0.328-0.181,0.671-0.32,1.022-0.448c0.928-0.333,1.857-0.476,2.776-0.432
					c1.09,0.039,2.157,0.342,3.173,0.896c1.396,0.759,2.613,1.958,3.553,3.474c0.379,0.601,0.707,1.255,0.994,1.962
					c0.014,0.042,0.03,0.074,0.045,0.116c0.018,0.022,0.025,0.043,0.032,0.064c0.153,0.36,0.284,0.726,0.39,1.109
					c0.219,0.667,0.378,1.376,0.503,2.099c0.134,0.794,0.206,1.579,0.224,2.366c0.018,0.529,0.005,1.054-0.028,1.575
					c-0.038,0.551-0.098,1.098-0.176,1.633l-0.002,0.01c-0.543,3.517-2.112,6.677-4.378,8.713c-0.919,0.85-1.963,1.494-3.094,1.896
					c-1.199,0.422-2.41,0.535-3.594,0.354c-0.809-0.127-1.594-0.4-2.355-0.818c-0.86-0.462-1.648-1.103-2.349-1.88
					C1802.547,936.519,1802.538,936.508,1802.519,936.495z"/>
			</g>
		</g>
		<g>
			<g>
				<path style="fill:#331832;" d="M1793.628,927.093c0.041-0.372,0.069-0.735,0.089-1.11c-0.158,0.057-0.272,0.1-0.33,0.131
					c-0.011,1.985-0.322,3.917-0.868,5.665c0.002-0.01,0.003-0.019,0.015-0.028c0.075-0.198,0.139-0.387,0.204-0.586
					c0.005-0.029,0.022-0.066,0.026-0.096c0.08-0.227,0.153-0.474,0.215-0.714c0.101-0.353,0.204-0.715,0.286-1.081
					c0.082-0.365,0.154-0.733,0.217-1.111C1793.54,927.815,1793.59,927.454,1793.628,927.093z M1793.628,927.093
					c0.041-0.372,0.069-0.735,0.089-1.11c-0.158,0.057-0.272,0.1-0.33,0.131c-0.011,1.985-0.322,3.917-0.868,5.665
					c0.002-0.01,0.003-0.019,0.015-0.028c0.075-0.198,0.139-0.387,0.204-0.586c0.005-0.029,0.022-0.066,0.026-0.096
					c0.08-0.227,0.153-0.474,0.215-0.714c0.101-0.353,0.204-0.715,0.286-1.081c0.082-0.365,0.154-0.733,0.217-1.111
					C1793.54,927.815,1793.59,927.454,1793.628,927.093z M1793.628,927.093c0.041-0.372,0.069-0.735,0.089-1.11
					c-0.158,0.057-0.272,0.1-0.33,0.131c-0.011,1.985-0.322,3.917-0.868,5.665c0.002-0.01,0.003-0.019,0.015-0.028
					c0.075-0.198,0.139-0.387,0.204-0.586c0.005-0.029,0.022-0.066,0.026-0.096c0.08-0.227,0.153-0.474,0.215-0.714
					c0.101-0.353,0.204-0.715,0.286-1.081c0.082-0.365,0.154-0.733,0.217-1.111C1793.54,927.815,1793.59,927.454,1793.628,927.093z
					 M1793.628,927.093c0.041-0.372,0.069-0.735,0.089-1.11c-0.158,0.057-0.272,0.1-0.33,0.131
					c-0.011,1.985-0.322,3.917-0.868,5.665c0.002-0.01,0.003-0.019,0.015-0.028c0.075-0.198,0.139-0.387,0.204-0.586
					c0.005-0.029,0.022-0.066,0.026-0.096c0.08-0.227,0.153-0.474,0.215-0.714c0.101-0.353,0.204-0.715,0.286-1.081
					c0.082-0.365,0.154-0.733,0.217-1.111C1793.54,927.815,1793.59,927.454,1793.628,927.093z M1793.628,927.093
					c0.041-0.372,0.069-0.735,0.089-1.11c-0.158,0.057-0.272,0.1-0.33,0.131c-0.011,1.985-0.322,3.917-0.868,5.665
					c0.002-0.01,0.003-0.019,0.015-0.028c0.075-0.198,0.139-0.387,0.204-0.586c0.005-0.029,0.022-0.066,0.026-0.096
					c0.08-0.227,0.153-0.474,0.215-0.714c0.101-0.353,0.204-0.715,0.286-1.081c0.082-0.365,0.154-0.733,0.217-1.111
					C1793.54,927.815,1793.59,927.454,1793.628,927.093z M1793.628,927.093c0.041-0.372,0.069-0.735,0.089-1.11
					c-0.158,0.057-0.272,0.1-0.33,0.131c-0.011,1.985-0.322,3.917-0.868,5.665c0.002-0.01,0.003-0.019,0.015-0.028
					c0.075-0.198,0.139-0.387,0.204-0.586c0.005-0.029,0.022-0.066,0.026-0.096c0.08-0.227,0.153-0.474,0.215-0.714
					c0.101-0.353,0.204-0.715,0.286-1.081c0.082-0.365,0.154-0.733,0.217-1.111C1793.54,927.815,1793.59,927.454,1793.628,927.093z
					 M1793.628,927.093c0.041-0.372,0.069-0.735,0.089-1.11c-0.158,0.057-0.272,0.1-0.33,0.131
					c-0.011,1.985-0.322,3.917-0.868,5.665c0.002-0.01,0.003-0.019,0.015-0.028c0.075-0.198,0.139-0.387,0.204-0.586
					c0.005-0.029,0.022-0.066,0.026-0.096c0.08-0.227,0.153-0.474,0.215-0.714c0.101-0.353,0.204-0.715,0.286-1.081
					c0.082-0.365,0.154-0.733,0.217-1.111C1793.54,927.815,1793.59,927.454,1793.628,927.093z M1793.628,927.093
					c0.041-0.372,0.069-0.735,0.089-1.11c-0.158,0.057-0.272,0.1-0.33,0.131c-0.011,1.985-0.322,3.917-0.868,5.665
					c0.002-0.01,0.003-0.019,0.015-0.028c0.075-0.198,0.139-0.387,0.204-0.586c0.005-0.029,0.022-0.066,0.026-0.096
					c0.08-0.227,0.153-0.474,0.215-0.714c0.101-0.353,0.204-0.715,0.286-1.081c0.082-0.365,0.154-0.733,0.217-1.111
					C1793.54,927.815,1793.59,927.454,1793.628,927.093z M1794.302,925.799c0.006-0.545-0.02-1.096-0.068-1.639
					c-0.026-0.292-0.063-0.585-0.099-0.879c-0.602-4.507-2.688-8.157-5.553-9.753c-0.684-0.367-1.376-0.626-2.09-0.75
					c-0.579-0.104-1.16-0.128-1.756-0.066c-0.423,0.048-0.832,0.138-1.259,0.275l-0.01-0.002c-0.1,0.025-0.214,0.068-0.315,0.103
					c-4.92,1.8-8.137,9.231-7.144,16.576c0.612,4.509,2.688,8.157,5.563,9.755c0.73,0.414,1.496,0.673,2.275,0.786
					c0.915,0.133,1.853,0.06,2.773-0.224c0.012-0.008,0.022-0.007,0.034-0.015c0.112-0.033,0.224-0.067,0.338-0.11
					c1.791-0.654,3.352-2.037,4.556-3.899l0.002-0.01l0.01,0.002c1.201-1.842,2.063-4.141,2.477-6.634
					C1794.224,928.182,1794.326,926.995,1794.302,925.799z M1792.437,932.015c-0.574,1.725-1.384,3.266-2.385,4.482
					c-0.832,1.032-1.795,1.826-2.854,2.308c-0.012,0.008-0.014,0.018-0.024,0.016c-0.002,0.01-0.012,0.008-0.012,0.008
					c-0.036,0.025-0.083,0.048-0.115,0.053c-0.129,0.071-0.265,0.121-0.401,0.17c-0.159,0.057-0.317,0.113-0.483,0.149
					c-1.395,0.384-2.813,0.208-4.118-0.527c-2.591-1.448-4.488-4.762-5.094-8.932c0.002-0.01-0.007-0.021-0.005-0.031
					c0.002-0.01-0.006-0.031-0.004-0.04c0.002-0.01,0.002-0.01,0.003-0.02c-0.006-0.031-0.011-0.061-0.017-0.092
					c-0.936-6.979,2.011-14.002,6.568-15.666c0.294-0.106,0.584-0.184,0.881-0.24c0.595-0.122,1.194-0.135,1.776-0.051
					c0.665,0.096,1.32,0.32,1.943,0.669c0.049,0.027,0.097,0.054,0.145,0.091c1.251,0.737,2.343,1.918,3.189,3.422
					c0.878,1.567,1.498,3.475,1.783,5.602c0.04,0.334,0.081,0.667,0.111,0.999c0.043,0.572,0.064,1.151,0.064,1.728
					c-0.011,1.985-0.322,3.917-0.868,5.665C1792.485,931.854,1792.46,931.939,1792.437,932.015z M1793.628,927.093
					c0.041-0.372,0.069-0.735,0.089-1.11c-0.158,0.057-0.272,0.1-0.33,0.131c-0.011,1.985-0.322,3.917-0.868,5.665
					c0.002-0.01,0.003-0.019,0.015-0.028c0.075-0.198,0.139-0.387,0.204-0.586c0.005-0.029,0.022-0.066,0.026-0.096
					c0.08-0.227,0.153-0.474,0.215-0.714c0.101-0.353,0.204-0.715,0.286-1.081c0.082-0.365,0.154-0.733,0.217-1.111
					C1793.54,927.815,1793.59,927.454,1793.628,927.093z M1793.628,927.093c0.041-0.372,0.069-0.735,0.089-1.11
					c-0.158,0.057-0.272,0.1-0.33,0.131c-0.011,1.985-0.322,3.917-0.868,5.665c0.002-0.01,0.003-0.019,0.015-0.028
					c0.075-0.198,0.139-0.387,0.204-0.586c0.005-0.029,0.022-0.066,0.026-0.096c0.08-0.227,0.153-0.474,0.215-0.714
					c0.101-0.353,0.204-0.715,0.286-1.081c0.082-0.365,0.154-0.733,0.217-1.111C1793.54,927.815,1793.59,927.454,1793.628,927.093z
					 M1793.628,927.093c0.041-0.372,0.069-0.735,0.089-1.11c-0.158,0.057-0.272,0.1-0.33,0.131
					c-0.011,1.985-0.322,3.917-0.868,5.665c0.002-0.01,0.003-0.019,0.015-0.028c0.075-0.198,0.139-0.387,0.204-0.586
					c0.005-0.029,0.022-0.066,0.026-0.096c0.08-0.227,0.153-0.474,0.215-0.714c0.101-0.353,0.204-0.715,0.286-1.081
					c0.082-0.365,0.154-0.733,0.217-1.111C1793.54,927.815,1793.59,927.454,1793.628,927.093z M1793.628,927.093
					c0.041-0.372,0.069-0.735,0.089-1.11c-0.158,0.057-0.272,0.1-0.33,0.131c-0.011,1.985-0.322,3.917-0.868,5.665
					c0.002-0.01,0.003-0.019,0.015-0.028c0.075-0.198,0.139-0.387,0.204-0.586c0.005-0.029,0.022-0.066,0.026-0.096
					c0.08-0.227,0.153-0.474,0.215-0.714c0.101-0.353,0.204-0.715,0.286-1.081c0.082-0.365,0.154-0.733,0.217-1.111
					C1793.54,927.815,1793.59,927.454,1793.628,927.093z M1793.628,927.093c0.041-0.372,0.069-0.735,0.089-1.11
					c-0.158,0.057-0.272,0.1-0.33,0.131c-0.011,1.985-0.322,3.917-0.868,5.665c0.002-0.01,0.003-0.019,0.015-0.028
					c0.075-0.198,0.139-0.387,0.204-0.586c0.005-0.029,0.022-0.066,0.026-0.096c0.08-0.227,0.153-0.474,0.215-0.714
					c0.101-0.353,0.204-0.715,0.286-1.081c0.082-0.365,0.154-0.733,0.217-1.111C1793.54,927.815,1793.59,927.454,1793.628,927.093z
					 M1793.628,927.093c0.041-0.372,0.069-0.735,0.089-1.11c-0.158,0.057-0.272,0.1-0.33,0.131
					c-0.011,1.985-0.322,3.917-0.868,5.665c0.002-0.01,0.003-0.019,0.015-0.028c0.075-0.198,0.139-0.387,0.204-0.586
					c0.005-0.029,0.022-0.066,0.026-0.096c0.08-0.227,0.153-0.474,0.215-0.714c0.101-0.353,0.204-0.715,0.286-1.081
					c0.082-0.365,0.154-0.733,0.217-1.111C1793.54,927.815,1793.59,927.454,1793.628,927.093z M1793.628,927.093
					c0.041-0.372,0.069-0.735,0.089-1.11c-0.158,0.057-0.272,0.1-0.33,0.131c-0.011,1.985-0.322,3.917-0.868,5.665
					c0.002-0.01,0.003-0.019,0.015-0.028c0.075-0.198,0.139-0.387,0.204-0.586c0.005-0.029,0.022-0.066,0.026-0.096
					c0.08-0.227,0.153-0.474,0.215-0.714c0.101-0.353,0.204-0.715,0.286-1.081c0.082-0.365,0.154-0.733,0.217-1.111
					C1793.54,927.815,1793.59,927.454,1793.628,927.093z"/>
			</g>
		</g>
		<g>
			<g>
				<path style="fill:#331832;" d="M1792.771,926.232c-0.255-0.037-0.49-0.179-0.625-0.405c-0.234-0.39-0.084-0.883,0.334-1.102
					c0.134-0.07,3.332-1.691,7.802-0.033c0.446,0.165,0.663,0.636,0.485,1.051c-0.177,0.416-0.683,0.618-1.126,0.453
					c-3.711-1.378-6.289-0.072-6.315-0.059C1793.151,926.231,1792.955,926.259,1792.771,926.232z"/>
			</g>
		</g>
		<g>
			<path style="fill:#331832;" d="M1824.595,897.379c0,0,5.316-17.853,22.2-13.283c16.883,4.57,11.854,13.136,9.938,18.645
				c-1.427,4.104-9.506,9.83-17.805,8.043C1830.63,908.996,1824.595,897.379,1824.595,897.379z"/>
		</g>
		<g>
			<path style="fill:#331832;" d="M1832.547,954.445c-0.17,0-0.337-0.079-0.443-0.227c-0.034-0.048-3.461-4.764-9.809-7.18
				c-0.281-0.107-0.422-0.421-0.315-0.702c0.107-0.281,0.421-0.422,0.702-0.315c6.669,2.539,10.162,7.362,10.308,7.566
				c0.174,0.244,0.117,0.583-0.128,0.757C1832.766,954.412,1832.655,954.445,1832.547,954.445z"/>
		</g>
		<g>
			<path style="fill:#020202;" d="M1797.932,943.206c-1.746,0-3.515-0.43-4.751-1.787c-0.103-0.113-0.095-0.289,0.019-0.393
				c0.113-0.103,0.288-0.095,0.393,0.019c3.042,3.339,10.033,0.389,10.104,0.36c0.142-0.06,0.305,0.005,0.365,0.146
				c0.061,0.141-0.005,0.305-0.146,0.365C1803.727,941.997,1800.86,943.206,1797.932,943.206z"/>
		</g>
		<g>
			<path style="fill:#DAEBE8;" d="M1799.251,967.62c0,0-6.196,13.976,7.957,14.315c0,0-7.435,6.949-12.638,4.161
				c-5.203-2.789-0.222-5.267-2.436-7.126c-2.214-1.859-4.65-3.202-2.436-5.37c2.214-2.169,0-5.979,0-5.979
				S1795.85,966.289,1799.251,967.62z"/>
		</g>
		<g>
			<path style="fill:#DAEBE8;" d="M1794.305,1002.339c0-1.146-0.996-2.076-2.225-2.076s-2.225,0.929-2.225,2.076
				c0,1.146,0.996,2.075,2.225,2.075S1794.305,1003.485,1794.305,1002.339z"/>
		</g>
		<g>
			<path style="fill:#DAEBE8;" d="M1784.967,1068.992c0-1.146-0.996-2.075-2.225-2.075c-1.229,0-2.225,0.929-2.225,2.075
				s0.996,2.075,2.225,2.075C1783.971,1071.068,1784.967,1070.138,1784.967,1068.992z"/>
		</g>
		<g>
			<path style="fill:#DAEBE8;" d="M1784.967,1038.792c0-1.146-0.996-2.075-2.225-2.075c-1.229,0-2.225,0.929-2.225,2.075
				s0.996,2.075,2.225,2.075C1783.971,1040.867,1784.967,1039.938,1784.967,1038.792z"/>
		</g>
		<g>
			<path style="fill:#68A1BF;" d="M1745.18,1024.435c0,0-8.25,32.129-8.035,84.85l52.554-141.665c0,0-33.567,1.978-75.208-7.062
				c-25.651-5.564-72.026-41.752-76.85-44.31c-5.212-2.764-23.039,18.915-23.039,18.915
				C1610.67,942.179,1676.568,1010.192,1745.18,1024.435z"/>
		</g>
		<g>
			<path style="fill:#68A1BF;" d="M1841.398,974.135c0,0,48.723,0,119.569,134.725c2.059,3.916,0.591,8.75-3.314,10.869
				l-15.527,8.425c-6.69,3.63-15.058,1.691-19.428-4.509c-14.76-20.941-48.458-65.661-75.477-78.51
				C1811.547,1028.169,1841.398,974.135,1841.398,974.135z"/>
		</g>
		<g>
			<path style="fill:#DAEBE8;" d="M1831.325,972.301l10.073,1.834c0,0,1.786,4.887-3.147,6.436
				c-4.933,1.549-5.921,1.549-7.503,5.112c-1.581,3.563-7.726,3.718-9.885,2.479c-2.159-1.239-5.947,3.408-9.45,3.408
				s-5.571-5.791-4.205-9.634C1807.208,981.936,1820.365,979.833,1831.325,972.301z"/>
		</g>
		<g>
			<path style="fill:#331832;" d="M1888.565,1080.583c-0.123,0-0.243-0.067-0.302-0.186c-7.822-15.515-26.914-27.933-27.106-28.057
				c-0.156-0.101-0.202-0.31-0.101-0.467c0.101-0.156,0.31-0.203,0.467-0.1c0.193,0.124,19.439,12.643,27.343,28.321
				c0.083,0.166,0.017,0.369-0.15,0.454C1888.668,1080.572,1888.616,1080.583,1888.565,1080.583z"/>
		</g>
		<g>
			<path style="fill:#331832;" d="M1745.18,1024.773c-0.031,0-0.064-0.005-0.096-0.013c-0.179-0.053-0.281-0.242-0.228-0.421
				l3.197-10.77c0.054-0.179,0.239-0.278,0.421-0.228c0.179,0.053,0.281,0.242,0.228,0.421l-3.197,10.77
				C1745.46,1024.679,1745.325,1024.773,1745.18,1024.773z"/>
		</g>
		<g>
			<path style="fill:#EF8062;" d="M1780.517,1142.182c0,0,47.2,182.585,124.089,246.567c7.449,6.198,17.966,7.238,26.577,2.762
				l13.632-7.086c9.301-4.835,12.845-16.266,7.881-25.449c-20.415-37.769-68.992-133.464-85.41-217.266L1780.517,1142.182z"/>
		</g>
		<g>
			<path style="fill:#331832;" d="M1829.991,1280.717c-0.204-0.484-20.46-48.76-27.515-76.161
				c-6.988-27.142-29.527-36.626-29.754-36.72l0.356-0.871c0.232,0.094,23.206,9.761,30.311,37.356
				c7.036,27.334,27.267,75.547,27.47,76.031L1829.991,1280.717z"/>
		</g>
	</g>
	<g>
		<g>
			<path style="fill:#FFB27D;" d="M1012.354,975.383c0,0,21.879,56.39,32.717,50.779c16.536-8.562,20.781-46.532,20.781-46.532
				l19.56-1.147c0,0,12.342,81.342-25.663,100.866c-30.681,15.761-62.659-41.573-62.659-41.573l-5.535-52.164L1012.354,975.383z"/>
		</g>
		<g>
			<path style="fill:#331832;" d="M950.72,1412.854c0,0,0.269,10.748,7.542,13.779c7.272,3.031,28.344,5.767,20.47,12.677
				c-4.518,3.965-25.81,1.403-31.821,1.403c-6.012,0-11.656,2.62-16.123-1.403c-4.915-4.426,0-26.456,0-26.456
				s5.188,2.702,9.852,2.581C947.364,1415.26,950.72,1412.854,950.72,1412.854z"/>
		</g>
		<g>
			<path style="fill:#68A1BF;" d="M1013.463,1088.51c0,0,1.451,48.503-14.028,141.548c-11.175,67.172-24.366,134.86-30.839,167.31
				c-2.315,11.608-12.078,20.095-23.648,20.56l-6.218,0.25c-12.51,0.502-22.664-10.244-21.75-23.02l15.7-219.541l3.87-72.259
				L1013.463,1088.51z"/>
		</g>
		<g>
			<path style="fill:#331832;" d="M881.844,1412.854c0,0,0.269,10.748,7.542,13.779c7.272,3.031,28.344,5.767,20.47,12.677
				c-4.518,3.965-25.81,1.403-31.82,1.403c-6.012,0-11.656,2.62-16.123-1.403c-4.915-4.426,0-26.456,0-26.456
				s5.188,2.702,9.852,2.581C878.488,1415.26,881.844,1412.854,881.844,1412.854z"/>
		</g>
		<g>
			<path style="fill:#68A1BF;" d="M944.587,1088.51c0,0,1.451,48.503-14.028,141.548c-11.175,67.172-24.366,134.86-30.839,167.31
				c-2.315,11.608-12.078,20.095-23.648,20.56l-6.218,0.25c-12.51,0.502-22.664-10.244-21.75-23.02l15.7-219.541l3.87-72.259
				L944.587,1088.51z"/>
		</g>
		<g>
			<path style="fill:#331832;" d="M860.07,1141.666c0.15,5.852,35.535,8.176,79.3,6.811c43.765-1.365,78.738-7.417,78.588-13.269
				c-0.15-5.852-35.365-9.287-79.131-7.922S859.921,1135.814,860.07,1141.666z"/>
		</g>
		<g>
			<path style="fill:#EF8062;" d="M870.784,975.995c0,0,7.739-30.672,64.838-30.984c82.343-0.449,74.718,75.212,82.337,190.196
				c0,0-81.108-11.47-157.93,5.019C860.029,1140.226,852.903,1022.862,870.784,975.995z"/>
		</g>
		<g>
			<path style="fill:#EF8062;" d="M849.707,971.596l37.293,20.634c0,0,81.657,7.415,103.334,3.844
				c21.677-3.571,27.625-19.489,27.625-19.489s-23.088-23.888-62.329-30.266c-3.687-0.604-7.511-1.048-11.476-1.306
				c-6.656-0.429-13.321-0.339-19.836,0.395C874.582,951.014,849.707,971.596,849.707,971.596z"/>
		</g>
		<g>
			<path style="fill:#FFB27D;" d="M927.772,937.992l4.311-13.911l1.254-4.05l7.377-23.812l0.971,23.686l0.581,14.217l0.184,4.5
				c0.125,3.055,1.987,3.697,4.253,6.352c0.918,1.076,6.794,7.597,0.125,10.543c-8.307,3.671-23.836-1.887-29.74-9.167
				C917.133,946.341,926.379,942.487,927.772,937.992z"/>
		</g>
		<g>
			<path style="fill:#68A1BF;" d="M1011.068,1139.941c0,0-47.421-13.952-145.63,5.199l-0.757,14.128l143.968,5.088
				L1011.068,1139.941z"/>
		</g>
		<g>
			<path style="fill:#331832;" d="M848.931,972.456c-3.162,4.474,1.496,13.311,10.403,19.739c8.907,6.428,18.691,8.012,21.853,3.539
				c3.162-4.474-1.496-13.311-10.403-19.739C861.877,969.567,852.093,967.983,848.931,972.456z"/>
		</g>
		<g>
			<g>
				<path style="fill:#FFB27D;" d="M815.873,1143.062c8.823-36.911,24.904-88.002,48.887-127.766
					c5.557-9.214,7.813-12.649,11.814-17.54c3.22-3.935-0.051-14.086-6.724-19.668c-6.262-5.238-17.071-6.096-19.069-4.243
					c-3.399,3.152-7.465,9.546-13.824,19.714c-22.097,35.327-35.636,84.517-48.786,146.782L815.873,1143.062z"/>
			</g>
		</g>
		<g>
			<g>
				<path style="fill:#5C305D;" d="M959.696,887.278c0,0,1.504,5.764,0,12.99c-1.504,7.227-8.854-10.536-8.854-10.536
					L959.696,887.278z"/>
			</g>
			<g>
				
					<ellipse transform="matrix(0.9915 -0.1302 0.1302 0.9915 -109.8196 130.0019)" style="fill:#FFB27D;" cx="939.588" cy="905.107" rx="21.161" ry="25.516"/>
			</g>
			<g>
				<path style="fill:#331832;" d="M918.079,900.557l10.243-1.063c2.252-0.234,4.312-1.443,5.531-3.351
					c2.098-3.285,4.624-4.972,14.179-4.613c12.099,0.454,20.088-6.759,21.395-13.09c1.334-6.462-4.857-10.842-10.935-7.761
					c-6.077,3.081-3.469-4.474-9.312-5.276c-10.92-1.499-12.966,6.919-21.906,6.646c-11.723-0.359-32.722,8.549-22.763,29.186
					L918.079,900.557z"/>
			</g>
			<g>
				<g>
					<path style="fill:#080435;" d="M940.702,904.038c0.11-0.07,0.187-0.188,0.199-0.328c0.019-0.236-0.155-0.443-0.391-0.463
						c-0.139-0.012-3.335-0.583-4.944,2.814c-0.101,0.214-0.02,0.47,0.193,0.576c0.212,0.106,0.426-0.008,0.575-0.193
						c1.494-1.844,3.989-2.351,4.105-2.342C940.534,904.111,940.626,904.086,940.702,904.038z"/>
				</g>
			</g>
			<g>
				<path style="fill:#080435;" d="M938.842,909.541c0.269,0.988,1.069,1.63,1.785,1.434c0.717-0.195,1.079-1.155,0.81-2.142
					c-0.269-0.988-1.069-1.63-1.785-1.434C938.935,907.594,938.572,908.554,938.842,909.541z"/>
			</g>
			<g>
				<g>
					<path style="fill:#080435;" d="M956.571,902.765c0.099-0.017,0.187-0.092,0.232-0.214c0.076-0.205,0.002-0.464-0.167-0.58
						c-0.099-0.068-2.301-1.907-4.374,0.497c-0.131,0.151-0.137,0.416-0.009,0.6c0.128,0.183,0.316,0.169,0.474,0.064
						c1.581-1.048,3.55-0.473,3.632-0.417C956.429,902.761,956.503,902.777,956.571,902.765z"/>
				</g>
			</g>
			<g>
				<path style="fill:#080435;" d="M952.659,907.161c-0.127,1.016,0.367,1.914,1.104,2.006c0.737,0.092,1.438-0.656,1.565-1.672
					c0.127-1.016-0.367-1.914-1.104-2.006C953.487,905.397,952.787,906.145,952.659,907.161z"/>
			</g>
			<g>
				<path style="fill:#5C305D;" d="M904.511,901.234c0,0,7.072,15.265,17.104,16.385c0,0-8.111-11.633,8.985-18.723
					C930.6,898.896,914.903,896.427,904.511,901.234z"/>
			</g>
			<g>
				<path style="fill:#FFB27D;" d="M918.653,909.659c2.145,1.365,4.873,0.917,6.093-1c1.22-1.917,0.469-4.578-1.676-5.943
					c-2.145-1.365-4.873-0.917-6.093,1C915.757,905.633,916.507,908.294,918.653,909.659z"/>
			</g>
			<g>
				<path style="fill:#5C305D;" d="M930.6,898.896c0,0-1.369,12.81,1.238,15.232c2.607,2.421,19.823,3.463,27.858,0.359l0,0
					c0.134,8.227-5.665,15.49-13.779,16.853c-2.685,0.451-5.461,0.454-8.219-0.028l0,0c-5.624-0.983-11.093-3.31-13.411-8.527
					c-0.706-1.588,1.347-11.354,1.347-11.354s0.771-5.732-2.563-8.714C923.07,902.716,926.919,899.256,930.6,898.896z"/>
			</g>
			<g>
				<path style="fill:#331832;" d="M957.193,869.672c-3.174,0-3.459-2.739-3.462-2.767l0.575-0.053
					c0.009,0.093,0.25,2.243,2.889,2.243c0.051,0,0.102-0.001,0.155-0.002l0.018,0.577
					C957.309,869.671,957.25,869.672,957.193,869.672z"/>
			</g>
			<g>
				<path style="fill:#FFFFFF;" d="M951.461,888.139l-0.081-0.278c0.13-0.038,13.003-3.854,13.537-10.482
					c0.15-1.874-0.163-3.118-0.959-3.803c-1.275-1.097-3.599-0.556-5.648-0.078c-0.315,0.074-0.624,0.146-0.92,0.209l-0.061-0.282
					c0.295-0.064,0.602-0.135,0.915-0.208c2.116-0.495,4.515-1.054,5.902,0.141c0.87,0.749,1.216,2.073,1.057,4.045
					c-0.228,2.833-2.683,5.59-7.101,7.971C954.787,887.162,951.493,888.129,951.461,888.139z"/>
			</g>
			<g>
				<path style="fill:#FFFFFF;" d="M926.106,874.698c-1.212,0-2.498-0.082-3.861-0.267l0.039-0.286
					c12.567,1.699,18.62-5.363,18.679-5.435l0.222,0.185C941.131,868.96,936.219,874.698,926.106,874.698z"/>
			</g>
			<g>
				<path style="fill:#FFFFFF;" d="M949.969,923.457c0,1.653-0.855,2.993-1.91,2.993c-1.055,0-1.91-1.34-1.91-2.993
					c0-1.653,0.855-2.993,1.91-2.993C949.114,920.463,949.969,921.804,949.969,923.457z"/>
			</g>
		</g>
		<g>
			<path style="fill:#EC865C;" d="M820.391,1058.852c-0.41,0-0.815-0.062-1.208-0.187c-2.811-0.893-4.077-4.838-2.821-8.794h0
				c0.594-1.871,1.657-3.478,2.993-4.527c1.415-1.111,2.972-1.477,4.384-1.029c1.412,0.448,2.473,1.644,2.988,3.369
				c0.486,1.627,0.427,3.554-0.167,5.425c-0.594,1.871-1.657,3.478-2.993,4.527C822.546,1058.438,821.452,1058.852,820.391,1058.852
				z M817.709,1050.299c-1.003,3.159-0.132,6.373,1.901,7.019c0.952,0.301,2.048,0.021,3.083-0.792
				c1.115-0.876,2.01-2.241,2.519-3.844c0.508-1.603,0.566-3.234,0.16-4.593c-0.377-1.262-1.109-2.124-2.062-2.426
				c-0.953-0.301-2.047-0.021-3.083,0.792C819.113,1047.331,818.218,1048.696,817.709,1050.299L817.709,1050.299z"/>
		</g>
		<g>
			<path style="fill:#331832;" d="M1003.269,993.288c-2.356-8.528-10.307-19.253-10.387-19.359l0.753-0.562
				c0.081,0.109,8.137,10.973,10.54,19.672L1003.269,993.288z"/>
		</g>
		<g>
			<path style="fill:#331832;" d="M927.948,1249.008l-0.928-0.149c0.064-0.398,6.44-39.947,10.824-54.094
				c4.425-14.28,23.336-26.192,23.527-26.311l0.497,0.798c-0.187,0.117-18.805,11.848-23.126,25.792
				C934.378,1209.127,928.012,1248.611,927.948,1249.008z"/>
		</g>
		<g>
			<g>
				<path style="fill:#EF8062;" d="M1091.627,885.25l105.661-85.894c6.83-5.552,17.115-1.915,18.935,6.697l28.93,136.845
					c1.665,7.875-4.891,15.059-12.885,14.12l-121-14.208c-4.395-0.516-8.129-3.454-9.664-7.605l-13.59-36.743
					C1086.266,893.739,1087.719,888.427,1091.627,885.25z"/>
			</g>
			<g>
				<path style="fill:#EF8062;" d="M1038.493,899.261l56.338-11.91c7.211-1.524,14.159,3.519,14.943,10.847l2.625,24.525
					c0.637,5.954-3.057,11.517-8.792,13.239l-57.805,17.357c-6.45,1.937-13.27-1.61-15.387-8.003l-6.72-20.288
					C1019.958,913.745,1026.864,901.72,1038.493,899.261z"/>
			</g>
			<g>
				<path style="fill:#764678;" d="M1104.105,941.969l-17.754,1.597c-3.753,0.338-7.166-2.184-7.945-5.87l-8.489-40.156
					c-0.771-3.645,1.275-7.299,4.785-8.548l16.826-5.985c4.241-1.509,8.84,1.066,9.771,5.47l9.417,44.544
					C1111.639,937.383,1108.545,941.57,1104.105,941.969z"/>
			</g>
			<g>
				<path style="fill:#EF8062;" d="M1076.255,1001.562L1076.255,1001.562c-5.332,1.127-10.568-2.281-11.695-7.613l-10.303-48.736
					c-1.127-5.332,2.281-10.568,7.613-11.695l0,0c5.332-1.127,10.568,2.281,11.695,7.613l10.303,48.736
					C1084.996,995.198,1081.587,1000.434,1076.255,1001.562z"/>
			</g>
			<g>
				<path style="fill:#EF8062;" d="M1091.627,885.25l105.661-85.894c0,0,17.115-1.915,18.935,6.697l28.93,136.845
					c1.665,7.875-4.891,15.059-12.885,14.12l-121-14.208c-4.395-0.516-8.129-3.454-9.664-7.605l-13.59-36.743
					C1086.266,893.739,1087.719,888.427,1091.627,885.25z"/>
			</g>
		</g>
		<g>
			<g>
				<path style="fill:#F9A877;" d="M1094.395,980.622c0,0,4.782,10.41-4.751,14.708c-12.146,5.476-32.529,0.652-24.88-2.923
					c6.781-3.17,17.492-5.365,17.492-5.365s-27.31,5.202-26.451-0.838c0.859-6.04,24.402-10.193,24.402-10.193
					s-27.065,2.556-24.406-2.887c2.659-5.443,24.013-9.348,24.013-9.348s-26.317,3.924-23.08-2.326
					c3.237-6.25,17.256-5.521,23.266-6.569c5.68-0.99,8.157,2.35,8.719,7.897c0,0,3.771,5.197,3.223,8.913
					c-0.21,1.425,1.304,2.54,1.596,3.512C1094.095,977.063,1094.395,980.622,1094.395,980.622z"/>
			</g>
		</g>
		<g>
			<path style="fill:#FFB27D;" d="M812.524,1134.007c2.142,4.224,4.521,13.708,6.583,17.981c0.894,1.853,3.48,8.334,1.798,9.66
				c-1.462,1.152-5.895-2.78-7.775-4.939c-2.292,17.498-11.607,39.618-8.637,4.478c-0.015,0-0.031,0-0.046,0
				c-0.48,3.01-3.272,25.179-7.791,23.466c-3.311-1.255-0.482-19.454,0.258-24.409c-0.042-0.009-0.084-0.018-0.126-0.027
				c-1.16,4.999-3.876,20.242-7.105,19.209c-4.249-1.359-0.139-20.929-0.139-20.929s-3.023,16.3-6.916,12.873
				c-2.195-1.932-0.108-11.534,1.273-17.498v0c0-0.001,0-0.001,0-0.002c0.29-1.25,0.549-2.344,0.73-3.17
				c0.151-0.686,0.354-1.281,0.595-1.809c2.894-9.858,6.282-15.807,6.282-15.807s2.843-7.637,11.083-6.804
				C807.841,1126.81,811.596,1132.176,812.524,1134.007z"/>
		</g>
	</g>
	<g>
		<path style="fill:#331832;" d="M1400.869,989.823c-1.964,0-3.895-0.934-5.092-2.675l-150.781-219.115
			c-1.933-2.809-1.223-6.654,1.586-8.587c2.81-1.934,6.654-1.223,8.587,1.586l150.782,219.115c1.933,2.809,1.223,6.654-1.587,8.587
			C1403.295,989.471,1402.075,989.823,1400.869,989.823z"/>
	</g>
	<g>
		<path style="fill:#EF8062;" d="M1402.449,985.901c-4.845,0-9.488-2.738-11.691-7.41c-3.041-6.452-0.277-14.148,6.174-17.189
			l217.177-102.382c6.454-3.042,14.148-0.277,17.189,6.174c3.041,6.452,0.277,14.147-6.174,17.188l-217.177,102.382
			C1406.168,985.504,1404.294,985.901,1402.449,985.901z"/>
	</g>
	<g>
		
			<ellipse transform="matrix(0.4044 -0.9146 0.9146 0.4044 -57.0669 1856.7531)" style="fill:#502A53;" cx="1397.096" cy="972.193" rx="31.34" ry="31.34"/>
	</g>
	<g>
		<g>
			<path style="fill:#B8D5DC;" d="M1357.056,1456.111c0,0-27.938-27.526-18.325-43.203c9.613-15.677,25.835,33.677,25.835,33.677
				s-8.411-58.359,9.012-59.372c17.424-1.014,0,59.372,0,59.372s6.459-14.08,12.768-14.951s4.506,11.939-6.759,24.478"/>
		</g>
		<g>
			<path style="fill:#444092;" d="M1359.081,1456.827c-0.08-0.079-8.075-7.997-14.617-17.999
				c-8.936-13.662-11.062-24.51-6.32-32.245c1.773-2.891,3.9-4.213,6.313-3.932c8.208,0.959,17.205,21.714,21.818,33.939
				c-0.486-4.878-1-11.307-1.195-18.082c-0.552-19.187,1.602-31.895,6.403-37.774c1.916-2.347,4.266-3.616,6.986-3.775
				c2.643-0.157,4.804,0.792,6.417,2.811c7.645,9.571,0.598,42.458-3.267,57.838c2.9-4.56,7.033-9.673,11.252-10.257
				c2.021-0.279,3.615,0.475,4.49,2.125c2.42,4.561-1.133,16.023-11.272,27.306l-1.495-1.344
				c9.956-11.079,12.78-21.65,10.991-25.021c-0.3-0.564-0.878-1.296-2.44-1.075c-5.422,0.748-11.732,12.079-13.705,16.382
				l-1.879-0.697c0.038-0.132,3.828-13.334,6.389-27.829c3.349-18.952,3.129-31.461-0.636-36.174
				c-1.198-1.5-2.745-2.183-4.729-2.058c-2.164,0.126-3.979,1.12-5.546,3.038c-10.789,13.212-3.812,62.66-3.74,63.158l-1.949,0.457
				c-3.64-11.07-14.888-40.011-23.126-40.972c-1.592-0.191-3.021,0.791-4.366,2.986c-10.366,16.905,20.323,47.455,20.634,47.761
				L1359.081,1456.827z"/>
		</g>
	</g>
	<g>
		<g>
			<path style="fill:#B8D5DC;" d="M694.831,1439.221c0,0-27.938-27.526-18.325-43.203c9.613-15.677,25.835,33.677,25.835,33.677
				s-8.412-58.359,9.012-59.373c17.424-1.013,0,59.373,0,59.373s6.459-14.08,12.768-14.951c6.309-0.871,4.506,11.939-6.759,24.477"
				/>
		</g>
		<g>
			<path style="fill:#444092;" d="M696.856,1439.937c-0.08-0.079-8.075-7.997-14.617-17.999
				c-8.936-13.662-11.062-24.51-6.319-32.245c1.773-2.89,3.901-4.218,6.312-3.932c8.208,0.959,17.205,21.714,21.818,33.938
				c-0.486-4.877-1-11.307-1.195-18.082c-0.552-19.186,1.602-31.895,6.403-37.774c1.916-2.346,4.266-3.616,6.986-3.774
				c2.638-0.154,4.804,0.792,6.417,2.811c7.644,9.569,0.598,42.458-3.266,57.838c2.9-4.561,7.032-9.674,11.252-10.257
				c2.024-0.274,3.615,0.475,4.49,2.124c2.422,4.561-1.132,16.023-11.271,27.307l-1.495-1.344
				c9.956-11.08,12.78-21.651,10.991-25.021c-0.3-0.564-0.876-1.294-2.44-1.075c-5.417,0.748-11.73,12.079-13.705,16.381
				l-1.879-0.697c0.038-0.132,3.828-13.334,6.389-27.829c3.349-18.952,3.129-31.46-0.636-36.173c-1.198-1.5-2.742-2.179-4.729-2.058
				c-2.165,0.126-3.979,1.12-5.546,3.038c-10.792,13.215-3.813,62.659-3.741,63.156l-1.949,0.457
				c-3.639-11.07-14.888-40.01-23.126-40.971c-1.589-0.195-3.02,0.791-4.366,2.986c-10.366,16.904,20.322,47.455,20.634,47.761
				L696.856,1439.937z"/>
		</g>
	</g>
	<g>
		<g>
			<path style="fill:#B8D5DC;" d="M1655.759,1430.658c0,0-27.938-27.526-18.325-43.203c9.613-15.677,25.835,33.677,25.835,33.677
				s-8.411-58.359,9.012-59.373s0,59.373,0,59.373s6.459-14.08,12.768-14.951c6.309-0.871,4.506,11.94-6.759,24.478"/>
		</g>
		<g>
			<path style="fill:#444092;" d="M1657.783,1431.375c-0.08-0.079-8.074-7.997-14.617-17.999
				c-8.936-13.662-11.063-24.51-6.319-32.245c1.772-2.89,3.89-4.218,6.312-3.932c8.207,0.959,17.204,21.714,21.818,33.938
				c-0.486-4.877-1-11.307-1.195-18.082c-0.552-19.186,1.602-31.895,6.402-37.774c1.916-2.346,4.266-3.615,6.985-3.774
				c2.653-0.155,4.805,0.792,6.417,2.811c7.645,9.571,0.598,42.459-3.267,57.839c2.9-4.56,7.034-9.674,11.253-10.257
				c2.017-0.278,3.614,0.474,4.49,2.124c2.421,4.561-1.132,16.023-11.271,27.307l-1.495-1.344
				c9.956-11.08,12.779-21.651,10.991-25.021c-0.299-0.565-0.884-1.292-2.439-1.075c-5.417,0.748-11.731,12.079-13.706,16.382
				l-1.88-0.698c0.039-0.132,3.828-13.333,6.39-27.828c3.349-18.952,3.129-31.461-0.636-36.174c-1.198-1.5-2.745-2.179-4.729-2.058
				c-2.164,0.126-3.978,1.12-5.545,3.039c-10.789,13.212-3.812,62.659-3.74,63.156l-1.949,0.457
				c-3.639-11.07-14.888-40.01-23.126-40.972c-1.589-0.189-3.02,0.791-4.365,2.986c-10.367,16.905,20.322,47.454,20.633,47.761
				L1657.783,1431.375z"/>
		</g>
	</g>
	<g>
		<g>
			<path style="fill:#B8D5DC;" d="M2085.473,1368.423c0,0-27.938-27.526-18.325-43.203c9.613-15.677,25.835,33.677,25.835,33.677
				s-8.412-58.359,9.012-59.373c17.424-1.013,0,59.373,0,59.373s6.459-14.08,12.768-14.951s4.506,11.94-6.759,24.478"/>
		</g>
		<g>
			<path style="fill:#444092;" d="M2087.498,1369.14c-0.08-0.079-8.074-7.997-14.617-17.999c-8.936-13.662-11.062-24.51-6.32-32.245
				c1.773-2.889,3.89-4.22,6.313-3.932c8.207,0.959,17.204,21.714,21.818,33.938c-0.486-4.878-1-11.307-1.195-18.082
				c-0.552-19.186,1.603-31.895,6.402-37.773c1.916-2.347,4.267-3.616,6.986-3.775c2.658-0.154,4.804,0.792,6.417,2.811
				c7.645,9.571,0.598,42.458-3.267,57.838c2.9-4.56,7.033-9.673,11.252-10.257c2.017-0.277,3.614,0.475,4.49,2.124
				c2.421,4.561-1.132,16.023-11.271,27.307l-1.495-1.344c9.956-11.08,12.779-21.651,10.99-25.021
				c-0.299-0.565-0.883-1.293-2.439-1.075c-5.422,0.748-11.732,12.079-13.705,16.381l-1.88-0.697
				c0.039-0.132,3.828-13.333,6.39-27.828c3.349-18.952,3.129-31.461-0.636-36.174c-1.198-1.5-2.745-2.178-4.729-2.058
				c-2.164,0.126-3.979,1.12-5.546,3.038c-10.791,13.216-3.812,62.659-3.74,63.157l-1.949,0.457
				c-3.639-11.07-14.888-40.01-23.126-40.971c-1.59-0.189-3.021,0.791-4.365,2.986c-10.366,16.905,20.323,47.455,20.634,47.761
				L2087.498,1369.14z"/>
		</g>
	</g>
	<g style="opacity:0.6;">
		<path style="fill:#FFFFFF;" d="M1022.835,293.27c0,0-16.846-32.4-59.473-28.34c-42.627,4.06-37.552,36.537-57.851,33.493
			c-20.299-3.045-48.717,0-54.806,20.299c-6.089,20.299-33.493,9.134-34.508,26.388c-1.015,17.254,31.463,29.433,69.015,14.209
			c37.552-15.224,55.821,11.827,108.597,6.928c52.776-4.899,59.315-10.988,90.553-7.943c31.238,3.045,30.497-18.344,16.287-32.554
			C1086.441,311.539,1028.925,312.893,1022.835,293.27z"/>
	</g>
	<g style="opacity:0.6;">
		<path style="fill:#FFFFFF;" d="M2208.571,589.001c0,0-13.631-26.217-48.123-22.932c-34.492,3.285-30.386,29.564-46.81,27.101
			c-16.424-2.464-39.419,0-44.346,16.425c-4.927,16.424-27.101,7.391-27.922,21.352c-0.821,13.961,25.458,23.816,55.844,11.497
			c30.385-12.318,45.167,9.57,87.872,5.606c42.704-3.964,47.994-8.891,73.271-6.427s24.677-14.843,13.179-26.341
			S2213.499,604.879,2208.571,589.001z"/>
	</g>
</g>
</svg>
