<?xml version="1.0" encoding="utf-8"?>
<!-- Generator: Adobe Illustrator 27.5.0, SVG Export Plug-In . SVG Version: 6.00 Build 0)  -->
<svg version="1.1" xmlns="http://www.w3.org/2000/svg" xmlns:xlink="http://www.w3.org/1999/xlink" x="0px" y="0px"
	 viewBox="0 0 1100 800" style="enable-background:new 0 0 1100 800;" xml:space="preserve">
<g id="Background">
	<rect style="fill:#FFFFFF;" width="1100" height="800"/>
</g>
<g id="Shadow">
	<g style="opacity:0.5;">
		<path style="fill:#EED5D5;" d="M521.964,644.118c-28.193,0.084-56.385,0.762-84.528,3.892c-10.611,1.18-21,3.776-31.635,4.823
			c-21.244,2.092-42.107,5.993-63.426,7.793c-17.168,1.449-34.408,2.305-51.526,4.143c-16.049,1.724-33.816,1.326-49.742-1.522
			c-11.79-2.109-23.633-3.296-35.225-6.682c-12.967-3.789-27.055-6.498-40.565-6.4c-19.266,0.139-38.028,0.155-56.466,6.845
			c-6.472,2.348-14.395,6.209-19.31,11.137c-11.251,11.282-12.774,39.432-1.54,51.133c18.921,19.693,59.305,27.42,85.827,27.785
			c29.063,0.4,57.296-1.758,86.401-3.026c27.045-1.179,54.023-2.856,81.113-2.797c55.328,0.121,110.664,0,165.893-3.696
			c51.888-3.472,103.907-2.28,155.909-2.28c53.326,0,106.291,0.419,159.233,7.506c23.067,3.088,46.568,4.169,69.75,6.332
			c20.762,1.938,40.714-0.038,61.394-1.829c17.365-1.504,34.616-5.964,50.391-13.503c12.487-5.968,34.749-24.507,38.579-38.752
			c10.736-39.935-151.3-38.975-176.179-38.885c-27.831,0.101-55.884,1.016-83.693-0.045c-11.698-0.446-23.224-2.733-34.641-5.238
			c-11.372-2.495-22.83-1.861-34.362-2.91c-48.092-4.374-96.291-3.734-144.536-3.734
			C553.379,644.209,537.671,644.071,521.964,644.118z"/>
	</g>
</g>
<g id="Object">
	<g>
		<g>
			<g>
				<path style="fill:#E2BD9C;" d="M784.42,235.746c0.257,0.166,0.521,0.341,0.713,0.566c1.792,2.1,1.468,4.268,2.613,6.771
					c0.51,1.116,3.633,1.572,2.257,3.734c-0.508,0.798-2.03,2.578-3.13,4.269c-1.604,2.465-2.146,6.559-1.977,9.889
					c0.664,13.083,4.871,25.623,9.422,37.896c0.259,0.7,0.541,1.426,1.094,1.927c0.99,0.898,2.496,0.804,3.826,0.682
					c6.171-0.565,12.394-0.555,18.563,0.03c5.504,0.522,11.106,1.551,15.848,4.395c4.742,2.844,8.508,7.808,8.646,13.335
					c0.103,4.139-1.928,8.274-5.266,10.723c-8.279,6.073-21.146-1.636-29.412-4.657c-7.82-2.858-15.441-6.264-22.785-10.187
					c-0.907-0.484-1.835-0.997-2.478-1.799c-0.686-0.854-0.979-1.95-1.252-3.01c-3.519-13.663-5.812-27.559-7.835-41.573
					c-0.556-3.851,0.983-7.505,0.437-11.061c-0.349-2.27-2.254-3.8-3.057-5.868c-0.794-2.047-1.315-4.936-1.299-7.13
					c0.033-4.326,3.654-6.944,6.592-9.542c0.732-0.647,1.224-1.086,2.114-1.302c1.447-0.35,2.769,0.231,4.102,0.761
					C782.943,234.908,783.711,235.286,784.42,235.746z"/>
			</g>
		</g>
		<g>
			<g>
				<path style="fill:#8CABEF;" d="M811.407,324.099c0.335-8.296,0.669-16.592,1.004-24.887c-0.021,0.532,37.736-0.784,39.987-0.785
					c8.589-0.006,17.488,0.053,25.293,3.636c16.667,7.65,15.707,31.773-2.623,36.667c-19.898,5.313-43.498,3.476-62.514-4.3
					c-0.413-0.169-0.844-0.355-1.119-0.707c-0.377-0.483-0.37-1.153-0.345-1.765C811.196,329.338,811.302,326.719,811.407,324.099z"
					/>
			</g>
		</g>
	</g>
	<g>
		<g>
			<g>
				<g>
					<g>
						<g>
							<path style="fill:#E2BD9C;" d="M797.465,679.696c-2.826-0.318-5.436-1.345-8.161-2.005
								c2.592-27.591,9.391-55.909,14.55-83.256c6.979,1.407,13.958,2.815,20.937,4.222c-7.056,13.985-12.779,28.641-17.078,43.703
								C807.033,644.747,797.868,679.741,797.465,679.696z"/>
						</g>
					</g>
					<g>
						<g>
							<path style="fill:#292949;" d="M789.233,672.254c-1.691-0.564-2.828,0.059-4.141,0.946c-0.762,0.516-1.347,1.318-2.222,1.639
								c-0.875,0.321-1.684,0.29-2.661,0.245c-5.149-0.234-16.809-2.162-11.826,7.239c4.525,8.537,19.997,7.673,28.981,6.853
								c0.591-0.054,1.206-0.051,1.689-0.432c0.483-0.38,0.857-0.968,1.131-1.594c1.522-3.481,3.541-7.811-0.695-9.985
								c-1.807-0.927-3.744,0.075-5.655-0.918C792.267,675.433,790.924,672.818,789.233,672.254z"/>
						</g>
					</g>
				</g>
			</g>
			<g>
				<path style="fill:#5D66D3;" d="M789.096,615.249c14.386,1.827,28.771,3.653,43.157,5.48
					c19.71-53.538,49.774-97.19,55.079-162.03c0.361-4.409,2.644-8.62,2.014-12.998c-1.192-8.281-9.026-14.056-16.939-16.77
					c-12.298-4.218-36.013-4.337-44.426,7.858c-8.892,12.888-11.382,37.871-15.297,52.98
					C802.001,531,794.11,572.954,789.096,615.249z"/>
			</g>
		</g>
		<g>
			<g>
				<g>
					<g>
						<g>
							<path style="fill:#E2BD9C;" d="M914.514,683.353c-2.784,0.582-5.584,0.422-8.378,0.647
								c-6.167-27.018-8.565-56.041-12.216-83.63c7.069-0.846,14.138-1.692,21.207-2.537c-2.328,15.49-3.181,31.201-2.554,46.852
								C912.672,647.165,914.911,683.27,914.514,683.353z"/>
						</g>
					</g>
					<g>
						<g>
							<path style="fill:#292949;" d="M904.367,678.859c-1.782-0.007-2.668,0.94-3.638,2.194c-0.563,0.728-0.867,1.673-1.598,2.251
								c-0.731,0.578-1.508,0.802-2.451,1.065c-4.964,1.388-16.642,3.204-8.969,10.574c6.968,6.694,21.393,1.035,29.67-2.554
								c0.544-0.236,1.13-0.426,1.469-0.938c0.34-0.512,0.512-1.188,0.576-1.867c0.357-3.783,0.92-8.526-3.783-9.267
								c-2.006-0.316-3.532,1.242-5.658,0.896C908.243,680.93,906.149,678.866,904.367,678.859z"/>
						</g>
					</g>
				</g>
			</g>
			<g>
				<path style="fill:#5D66D3;" d="M881.078,619.549c14.235-2.764,28.471-5.528,42.706-8.291
					c1.978-57.017,2.527-114.083,1.645-171.127c-0.068-4.423-0.185-9.015-2.152-12.976c-3.722-7.493-12.968-10.528-21.334-10.631
					c-13-0.16-35.562,7.143-39.74,21.357c-4.415,15.022,1.032,39.531,2.039,55.107C866.988,535.49,872.614,577.806,881.078,619.549z
					"/>
			</g>
		</g>
		<g>
			<g>
				<path style="fill:#8CABEF;" d="M899.544,309.23c11.623,11.063,20.331,25.273,25.575,39.994
					c9.287,26.067,9.466,53.9,9.551,81.174c0.028,9.077,0.056,18.155,0.085,27.232c0.029,8.931-0.762,10.853-10.467,9.676
					c-17.986-2.182-36.684-5.89-52.981-13.883c-7.755-3.803-15.002-8.607-23.134-11.602c-11.827-4.356-23.952-2.384-35.654-5.218
					c2.968-8.972,7.406-17.165,9.47-26.578c2.066-9.422,3.041-19.052,3.691-28.673c1.136-16.814,3.229-33.529,4.49-50.28
					c0.903-11.998-0.678-21.824,12.084-29.693c6.947-4.284,19.585-11.615,29.387-9.632
					C882.043,293.851,893.047,303.047,899.544,309.23z"/>
			</g>
		</g>
		<g>
			<g>
				<g>
					<g>
						<path style="fill:#E2BD9C;" d="M857.781,268.02c2.391,5.225,6.297,9.58,9.486,14.359c3.103,4.65,4.219,8.857,5.042,14.249
							c0.595,3.894,1.986,6.938,6.677,7.604c8.846,1.257,6.317-6.052,8.326-11.37c2.297-6.078,7.195-10.881,10.618-16.306
							c9.891-15.676,7.068-46.661-13.491-53.273C861.961,216.054,850.527,252.164,857.781,268.02z"/>
					</g>
				</g>
			</g>
			<g>
				<g>
					<path style="fill:#2B3444;" d="M893.614,252.85c2.552,0.103,5.359,0.305,7.251,2.019c1.893,1.714,1.687,5.452-0.811,5.856
						c-2.266,0.366-5.198-1.997-6.581-0.272c-0.809,1.008-0.099,2.483,0.515,3.663c2.354,4.525,3.06,9.772,1.961,14.592
						c0.932,0.863,2.385-0.033,3.204-0.932c4.064-4.464,7.239-9.678,9.319-15.304c0.816,1.362,2.014,2.521,3.426,3.316
						c-0.847-2.115-0.311-4.429,0.212-6.587c1.921-7.93,3.228-17.22-2.31-23.7c-2.963-3.467-7.469-5.462-12-6.3
						c-4.531-0.838-9.15-0.635-13.716-0.428c-1.954,0.089-4.361,0.509-4.831,2.317c4.285,1.718,8.718,5.065,10.864,9.123
						C890.776,241.458,893.354,252.84,893.614,252.85z"/>
				</g>
			</g>
			<g>
				<g>
					<path style="fill:#292949;" d="M884.558,233.797c0.156,0.114,0.31,0.228,0.46,0.342c1.942,1.478,3.763,3.276,6.114,3.932
						c3.388,0.945,7.028-0.688,10.363,0.466c3.729,1.29,6.179,5.748,8.901,8.387c4.463,4.327,9.997,7.508,15.937,9.316
						c3.034,0.923,6.177,1.491,9.344,1.67c1.435,0.081,3.356,0.354,4.756-0.024c1.878-0.506,1.814-1.36-0.187-2.001
						c-6.276-2.011-8.244-10.826-7.769-16.669c0.374-4.612,1.965-9.433,0.206-13.713c-1.344-3.27-4.229-4.958-7.019-6.828
						c-3.076-2.063-6.412-1.507-9.905-2.499c-3.644-1.035-6.613-3.904-10.33-4.636c-3.926-0.773-7.849,0.967-11.777,1.73
						c-3.245,0.63-6.619,0.589-9.848-0.121c-2.893-0.636-5.716-1.807-8.678-1.78c-4.368,0.041-8.385,2.767-10.934,6.314
						c-3.606,5.018-5.937,13.605-4.666,20.212c-0.197-1.025,3.253-4.74,3.963-5.539c1.498-1.686,3.307-3.267,5.594-3.54
						C874.26,228.2,880.396,230.775,884.558,233.797z"/>
				</g>
			</g>
		</g>
	</g>
	<g>
		<g>
			<path style="fill:#E2BD9C;" d="M534.163,244.395c-5.073,0.071-10.147,0.141-15.22,0.212c-0.323,3-1.143,5.946-2.417,8.682
				c9.334,4.958,18.424,10.375,27.227,16.224c2.408-0.7,4.872-1.206,7.36-1.511C549.542,265.035,535.987,244.367,534.163,244.395z"
				/>
		</g>
		<g>
			<path style="fill:#D67086;" d="M585.011,294.927c-1.867-1.909-3.812-4.177-6.105-6.706
				c-9.772-10.778-20.402-20.996-30.619-31.362c-0.618-0.627-1.273-1.277-2.116-1.528c-1.014-0.303-2.096,0.026-3.103,0.353
				c-4.22,1.371-8.44,2.743-12.661,4.114c1.052-0.342,19.587,34.774,21.49,38.082c3.595,6.25,7.941,12.411,11.118,18.858
				c2.696,5.472,3.825,10.582,9.669,13.795c4.941,2.716,10.727,3.349,16.347,3.796c18.216,1.448,36.545,1.486,54.767,0.112
				c1.89-0.142,3.833-0.315,5.527-1.167c1.784-0.898,3.13-2.471,4.291-4.097c4.663-6.524,6.997-14.615,6.816-22.612
				c-0.125-5.504-0.707-17.148-7.287-18.702c-3.215-0.759-6.549,0.28-9.697,1.281c-12.248,3.896-24.625,7.374-37.005,10.827
				C595.348,303.069,590.515,300.555,585.011,294.927z"/>
		</g>
	</g>
	<g>
		<g>
			<g>
				<g>
					<g>
						<g>
							<path style="fill:#E2BD9C;" d="M612.074,672.835c-3.023,0.373-5.859-0.536-8.818-0.7
								c-0.448-10.395,0.114-20.419,1.772-30.802c4.86,4.818,8.544,1.649,8.928,11.196
								C614.081,655.621,611.213,668.171,612.074,672.835z"/>
						</g>
						<g>
							<path style="fill:#292949;" d="M602.3,667.006c-3.52-1.039-3.833,7.244-3.749,9.183c0.05,1.165,0.255,2.344,0.023,3.487
								c-0.255,1.258-1.014,2.346-1.755,3.394c-1.552,2.195-3.103,4.389-4.655,6.584c-0.698,0.987-1.407,1.997-1.745,3.157
								c-0.838,2.875,0.999,6.124,3.744,7.322c9.525,4.154,17.343-7.652,18.926-15.244c0.242-1.164,0.401-2.343,0.559-3.521
								c0.327-2.437,1.854-7.797,0.764-10.098c-1.272-2.685-4.541-0.503-6.816-1.413C605.486,669.013,603.724,667.428,602.3,667.006
								z"/>
						</g>
					</g>
					<g>
						<path style="fill:#AEB3B7;" d="M658.766,498.492c-7.303,23.992-15.965,47.546-20.254,72.471
							c-5.299,30.791-14.938,61.071-19.022,91.861c-3.745,0.334-7.516,0.387-11.269,0.158c-4.304-0.263-11.153-1.032-12.96-5.613
							c-0.923-2.341-0.307-6.268-0.327-8.753c-0.064-7.959,0.055-15.921,0.19-23.879c0.383-22.516,0.231-45.278,3.105-67.616
							c3.023-23.5,5.858-47.069,8.36-70.536c1.293-12.129,3.047-24.208,5.368-36.184c0.598-3.086,6.844-34.894,8.433-34.732
							c18.855,1.917,36.686,7.115,53.505,15.846c1.635,0.848,3.225,1.88,3.869,3.518c0.644,1.639,0.227,3.106-0.197,4.65
							c-4.046,14.728-9.764,28.648-14.135,43.338C661.911,488.133,660.364,493.244,658.766,498.492z"/>
					</g>
				</g>
				<g>
					<g>
						<g>
							<path style="fill:#E2BD9C;" d="M665.11,673.007c2.899,0.934,5.855,0.574,8.792,0.969c2.392-10.126,3.723-20.077,4.045-30.586
								c-5.679,3.819-8.702,0.015-10.872,9.32C666.372,655.722,666.831,668.587,665.11,673.007z"/>
						</g>
						<g>
							<path style="fill:#292949;" d="M676.703,670.809c0.326,5.632,5.102,11.445,7.841,16.371c0.322,0.579,0.652,1.182,0.701,1.844
								c0.073,0.982-0.478,1.89-1.009,2.72c-0.737,1.152-1.54,2.364-2.784,2.934c-1.222,0.56-2.639,0.394-3.966,0.18
								c-2.22-0.357-4.424-0.816-6.602-1.374c-0.543-0.139-1.097-0.291-1.551-0.618c-0.538-0.388-0.883-0.983-1.211-1.56
								c-1.685-2.96-3.094-5.048-3.204-8.445c-0.114-3.509,0.123-7.164-0.714-10.601c-0.412-1.667-0.954-3.797,0.437-4.803
								c1.075-0.778,3.174,0.091,4.399,0.221c2.163,0.229,4.136-0.016,6.173,0.997c0.415,0.206,0.822,0.46,1.092,0.837
								C676.579,669.896,676.676,670.34,676.703,670.809z"/>
						</g>
					</g>
					<g>
						<path style="fill:#BCBEC0;" d="M651.995,492.997c2.667,24.937,6.75,49.698,6.282,74.986
							c-0.579,31.239,3.201,62.79,1.43,93.799c3.616,1.032,7.31,1.792,11.039,2.272c4.276,0.55,11.149,1.081,13.784-3.079
							c1.347-2.126,1.479-6.099,1.965-8.536c1.557-7.806,2.937-15.648,4.299-23.49c3.853-22.188,8.277-44.516,9.65-66.996
							c1.445-23.649,3.087-47.331,5.038-70.85c1.008-12.156,1.554-24.35,1.523-36.548c-0.008-3.143-0.169-35.558-1.759-35.698
							c-18.879-1.659-37.369,0.098-55.53,5.514c-1.765,0.526-3.52,1.241-4.461,2.729c-0.941,1.489-0.807,3.008-0.68,4.604
							c1.208,15.225,4.209,29.972,5.743,45.221C650.851,482.231,651.411,487.542,651.995,492.997z"/>
					</g>
				</g>
				<g>
					<path style="fill:#D67086;" d="M630.124,292.909c-0.299,0.12-0.596,0.246-0.89,0.377c-4.919,2.192-9.001,5.867-12.992,9.482
						c-5.996,5.43-8.964,7.83-10.965,15.483c-1.866,7.137-2.865,14.62-3.842,21.921c-5.016,37.485-4.302,74.491-7.294,112.141
						c-0.815,10.249-1.211,22.265,6.705,28.825c12.758-11.141,29.499-12.69,45.684-13.62c11.366-0.653,22.27-4.963,33.735-4.339
						c10.958,0.596,20.314-2.663,31.405-2.569c2.674,0.023,6.067-0.199,6.978-2.713c-4.473-11.247-5.104-23.578-6.651-35.582
						c-4.003-31.05-16.024-60.383-21.944-91.113c-2.012-10.445-3.757-27.873-12.359-35.379c-9.348-8.157-29.563-7.19-40.851-4.853
						C634.558,291.444,632.287,292.039,630.124,292.909z"/>
				</g>
				<g>
					<g>
						<g>
							<g>
								<g>
									<path style="fill:#E2BD9C;" d="M640.009,297.873c0.199,0.338,0.456,0.658,0.795,0.955c1.334,1.175,3.125,1.783,4.877,1.933
										c2.309,0.198,4.616-0.314,6.865-0.876c3.038-0.759,2.828-2.551,3.115-5.364c0.157-1.537,0.222-3.08,0.25-4.624
										c0.015-0.847-0.482-3.846,0.022-4.467c0.342-0.422,1.834-0.37,2.465-0.747c1-0.596,1.806-1.637,2.37-2.635
										c0.911-1.609,1.359-3.432,1.797-5.229c0.762-3.126,1.525-6.252,2.287-9.377c0.779-3.194,1.562-6.414,1.684-9.699
										c0.185-4.952-1.005-11.86-4.926-15.251c-3.577-3.093-8.59-3.964-13.161-4.287c-6.052-0.428-12.218,1.024-17.227,4.507
										c-2.023,1.406-3.915,3.189-5.022,5.555c-1.707,3.648-1.312,8.059-0.873,12.18c0.405,3.803,0.81,7.607,1.215,11.41
										c0.466,4.375,1.298,9.399,4.719,11.591c1.817,1.164,4.114,1.305,5.699,2.84c1.986,1.923,2.037,4.974,2.261,7.542
										C639.349,295.298,639.318,296.696,640.009,297.873z"/>
								</g>
							</g>
						</g>
					</g>
				</g>
				<g>
					<path style="fill:#292949;" d="M666.186,264.787c-0.128,0.872-0.24,1.765-0.301,2.686c-0.52,7.834,0.693,15.37-0.878,23.228
						c7.059-3.443,13.385-8.879,18.315-15.736c0.848-1.179,1.669-2.43,2.089-3.902c0.401-1.404,0.413-2.924,0.396-4.415
						c-0.109-9.527-1.263-19.063-3.422-28.294c-0.857-3.663-1.891-7.328-3.661-10.521c-5.338-9.625-16.054-12.843-25.701-12.944
						c-5.585-0.058-11.431,0.765-15.947,4.533c-4.874,4.065-6.194,11.092-5.956,17.091c0.058,1.472,0.166,3.005,0.908,4.278
						c1.539,2.641,5.078,3.155,8.132,3.306c4.29,0.212,8.617,0.281,12.813,1.201c4.196,0.92,8.322,2.78,11.149,6.013
						C668.088,255.848,666.89,259.997,666.186,264.787z"/>
				</g>
				<g>
					<path style="fill:#292949;" d="M616.282,228.981c-1.316,2.629-2.347,5.447-3.151,8.393c-2.842,10.405-5.51,20.251-3.976,31.279
						c0.213,1.535,0.493,3.076,1.064,4.486c0.769,1.897,2.024,3.459,3.296,4.939c5.086,5.914,10.791,11.084,16.937,15.348
						c-2.595-13.286-5.144-27.528-0.999-40.083c3.22-9.752,9.953-16.669,17.325-21.984c4.119-2.969,15.208-8.981,12.364-15.611
						c-3.916-9.133-25.376-3.319-31.323,0.359C622.572,219.353,618.875,223.801,616.282,228.981z"/>
				</g>
			</g>
		</g>
	</g>
	<g>
		<g>
			<path style="fill:#E2BD9C;" d="M479.43,347.88c1.937-1.731,3.634-3.747,5.519-5.538c0.961-0.914,2.098-2.237,3.328-2.793
				c0.565-0.255,1.683-0.262,2.172,0.183c0.664,0.604,0.289,1.162,0.54,1.868c-1.311,1.015-2.639,1.999-3.888,3.096
				c-0.084,0.073-0.172,0.156-0.19,0.266c-0.019,0.112,0.041,0.221,0.1,0.318c1.129,1.852,2.016,1.498,3.852,0.545
				c3.234-1.679,6.469-3.358,9.703-5.037c0.62-0.322,1.258-0.649,1.953-0.721c0.538-0.056,1.078,0.046,1.609,0.147
				c1.483,0.283,2.966,0.566,4.449,0.848c0.364,0.069,0.75,0.15,1.015,0.409c0.281,0.274,0.363,0.687,0.432,1.073
				c0.268,1.496,0.536,2.992,0.804,4.487c0.088,0.493,0.176,1.01,0.023,1.488c-0.14,0.441-0.468,0.794-0.793,1.122
				c-1.226,1.239-2.563,2.363-3.869,3.517c-0.952,0.841-1.898,1.704-2.993,2.348c-0.792,0.465-1.649,0.808-2.506,1.139
				c-10.53,4.078-21.555,6.873-32.756,8.303c-0.328,0.042-0.673,0.081-0.982-0.039c-0.671-0.261-0.855-1.106-0.944-1.82
				c-0.176-1.415-1.209-4.618-0.648-5.922c0.51-1.185,3.351-1.916,4.457-2.518C473.185,352.815,476.699,350.6,479.43,347.88z"/>
		</g>
		<g>
			<path style="fill:#B5D6CA;" d="M424.375,359.76c12.603-2.443,25.133-5.261,37.568-8.448c4.446-1.139,10.402-4.426,13.851-1.428
				c2.934,2.559,8.294,16.386,6.085,19.863c-2.097,3.302-12.884,4.613-16.587,5.994c-16.495,6.154-33.094,12.031-49.787,17.628
				c-2.106,0.706-4.257,1.415-6.478,1.425c-2.931,0.013-5.729-1.193-8.294-2.612c-11.256-6.225-20.083-21.745-25.815-32.976
				c-8.796-17.237-7.455-33.638,7.617-46.34c4.34-3.658,9.898-6.361,15.615-6.787c8.53-0.636,9.529,3.596,12.66,10.637
				C416.935,330.49,421.495,344.964,424.375,359.76z"/>
		</g>
	</g>
	<g>
		<g>
			<g>
				<g>
					<path style="fill:#292949;" d="M359.312,266.715c4.308,4.31,9.193,8.043,14.484,11.068c-4.932-9.49-8.552-19.66-10.726-30.131
						c-0.166-0.799-0.383-1.688-1.075-2.119c-0.647-0.402-1.482-0.257-2.22-0.069C346.586,248.823,351.802,259.201,359.312,266.715z
						"/>
				</g>
			</g>
			<g>
				<path style="fill:#E2BD9C;" d="M397.385,279.932c0.794-0.91,1.482-1.873,2.058-2.833c7.962-13.277,7.6-63.081-27.999-56.529
					c-32.324,5.949-11.475,44.104,2.122,57.569c2.578,2.553,5.829,5.135,9.67,6.245c1.029,0.297,0.72,10.308,1.631,11.816
					c1.823,3.018,6.133,3.907,9.212,2.503c2.669-1.217,5.263-4.909,5.85-7.705C400.355,288.974,396.64,280.785,397.385,279.932z"/>
			</g>
			<g>
				<g>
					<g>
						<path style="fill:#292949;" d="M397.775,265.55c3.25,1.734,7.073-1.074,9.28-4.022c9.068-12.112,8.893-30.303-0.405-42.239
							c-7.781-9.988-25.932-11.34-21.905,3.832c1.428,5.379,7.768,10.659,9.785,16.411
							C397.412,247.752,397.493,256.946,397.775,265.55z"/>
					</g>
				</g>
				<g>
					<g>
						<path style="fill:#292949;" d="M336.181,221.215c-9.833,15.04-7.094,35.255-14.769,51.503
							c14.192-0.803,27.943-7.645,37.143-18.481c9.024-10.628,34.693-27.752,22.758-41.732
							C369.167,198.276,344.797,208.037,336.181,221.215z"/>
					</g>
				</g>
			</g>
		</g>
		<g>
			<g>
				<path style="fill:#12243A;" d="M407.098,689.418l-2.717,3.145l-1.241,3.426l7.542,12.155l7.369,3.077l8.37-0.475
					c0,0,3.616-1.209,1.552-4.134c-2.065-2.925-7.749-4.521-7.749-4.521l1.112-9.607L407.098,689.418z"/>
			</g>
			<g>
				<polygon style="fill:#12243A;" points="375.955,688.88 374.71,694.813 368.573,704.784 371.105,708.081 380.91,707.527 
					387.118,699.229 387.598,682.53 376.355,683.281 				"/>
			</g>
			<g>
				<g>
					<g>
						<polygon style="fill:#353A85;" points="361.211,454.132 355.375,486.113 371.839,690.44 389.072,686.826 417.66,460.973 
													"/>
					</g>
				</g>
				<g>
					<g>
						<polygon style="fill:#353A85;" points="451.336,449.933 454.665,581.638 421.214,695.328 401.716,688.078 418.137,586.689 
							403.059,448.809 						"/>
					</g>
				</g>
			</g>
		</g>
		<g>
			<g>
				<path style="fill:#5D66D3;" d="M351.266,317.484c-3.124,6.792-3.702,14.305-4.734,22.489
					c-1.789,14.185-2.673,28.45-2.873,42.708c-0.233,16.575,0.466,33.143,1.775,49.655c0.654,8.258,1.464,16.504,2.385,24.737
					c0.477,4.265-1.403,15.215,3.212,17.459c2.564,1.246,5.667,0.974,8.568,0.669c25.583-2.686,51.166-5.372,76.749-8.059
					c4.102-0.431,8.35-0.906,11.899-2.874c6.358-3.525,5.256-10.45,6.26-16.285c1.331-7.733,1.632-15.583,1.474-23.383
					c-0.325-16.045-2.786-31.933-3.941-47.92c-1.243-17.188-3.998-40.24-10.516-56.581c-2.932-6.903-7.063-13.308-12.706-18.578
					c-7.047-6.583-13.533-8.242-23.025-9.961c-0.397-0.072-0.812-0.152-1.117-0.397c-0.33-0.265-0.471-0.675-0.598-1.064
					c-0.605-1.85-1.211-3.699-1.816-5.549c-0.228-0.697-0.512-1.461-1.197-1.81c-0.66-0.336-1.476-0.178-2.211-0.01
					c-6.356,1.445-12.712,2.89-19.068,4.336c0.349,1.452,0.701,2.942,0.479,4.421c-0.222,1.479-1.142,2.968-2.643,3.5
					c-6.503,2.307-13.295,7.434-18.551,12.093C355.401,310.332,352.96,313.802,351.266,317.484z"/>
			</g>
		</g>
	</g>
	<g>
		<g>
			
				<rect x="414.921" y="329.144" transform="matrix(0.9998 0.02 -0.02 0.9998 10.0191 -10.6582)" style="fill:#292949;" width="247.015" height="333.92"/>
		</g>
		<g>
			
				<rect x="408.713" y="321.713" transform="matrix(0.9998 0.02 -0.02 0.9998 9.8696 -10.5359)" style="fill:#BCBEC0;" width="247.015" height="333.92"/>
		</g>
		<g>
			<rect x="402.303" y="319.323" style="fill:#F2F2F2;" width="247.015" height="333.92"/>
		</g>
		<g>
			<g>
				<path style="fill:#353A85;" d="M478.152,383.011h-10.337l-17.288-26.234v26.234h-10.336v-42.736h10.336l17.288,26.476v-26.476
					h10.337V383.011z"/>
			</g>
			<g>
				<path style="fill:#353A85;" d="M495.62,348.496v8.946h14.447v7.798H495.62v9.49h16.26v8.281h-26.596v-42.736h26.596v8.221
					H495.62z"/>
			</g>
			<g>
				<path style="fill:#353A85;" d="M575.832,340.275l-10.215,42.736h-12.815l-6.831-28.591l-6.891,28.591h-12.815l-10.216-42.736
					h11.243l5.501,30.949l7.495-30.949h11.303l7.495,30.949l5.561-30.949H575.832z"/>
			</g>
			<g>
				<path style="fill:#353A85;" d="M610.256,377.208c-1.149,1.895-2.841,3.406-5.078,4.534c-2.237,1.129-4.947,1.693-8.13,1.693
					c-4.796,0-8.745-1.168-11.847-3.506c-3.104-2.337-4.796-5.601-5.078-9.793h11.001c0.161,1.612,0.735,2.882,1.723,3.808
					c0.987,0.927,2.246,1.39,3.778,1.39c1.33,0,2.377-0.363,3.143-1.088c0.765-0.725,1.148-1.693,1.148-2.901
					c0-1.088-0.353-1.995-1.058-2.72c-0.705-0.725-1.582-1.319-2.629-1.783c-1.048-0.463-2.499-1.017-4.352-1.662
					c-2.7-0.927-4.907-1.823-6.619-2.69c-1.714-0.866-3.184-2.155-4.413-3.869c-1.23-1.712-1.844-3.939-1.844-6.679
					c0-2.539,0.644-4.735,1.934-6.589c1.289-1.853,3.072-3.274,5.35-4.262c2.276-0.987,4.886-1.481,7.828-1.481
					c4.755,0,8.532,1.129,11.334,3.385c2.8,2.257,4.382,5.36,4.745,9.309H600.01c-0.202-1.41-0.716-2.528-1.542-3.355
					c-0.826-0.826-1.945-1.239-3.355-1.239c-1.209,0-2.186,0.323-2.932,0.967c-0.746,0.645-1.118,1.592-1.118,2.841
					c0,1.008,0.332,1.865,0.997,2.569c0.665,0.705,1.501,1.28,2.509,1.723c1.007,0.444,2.457,1.008,4.352,1.692
					c2.74,0.928,4.976,1.844,6.71,2.75c1.732,0.907,3.224,2.227,4.473,3.959c1.249,1.733,1.874,3.99,1.874,6.77
					C611.979,373.239,611.404,375.314,610.256,377.208z"/>
			</g>
		</g>
		<g style="opacity:0.1;">
			<rect x="418.238" y="399.661" style="fill:#000100;" width="215.145" height="41.064"/>
		</g>
		<g style="opacity:0.1;">
			<rect x="418.238" y="468.125" style="fill:#000100;" width="101.013" height="72.204"/>
		</g>
		<g style="opacity:0.1;">
			<rect x="532.221" y="556.819" style="fill:#000100;" width="101.013" height="72.204"/>
		</g>
		<g style="opacity:0.1;">
			<rect x="532.221" y="465" style="fill:#000100;" width="100.358" height="6.25"/>
		</g>
		<g style="opacity:0.1;">
			<rect x="532.221" y="478.856" style="fill:#000100;" width="100.358" height="6.25"/>
		</g>
		<g style="opacity:0.1;">
			<rect x="532.221" y="492.713" style="fill:#000100;" width="100.358" height="6.25"/>
		</g>
		<g style="opacity:0.1;">
			<rect x="532.221" y="506.569" style="fill:#000100;" width="100.358" height="6.25"/>
		</g>
		<g style="opacity:0.1;">
			<rect x="532.221" y="519.223" style="fill:#000100;" width="100.358" height="6.25"/>
		</g>
		<g style="opacity:0.1;">
			<rect x="532.221" y="533.08" style="fill:#000100;" width="100.358" height="6.25"/>
		</g>
		<g style="opacity:0.1;">
			<rect x="418.566" y="553.694" style="fill:#000100;" width="100.358" height="6.25"/>
		</g>
		<g style="opacity:0.1;">
			<rect x="418.566" y="567.55" style="fill:#000100;" width="100.358" height="6.25"/>
		</g>
		<g style="opacity:0.1;">
			<rect x="418.566" y="581.407" style="fill:#000100;" width="100.358" height="6.25"/>
		</g>
		<g style="opacity:0.1;">
			<rect x="418.566" y="595.263" style="fill:#000100;" width="100.358" height="6.25"/>
		</g>
		<g style="opacity:0.1;">
			<rect x="418.566" y="607.917" style="fill:#000100;" width="100.358" height="6.25"/>
		</g>
		<g style="opacity:0.1;">
			<rect x="418.566" y="621.774" style="fill:#000100;" width="100.358" height="6.25"/>
		</g>
	</g>
	<g>
		<g>
			<path style="fill:#E2BD9C;" d="M430.593,404.457c1.251-0.873,3.116-3.63,4.937-3.332c0.544,0.089,1.571,1.154,1.875,1.591
				c0.825,1.185,0.475,0.662,0.141,1.98c-0.303,1.199-0.601,2.465,0.12,3.607c2.866,4.528,9.562-4.807,13.152-4.825
				c8.824-0.038-1.215,13.113-3.081,15.495c-0.933,1.19-1.976,2.384-3.383,2.936c-0.902,0.354-1.888,0.417-2.856,0.475
				c-3.536,0.214-7.071,0.427-10.607,0.641c-8.038,0.486-30.512,4.307-22.971-10.378c0.234-0.456,0.545-0.934,1.038-1.074
				c0.307-0.088,0.634-0.028,0.947,0.032c1.884,0.36,4.086,1.266,5.99,1.195c2.279-0.085,5.076-1.252,7.126-2.194
				C426.421,409.042,427.585,406.555,430.593,404.457z"/>
		</g>
		<g>
			<path style="fill:#5D66D3;" d="M340.019,403.283c0.822,4.157,3.656,6.903,7.499,10.153c9.637,8.149,17.732,13.897,30.819,14.791
				c15.15,1.035,30.408,0.472,45.44-1.677c-0.425,0.061-3.607-14.531-4.159-15.872c-1.729-4.2-1.73-4.712-6.019-6.318
				c-9.298-3.484-23.387-2.303-33.264-2.728c2.779-22.53,5.558-45.059,8.336-67.589c0.923-7.483,0.929-16.862-5.726-20.406
				c-3.568-1.9-8.054-1.286-11.64,0.58c-7.246,3.771-11.187,11.703-14.286,19.26c-8.52,20.777-14.284,42.683-17.096,64.962
				C339.693,400.271,339.738,401.859,340.019,403.283z"/>
		</g>
	</g>
	<g id="XMLID_118_">
		<g id="XMLID_120_">
			<g>
				<polygon style="fill:#AD7B59;" points="276.265,311.712 280.012,304.02 277.512,296.872 278.731,295.569 280.375,297.034 
					279.969,290.503 283.04,286.217 289.991,286.295 295.619,290.846 294.832,297.855 289.917,304.582 285.238,315.339 				"/>
			</g>
		</g>
		<g id="XMLID_119_">
			<g>
				<path style="fill:#E2E2E2;" d="M272.687,307.283c-9.262,20.821-44.365,66.674-29.979,90.238
					c12.003,19.662,34.33,4.288,37.711-12.352c4.865-23.948,6.882-49.39,11.771-73.744L272.687,307.283z"/>
			</g>
		</g>
	</g>
	<g>
		<g>
			<g id="XMLID_117_">
				<g>
					<polygon style="fill:#292949;" points="235.044,698.983 234.934,706.18 253.248,715.688 262.616,706.601 253.529,697.233 
						252.339,697.215 252.011,699.242 					"/>
				</g>
			</g>
			<g id="XMLID_116_">
				<g>
					<polygon style="fill:#292949;" points="189.625,696.26 188.352,696.241 178.984,705.328 188.07,714.696 206.666,705.749 
						206.775,698.553 189.808,698.294 					"/>
				</g>
			</g>
			<g>
				<g id="XMLID_115_">
					<g>
						<path style="fill:#E2E2E2;" d="M194.014,425.178c2.616-12.255,4.688-23.57,4.955-29.72
							c0.805-18.496,4.064-79.575,4.064-79.575l11.65-23.204l2.085,0.052c-0.15-0.02-0.299-0.041-0.449-0.061
							c0.49,0.066-0.167-4.521-0.336-4.928c-9.815-0.484-22.555,4.862-28.866,12.485c-4.67,5.641-7.501,12.58-10.26,19.398
							c-7.77,19.198-11.433,37.038-15.471,57.288c-2.575,12.912-4.968,25.767-6.893,38.594c-2.132,14.207-3.699,28.38-4.304,42.486
							c-0.067,1.559-0.442,5.917-0.695,11.126c-0.529,10.911-0.519,25.516,3.993,26.13c0.844,0.115,1.666-0.253,2.417-0.61
							c5.858-2.784,10.495-6.464,15.672-9.664l1.143-56.94L194.014,425.178z"/>
					</g>
				</g>
				<g id="XMLID_114_">
					<g>
						<path style="fill:#E2E2E2;" d="M297.001,485.285c-0.971-12.135-1.987-24.269-3.269-36.375
							c-2.557-24.146-6.171-48.251-12.55-71.686c-2.437-8.952-5.271-17.787-8.104-26.618c-3.45-10.754-6.9-21.508-10.349-32.262
							c-4.288-13.366-11.723-22.848-24.921-27.702c-2.357-0.867-4.842-1.546-7.406-2.054c-0.067,0.274-0.128,0.552-0.168,0.845
							c-0.173,1.275-0.554,2.685-1.362,3.6l8.708,0.217c0,0,23.242,87.7,23.915,102.765c0.256,5.726,1.208,18.233,2.277,31.409
							l13.313,2.201l-0.194,50.334c0.743,0.23,1.484,0.452,2.218,0.663c4.216,1.207,7.613,4.397,11.092,6.912
							C295.341,491.247,297.596,492.722,297.001,485.285z"/>
					</g>
				</g>
				<g id="XMLID_113_">
					<g>
						<path style="fill:#3ABABA;" d="M263.772,427.424c1.693,20.853,3.682,43.384,3.682,43.384s-10.792,0.095-26.415,1.041
							c1.155-0.01,2.31-0.023,3.463-0.016c10.856,0.068,22.042,4.929,32.389,8.127l0.194-50.334L263.772,427.424z"/>
					</g>
				</g>
				<g id="XMLID_112_">
					<g>
						<path style="fill:#E2E2E2;" d="M190.159,477.408c-7.447,0.281-8.351-1.135-8.351-1.135s7.13-27.317,12.207-51.095
							l-21.298,2.858l-1.143,56.94c1.82-1.124,3.706-2.191,5.736-3.136C181.379,479.946,185.715,478.521,190.159,477.408z"/>
					</g>
				</g>
				<g>
					<g>
						<path style="fill:#292949;" d="M276.891,479.96c-10.346-3.198-21.533-8.059-32.389-8.127
							c-1.153-0.007-2.308,0.006-3.463,0.016c-0.967,0.059-1.952,0.12-2.955,0.186c-7.283,0.474-15.467,1.131-24.014,2.037
							c-0.42,0.045-0.838,0.087-1.259,0.133c-10.949,2.209-18.049,3.03-22.653,3.203c-4.443,1.113-8.779,2.538-12.848,4.432
							c-2.031,0.946-3.916,2.012-5.736,3.136l-0.238,11.857l17.738,201.723l17.059,0.26l-0.031,2.051l0.098,0.001l20.814-134.809
							l0.089-0.76l8.207,136.012l0.098,0.001l0.031-2.051l17.142,0.261l24.046-150.953L276.891,479.96z"/>
					</g>
				</g>
				<g>
					<g>
						<path style="fill:#FFFFFF;" d="M263.772,427.424c-1.07-13.176-2.021-25.683-2.277-31.409
							C260.822,380.95,237.58,293.25,237.58,293.25l-8.708-0.217c-0.097,0.11-0.198,0.217-0.308,0.311
							c-0.272,0.233-0.585,0.416-0.945,0.53c-0.715,0.228-1.486,0.129-2.228,0.028c-2.874-0.39-5.748-0.781-8.621-1.171
							l-2.085-0.052l-11.65,23.204c0,0-3.26,61.079-4.064,79.575c-0.268,6.15-2.339,17.465-4.955,29.72
							c-5.077,23.778-12.207,51.095-12.207,51.095s0.904,1.415,8.351,1.134c4.604-0.174,11.704-0.994,22.653-3.203
							c0.422-0.046,0.839-0.089,1.259-0.133c8.547-0.906,16.732-1.563,24.014-2.037c1.003-0.065,1.988-0.127,2.955-0.186
							c15.623-0.946,26.415-1.041,26.415-1.041S265.465,448.277,263.772,427.424z"/>
					</g>
				</g>
			</g>
		</g>
		<g>
			<g>
				<g>
					<path style="fill:#292949;" d="M246.411,233.864c2.286,4.792,3.184,10.195,3.064,15.521c-0.032,1.416-0.044,3.053,1.023,3.963
						c1.143,0.973-0.042,2.86,0.95,1.728c0.993-1.132,4.37-5.069,4.609-6.566c0.56-3.507,0.789-7.069,0.685-10.62
						c-0.091-3.088-0.496-6.337-2.316-8.81c-1.079-1.466-2.577-2.547-4.054-3.597c-2.14-1.522-4.349-3.06-6.879-3.719
						c-4.362-1.136-7.177,0.292-3.486,3.689C242.651,227.887,244.844,230.581,246.411,233.864z"/>
				</g>
			</g>
			<g>
				<g>
					<g>
						<path style="fill:#AD7B59;" d="M214.99,292.275c6.038,0.989,12.077,1.978,18.116,2.966c1.276-5.275,2.176-10.661,2.688-16.089
							c5.353-0.565,11.692-1.884,13.873-7.4c0.687-1.737,0.834-3.668,0.972-5.556c0.571-7.807,1.142-15.614,1.714-23.422
							c0.198-2.7,0.387-5.484-0.357-8.052c-1.306-4.507-5.189-7.403-9.058-9.322c-9.872-4.897-21.714-5.53-31.476-0.175
							c-2.598,1.425-5.086,3.316-6.706,6.001c-2.497,4.141-2.568,9.457-2.55,14.432c0.016,4.592,0.032,9.183,0.048,13.775
							c0.018,5.281,0.396,11.384,4.227,14.432c2.034,1.618,4.77,2.075,6.481,4.107C215.979,281.554,214.105,287.439,214.99,292.275z
							"/>
					</g>
				</g>
			</g>
			<g>
				<g>
					<path style="fill:#292949;" d="M252.708,263.207c0.01-1.454-0.333-5.741-2.65-3.218c-0.606,0.66-0.809,1.636-0.905,2.563
						c-0.096,0.926-0.117,1.885-0.463,2.74c-0.793,1.963-3.037,2.728-4.981,2.561c-0.773-0.066-1.553-0.249-2.211-0.691
						c-0.639-0.43-1.126-1.077-1.6-1.712c-1.153-1.542-2.306-3.083-3.458-4.625c-1.981-2.65-6.311-1.855-9.228-1.667
						c-3.362,0.217-6.765,1.014-9.636,3.061c-0.289,0.206-0.574,0.425-0.858,0.643c-0.695,0.531-1.392,1.057-2.18,1.383
						c-2.659,1.101-5.759-0.445-7.406-2.952c-0.755-1.149-1.434-2.607-2.706-2.877c-0.995-0.211-2.022,0.456-2.6,1.377
						c-0.579,0.922-0.792,2.052-0.935,3.156c-0.52,4.017-0.248,8.215,1.236,11.91c3.217,8.013,10.364,9.453,17.621,9.769
						c2.868,0.125,5.737,0.25,8.606,0.375c5.244,0.229,10.793,0.382,15.408-2.415c4.071-2.467,6.689-6.954,7.958-11.752
						C252.373,268.358,252.691,265.778,252.708,263.207z M232.826,272.91c-2.882,1.699-5.927,1.595-8.939,0.446
						c-1.28-0.488-0.579-2.681,0.703-2.192c2.495,0.952,4.901,1.094,7.3-0.32C233.098,270.133,234.026,272.203,232.826,272.91z"/>
				</g>
			</g>
			<g>
				<g>
					<path style="fill:#292949;" d="M256.591,220.956c0.631-1.859,1.132-3.763,1.498-5.693c-1.814,0.512-3.755,0.55-5.586,0.108
						c0.07-1.123,0.139-2.247,0.209-3.37c0.053-0.935-12.33-2.43-13.334-2.582c-9.401-1.428-17.996-2.763-26.883,1.818
						c-7.592,3.913-12.707,10.178-14.392,18.668c-1.61,8.111,0.319,18.978,4.525,26.085c0.117-2.181-0.777-7.403-0.135-9.44
						c0.447-2.054,1.283-4.007,2.378-5.789c2.185-3.557,5.398-6.457,9.019-8.437c5.773-3.156,12.338-4.588,18.831-5.064
						c5.95-0.436,13.183-0.721,18.902,1.261c2.749,0.952,3.166,1.698,5.051-1.061c0.332-0.486,3.092-6.242,2.861-6.261
						C258.553,221.119,257.572,221.037,256.591,220.956z"/>
				</g>
			</g>
		</g>
	</g>
	<g>
		<g>
			<g>
				<g>
					<g>
						<g>
							<path style="fill:#292949;" d="M389.655,530.072h-204.7V398.28c0-2.689,2.18-4.868,4.868-4.868h194.963
								c2.689,0,4.868,2.18,4.868,4.868V530.072z"/>
						</g>
					</g>
					<g>
						<rect x="193.115" y="402.879" style="fill:#DDDAE8;" width="188.434" height="119.649"/>
					</g>
				</g>
			</g>
			<g>
				<g>
					<g>
						<path style="fill:#BABCBC;" d="M389.637,547.731l-204.703-0.614c-4.982-0.014-9.597-2.623-12.179-6.884l0,0l229.1,0.683l0,0
							C399.248,545.163,394.619,547.745,389.637,547.731z"/>
					</g>
					<g>
						<path style="fill:#C6CAC9;" d="M400.385,542.059h-226.16c-0.976,0-1.768-0.792-1.768-1.768v-8.787
							c0-0.976,0.791-1.768,1.768-1.768h226.16c0.976,0,1.768,0.792,1.768,1.768v8.787
							C402.153,541.267,401.361,542.059,400.385,542.059z"/>
					</g>
				</g>
				<g style="opacity:0.14;">
					<path style="fill:#000100;" d="M304.256,537.717h-33.904c-1.101,0-1.994-0.893-1.994-1.994v-0.372
						c0-1.101,0.893-1.994,1.994-1.994h33.904c1.101,0,1.994,0.893,1.994,1.994v0.372
						C306.25,536.824,305.358,537.717,304.256,537.717z"/>
				</g>
			</g>
		</g>
		<g>
			<polygon style="fill:#474EBB;" points="273.216,429.767 273.216,480.036 310.087,454.466 			"/>
		</g>
		<g>
			<g style="opacity:0.69;">
				<rect x="200.75" y="506.912" style="fill:#FFFFFF;" width="173.11" height="5.369"/>
			</g>
			<g>
				<rect x="200.753" y="506.912" style="fill:#B5D6CA;" width="2.603" height="5.369"/>
			</g>
			<g>
				<rect x="203.356" y="506.912" style="fill:#474EBB;" width="41.159" height="5.369"/>
			</g>
		</g>
	</g>
	<path style="fill:#8CABEF;" d="M615.836,118.237c-4.885-11.551-11.878-21.923-20.784-30.829
		c-8.906-8.906-19.278-15.898-30.829-20.784C552.262,61.565,539.56,59,526.468,59s-25.794,2.565-37.755,7.624
		c-11.55,4.886-21.923,11.878-30.829,20.784c-8.906,8.906-15.899,19.278-20.784,30.829c-5.059,11.961-7.624,24.663-7.624,37.755
		s2.565,25.795,7.624,37.756c4.885,11.55,11.878,21.923,20.784,30.828c8.906,8.906,19.278,15.899,30.829,20.785
		c11.961,5.059,24.664,7.624,37.755,7.624s25.794-2.565,37.755-7.624c11.55-4.886,21.923-11.879,30.829-20.785
		c8.906-8.905,15.899-19.278,20.784-30.828c5.059-11.961,7.624-24.664,7.624-37.756S620.895,130.198,615.836,118.237z
		 M479.325,153.002c0-7.594,0.869-15.029,2.578-22.238h39.684v46.135h-39.371C480.296,169.048,479.325,161.054,479.325,153.002z
		 M550.824,89.231c7.005,8.19,12.582,17.112,16.576,26.516c0.736,1.733,1.412,3.487,2.04,5.256h-38.091V71.246
		C535.919,74.528,543.367,80.513,550.824,89.231z M521.587,72.201v48.802h-36.802c0.604-1.7,1.253-3.387,1.957-5.056
		c3.956-9.373,9.484-18.272,16.432-26.448C510.011,81.454,516.912,75.683,521.587,72.201z M521.587,186.66v52.373
		c-4.643-4.028-11.34-10.465-18.039-19.091c-7.054-9.083-12.669-18.729-16.689-28.672c-0.618-1.529-1.198-3.066-1.741-4.61H521.587z
		 M531.348,240.128V186.66h37.758c-0.522,1.483-1.076,2.96-1.667,4.43c-3.988,9.913-9.561,19.535-16.566,28.6
		C543.49,229.244,536.036,236.176,531.348,240.128z M531.348,176.898v-46.135h40.975c1.71,7.209,2.578,14.643,2.578,22.238
		c0,8.052-0.97,16.046-2.89,23.896H531.348z M582.329,130.764h27.681c2.428,8.078,3.689,16.557,3.689,25.229
		c0,7.14-0.861,14.145-2.517,20.906h-29.147c1.746-7.861,2.627-15.85,2.627-23.896C584.663,145.431,583.875,138,582.329,130.764z
		 M588.15,94.311c7.816,7.815,13.942,16.863,18.248,26.692h-26.659c-0.977-3.067-2.091-6.094-3.355-9.071
		c-4.384-10.323-10.487-20.095-18.142-29.045c-3.951-4.619-7.894-8.528-11.488-11.748C562.299,74.824,576.569,82.729,588.15,94.311z
		 M464.786,94.311c12.007-12.007,26.905-20.061,43.118-23.558c-3.708,3.29-7.81,7.329-11.919,12.134
		c-7.654,8.95-13.758,18.722-18.142,29.045c-1.264,2.978-2.379,6.004-3.355,9.071h-27.949
		C450.844,111.174,456.97,102.126,464.786,94.311z M442.926,130.764h28.972c-1.547,7.236-2.334,14.667-2.334,22.238
		c0,8.047,0.88,16.035,2.626,23.896h-30.438c-1.655-6.761-2.516-13.767-2.516-20.906
		C439.237,147.32,440.498,138.842,442.926,130.764z M464.786,217.674c-8.949-8.948-15.694-19.508-20.007-31.014h30.051
		c0.885,2.777,1.874,5.535,2.979,8.268c4.357,10.777,10.423,21.207,18.029,31.001c4.964,6.391,9.911,11.652,14.158,15.736
		C492.972,238.43,477.309,230.197,464.786,217.674z M588.15,217.674c-12.12,12.121-27.184,20.218-43.576,23.66
		c4.168-4.035,8.984-9.186,13.813-15.404c7.606-9.794,13.672-20.224,18.029-31.001c1.105-2.733,2.095-5.491,2.979-8.268h28.761
		C603.843,198.166,597.099,208.726,588.15,217.674z"/>
	<g>
		<g>
			<g>
				<polygon style="fill:#474EBB;" points="780.149,226.877 793.622,247.742 788.945,215.806 679.592,166.162 				"/>
			</g>
			<g>
				<polygon style="fill:#3F4AAA;" points="793.622,247.742 780.507,227.173 679.861,166.454 				"/>
			</g>
			<g>
				<polygon style="fill:#5D66D3;" points="679.861,166.454 680.894,166.926 780.462,227.037 780.573,227.085 756.071,259.221 				
					"/>
			</g>
			<g>
				<polygon style="fill:#5D66D3;" points="679.592,166.162 810.01,188.476 789.104,215.896 680.894,166.926 				"/>
			</g>
		</g>
		<g>
			<path style="fill:#A4A6A9;" d="M679.592,171.13L679.592,171.13l-0.001-0.026L679.592,171.13z M679.592,166.176l-0.001-0.026
				h0.001V166.176z"/>
		</g>
	</g>
	<g>
		<g>
			<g>
				<path style="fill:#E2BD9C;" d="M645.373,364.104c-0.969-0.733-2.367-2.984-3.825-2.804c-0.436,0.054-1.286,0.87-1.541,1.208
					c-0.693,0.917-0.398,0.512-0.173,1.572c0.277,1.304,0.108,3.245-1.805,2.989c-0.889-0.119-1.619-0.727-2.383-1.197
					c-0.764-0.47-1.751-0.812-2.535-0.378c-0.314,0.174-0.555,0.454-0.775,0.738c-1.313,1.694-2.152,3.84-1.921,5.97
					c0.747,6.909,9.188,6.173,14.149,6.666c6.38,0.635,24.143,4.369,18.596-7.548c-0.172-0.37-0.405-0.76-0.792-0.887
					c-0.241-0.079-0.503-0.042-0.755-0.004c-1.51,0.228-3.29,0.881-4.802,0.766c-1.81-0.138-4-1.153-5.602-1.965
					C648.551,367.882,647.702,365.867,645.373,364.104z"/>
			</g>
		</g>
		<g>
			<path style="fill:#D67086;" d="M693.667,312.376c4.003,8.203,5.095,17.486,5.839,26.582c1.469,17.962,1.807,36.016,1.013,54.021
				c-16.595-0.617-33.134-2.737-49.349-6.324c-1.541-9.68-2.253-19.491-2.124-29.292c7.477-0.04,14.956,0.478,22.356,1.548
				c-1.961-7.793-3.923-15.585-5.885-23.378c-1.743-6.926-3.5-14.069-2.469-21.136C666.254,292.416,685.528,295.697,693.667,312.376
				z"/>
		</g>
	</g>
	<g id="XMLID_109_">
		<g id="XMLID_111_">
			<g>
				<polygon style="fill:#AD7B59;" points="248.307,399.951 256.003,403.567 262.948,400.851 264.271,402.058 262.886,403.763 
					269.297,403.19 273.618,406.203 273.779,413.266 269.495,419.095 262.574,418.468 255.789,413.642 245.047,409.155 				"/>
			</g>
		</g>
		<g id="XMLID_110_">
			<g>
				<polygon style="fill:#E2E2E2;" points="254.141,398.473 212.919,377.109 195.016,303.949 172.639,338.315 177.159,386.834 
					187.731,403.327 252.708,416.065 				"/>
			</g>
		</g>
	</g>
	<g>
		<g>
			<g>
				<g>
					<g>
						<path style="fill:#292949;" d="M858.496,578.635l-156.628-0.561c-1.488-0.005-2.69-1.216-2.685-2.704l0.763-213.05
							c0.005-1.488,1.216-2.69,2.704-2.685l156.628,0.561c1.488,0.005,2.69,1.216,2.685,2.704L861.2,575.95
							C861.195,577.438,859.984,578.64,858.496,578.635z"/>
					</g>
					<g>
						
							<rect x="708.1" y="369.449" transform="matrix(1 0.0036 -0.0036 1 1.6663 -2.7919)" style="fill:#F2F2F2;" width="144.984" height="189.091"/>
					</g>
					<g>
						<path style="fill:#FFFFFF;" d="M785.227,568.342c-0.01,2.92-2.262,5.279-5.028,5.269c-2.766-0.01-5.001-2.385-4.99-5.305
							c0.01-2.92,2.262-5.279,5.028-5.269C783.004,563.047,785.238,565.422,785.227,568.342z"/>
					</g>
				</g>
			</g>
			<g>
				<g>
					<rect x="737.508" y="460.16" style="fill:#474EBB;" width="37.59" height="37.59"/>
				</g>
				<g>
					<rect x="716.614" y="503.41" style="fill:#E6E6E6;" width="58.484" height="17.091"/>
				</g>
				<g>
					<rect x="716.614" y="525.002" style="fill:#E6E6E6;" width="58.484" height="17.091"/>
				</g>
			</g>
			<g>
				<g>
					<rect x="785.736" y="459.579" style="fill:#E6E6E6;" width="58.484" height="17.091"/>
				</g>
				<g>
					<rect x="786.008" y="481.981" style="fill:#E6E6E6;" width="58.484" height="17.091"/>
				</g>
				<g>
					<rect x="785.736" y="503.41" style="fill:#E6E6E6;" width="58.484" height="17.091"/>
				</g>
				<g>
					<rect x="786.008" y="525.591" style="fill:#E6E6E6;" width="58.484" height="17.091"/>
				</g>
			</g>
			<g>
				<rect x="716.045" y="384.026" style="fill:#5D66D3;" width="129.057" height="64.989"/>
			</g>
		</g>
		<g>
			<g>
				<g>
					<path style="fill:#FFFFFF;" d="M756.384,426.354h-5.14l-8.596-13.044v13.044h-5.14v-21.25h5.14l8.596,13.165v-13.165h5.14
						V426.354z"/>
				</g>
				<g>
					<path style="fill:#FFFFFF;" d="M765.07,409.192v4.448h7.184v3.877h-7.184v4.719h8.085v4.118H759.93v-21.25h13.225v4.088H765.07
						z"/>
				</g>
				<g>
					<path style="fill:#FFFFFF;" d="M804.955,405.104l-5.08,21.25h-6.372l-3.396-14.217l-3.427,14.217h-6.372l-5.08-21.25h5.591
						l2.735,15.389l3.727-15.389h5.62l3.727,15.389l2.765-15.389H804.955z"/>
				</g>
				<g>
					<path style="fill:#FFFFFF;" d="M822.072,423.469c-0.571,0.942-1.413,1.694-2.525,2.254c-1.112,0.561-2.46,0.842-4.043,0.842
						c-2.385,0-4.348-0.581-5.891-1.743c-1.543-1.162-2.385-2.785-2.525-4.869h5.47c0.08,0.802,0.365,1.433,0.857,1.894
						c0.491,0.461,1.117,0.691,1.879,0.691c0.661,0,1.182-0.18,1.563-0.541c0.38-0.361,0.571-0.842,0.571-1.443
						c0-0.541-0.176-0.992-0.526-1.353c-0.351-0.361-0.787-0.656-1.307-0.887c-0.521-0.23-1.243-0.506-2.164-0.827
						c-1.343-0.461-2.44-0.906-3.291-1.337c-0.852-0.431-1.583-1.072-2.194-1.924c-0.612-0.852-0.917-1.958-0.917-3.321
						c0-1.262,0.32-2.354,0.962-3.276c0.641-0.921,1.528-1.628,2.66-2.119c1.132-0.491,2.429-0.736,3.892-0.736
						c2.364,0,4.243,0.561,5.636,1.683c1.393,1.122,2.179,2.665,2.359,4.629h-5.56c-0.1-0.701-0.356-1.257-0.767-1.668
						c-0.411-0.41-0.967-0.616-1.668-0.616c-0.601,0-1.087,0.161-1.458,0.481c-0.371,0.321-0.556,0.792-0.556,1.413
						c0,0.501,0.165,0.927,0.496,1.277c0.331,0.351,0.746,0.636,1.247,0.857c0.501,0.221,1.222,0.501,2.164,0.842
						c1.362,0.461,2.474,0.917,3.336,1.368c0.861,0.451,1.603,1.107,2.224,1.969c0.621,0.862,0.932,1.984,0.932,3.366
						C822.928,421.495,822.643,422.527,822.072,423.469z"/>
				</g>
			</g>
		</g>
		<g>
			<rect x="716.639" y="459.579" style="fill:#E6E6E6;" width="17.188" height="38.171"/>
		</g>
	</g>
	<g>
		<g>
			<g>
				<path style="fill:#E2BD9C;" d="M805.749,384.387c0.235-0.22,0.48-0.446,0.758-0.585c2.597-1.297,4.728-0.419,7.571-0.954
					c1.268-0.238,2.524-3.311,4.382-1.358c0.686,0.72,2.118,2.725,3.565,4.275c2.11,2.26,6.151,3.85,9.592,4.52
					c4.625,0.9,9.541,1.746,14.211,1.944c9.811,0.416,20.776-0.201,30.5-1.661c-1.695-16.165,6.451-32.969,20.192-41.651
					c1.436-0.907,2.988-1.751,4.682-1.87c1.433-0.101,2.854,0.329,4.169,0.905c13.911,6.099,7.537,19.019,2.837,29.645
					c-2.933,6.631-6.332,13.177-10.214,19.307c-5.436,8.585-13.918,10.739-23.817,11.037c-10.49,0.316-21.122,0.449-31.482-1.479
					c-5.035-0.937-9.531-2.755-14.354-4.324c-4.766-1.551-5.19,0.657-9.711,0.369c-2.522-0.16-5.124,0.152-7.581-0.477
					c-4.406-1.128-6.162-5.486-8.071-9.143c-0.475-0.91-0.799-1.524-0.794-2.487c0.008-1.565,0.937-2.767,1.815-3.994
					C804.521,385.682,805.101,384.994,805.749,384.387z"/>
			</g>
		</g>
		<g>
			<g>
				<path style="fill:#8CABEF;" d="M894.843,388.858c-1.904-0.889-4.003-1.629-6.637-2.329c-1.538-0.409-18.655-5.394-18.53-5.651
					c1.983-4.132,1.466-10.128,2.584-14.703c1.332-5.449,3.337-10.735,5.969-15.689c4.341-8.17,6.773-17.632,9.855-26.366
					c3.888-11.021,14.689-12.049,20.851-2.122c5.261,8.475,5.673,19.656,6.541,29.313c0.701,7.803,1.22,15.73-0.268,23.422
					c-1.488,7.692-5.21,15.23-11.55,19.833C900.329,392.012,897.826,390.251,894.843,388.858z"/>
			</g>
		</g>
	</g>
</g>
</svg>
