<?xml version="1.0" encoding="utf-8"?>
<!-- Generator: Adobe Illustrator 27.5.0, SVG Export Plug-In . SVG Version: 6.00 Build 0)  -->
<svg version="1.1" xmlns="http://www.w3.org/2000/svg" xmlns:xlink="http://www.w3.org/1999/xlink" x="0px" y="0px"
	 viewBox="0 0 3710 3710" style="enable-background:new 0 0 3710 3710;" xml:space="preserve">
<g id="Background">
	<g>
		<g>
			<rect style="fill:#FFFFFF;" width="3710" height="3710"/>
		</g>
	</g>
</g>
<g id="Illustration">
	<g>
		<linearGradient id="SVGID_1_" gradientUnits="userSpaceOnUse" x1="3498.6758" y1="3688.0164" x2="1537.4623" y2="1600.2734">
			<stop  offset="0" style="stop-color:#DAE3FE"/>
			<stop  offset="1" style="stop-color:#E9EFFD"/>
		</linearGradient>
		<path style="fill:url(#SVGID_1_);" d="M2909.823,2850.423c-72.4,74.627-137.181,118.496-186.779,151.614
			c-483.725,322.988-1036.676,229.895-1207.634,198.076c-275.821-51.336-508.651-87.552-708.695-268.282
			c-454.559-410.676-432.45-1267.376-85.112-1798.064c41.184-62.924,387.996-577.008,942.144-649.447
			c13.554-1.772,23.667-2.781,32.524-3.718c85.725-9.076,616.948-56.98,1050.107,305.921
			c62.005,51.947,161.788,145.647,254.32,288.555C3339.036,1597.611,3340.107,2406.902,2909.823,2850.423z"/>
		<g>
			<path style="fill:#91B3FA;" d="M2700.396,624.532c1.613-14.676,21.284-18.482,28.455-5.576
				c72.826,131.052,229.3,503.787,3.331,995.418c-283.512,616.825-224.726,893.795-103.997,1089.888
				c0,0-207.067-140.29-274.847-423.935C2186.923,1583.913,2671.72,885.479,2700.396,624.532z"/>
			<path style="fill:#FFFFFF;" d="M2715.489,850.344c-9.833,75.618-21.153,151.003-35.212,225.865
				c-13.664,74.923-29.593,149.398-47.82,223.27c-18.509,73.795-38.4,147.232-61.38,219.714
				c-22.654,72.583-48.399,144.11-74.5,215.835c-25.685,71.829-51.968,144.044-70.938,219.169
				c-18.999,74.95-29.356,153.373-25.077,231.363c1.086,19.444,2.531,38.943,5.111,58.163c2.224,19.276,5.303,38.459,8.724,57.578
				c7.033,38.214,16.615,76.026,28.958,112.955c24.879,73.806,60.979,143.767,105.074,207.309
				c4.641,6.688,13.825,8.346,20.513,3.705c6.567-4.557,8.285-13.495,3.95-20.149l-0.031-0.047
				c-10.288-15.758-20.383-31.615-29.736-47.867c-4.808-8.053-9.248-16.302-13.841-24.465c-4.278-8.326-8.882-16.489-12.899-24.938
				c-16.634-33.517-30.894-68.161-42.522-103.688c-23.58-70.863-36.69-145.616-40.909-220.113
				c-1.689-37.284-0.629-74.628,3.303-111.761c3.96-37.134,10.779-74.02,19.708-110.546
				c17.864-73.093,43.288-144.785,68.455-216.794c25.079-72.058,49.786-144.641,71.468-218.128
				c10.938-36.709,21.216-73.611,30.828-110.679c4.912-18.505,9.465-37.102,14.051-55.688c4.408-18.63,8.711-37.282,12.863-55.964
				c16.467-74.766,30.644-149.998,42.426-225.572c11.419-75.631,20.826-151.539,27.294-227.682c0.184-2.177-1.429-4.09-3.605-4.275
				C2717.631,846.734,2715.763,848.263,2715.489,850.344z"/>
		</g>
		<g>
			<g>
				<path style="fill:#BDD0FB;" d="M2672.45,2566.819c-19.827,18.628-52.234,10.953-61.933-14.464
					c-53.519-140.242-168.977-550.44,90.215-999.15c218.876-378.916,301.552-605.179,331.966-710.495
					c6.432-22.27,37.555-23.385,45.606-1.649C3167.136,1080.88,3390.879,1891.84,2672.45,2566.819z"/>
				<path style="fill:#FFFFFF;" d="M2639.497,2550.36c-0.67,0.079-1.354,0.094-2.053,0.039c-5.848-0.446-10.229-5.549-9.783-11.397
					c0.506-6.631,53.777-669.233,334.31-1209.838c2.701-5.201,9.111-7.233,14.322-4.536c5.206,2.704,7.236,9.113,4.536,14.322
					c-278.492,536.669-331.484,1195.08-331.988,1201.666C2648.45,2545.769,2644.444,2549.781,2639.497,2550.36z"/>
			</g>
		</g>
		<g>
			
				<linearGradient id="SVGID_00000121967079456725502160000010981661288958516392_" gradientUnits="userSpaceOnUse" x1="1654.5409" y1="121.1904" x2="1638.604" y2="2825.0732">
				<stop  offset="0" style="stop-color:#09005D"/>
				<stop  offset="1" style="stop-color:#1A0F91"/>
			</linearGradient>
			<path style="fill:url(#SVGID_00000121967079456725502160000010981661288958516392_);" d="M693.109,949.877
				c0-95.321,77.273-172.593,172.594-172.593h1467.744c80.974,0,147.744,63.457,151.861,144.327l108.34,2127.954
				c3.222,63.283-46.594,116.663-109.949,117.815l-1682.22,30.574c-59.53,1.082-108.371-46.879-108.371-106.419V949.877z"/>
			<path style="fill:#91B3FA;" d="M1047.34,3161.777c-0.018,0-0.035,0-0.053,0l-188.231-2.433
				c-62.941-0.816-114.145-52.688-114.145-115.631v-284.193c0-2.221,1.799-4.018,4.018-4.018c2.219,0,4.019,1.797,4.019,4.018
				v284.193c0,58.567,47.646,106.833,106.212,107.594l188.229,2.433c2.219,0.027,3.995,1.852,3.967,4.069
				C1051.327,3160.011,1049.534,3161.777,1047.34,3161.777z"/>
			<path style="fill:#FFFFFF;" d="M748.929,2675.509c-2.219,0-4.018-1.798-4.018-4.019v-46.025c0-2.221,1.799-4.019,4.018-4.019
				c2.219,0,4.019,1.798,4.019,4.019v46.025C752.948,2673.711,751.149,2675.509,748.929,2675.509z"/>
			<g>
				<path style="fill:#7D97F4;" d="M813.354,810.037c-0.18-30.497,26.641-54.101,56.862-50.002
					c200.434,27.181,889.673,111.246,1459.528,67.501c25.988-1.995,48.541,17.695,49.924,43.722l113.601,2137.439
					c1.558,29.308-20.822,54.37-50.12,56.104c-239.67,14.183-1226.707,69.013-1578.768,32.138
					c-21.427-2.245-37.692-20.285-37.819-41.829L813.354,810.037z"/>
				<path style="fill:#BDD0FB;" d="M836.964,863.6c-0.173-29.349,25.638-52.064,54.721-48.119
					c192.886,26.157,856.171,107.057,1404.568,64.959c25.009-1.92,46.712,17.029,48.043,42.076l109.323,2056.953
					c1.499,28.204-20.038,52.323-48.233,53.991c-230.645,13.649-1180.515,66.414-1519.319,30.927
					c-20.62-2.16-36.273-19.521-36.394-40.254L836.964,863.6z"/>
				<g>
					<g style="opacity:0.6;">
						<path style="fill:#FFFFFF;" d="M859.269,2314.518c4.337,11.49,19.278,19.461,36.286,19.36l1386.144-8.257
							c15.681-0.093,28.225-9.127,27.882-20.081c-0.333-10.649-12.748-19.173-27.993-19.222l-1386.18-4.417
							C870.939,2281.823,853.028,2297.988,859.269,2314.518z"/>
					</g>
					<g style="opacity:0.6;">
						<path style="fill:#FFFFFF;" d="M859.269,2538.845c4.337,11.49,19.278,19.461,36.286,19.36l1386.144-8.257
							c15.681-0.093,28.225-9.127,27.882-20.081c-0.333-10.649-12.748-19.173-27.993-19.222l-1386.18-4.417
							C870.939,2506.15,853.028,2522.315,859.269,2538.845z"/>
					</g>
					<g style="opacity:0.6;">
						<path style="fill:#FFFFFF;" d="M858.64,2763.172L858.64,2763.172c2.153,11.49,9.571,19.462,18.016,19.36l688.213-8.257
							c7.785-0.094,14.013-9.128,13.843-20.081c-0.166-10.648-6.329-19.173-13.899-19.222l-688.231-4.417
							C864.433,2730.478,855.541,2746.642,858.64,2763.172z"/>
					</g>
				</g>
				<g>
					<g style="opacity:0.6;">
						<path style="fill:#FFFFFF;" d="M1006.794,1419.36c3.705,11.49,16.469,19.461,30.999,19.36l1184.193-8.257
							c13.396-0.093,24.113-9.128,23.82-20.081c-0.285-10.649-10.891-19.174-23.915-19.222l-1184.224-4.417
							C1016.763,1386.666,1001.462,1402.83,1006.794,1419.36z"/>
					</g>
					<g style="opacity:0.6;">
						<path style="fill:#FFFFFF;" d="M1006.248,1643.687c1.813,11.49,8.06,19.461,15.171,19.36l579.542-8.257
							c6.556-0.093,11.801-9.128,11.657-20.081c-0.139-10.649-5.33-19.173-11.704-19.222l-579.557-4.417
							C1011.127,1610.993,1003.639,1627.157,1006.248,1643.687z"/>
					</g>
					<g style="opacity:0.6;">
						<path style="fill:#FFFFFF;" d="M1006.794,1868.015c3.705,11.49,16.469,19.462,30.999,19.36l1184.193-8.257
							c13.396-0.093,24.113-9.127,23.82-20.081c-0.285-10.649-10.891-19.173-23.915-19.222l-1184.224-4.417
							C1016.763,1835.32,1001.462,1851.485,1006.794,1868.015z"/>
					</g>
					<g style="opacity:0.6;">
						<path style="fill:#FFFFFF;" d="M1006.275,2092.342L1006.275,2092.342c1.906,11.49,8.469,19.461,15.942,19.36l608.989-8.257
							c6.889-0.094,12.4-9.128,12.25-20.081c-0.146-10.648-5.601-19.173-12.299-19.222l-609.005-4.417
							C1011.402,2059.647,1003.533,2075.812,1006.275,2092.342z"/>
					</g>
				</g>
				<g>
					
						<linearGradient id="SVGID_00000170987640062065374560000009898109869059146669_" gradientUnits="userSpaceOnUse" x1="1149.8303" y1="185.2799" x2="935.3329" y2="1651.0034">
						<stop  offset="0" style="stop-color:#4F52FF"/>
						<stop  offset="1" style="stop-color:#4042E2"/>
					</linearGradient>
					<path style="fill:url(#SVGID_00000170987640062065374560000009898109869059146669_);" d="M961.372,1037.333h47.712
						c19.443,0,33.597,3.773,42.467,11.32c8.868,7.547,13.303,19.552,13.303,36.008c0,10.831-2.347,19.891-7.035,27.182
						c-4.691,7.291-11.087,11.704-19.187,13.239v1.279c10.572,2.645,18.205,7.592,22.897,14.838
						c4.688,7.25,7.035,16.885,7.035,28.909c0,16.971-4.541,30.252-13.623,39.845c-9.082,9.594-21.512,14.39-37.287,14.39h-56.282
						V1037.333z M994.119,1112.546h15.989c7.333,0,12.491-1.96,15.478-5.884c2.983-3.92,4.477-9.763,4.477-17.524
						c0-7.758-1.708-13.322-5.116-16.693c-3.412-3.367-8.784-5.053-16.117-5.053h-14.71V1112.546z M994.119,1141.582v52.317h17.524
						c7.246,0,12.641-2.216,16.181-6.652c3.537-4.432,5.308-11.298,5.308-20.594c0-16.712-7.336-25.071-22.001-25.071H994.119z"/>
					
						<linearGradient id="SVGID_00000102516273417156978150000007224781233420461696_" gradientUnits="userSpaceOnUse" x1="1252.9545" y1="200.372" x2="1038.457" y2="1666.0958">
						<stop  offset="0" style="stop-color:#4F52FF"/>
						<stop  offset="1" style="stop-color:#4042E2"/>
					</linearGradient>
					<path style="fill:url(#SVGID_00000102516273417156978150000007224781233420461696_);" d="M1100.415,1224.343v-187.01h32.746
						v187.01H1100.415z"/>
					
						<linearGradient id="SVGID_00000106856705073516560140000004427372366628257964_" gradientUnits="userSpaceOnUse" x1="1348.3187" y1="214.3277" x2="1133.8213" y2="1680.0514">
						<stop  offset="0" style="stop-color:#4F52FF"/>
						<stop  offset="1" style="stop-color:#4042E2"/>
					</linearGradient>
					<path style="fill:url(#SVGID_00000106856705073516560140000004427372366628257964_);" d="M1172.686,1224.343v-187.01h34.793
						v156.567h48.224v30.443H1172.686z"/>
					
						<linearGradient id="SVGID_00000080177989064071453160000016307484215117374855_" gradientUnits="userSpaceOnUse" x1="1451.3845" y1="229.4112" x2="1236.8871" y2="1695.1349">
						<stop  offset="0" style="stop-color:#4F52FF"/>
						<stop  offset="1" style="stop-color:#4042E2"/>
					</linearGradient>
					<path style="fill:url(#SVGID_00000080177989064071453160000016307484215117374855_);" d="M1277.96,1224.343v-187.01h34.793
						v156.567h48.224v30.443H1277.96z"/>
					
						<linearGradient id="SVGID_00000000938208899143393420000016264862857449862037_" gradientUnits="userSpaceOnUse" x1="1637.3004" y1="256.6176" x2="1422.8031" y2="1722.3405">
						<stop  offset="0" style="stop-color:#4F52FF"/>
						<stop  offset="1" style="stop-color:#4042E2"/>
					</linearGradient>
					<path style="fill:url(#SVGID_00000000938208899143393420000016264862857449862037_);" d="M1576.639,1130.582
						c0,30.955-5.801,54.747-17.396,71.376c-11.599,16.629-28.186,24.943-49.759,24.943c-21.662,0-38.291-8.292-49.886-24.879
						c-11.599-16.584-17.396-40.485-17.396-71.696c0-30.955,5.798-54.683,17.396-71.184c11.595-16.501,28.31-24.751,50.142-24.751
						c21.573,0,38.118,8.295,49.631,24.879C1570.883,1075.857,1576.639,1099.627,1576.639,1130.582z M1477.761,1130.582
						c0,21.32,2.686,37.565,8.058,48.735c5.372,11.173,13.258,16.757,23.664,16.757c20.978,0,31.467-21.829,31.467-65.492
						c0-43.66-10.406-65.492-31.211-65.492c-10.575,0-18.547,5.564-23.92,16.693
						C1480.448,1092.911,1477.761,1109.179,1477.761,1130.582z"/>
					
						<linearGradient id="SVGID_00000171679452956849925190000000521976112138734977_" gradientUnits="userSpaceOnUse" x1="1763.8538" y1="275.1373" x2="1549.3563" y2="1740.8613">
						<stop  offset="0" style="stop-color:#4F52FF"/>
						<stop  offset="1" style="stop-color:#4042E2"/>
					</linearGradient>
					<path style="fill:url(#SVGID_00000171679452956849925190000000521976112138734977_);" d="M1638.421,1224.343h-34.537v-187.01
						h83.784v30.06h-49.247v51.933h45.921v30.06h-45.921V1224.343z"/>
					
						<linearGradient id="SVGID_00000063617196535963456010000007872433783641348001_" gradientUnits="userSpaceOnUse" x1="1936.7078" y1="300.4346" x2="1722.2104" y2="1766.1567">
						<stop  offset="0" style="stop-color:#4F52FF"/>
						<stop  offset="1" style="stop-color:#4042E2"/>
					</linearGradient>
					<path style="fill:url(#SVGID_00000063617196535963456010000007872433783641348001_);" d="M1860.991,1172.793
						c0,17.483-4.413,30.872-13.239,40.165c-8.826,9.296-21.554,13.943-38.182,13.943c-16.29,0-30.146-3.198-41.572-9.594v-34.409
						c13.984,9.127,26.817,13.687,38.502,13.687c6.651,0,11.659-1.832,15.03-5.5c3.367-3.665,5.052-8.653,5.052-14.966
						c0-6.223-2.005-11.915-6.012-17.076c-4.01-5.158-10.617-10.892-19.827-17.204c-8.017-5.542-14.093-10.85-18.228-15.925
						c-4.138-5.072-7.336-10.764-9.594-17.076c-2.261-6.309-3.39-13.642-3.39-22.001c0-16.031,4.455-28.736,13.367-38.118
						c8.909-9.379,20.869-14.071,35.88-14.071c14.326,0,28.096,4.01,41.316,12.024l-11.512,27.885
						c-4.093-2.386-8.378-4.519-12.855-6.396c-4.477-1.874-9.274-2.814-14.39-2.814c-5.628,0-9.958,1.855-12.983,5.564
						c-3.028,3.709-4.541,8.762-4.541,15.158c0,6.313,1.81,11.813,5.436,16.501c3.623,4.691,9.955,10.022,18.995,15.989
						c12.193,8.187,20.7,16.546,25.519,25.071C1858.58,1152.158,1860.991,1161.879,1860.991,1172.793z"/>
					
						<linearGradient id="SVGID_00000094604738240844241690000015081857371651228298_" gradientUnits="userSpaceOnUse" x1="2069.8401" y1="319.9157" x2="1855.3428" y2="1785.6382">
						<stop  offset="0" style="stop-color:#4F52FF"/>
						<stop  offset="1" style="stop-color:#4042E2"/>
					</linearGradient>
					<path style="fill:url(#SVGID_00000094604738240844241690000015081857371651228298_);" d="M1972.532,1224.343l-10.745-47.2
						h-48.735l-10.745,47.2h-34.793l46.305-187.778h47.2l46.433,187.778H1972.532z M1955.264,1146.315l-9.977-43.491
						c-0.598-2.641-1.941-9.274-4.029-19.891c-2.091-10.617-3.348-17.716-3.773-21.298c-1.11,7.336-2.517,15.414-4.221,24.24
						c-1.708,8.826-6.14,28.973-13.303,60.439H1955.264z"/>
					
						<linearGradient id="SVGID_00000150813273930215894740000008789291539115812229_" gradientUnits="userSpaceOnUse" x1="2181.7378" y1="336.2919" x2="1967.2402" y2="1802.0155">
						<stop  offset="0" style="stop-color:#4F52FF"/>
						<stop  offset="1" style="stop-color:#4042E2"/>
					</linearGradient>
					<path style="fill:url(#SVGID_00000150813273930215894740000008789291539115812229_);" d="M2023.954,1224.343v-187.01h34.793
						v156.567h48.224v30.443H2023.954z"/>
					
						<linearGradient id="SVGID_00000023983147361658402970000010185760533225654663_" gradientUnits="userSpaceOnUse" x1="2285.4299" y1="351.4653" x2="2070.9324" y2="1817.1897">
						<stop  offset="0" style="stop-color:#4F52FF"/>
						<stop  offset="1" style="stop-color:#4042E2"/>
					</linearGradient>
					<path style="fill:url(#SVGID_00000023983147361658402970000010185760533225654663_);" d="M2213.522,1224.343h-84.295v-187.01
						h84.295v30.06h-49.503v44.514h45.921v30.188h-45.921v51.805h49.503V1224.343z"/>
				</g>
			</g>
			
				<linearGradient id="SVGID_00000039094166398820617040000015594694031540381590_" gradientUnits="userSpaceOnUse" x1="1854.3597" y1="268.0615" x2="1179.2495" y2="1156.1532">
				<stop  offset="0" style="stop-color:#09005D"/>
				<stop  offset="1" style="stop-color:#1A0F91"/>
			</linearGradient>
			<path style="fill:url(#SVGID_00000039094166398820617040000015594694031540381590_);" d="M1690.605,487.148
				c-53.017-36.883-99.116-36.152-131.568-26.577c-29.603,8.735-48.79,37.315-45.974,68.052l13.995,152.754l166.533,14.779
				C1693.592,696.156,1794.58,559.481,1690.605,487.148z M1617.37,610.383c-22.934,0-41.525-18.591-41.525-41.524
				c0-22.934,18.591-41.525,41.525-41.525c22.934,0,41.525,18.591,41.525,41.525C1658.895,591.792,1640.303,610.383,1617.37,610.383
				z"/>
			<g>
				<path style="fill:#BDD0FB;" d="M1543.694,617.12c-2.054,0-3.806-1.566-3.997-3.654l-2.229-24.327
					c-0.204-2.21,1.425-4.164,3.634-4.368c2.254-0.211,4.167,1.425,4.368,3.638l2.229,24.327c0.204,2.209-1.424,4.163-3.634,4.368
					C1543.939,617.116,1543.816,617.12,1543.694,617.12z M1539.326,569.447c-2.054,0-3.806-1.566-3.997-3.654l-1.693-18.468
					c-2.684-29.28,15.74-56.542,43.806-64.826c19.876-5.867,40.356-6.707,60.864-2.5c2.174,0.443,3.575,2.57,3.13,4.744
					c-0.445,2.17-2.552,3.559-4.743,3.128c-19.211-3.932-38.378-3.152-56.977,2.335c-24.396,7.201-40.411,30.916-38.078,56.389
					l1.693,18.468c0.204,2.209-1.424,4.164-3.634,4.368C1539.572,569.443,1539.448,569.447,1539.326,569.447z"/>
			</g>
			
				<linearGradient id="SVGID_00000079458496684384299290000018367665446137684103_" gradientUnits="userSpaceOnUse" x1="1928.4142" y1="324.3544" x2="1253.3033" y2="1212.4469">
				<stop  offset="0" style="stop-color:#09005D"/>
				<stop  offset="1" style="stop-color:#1A0F91"/>
			</linearGradient>
			<path style="fill:url(#SVGID_00000079458496684384299290000018367665446137684103_);" d="M1299.771,780.094v-76.8
				c0-26.511,21.973-47.745,48.469-46.837l529.502,18.142c23.499,0.805,42.529,19.353,43.937,42.824l4.425,73.794L1299.771,780.094z
				"/>
			<path style="fill:#BDD0FB;" d="M1497.208,685.395h-22.771c-2.219,0-4.019-1.797-4.019-4.018c0-2.221,1.799-4.019,4.019-4.019
				h22.771c2.219,0,4.019,1.797,4.019,4.019C1501.227,683.598,1499.428,685.395,1497.208,685.395z"/>
			<path style="fill:#BDD0FB;" d="M1328.43,755.978c-2.219,0-4.018-1.797-4.018-4.019v-31.069c0-24.005,19.529-43.533,43.534-43.533
				h83.718c2.219,0,4.019,1.797,4.019,4.019c0,2.221-1.799,4.018-4.019,4.018h-83.718c-19.573,0-35.498,15.925-35.498,35.496v31.069
				C1332.449,754.181,1330.65,755.978,1328.43,755.978z"/>
			
				<linearGradient id="SVGID_00000021083913427355910490000009051123290713074842_" gradientUnits="userSpaceOnUse" x1="1669.2052" y1="274.0279" x2="1586.8307" y2="981.0731">
				<stop  offset="0" style="stop-color:#4F52FF"/>
				<stop  offset="1" style="stop-color:#4042E2"/>
			</linearGradient>
			<path style="fill:url(#SVGID_00000021083913427355910490000009051123290713074842_);" d="M1084.021,799.487
				c1.278-26.594,23.212-47.5,49.837-47.501l925.933-0.025c33.294-0.001,61.758,23.958,67.437,56.765l0.784,4.527
				c6.22,35.933-21.445,68.799-57.913,68.799h-949.953c-21.825,0-39.217-18.248-38.169-40.047L1084.021,799.487z"/>
			
				<linearGradient id="SVGID_00000147904984713195587800000008327529119775949213_" gradientUnits="userSpaceOnUse" x1="2536.7505" y1="1649.3773" x2="1949.4391" y2="3227.4548">
				<stop  offset="0" style="stop-color:#09005D"/>
				<stop  offset="1" style="stop-color:#1A0F91"/>
			</linearGradient>
			<path style="fill:url(#SVGID_00000147904984713195587800000008327529119775949213_);" d="M1975.95,3034.898
				c-7.199,0-14.404-3.401-21.989-10.374c-27.714-25.46-34.947-64.496-36.932-101.694c-12.718,14.225-25.726,28.087-38.587,41.793
				l-7.448-6.989c15.206-16.203,30.617-32.625,45.487-49.59c-1.234-51.053,1.124-102.668,7.006-153.425
				c3.611-31.143,8.815-64.111,22.318-94.186c4.313-9.603,11.471-23.365,23.787-31.98c12.871-9.001,29.759-9.979,41.071-2.381
				c12.705,8.535,16.123,24.682,17.586,36.08c8.599,66.867-17.48,128.135-40.872,167.756c-17.344,29.38-38.338,56.277-60.579,81.853
				c1.151,38.119,6.441,79.855,34.072,105.242c5.802,5.33,10.816,7.914,15.538,7.671c7.724-0.28,14.002-7.817,19.126-15.156
				c23.402-33.517,41.607-69.863,54.332-108.414c1.49-11.615,4.735-23,9.676-33.633l9.596,3.358
				c-2.673,10.999-5.766,21.852-9.264,32.539c-1.3,10.9-0.898,22.005,1.26,32.782c1.144,5.716,5.959,24.566,19.837,27.209
				c10.354,1.972,21.177-5.912,33.144-24.104l49.839-75.765l-6.47,27.851c-2.188,9.413-5.862,31.891,7.212,37.274
				c7.438,3.049,15.338-1.4,24.499-6.561c8.745-4.924,18.66-10.531,29.463-9.074l5.264,0.702l-0.901,5.23
				c-0.496,2.863-4.446,28.05,8.525,30.917c5.902,1.313,10.929-2.83,18.471-9.802c5.703-5.27,12.163-11.246,20.323-13.22
				l2.401,9.928c-5.576,1.35-10.537,5.935-15.788,10.793c-7.521,6.953-16.037,14.826-27.615,12.276
				c-15.009-3.318-18.763-20.13-17.194-36.599c-5.789,0.908-11.731,4.256-17.935,7.751c-10.028,5.639-21.394,12.03-33.397,7.106
				c-9.776-4.023-15.132-13.636-15.671-27.382l-22.494,34.188c-9.24,14.048-23.808,32.27-43.588,28.526
				c-13.593-2.59-24.037-15.764-27.941-35.236c-0.495-2.474-0.908-4.968-1.234-7.468c-12.043,29.763-27.415,58.089-45.979,84.673
				c-6.178,8.855-14.85,19.073-27.126,19.518C1976.502,3034.892,1976.226,3034.898,1975.95,3034.898z M1993.071,2631.115
				c-6.424,0-12.908,2.411-17.626,5.709c-10.245,7.165-16.506,19.292-20.323,27.791c-12.934,28.812-17.972,60.849-21.487,91.18
				c-5.393,46.528-7.794,93.784-7.156,140.654c19.142-22.607,37.071-46.275,52.1-71.735c22.581-38.245,47.768-97.268,39.542-161.259
				c-1.929-14.986-6.108-24.17-13.157-28.905C2001.354,2632.123,1997.224,2631.115,1993.071,2631.115z"/>
		</g>
		<g>
			<g>
				
					<linearGradient id="SVGID_00000150084284174806897150000016300608827447039923_" gradientUnits="userSpaceOnUse" x1="2034.5447" y1="2659.2717" x2="1507.9265" y2="2784.1162">
					<stop  offset="0" style="stop-color:#FEBBBA"/>
					<stop  offset="1" style="stop-color:#FF928E"/>
				</linearGradient>
				<path style="fill:url(#SVGID_00000150084284174806897150000016300608827447039923_);" d="M1722.183,2709.821
					c0,0-22.231-58.523-48.2-53.164c-25.968,5.36-54.376,25.31-54.376,25.31l-41.717,56.418c0,0,117.108,46.134,158.295,19.695
					c0,0,119.617,20.669,270.671-4.117c-21.866-46.165-34.899-92.384-42.552-128.26
					C1887.796,2669.009,1805.392,2701.356,1722.183,2709.821z"/>
				
					<linearGradient id="SVGID_00000007404116454214268920000009814155428653086106_" gradientUnits="userSpaceOnUse" x1="2899.4795" y1="1665.3937" x2="1837.2156" y2="3028.9741">
					<stop  offset="0" style="stop-color:#4F52FF"/>
					<stop  offset="1" style="stop-color:#4042E2"/>
				</linearGradient>
				<path style="fill:url(#SVGID_00000007404116454214268920000009814155428653086106_);" d="M2355.807,2285.329
					c0,0-171.261,215.708-391.503,340.374c7.653,35.876,20.686,82.095,42.552,128.26c114.252-18.748,246.48-63.489,358.58-162.908
					L2355.807,2285.329z"/>
			</g>
			
				<linearGradient id="SVGID_00000154427267684633478430000002969390596469080751_" gradientUnits="userSpaceOnUse" x1="1274.5192" y1="2311.9329" x2="1049.8153" y2="2541.2222">
				<stop  offset="0" style="stop-color:#E1473D"/>
				<stop  offset="1" style="stop-color:#E9605A"/>
			</linearGradient>
			<path style="fill:url(#SVGID_00000154427267684633478430000002969390596469080751_);" d="M1072.219,2313.853l10.633,285.561
				c30.2,10.393,58.952,18.477,86.331,24.513c17.126-55.135,54.836-122.806,85.714-173.122
				C1141.445,2410.701,1072.219,2313.853,1072.219,2313.853z"/>
			
				<linearGradient id="SVGID_00000114781942952855474810000007013226216013854902_" gradientUnits="userSpaceOnUse" x1="1752.214" y1="1994.5542" x2="1318.6599" y2="2632.4019">
				<stop  offset="0" style="stop-color:#FEBBBA"/>
				<stop  offset="1" style="stop-color:#FF928E"/>
			</linearGradient>
			<path style="fill:url(#SVGID_00000114781942952855474810000007013226216013854902_);" d="M1638.637,2308.996
				c-155.627,168.028-281.591,177.918-383.74,141.809c-30.878,50.315-68.588,117.986-85.714,173.122
				c415.598,91.625,513.464-290.44,513.464-290.44L1638.637,2308.996z"/>
			
				<linearGradient id="SVGID_00000079455968278176403870000003605870205090471044_" gradientUnits="userSpaceOnUse" x1="1834.2446" y1="2201.0413" x2="1734.9907" y2="2304.7065">
				<stop  offset="0" style="stop-color:#FEBBBA"/>
				<stop  offset="1" style="stop-color:#FF928E"/>
			</linearGradient>
			<path style="fill:url(#SVGID_00000079455968278176403870000003605870205090471044_);" d="M1670.198,2291.149
				c0,0,17.927-19.251,51.106-13.201c33.178,6.049,62.711,17.577,83.384,0c20.673-17.577,27.94,6.012,27.94,6.012l-61.903,47.058
				L1670.198,2291.149z"/>
			
				<linearGradient id="SVGID_00000072986961139266781040000000164907233543984305_" gradientUnits="userSpaceOnUse" x1="1925.4498" y1="2112.3052" x2="1491.8978" y2="2750.1497">
				<stop  offset="0" style="stop-color:#FEBBBA"/>
				<stop  offset="1" style="stop-color:#FF928E"/>
			</linearGradient>
			<path style="fill:url(#SVGID_00000072986961139266781040000000164907233543984305_);" d="M1633.174,2324.058
				c0,0,12.285-51.362,49.301-44.322c37.017,7.04,121.055,52.741,142.712,44.322c21.657-8.419,49.351-28.57,63.56-21.447
				l-25.026,31.115c0,0,64.338-37.116,75.413-14.311l-107.055,60.244C1832.079,2379.659,1675.453,2363.979,1633.174,2324.058z"/>
			
				<linearGradient id="SVGID_00000143575898272326828140000003991623760352523654_" gradientUnits="userSpaceOnUse" x1="449.8018" y1="3090.6978" x2="1210.2227" y2="2495.9805">
				<stop  offset="0" style="stop-color:#FF928E"/>
				<stop  offset="0.0332" style="stop-color:#FF8D87"/>
				<stop  offset="0.1425" style="stop-color:#FE8076"/>
				<stop  offset="0.2786" style="stop-color:#FE776B"/>
				<stop  offset="0.4696" style="stop-color:#FE7164"/>
				<stop  offset="1" style="stop-color:#FE7062"/>
			</linearGradient>
			<path style="fill:url(#SVGID_00000143575898272326828140000003991623760352523654_);" d="M533.473,3255
				c0,0-53.101-758.106,334.008-993.84c0,0,108.225-71.448,243.083,66.919c134.857,138.368,91.428,282.12-21.744,416.843
				C975.648,2879.645,860.377,3120.298,887.81,3255H533.473z"/>
			
				<linearGradient id="SVGID_00000114766192009015340800000015877366360862744210_" gradientUnits="userSpaceOnUse" x1="1229.2709" y1="1993.3694" x2="902.4031" y2="2388.3345">
				<stop  offset="0" style="stop-color:#FEBBBA"/>
				<stop  offset="1" style="stop-color:#FF928E"/>
			</linearGradient>
			<path style="fill:url(#SVGID_00000114766192009015340800000015877366360862744210_);" d="M1062.58,2054.664
				c-0.102,9.04-129.008,192.135-129.008,192.135s23.138,45.569,133.597,82.567l95.348-196.041L1062.58,2054.664z"/>
			
				<linearGradient id="SVGID_00000150796158086279211760000005865389373026973568_" gradientUnits="userSpaceOnUse" x1="1406.8762" y1="2705.5742" x2="1095.0421" y2="2934.8638">
				<stop  offset="0" style="stop-color:#FEBBBA"/>
				<stop  offset="1" style="stop-color:#FF928E"/>
			</linearGradient>
			<path style="fill:url(#SVGID_00000150796158086279211760000005865389373026973568_);" d="M1011.885,2683.294
				c0,0,244.568,204.827,508.661,115.451c16.38-5.543,34.29-4.34,49.581,3.736l75.925,40.098
				c31.867,16.83,71.333,5.782,89.824-25.151c10.548-17.644,19.55-37.797,21.34-57.103l-148.562-60.143l10.952-18.217
				c0,0-72.534-6.146-91.519,45.839c0,0-138.159,57.465-371.152-198.809C1156.936,2528.997,1051.206,2618.898,1011.885,2683.294z"/>
			
				<linearGradient id="SVGID_00000077319636654795329730000011563986562467553170_" gradientUnits="userSpaceOnUse" x1="1643.2104" y1="943.9741" x2="611.5884" y2="3298.3159">
				<stop  offset="0" style="stop-color:#E1473D"/>
				<stop  offset="1" style="stop-color:#E9605A"/>
			</linearGradient>
			<path style="fill:url(#SVGID_00000077319636654795329730000011563986562467553170_);" d="M998.724,2682.399
				c-1.043,0-2.096-0.299-3.026-0.928c-103.278-69.78-151.862-182.415-152.341-183.544c-1.166-2.751,0.12-5.925,2.868-7.093
				c2.752-1.166,5.929,0.118,7.095,2.868c0.468,1.101,47.89,110.868,148.438,178.803c2.477,1.672,3.128,5.036,1.455,7.512
				C1002.165,2681.564,1000.46,2682.399,998.724,2682.399z"/>
			
				<linearGradient id="SVGID_00000166653440493102680810000003118282046068127634_" gradientUnits="userSpaceOnUse" x1="1661.7101" y1="952.0729" x2="630.089" y2="3306.4126">
				<stop  offset="0" style="stop-color:#E1473D"/>
				<stop  offset="1" style="stop-color:#E9605A"/>
			</linearGradient>
			<path style="fill:url(#SVGID_00000166653440493102680810000003118282046068127634_);" d="M1152.107,2526.748
				c-1.775,0-3.516-0.874-4.552-2.48c-0.31-0.483-31.791-49.492-91.733-156.823c-18.255-32.686-42.212-53.377-71.212-61.498
				c-48.091-13.463-94.481,12.348-94.946,12.61c-2.596,1.472-5.897,0.562-7.373-2.035c-1.476-2.596-0.567-5.897,2.026-7.373
				c2.047-1.161,50.628-28.284,103.112-13.653c31.921,8.908,58.111,31.338,77.843,66.671
				c59.745,106.979,91.071,155.757,91.381,156.238c1.62,2.512,0.895,5.86-1.617,7.479
				C1154.13,2526.47,1153.112,2526.748,1152.107,2526.748z"/>
			<g>
				
					<linearGradient id="SVGID_00000096033546018000289030000009685259318513950378_" gradientUnits="userSpaceOnUse" x1="1155.8218" y1="2190.519" x2="983.3079" y2="1804.6335">
					<stop  offset="0" style="stop-color:#FEBBBA"/>
					<stop  offset="1" style="stop-color:#FF928E"/>
				</linearGradient>
				<path style="fill:url(#SVGID_00000096033546018000289030000009685259318513950378_);" d="M1164.071,1949.748
					c0,0,45.867,105.364,48.947,160.667c3.08,55.302,14.997,91.187-48.947,102.323c-63.944,11.136-117.811-20.718-146.994-75.805
					c0,0-45.724-84.884-35.467-119.646C991.867,1982.524,1164.071,1949.748,1164.071,1949.748z"/>
				
					<linearGradient id="SVGID_00000152239303088324684660000004021802287867267459_" gradientUnits="userSpaceOnUse" x1="1199.7527" y1="1381.9944" x2="1112.9326" y2="1744.5963">
					<stop  offset="0" style="stop-color:#09005D"/>
					<stop  offset="1" style="stop-color:#1A0F91"/>
				</linearGradient>
				<path style="fill:url(#SVGID_00000152239303088324684660000004021802287867267459_);" d="M1038.928,2097.325l3.64-1.605
					c4.634-2.043,6.616-7.559,4.289-12.056c-9.017-17.422-26.595-57.346-3.887-66.659c29.266-12.002,145.191-35.643,170.202-76.776
					c24.038-39.533,2.74-90.565-29.27-105.079c-2.142-0.971-4.667-0.201-5.766,1.879l-2.667,5.047
					c-1.826,3.455-6.929,2.932-8.016-0.822l0,0c-1.043-3.604-5.836-4.303-7.824-1.121c-7.688,12.306-28.445,32.257-83.951,42.501
					c-78.886,14.559-131.041,46.483-132.339,100.994c-0.082,3.463-3.766,5.389-6.725,3.586c-5.825-3.55-15.146-5.215-27.603,5.259
					c-21.664,18.217-12.799,65.471,34.694,104.342c2.256,1.846,2.237,5.369-0.206,6.959c-8.61,5.605-21.445,18.941,11.812,36.719
					c34.399,18.388,60.087,16.88,69.978,15.247c2.461-0.406,4.047-2.788,3.51-5.224l-10.557-47.91
					c-0.598-2.712,1.466-5.28,4.243-5.28H1038.928z"/>
				
					<linearGradient id="SVGID_00000059284100840727800930000012709006434562508178_" gradientUnits="userSpaceOnUse" x1="1072.0016" y1="2227.9915" x2="899.488" y2="1842.1067">
					<stop  offset="0" style="stop-color:#FEBBBA"/>
					<stop  offset="1" style="stop-color:#FF928E"/>
				</linearGradient>
				<path style="fill:url(#SVGID_00000059284100840727800930000012709006434562508178_);" d="M1040.914,2107.435
					c0,0-17.498-67.305-47.674-48.434c-30.176,18.871,15.659,75.413,39.919,77.931L1040.914,2107.435z"/>
			</g>
			
				<linearGradient id="SVGID_00000097460549575069221950000017867241668717269433_" gradientUnits="userSpaceOnUse" x1="1813.5956" y1="2441.6182" x2="1645.6224" y2="2763.9456">
				<stop  offset="0" style="stop-color:#FEBBBA"/>
				<stop  offset="1" style="stop-color:#FF928E"/>
			</linearGradient>
			<path style="fill:url(#SVGID_00000097460549575069221950000017867241668717269433_);" d="M1570.127,2802.482
				c0,0,62.149,60.792,74.143,51.94c4.267-3.149,15.04-14.584,25.481-27.321c7.368-8.987,8.133-21.684,1.813-31.437l-14.658-22.618
				c-13.967-21.552-43.874-26.073-63.247-9.212C1583.888,2772.339,1575.019,2784.654,1570.127,2802.482z"/>
			
				<linearGradient id="SVGID_00000112608606534737801190000003735941297027056039_" gradientUnits="userSpaceOnUse" x1="3274.2969" y1="1957.3827" x2="2212.0295" y2="3320.9675">
				<stop  offset="0" style="stop-color:#4F52FF"/>
				<stop  offset="1" style="stop-color:#4042E2"/>
			</linearGradient>
			<path style="fill:url(#SVGID_00000112608606534737801190000003735941297027056039_);" d="M2556.69,3255
				c0,0-7.627-284.297-166.429-566.338c-49.673-88.222-67.34-190.907-51.85-290.961l17.396-112.372
				c0,0,217.942-73.748,459.524-3.106c0,0,334.972,265.634,111.101,972.777H2556.69z"/>
			
				<linearGradient id="SVGID_00000021840898927337694620000015267187717227978894_" gradientUnits="userSpaceOnUse" x1="2537.698" y1="2266.927" x2="2468.9114" y2="2060.5657">
				<stop  offset="0" style="stop-color:#FEBBBA"/>
				<stop  offset="1" style="stop-color:#FF928E"/>
			</linearGradient>
			<path style="fill:url(#SVGID_00000021840898927337694620000015267187717227978894_);" d="M2392.906,2141.913l56.512,135.766
				c3.569,8.575,11.285,14.686,20.439,16.256c32.583,5.587,111.387,14.316,163.139-19.714c6.167-4.055,7.736-12.438,3.518-18.494
				l-104.406-149.894L2392.906,2141.913z"/>
			<g>
				<path style="fill:#BDD0FB;" d="M2532.288,2779.953c-7.783,2.052-11.649,10.799-7.927,17.936l163.491,313.492
					c2.761,5.294,8.87,7.909,14.607,6.253l534.792-154.407c6.659-1.923,10.498-8.879,8.574-15.538l-92.122-318.909
					c-1.892-6.548-8.664-10.389-15.255-8.651L2532.288,2779.953z"/>
				<path style="fill:#91B3FA;" d="M2566.787,2743.115c-7.657,1.824-12.002,9.928-9.282,17.315l130.871,355.501
					c2.38,6.465,9.351,9.993,15.97,8.082l533.179-153.942c6.635-1.916,10.653-8.642,9.195-15.392l-73.89-342.152
					c-1.554-7.197-8.72-11.711-15.883-10.005L2566.787,2743.115z"/>
				
					<linearGradient id="SVGID_00000031179369993907973120000005793199526400175292_" gradientUnits="userSpaceOnUse" x1="3224.9983" y1="1958.252" x2="2748.3167" y2="3347.4387">
					<stop  offset="0" style="stop-color:#FF928E"/>
					<stop  offset="1" style="stop-color:#FE7062"/>
				</linearGradient>
				<path style="fill:url(#SVGID_00000031179369993907973120000005793199526400175292_);" d="M2613.221,2707.232
					c-9.348,1.422-15.508,10.501-13.375,19.713l88.887,383.776c2.1,9.067,11.377,14.516,20.319,11.934l525.101-151.609
					c8.439-2.437,13.41-11.144,11.217-19.65l-80.753-313.266c-2.079-8.066-9.926-13.25-18.161-11.997L2613.221,2707.232z"/>
			</g>
			
				<linearGradient id="SVGID_00000176044711298410651880000011478694950202819466_" gradientUnits="userSpaceOnUse" x1="3364.7229" y1="2027.8245" x2="2302.457" y2="3391.4075">
				<stop  offset="0" style="stop-color:#4F52FF"/>
				<stop  offset="1" style="stop-color:#4042E2"/>
			</linearGradient>
			<path style="fill:url(#SVGID_00000176044711298410651880000011478694950202819466_);" d="M3038.287,2853.584
				c40.756-307.864-196.494-544.588-196.494-544.588l-141.157,164.561c107.169,133.581,158.112,255.987,181.383,352.127
				C2912.879,2816.696,2987.185,2802.497,3038.287,2853.584z"/>
			<path style="fill:#91B3FA;" d="M2882.016,2829.291c-1.628,0-3.104-1.108-3.502-2.758
				c-28.867-119.251-89.662-237.249-180.694-350.718c-1.247-1.555-0.997-3.826,0.557-5.071c1.557-1.249,3.826-0.995,5.073,0.555
				c91.698,114.303,152.958,233.249,182.074,353.537c0.469,1.936-0.719,3.886-2.656,4.356
				C2882.583,2829.259,2882.298,2829.291,2882.016,2829.291z"/>
			
				<linearGradient id="SVGID_00000056387508767250938560000015626971001096672677_" gradientUnits="userSpaceOnUse" x1="2955.334" y1="2868.0183" x2="2731.7771" y2="3297.9363">
				<stop  offset="0" style="stop-color:#FEBBBA"/>
				<stop  offset="1" style="stop-color:#FF928E"/>
			</linearGradient>
			<path style="fill:url(#SVGID_00000056387508767250938560000015626971001096672677_);" d="M2882.018,2825.684
				c21.629,89.356,19.355,156.024,16.065,187.855c-1.241,12-10.885,21.37-22.92,22.212c-13.671,0.958-32.277,2.213-48.904,3.171
				c-18.277,1.053-38.561-10.499-52.127-20.153c-6.926-4.929-15.884,2.746-12.016,10.315c10.123,19.81,35.819,37.439,53.53,47.81
				c6.442,3.773,5.235,13.404-1.948,15.439l-75.74,21.469c124.449,117.242,206.615-13.939,206.615-13.939
				c54.936-84.884,83.337-167.888,93.714-246.28C2987.185,2802.497,2912.879,2816.696,2882.018,2825.684z"/>
			<g>
				
					<linearGradient id="SVGID_00000093167797416576217540000015226995738817967755_" gradientUnits="userSpaceOnUse" x1="3647.637" y1="4825.7334" x2="3400.3909" y2="5152.8198" gradientTransform="matrix(-0.6854 -0.7281 -0.7281 0.6854 8497.2715 1318.7853)">
					<stop  offset="0" style="stop-color:#FEBBBA"/>
					<stop  offset="1" style="stop-color:#FF928E"/>
				</linearGradient>
				<path style="fill:url(#SVGID_00000093167797416576217540000015226995738817967755_);" d="M2451.35,1934.191
					c-2.374,2.234-100.166,194.276-100.166,194.276l110.84,53.508l119.729-168.246
					C2581.753,2013.729,2491.084,1896.788,2451.35,1934.191z"/>
				
					<linearGradient id="SVGID_00000135667953826711210920000009348249750977424818_" gradientUnits="userSpaceOnUse" x1="2744.6545" y1="1472.7158" x2="2606.7642" y2="1794.4598">
					<stop  offset="0" style="stop-color:#E1473D"/>
					<stop  offset="1" style="stop-color:#E9605A"/>
				</linearGradient>
				<path style="fill:url(#SVGID_00000135667953826711210920000009348249750977424818_);" d="M2531.382,2033.916l-55.281,92.152
					c-0.839,1.398-1.838,2.663-3.031,3.774c-6.58,6.125-29.096,23.941-46.503-0.315c-14.836-20.674-28.756-39.468-43.671-47.22
					c-8.71-4.527-19.429-0.911-23.851,7.852c-9.108,18.052-26.751,54.85-37.833,89.744c-2.778,8.746,1.737,18.136,10.241,21.581
					c22.444,9.093,66.802,25.537,106.164,30.97c6.466,0.893,12.868-1.835,16.716-7.107c16.934-23.2,64.666-88.034,80.956-104.262
					c15.135-15.077,43.068-9.392,55.654-5.776c4.777,1.373,9.865,0.712,14.124-1.853c12.77-7.691,35.055-26.846,14.668-59.275
					c-5.069-8.063-2.484-18.803,5.473-24.037c14.257-9.379,29.729-26.983,14.989-55.492c-14.922-28.86-41.568-31.451-59.716-29.233
					c-8.03,0.982-16.182-3.23-19.263-10.71c-1.37-3.327-4.079-6.163-9.123-7.186c-9.512-1.929-15.755-10.628-13.889-20.153
					c3.201-16.331,0.791-37.547-25.285-51.884c-47.824-26.294-89.716,16.55-100.368,52.717
					c-10.652,36.167,42.82,61.727,76.455,65.993c24.707,3.133,38.253,30.098,43.704,44.193
					C2534.69,2023.503,2534.204,2029.213,2531.382,2033.916z"/>
				
					<linearGradient id="SVGID_00000150101115362410413340000007999914443535520934_" gradientUnits="userSpaceOnUse" x1="3285.5188" y1="5084.7603" x2="3483.8301" y2="4881.2983" gradientTransform="matrix(-0.6854 -0.7281 -0.7281 0.6854 8497.2715 1318.7853)">
					<stop  offset="0" style="stop-color:#FEBBBA"/>
					<stop  offset="1" style="stop-color:#FF928E"/>
				</linearGradient>
				<path style="fill:url(#SVGID_00000150101115362410413340000007999914443535520934_);" d="M2514.527,2154.925
					c0,0,21.266-62.224,48.487-59.939c27.221,2.284,48.645,29.402,14.91,59.887
					C2535.96,2192.792,2514.527,2154.925,2514.527,2154.925z"/>
			</g>
		</g>
		<g>
			
				<linearGradient id="SVGID_00000016779395651056312990000007344240814385803916_" gradientUnits="userSpaceOnUse" x1="1931.9381" y1="1471.0868" x2="1757.1552" y2="2090.7705">
				<stop  offset="0" style="stop-color:#E1473D"/>
				<stop  offset="1" style="stop-color:#E9605A"/>
			</linearGradient>
			
				<circle style="fill:url(#SVGID_00000016779395651056312990000007344240814385803916_);" cx="1767.415" cy="2054.393" r="256.053"/>
			
				<linearGradient id="SVGID_00000013184936244565720650000016361064842613229486_" gradientUnits="userSpaceOnUse" x1="1884.5328" y1="1853.5345" x2="1446.4393" y2="2604.8755">
				<stop  offset="0" style="stop-color:#FF928E"/>
				<stop  offset="1" style="stop-color:#FE7062"/>
			</linearGradient>
			
				<circle style="fill:url(#SVGID_00000013184936244565720650000016361064842613229486_);" cx="1767.415" cy="2054.393" r="247.539"/>
			<path style="opacity:0.58;fill:#FFFFFF;" d="M1567.002,1948.949c-0.719-0.026-1.444-0.215-2.118-0.588
				c-2.301-1.269-3.136-4.162-1.867-6.458c42.801-77.628,124.379-123.846,212.899-120.618c14.126,0.515,28.227,2.302,41.909,5.32
				c2.566,0.563,4.188,3.099,3.623,5.667c-0.565,2.563-3.1,4.214-5.667,3.618c-13.126-2.89-26.656-4.606-40.212-5.1
				c-84.912-3.096-163.167,41.24-204.226,115.702C1570.448,1948.117,1568.74,1949.012,1567.002,1948.949z"/>
			
				<ellipse transform="matrix(0.7071 -0.7071 0.7071 0.7071 -937.4402 1856.778)" style="opacity:0.78;fill:#FFFFFF;" cx="1772.609" cy="2059.979" rx="209.511" ry="209.511"/>
			<g>
				
					<linearGradient id="SVGID_00000052062708073922036090000017721430402513831096_" gradientUnits="userSpaceOnUse" x1="646.2463" y1="4407.2554" x2="344.3373" y2="4970.2144" gradientTransform="matrix(0.9549 0.2968 -0.2968 0.9549 195.8577 -100.4232)">
					<stop  offset="0" style="stop-color:#FF928E"/>
					<stop  offset="1" style="stop-color:#FE7062"/>
				</linearGradient>
				<path style="fill:url(#SVGID_00000052062708073922036090000017721430402513831096_);" d="M1746.387,2214.88l0.831-22.778
					c-23.711-1.817-46.994-8.277-63.41-16.188c-5.862-2.825-8.655-9.62-6.715-15.832l6.56-21.006
					c2.407-7.706,11.018-11.424,18.346-8.033c16.295,7.541,36.527,13.773,58.559,14.577c22.872,0.834,40.211-6.299,40.791-22.192
					c0.523-14.342-12.346-23.351-43.823-33.038c-44.902-14.059-76.745-35.017-75.289-74.945
					c1.315-36.054,28.68-62.615,74.691-68.311l0.831-22.781c0.267-7.33,6.427-13.056,13.756-12.788l13.384,0.488
					c7.331,0.267,13.056,6.426,12.789,13.756l-0.746,20.453c21.94,1.681,37.798,6.021,50.328,10.944
					c6.421,2.522,9.718,9.657,7.672,16.244l-6.037,19.429c-2.328,7.492-10.566,11.342-17.799,8.301
					c-11.526-4.846-27.881-10.05-49.358-10.833c-27.136-0.99-35.297,9.969-35.665,20.049c-0.452,12.405,15.518,21.526,50.397,33.668
					c49.845,16.956,70.014,38.652,68.643,76.255c-1.258,34.501-27.973,64.581-77.876,70.525l-0.93,25.492
					c-0.267,7.331-6.426,13.056-13.756,12.789l-13.385-0.488C1751.846,2228.37,1746.12,2222.211,1746.387,2214.88z"/>
			</g>
		</g>
	</g>
</g>
</svg>
