<?xml version="1.0" encoding="utf-8"?>
<!-- Generator: Adobe Illustrator 27.5.0, SVG Export Plug-In . SVG Version: 6.00 Build 0)  -->
<svg version="1.1" id="Capa_1" xmlns="http://www.w3.org/2000/svg" xmlns:xlink="http://www.w3.org/1999/xlink" x="0px" y="0px"
	 viewBox="0 0 425.197 425.197" style="enable-background:new 0 0 425.197 425.197;" xml:space="preserve">
<g id="Capa_2">
</g>
<path style="fill:#C17845;" d="M213.776,80.465c3.028,11.703,11.865,22.735,24.264,27.432c11.934,4.521,26.338,3.308,37.115-3.133
	c0.709-0.424,1.621-0.252,2.104,0.401c4.357,5.882,10.35,10.738,17.543,13.463c7.823,2.964,16.708,3.463,24.936,1.641
	c1.131-0.25,2.122,0.728,1.828,1.804c-1.78,6.534-1.912,13.456-0.242,19.913c3.027,11.703,11.865,22.735,24.264,27.432
	c6.999,2.651,14.847,3.33,22.316,2.139c-0.001,0-0.002,0-0.003-0.001c-17.614-2.556-26.297-10.173-32.987-17.468
	c-6.69-7.295-10.478-17.18-10.376-27.078c0.038-3.703-0.033-8.469-3.507-9.752c-1.432-0.528-3.015-0.216-4.528-0.017
	c-7.751,1.023-15.882-1.256-21.973-6.158c-6.129-4.932-12.867-14.975-17.974-16.546c-2.526-0.777-8.564,3.68-12.43,4.58
	c-13.575,3.158-28.848,0.057-39.021-9.471c-8.366-7.835-12.556-20.128-10.438-31.242C212.288,65.554,211.921,73.297,213.776,80.465z
	"/>
<path style="fill:#D5975D;" d="M373.217,171.832c-0.255-0.746-1.076-1.156-1.871-0.964c-1.135,0.274-2.284,0.503-3.441,0.688
	c-7.468,1.191-15.317,0.512-22.316-2.139c-12.399-4.697-21.237-15.729-24.264-27.432c-1.67-6.456-1.538-13.378,0.242-19.913
	c0.293-1.076-0.697-2.054-1.828-1.804c-8.228,1.822-17.113,1.322-24.936-1.641c-7.192-2.725-13.186-7.581-17.543-13.463
	c-0.483-0.653-1.396-0.824-2.104-0.401c-10.777,6.441-25.181,7.654-37.115,3.133c-12.399-4.697-21.237-15.729-24.264-27.432
	c-1.854-7.168-1.488-14.911,0.891-22.059c0.804-2.417,1.838-4.767,3.094-7.003c0.528-0.94-0.126-2.097-1.237-2.171
	c-19.322-1.296-39.03,0.686-58.241,6.375c0.273,0.311,0.549,0.616,0.83,0.917c1.933,2.071,4.105,4.042,5.209,6.651
	c1.011,2.39,0.989,5.207-0.098,7.559c1.773,2.26,0.695,4.709-2.169,6.347c-2.406,1.376-6.066,2.293-9.71,2.466
	c-3.922,0.186-8.273-0.437-11.665-1.718c-1.935-0.731-3.583-1.722-4.571-2.862c-1.065-1.228-1.186-2.562-0.735-3.807
	c-1.559-1.276-2.738-2.905-3.07-5.096c-0.012-0.078-0.022-0.155-0.031-0.233c-35.165,17.533-60.729,46.741-75.379,80.275
	c1.749,0.193,3.526,0.217,5.268,0.127c2.667-0.139,5.408-0.51,7.961,0.276c2.462,0.758,4.571,2.63,5.553,5.012
	c0.161,0.391,0.291,0.792,0.392,1.2c1.546,1.041,2.141,3.096,1.74,5.549c-0.455,2.781-2.096,6.151-4.328,8.965
	c-2.402,3.029-5.735,5.781-8.976,7.347c-1.849,0.893-3.72,1.383-5.283,1.278c-1.865-0.126-3.082-1.2-3.764-2.657
	c-0.134-0.287-0.254-0.596-0.355-0.923c-0.787-0.155-1.565-0.446-2.323-0.909c-1.648-1.007-2.723-2.634-3.441-4.394
	c-8.311,28.592-9.156,59.077-1.817,87.445c2.017,7.798,4.642,15.527,7.836,23.092c0.109-2.65,0.088-5.367,1.119-7.8
	c0.975-2.303,2.909-4.191,5.241-5.081c0.289-1.224,0.935-2.092,1.792-2.665c-0.552-1.838-1.068-3.681-1.546-5.529
	c-6.279-24.27-5.988-50.238,0.325-74.888c0.185,7.873,0.939,15.769,2.323,23.646c6.351,36.146,26.081,68.917,53.398,93.158
	c22.847,20.275,50.614,35.47,80.433,41.66c-0.818-2.069-0.782-4.474,0.166-6.487c0.042-0.09,0.087-0.178,0.132-0.266
	c-0.111-0.174-0.215-0.351-0.31-0.529c-1.446-2.725,0.017-5.262,3.129-6.642c2.576-1.143,6.294-1.616,9.871-1.292
	c3.85,0.35,7.979,1.63,11.064,3.483c1.76,1.057,3.195,2.354,3.963,3.719c0.85,1.511,0.712,3.003,0.013,4.303
	c0.046,0.168,0.087,0.34,0.121,0.517c0.421,2.179-0.357,4.352-1.448,6.217c1.944,0.036,3.892,0.031,5.845-0.015
	c41.631-0.984,83.165-20.958,110.206-52.631c11.681-13.682,20.03-29.065,25.971-45.392c-1.229,13.87-4.466,27.503-9.838,40.46
	c0.61-0.108,1.227-0.171,1.844-0.186c2.241-0.056,4.482,0.511,6.417,1.815c1.631,1.1,2.747,2.702,3.332,4.497
	C386.17,254.325,386.73,211.39,373.217,171.832z"/>
<path style="fill:#D5975D;" d="M253.654,375.649c-0.584-0.852-1.03-1.805-1.351-2.791c-0.348-1.07-0.595-2.258-0.653-3.44
	c-31.598,6.779-65.607,4.755-95.594-6.605c-7.706-2.919-15.056-6.469-22.017-10.56c-0.228,0.525-0.501,1.032-0.817,1.514
	c-1.59,2.429-4.23,4.397-6.996,5.269c-0.086,0.027-0.172,0.053-0.258,0.078c7.793,4.622,16.036,8.625,24.687,11.902
	c32.682,12.381,69.723,14.644,104.19,7.365c-0.451-0.739-0.806-1.54-1.075-2.364C253.729,375.896,253.69,375.773,253.654,375.649z"
	/>
<path style="fill:#D5975D;" d="M352.76,308.921c-1.799-1.162-2.97-3.033-3.623-5.039c-0.039-0.121-0.078-0.244-0.114-0.368
	c-0.156-0.228-0.302-0.462-0.439-0.703c-10.205,16.989-24.631,32.29-43.62,44.731c-9.771,6.402-20.413,11.635-31.594,15.672
	c0.146,0.374,0.268,0.757,0.366,1.148c1.471,2.009,2.031,4.625,1.639,7.142c-0.073,0.468-0.177,0.936-0.308,1.4
	c13.783-4.594,26.882-10.817,38.802-18.626c18.888-12.375,33.659-27.332,44.592-43.911c-0.2,0.009-0.4,0.013-0.6,0.012
	C356.074,310.368,354.267,309.894,352.76,308.921z"/>
<path style="fill:#D5975D;" d="M111.722,348.59c-0.181-1.017-0.194-2.069-0.08-3.1c0.222-2.004,0.896-4.216,2.187-5.794
	c0.275-0.337,0.569-0.658,0.878-0.964c-15.508-12.753-28.317-28.37-37.852-45.408c-0.835,0.327-1.709,0.565-2.579,0.738
	c-0.479,0.095-0.954,0.164-1.417,0.209c-3.323,0.317-6.63-0.372-9.884-0.99c11.776,21.554,28.309,41.109,48.649,56.269
	c0.012-0.193,0.029-0.386,0.05-0.578C111.689,348.846,111.704,348.718,111.722,348.59z"/>
<path style="fill:#E2A674;" d="M258.079,225.14c-8.689,0-15.732-3.951-15.732-8.826c0-1.325,0.521-2.582,1.454-3.71
	c-4.256-2.103-7.314-7.914-7.314-14.753c0-8.613,4.85-15.594,10.833-15.594c5.983,0,10.833,6.982,10.833,15.594
	c0,3.681-0.886,7.064-2.368,9.731c0.749-0.061,1.515-0.093,2.294-0.093c1.56,0,3.066,0.127,4.488,0.364
	c-0.979-13.166-4.024-26.726-9.315-40.081c-10.684-26.963-28.612-48.261-49.326-61.325c-0.391,0.45-0.837,0.856-1.315,1.214
	c-1.209,0.907-2.763,1.672-4.286,1.777c-1.524,0.104-3.074-0.175-4.464-0.811c-2.294-1.05-4.125-3.051-4.987-5.384
	c-0.556-1.504-0.709-3.146-0.323-4.76c-19.042-7.821-39.393-8.887-58.078-1.483c-45.222,17.919-63.571,78.656-40.983,135.662
	c22.588,57.005,77.558,88.691,122.78,70.773c30.021-11.895,48.199-42.661,50.419-78.679
	C261.229,225.005,259.682,225.14,258.079,225.14z"/>
<path style="fill:#CA8651;" d="M70.781,261.941c2.059,1.004,4.18,2.585,6.107,4.565c3.181,3.267,5.8,7.57,7.127,11.621
	c0.896,2.735,1.203,5.356,0.698,7.467c-0.428,1.786-1.528,2.849-3.014,3.223c-0.241,0.602-0.567,1.189-0.996,1.753
	c-0.988,1.299-2.355,2.169-3.848,2.754c9.535,17.039,22.343,32.656,37.852,45.408c1.142-1.127,2.503-2.032,3.988-2.639
	c3.117-1.273,6.737-1.227,9.795,0.065c2.065,0.873,3.873,2.313,5.097,4.299c1.153,1.871,1.464,4.047,1.085,6.128
	c0.396,1.885,0.146,3.876-0.634,5.668c6.96,4.091,14.311,7.641,22.017,10.56c29.987,11.36,63.997,13.384,95.594,6.605
	c-0.046-0.936,0.025-1.87,0.257-2.74c0.525-1.97,1.546-3.807,2.948-5.289c2.314-2.445,5.632-3.895,8.951-3.979
	c2.241-0.056,4.482,0.511,6.417,1.815c1.475,0.995,2.529,2.4,3.149,3.987c11.181-4.037,21.822-9.27,31.594-15.672
	c18.989-12.441,33.415-27.742,43.62-44.731c-0.375-0.661-0.677-1.365-0.913-2.088c-0.624-1.917-0.922-4.211-0.397-6.18
	c0.525-1.97,1.546-3.807,2.948-5.289c1.884-1.99,4.433-3.322,7.106-3.793c5.372-12.957,8.609-26.59,9.838-40.46
	c-5.941,16.327-14.29,31.71-25.971,45.392c-27.041,31.674-68.575,51.647-110.206,52.631c-1.953,0.046-3.901,0.051-5.845,0.015
	c-0.012,0.02-0.023,0.04-0.035,0.06c-0.219,0.371-0.453,0.724-0.696,1.054c-1.867,2.536-4.479,4.383-6.945,6.287
	c-2.734,2.111-5.494,4.408-7.053,7.472c-0.068,0.134-0.256,0.103-0.277-0.046c-0.631-4.524-3.434-8.514-6.696-11.738
	c-1.766-1.746-3.739-3.396-4.798-5.643c-0.072-0.154-0.139-0.31-0.202-0.468c-29.819-6.19-57.586-21.385-80.433-41.66
	c-27.317-24.241-47.047-57.012-53.398-93.158c-1.384-7.878-2.138-15.773-2.323-23.646c-6.313,24.65-6.603,50.618-0.325,74.888
	c0.478,1.848,0.994,3.691,1.546,5.529c0.471-0.316,1.006-0.542,1.58-0.689C66.667,260.875,68.723,260.938,70.781,261.941z"/>
<path style="fill:#B56F40;" d="M110.085,259.873c1.806,1.43,4.325,2.233,7.126,2.472c4.147,0.354,8.911-0.529,12.882-2.44
	c2.406-1.158,4.5-2.688,6.04-4.402c1.54-1.713,2.208-3.826,2.301-5.641c0.048-0.931-0.074-1.849-0.41-2.694
	c-0.773,2.647-3.051,4.518-5.405,6.023c-3.001,1.918-6.215,3.572-9.674,4.422c-2.355,0.578-4.838,0.773-7.206,0.251
	c-2.368-0.522-4.614-1.806-6.027-3.776c-0.359-0.501-0.659-1.042-0.897-1.608C107.436,255.177,107.713,257.994,110.085,259.873z"/>
<path style="fill:#B56F40;" d="M327.224,217.622c1.151,2.409,2.674,4.508,4.383,6.054c1.708,1.545,3.819,2.22,5.633,2.319
	c1.899,0.104,3.745-0.495,5.033-2.195c0.201-0.266,0.389-0.552,0.561-0.857c-2.69-0.184-4.995-1.928-6.976-3.827
	c-2.571-2.465-4.935-5.2-6.574-8.361c-1.116-2.152-1.89-4.52-1.94-6.944c-0.05-2.424,0.669-4.909,2.251-6.746
	c0.511-0.594,1.108-1.109,1.763-1.536c-1.525,0.04-2.942,0.707-4.042,2.087c-1.436,1.801-2.246,4.318-2.494,7.118
	C324.456,208.879,325.324,213.645,327.224,217.622z"/>
<path style="fill:#B56F40;" d="M203.547,329.003c2.104-0.887,4.437-1.13,6.717-0.997c3.348,0.197,6.608,1.18,9.714,2.445
	c2.829,1.152,5.647,2.777,6.493,5.853c0.699-1.3,0.837-2.792-0.013-4.303c-0.768-1.365-2.203-2.662-3.963-3.719
	c-3.085-1.853-7.214-3.134-11.064-3.483c-3.576-0.325-7.295,0.149-9.871,1.292c-3.112,1.381-4.575,3.917-3.129,6.642
	c0.095,0.178,0.198,0.355,0.31,0.529C199.745,331.328,201.534,329.851,203.547,329.003z"/>
<path style="fill:#B56F40;" d="M75.694,158.725c-0.82,2.315-2.317,4.345-4.075,6.06c-2.583,2.518-5.726,4.396-8.982,5.947
	c-2.385,1.137-5.007,2.045-7.533,1.549c0.101,0.327,0.221,0.635,0.355,0.923c0.682,1.457,1.899,2.532,3.764,2.657
	c1.562,0.105,3.434-0.385,5.283-1.278c3.24-1.565,6.574-4.318,8.976-7.347c2.231-2.814,3.872-6.184,4.328-8.965
	c0.402-2.453-0.194-4.508-1.74-5.549C76.556,154.685,76.372,156.809,75.694,158.725z"/>
<path style="fill:#B56F40;" d="M211.958,164.503c2.949,1.488,6.815,2.382,10.363,2.442c3.296,0.056,6.668-0.628,8.949-1.848
	c2.521-1.348,3.713-3.489,2.744-5.678c-0.889,1.515-2.319,2.7-3.925,3.433c-1.863,0.85-3.949,1.129-5.996,1.069
	c-3.007-0.089-5.955-0.886-8.773-1.939c-2.707-1.012-5.417-2.495-6.097-5.539c-0.069-0.307-0.11-0.614-0.128-0.921
	c-0.5,0.513-0.893,1.069-1.179,1.618c-0.682,1.31-0.786,2.796,0.163,4.226C208.874,162.563,210.275,163.654,211.958,164.503z"/>
<path style="fill:#B56F40;" d="M158.208,76.033c-2.439,0.914-5.109,1.085-7.7,0.828c-3.807-0.378-7.476-1.648-10.958-3.232
	c-1.476-0.671-2.944-1.46-4.176-2.468c-0.451,1.244-0.33,2.578,0.735,3.807c0.988,1.14,2.635,2.131,4.571,2.862
	c3.393,1.281,7.743,1.904,11.665,1.718c3.644-0.173,7.304-1.09,9.71-2.466c2.865-1.638,3.942-4.087,2.169-6.347
	c-0.057,0.124-0.117,0.247-0.18,0.369C162.84,73.412,160.646,75.118,158.208,76.033z"/>
<path style="fill:#B56F40;" d="M69.889,265.178c2.341,1.108,4.31,2.896,5.921,4.924c2.365,2.979,3.998,6.478,5.278,10.06
	c1.008,2.823,1.71,5.906,0.612,8.656c1.486-0.374,2.586-1.437,3.014-3.223c0.505-2.111,0.198-4.731-0.698-7.467
	c-1.327-4.052-3.946-8.354-7.127-11.621c-1.927-1.979-4.047-3.561-6.107-4.565c-2.058-1.003-4.114-1.066-5.691-0.662
	c-0.574,0.147-1.109,0.373-1.58,0.689c-0.857,0.573-1.503,1.442-1.792,2.665c0.201-0.077,0.405-0.147,0.612-0.209
	C64.812,263.686,67.548,264.07,69.889,265.178z"/>
<path style="fill:#7F3518;" d="M115.739,257.864c2.368,0.522,4.851,0.327,7.206-0.251c3.459-0.849,6.673-2.503,9.674-4.422
	c2.355-1.505,4.633-3.376,5.405-6.023c0.173-0.594,0.271-1.226,0.277-1.902c0.02-2.382-1.236-4.521-2.756-6.27
	c-0.3-0.345-0.612-0.669-0.929-0.967c-2.437-2.289-5.521-3.715-8.462-5.229c-3.261-1.679-6.585-3.546-8.802-6.446
	c-0.097-0.127-0.287-0.058-0.281,0.102c0.212,4.845-1.948,9.551-4.735,13.546c-1.509,2.163-3.251,4.266-3.925,6.816
	c-0.492,1.863-0.343,3.89,0.403,5.662c0.238,0.567,0.538,1.108,0.897,1.608C111.125,256.058,113.371,257.342,115.739,257.864z"/>
<path style="fill:#67220D;" d="M112.714,253.56c1.293,1.741,3.546,2.504,5.705,2.705c2.482,0.23,4.959-0.17,7.288-1.039
	c2.928-1.092,5.623-2.924,7.804-5.173c1.133-1.168,3.04-3.225,2.586-5.053c-0.215-0.865-1.052-1.479-1.93-1.632
	c-0.878-0.153-1.783,0.084-2.597,0.447c-1.887,0.84-3.402,2.319-5.105,3.488c-2.183,1.498-5.05,2.678-7.748,2.264
	c-2.379-0.365-4.351-2.096-4.497-4.428c-0.11-1.753,0.318-2.585,0.696-4.366c0.029-0.137-0.106-0.399-0.53,0.184
	c-0.924,1.269-1.462,2.868-1.966,4.347C111.527,247.917,110.938,251.168,112.714,253.56z"/>
<path style="fill:#7F3518;" d="M329.596,197.064c-1.582,1.837-2.301,4.322-2.251,6.746c0.05,2.424,0.824,4.792,1.94,6.944
	c1.64,3.162,4.004,5.896,6.574,8.361c1.981,1.899,4.286,3.643,6.976,3.827c0.664,0.045,1.352-0.004,2.064-0.17
	c2.32-0.541,4.104-2.265,5.445-4.154c0.265-0.373,0.506-0.752,0.721-1.131c1.651-2.908,2.311-6.24,3.09-9.455
	c0.864-3.564,1.896-7.235,4.193-10.072c0.101-0.124-0.011-0.293-0.165-0.249c-4.659,1.346-9.742,0.355-14.28-1.413
	c-2.457-0.957-4.911-2.156-7.548-2.211c-1.759-0.037-3.526,0.479-4.997,1.439C330.704,195.955,330.107,196.47,329.596,197.064z"/>
<path style="fill:#67220D;" d="M329.531,206.038c0.361,2.467,1.333,4.779,2.725,6.838c1.75,2.589,4.165,4.777,6.865,6.367
	c1.402,0.826,3.85,2.195,5.519,1.324c0.79-0.413,1.19-1.371,1.132-2.26c-0.058-0.89-0.501-1.713-1.045-2.419
	c-1.26-1.636-3.055-2.76-4.591-4.14c-1.97-1.769-3.792-4.278-4.024-6.997c-0.205-2.398,1.013-4.722,3.245-5.413
	c1.677-0.519,2.588-0.299,4.407-0.352c0.14-0.004,0.363-0.197-0.303-0.472c-1.451-0.6-3.131-0.746-4.688-0.888
	c-2.751-0.251-6.049-0.058-7.956,2.231C329.428,201.523,329.217,203.892,329.531,206.038z"/>
<path style="fill:#7F3518;" d="M215.319,161.982c2.818,1.053,5.766,1.85,8.773,1.939c2.047,0.061,4.133-0.219,5.996-1.069
	c1.606-0.733,3.036-1.918,3.925-3.433c0.142-0.243,0.271-0.494,0.385-0.753c0.859-1.969,0.758-4.32-0.214-6.235
	c-1.008-1.987-2.82-3.415-4.449-4.934c-3.009-2.806-5.627-6.31-6.31-10.35c-0.023-0.133-0.192-0.156-0.25-0.034
	c-1.318,2.788-3.733,4.919-6.129,6.883c-2.161,1.771-4.455,3.495-6.063,5.818c-0.209,0.303-0.41,0.625-0.596,0.963
	c-0.798,1.446-1.392,3.088-1.294,4.746c0.018,0.307,0.06,0.614,0.128,0.921C209.903,159.487,212.612,160.97,215.319,161.982z"/>
<path style="fill:#67220D;" d="M229.09,152.071c0.292,1.952-1.03,3.731-2.93,4.454c-2.155,0.82-4.732,0.353-6.8-0.498
	c-1.613-0.664-3.127-1.617-4.834-1.977c-0.737-0.155-1.526-0.191-2.224,0.091c-0.698,0.282-1.281,0.937-1.305,1.69
	c-0.051,1.59,1.888,2.951,3.03,3.716c2.2,1.471,4.751,2.507,7.362,2.891c2.078,0.305,4.194,0.197,6.203-0.432
	c1.748-0.548,3.474-1.577,4.233-3.244c1.043-2.29-0.019-4.871-1.218-6.872c-0.679-1.133-1.406-2.358-2.394-3.242
	c-0.453-0.406-0.518-0.166-0.47-0.058C228.37,149.992,228.871,150.604,229.09,152.071z"/>
<path style="fill:#B56F40;" d="M113.585,171.947c0.056,1.607,0.775,3.207,1.97,4.316c0.724,0.672,1.619,1.158,2.576,1.403
	c0.956,0.245,2.066,0.09,2.991-0.222c0.969-0.326,1.869-0.902,2.424-1.779c0.464-0.734,0.685-1.612,0.682-2.477
	c-0.004-0.99-0.273-1.997-0.743-2.888c-0.041,0.77-0.261,1.537-0.674,2.19c-0.554,0.877-1.455,1.453-2.424,1.779
	c-0.926,0.311-2.035,0.466-2.991,0.222c-0.957-0.245-1.852-0.731-2.576-1.403c-0.498-0.462-0.913-1.01-1.232-1.608
	C113.58,171.636,113.579,171.791,113.585,171.947z"/>
<path style="fill:#B56F40;" d="M141.303,142.866c-1.047,2.758-2.788,5.251-5.024,7.175c-3.692,3.176-8.68,4.773-13.469,4.403
	c-3.233-0.25-6.375-1.397-8.965-3.561c-1.155-0.964-2.081-2.109-2.784-3.369c0.174,3.51,1.636,6.893,4.426,9.223
	c2.591,2.164,5.732,3.311,8.965,3.561c4.788,0.371,9.777-1.226,13.469-4.403c2.237-1.924,3.977-4.417,5.024-7.175
	c1.047-2.756,0.958-6.1,0.343-8.952c-0.281-1.306-0.71-2.589-1.305-3.782C142.24,138.301,142.105,140.756,141.303,142.866z"/>
<path style="fill:#7F3518;" d="M114.819,173.088c0.724,0.672,1.619,1.158,2.576,1.403c0.956,0.245,2.066,0.09,2.991-0.222
	c0.969-0.326,1.869-0.902,2.424-1.779c0.413-0.653,0.633-1.42,0.674-2.19c0.005-0.096,0.008-0.191,0.007-0.287
	c-0.006-1.517-0.633-3.072-1.652-4.189c-0.947-1.037-2.35-1.795-3.742-1.999c-1.681-0.245-3.445,0.385-4.399,1.83
	c-0.623,0.943-0.887,2.031-0.849,3.116c0.033,0.937,0.291,1.872,0.738,2.708C113.906,172.078,114.321,172.626,114.819,173.088z"/>
<path style="fill:#7F3518;" d="M113.845,150.883c2.591,2.163,5.732,3.311,8.965,3.561c4.788,0.371,9.777-1.226,13.469-4.403
	c2.237-1.924,3.977-4.417,5.024-7.175c0.801-2.11,0.937-4.565,0.68-6.88c-0.078-0.708-0.193-1.404-0.337-2.072
	c-0.643-2.984-2.052-5.85-4.469-7.788c-2.025-1.623-4.555-2.573-7.124-2.852c-4.503-0.489-9.329,0.851-12.985,3.503
	c-3.396,2.464-6.115,6.375-7.183,10.437c-0.915,3.48-0.537,7.23,1.175,10.299C111.763,148.773,112.69,149.918,113.845,150.883z"/>
<path style="fill:#67220D;" d="M111.966,142.251c-0.085,0.883-0.006,1.989,0.805,2.347c0.7,0.309,1.534-0.205,1.885-0.885
	c0.351-0.68,0.367-1.476,0.458-2.236c0.298-2.478,1.476-4.784,2.994-6.765c0.789-1.029,7.652-6.606,4.588-7.709
	c-0.743-0.25-1.559,0.06-2.254,0.431c-2.616,1.395-4.694,3.69-6.081,6.31C112.974,136.365,112.25,139.3,111.966,142.251z"/>
<path style="fill:#B56F40;" d="M294.328,265.167c0.902-0.166,1.953-0.162,2.809,0.194c0.856,0.355,1.623,0.926,2.206,1.647
	c0.401,0.496,0.713,1.06,0.93,1.657c0.027-0.143,0.049-0.287,0.065-0.431c0.162-1.501-0.291-3.083-1.254-4.274
	c-0.583-0.721-1.35-1.292-2.206-1.647c-0.856-0.355-1.907-0.359-2.809-0.194c-0.944,0.173-1.858,0.588-2.49,1.329
	c-0.529,0.62-0.852,1.406-0.964,2.211c-0.129,0.921-0.013,1.892,0.304,2.782c0.141-0.71,0.448-1.393,0.919-1.945
	C292.47,265.756,293.384,265.341,294.328,265.167z"/>
<path style="fill:#B56F40;" d="M276.324,285.558c3.855-2.458,8.703-3.276,13.103-2.292c2.971,0.664,5.737,2.15,7.855,4.506
	c0.944,1.05,1.652,2.238,2.137,3.502c0.308-3.284-0.599-6.623-2.88-9.161c-2.118-2.356-4.884-3.842-7.855-4.506
	c-4.4-0.984-9.248-0.167-13.103,2.292c-2.335,1.489-4.286,3.573-5.627,5.996c-1.341,2.421-1.705,5.54-1.514,8.272
	c0.087,1.251,0.314,2.501,0.707,3.688c0.071-2.185,0.525-4.448,1.551-6.302C272.039,289.131,273.989,287.047,276.324,285.558z"/>
<path style="fill:#7F3518;" d="M299.343,267.008c-0.583-0.721-1.35-1.292-2.206-1.647c-0.856-0.355-1.907-0.359-2.809-0.194
	c-0.944,0.173-1.858,0.588-2.49,1.329c-0.471,0.552-0.778,1.235-0.919,1.945c-0.017,0.088-0.033,0.177-0.045,0.265
	c-0.197,1.41,0.178,2.939,0.976,4.113c0.742,1.09,1.944,1.982,3.21,2.357c1.53,0.453,3.253,0.102,4.332-1.113
	c0.704-0.793,1.095-1.769,1.205-2.782c0.095-0.876-0.021-1.779-0.324-2.616C300.056,268.068,299.744,267.504,299.343,267.008z"/>
<path style="fill:#7F3518;" d="M297.283,287.772c-2.118-2.356-4.884-3.842-7.855-4.506c-4.4-0.984-9.248-0.167-13.103,2.292
	c-2.335,1.489-4.286,3.573-5.627,5.996c-1.026,1.854-1.48,4.117-1.551,6.302c-0.022,0.669-0.008,1.331,0.037,1.971
	c0.199,2.859,1.125,5.71,3.113,7.833c1.665,1.779,3.889,2.999,6.239,3.602c4.119,1.056,8.782,0.456,12.533-1.521
	c3.484-1.836,6.533-5.107,8.069-8.739c1.315-3.112,1.464-6.646,0.283-9.727C298.935,290.01,298.227,288.822,297.283,287.772z"/>
<path style="fill:#67220D;" d="M297.875,296.043c0.197-0.809,0.272-1.847-0.434-2.288c-0.609-0.381-1.453-0.014-1.87,0.571
	c-0.417,0.585-0.538,1.322-0.724,2.016c-0.608,2.263-2.01,4.248-3.686,5.886c-0.871,0.851-7.993,5.116-5.293,6.55
	c0.657,0.332,1.457,0.152,2.152-0.099c2.617-0.947,4.855-2.802,6.494-5.051C296.153,301.378,297.218,298.747,297.875,296.043z"/>
<path style="fill:#B56F40;" d="M266.824,136.628c0.474,0.448,1.089,0.738,1.727,0.86c0.73,0.14,1.511,0.087,2.234-0.13
	c-0.562-0.141-1.095-0.414-1.516-0.813c-0.566-0.535-0.861-1.281-0.961-2.042c-0.096-0.727-0.05-1.566,0.268-2.236
	c0.319-0.669,0.806-1.258,1.405-1.695c0.412-0.3,0.875-0.527,1.361-0.675c-0.113-0.028-0.227-0.051-0.342-0.069
	c-1.192-0.191-2.474,0.108-3.464,0.828c-0.6,0.436-1.086,1.025-1.405,1.695c-0.319,0.669-0.364,1.509-0.269,2.236
	C265.963,135.347,266.258,136.093,266.824,136.628z"/>
<path style="fill:#B56F40;" d="M283.873,154.809c1.879,1.169,4.356,1.586,6.545,1.545c1.003-0.019,2.01-0.149,2.974-0.415
	c-1.742-0.145-3.531-0.599-4.97-1.494c-1.88-1.17-3.466-2.812-4.56-4.737c-1.807-3.178-2.264-7.084-1.299-10.558
	c0.651-2.345,1.95-4.494,3.917-6.091c0.877-0.711,1.854-1.229,2.883-1.565c-2.611-0.379-5.314,0.21-7.433,1.929
	c-1.968,1.596-3.266,3.745-3.917,6.091c-0.964,3.474-0.508,7.379,1.299,10.558C280.407,151.997,281.992,153.639,283.873,154.809z"/>
<path style="fill:#7F3518;" d="M268.576,132.267c-0.318,0.669-0.364,1.509-0.268,2.236c0.1,0.761,0.395,1.507,0.961,2.042
	c0.422,0.398,0.955,0.671,1.516,0.813c0.07,0.018,0.14,0.034,0.21,0.047c1.118,0.214,2.355-0.023,3.324-0.613
	c0.901-0.548,1.662-1.472,2.012-2.468c0.423-1.203,0.213-2.593-0.713-3.505c-0.605-0.595-1.369-0.946-2.173-1.075
	c-0.696-0.111-1.422-0.056-2.103,0.153c-0.486,0.149-0.949,0.375-1.361,0.675C269.381,131.008,268.895,131.598,268.576,132.267z"/>
<path style="fill:#7F3518;" d="M282.563,139.15c-0.964,3.474-0.508,7.379,1.299,10.558c1.095,1.925,2.68,3.567,4.56,4.737
	c1.439,0.895,3.228,1.349,4.97,1.494c0.533,0.044,1.062,0.06,1.575,0.051c2.291-0.043,4.606-0.667,6.382-2.168
	c1.488-1.257,2.553-2.984,3.129-4.836c1.01-3.247,0.72-6.995-0.707-10.071c-1.325-2.857-3.814-5.425-6.652-6.798
	c-2.432-1.177-5.249-1.439-7.757-0.621c-1.029,0.336-2.006,0.853-2.883,1.565C284.513,134.655,283.214,136.804,282.563,139.15z"/>
<path style="fill:#67220D;" d="M293.11,132.921c-0.638-0.19-1.464-0.292-1.845,0.254c-0.329,0.471-0.07,1.16,0.38,1.517
	c0.45,0.357,1.034,0.483,1.581,0.66c1.782,0.577,3.311,1.777,4.551,3.182c0.644,0.73,3.762,6.591,5.017,4.492
	c0.292-0.511,0.181-1.157,0.008-1.723c-0.65-2.128-2.041-3.991-3.771-5.391C297.301,134.513,295.243,133.556,293.11,132.921z"/>
<path style="fill:#B56F40;" d="M270.221,359.226c-1.934-1.305-4.176-1.872-6.417-1.815c-3.319,0.083-6.636,1.534-8.951,3.979
	c-1.402,1.481-2.423,3.319-2.948,5.289c-0.232,0.87-0.303,1.803-0.257,2.74c0.059,1.183,0.305,2.37,0.653,3.44
	c0.321,0.986,0.767,1.939,1.351,2.791c-0.544-1.838-0.774-3.967-0.282-5.812c0.525-1.97,1.546-3.808,2.948-5.289
	c2.315-2.445,5.632-3.895,8.951-3.979c2.241-0.056,4.482,0.511,6.416,1.815c0.811,0.547,1.495,1.219,2.05,1.976
	c-0.098-0.391-0.22-0.774-0.366-1.148C272.75,361.626,271.696,360.221,270.221,359.226z"/>
<path style="fill:#7F3518;" d="M273.736,364.361c-0.555-0.758-1.238-1.429-2.05-1.976c-1.934-1.305-4.176-1.871-6.416-1.815
	c-3.319,0.083-6.636,1.534-8.951,3.979c-1.402,1.481-2.423,3.318-2.948,5.289c-0.492,1.845-0.262,3.974,0.282,5.812
	c0.037,0.124,0.075,0.247,0.114,0.368c0.268,0.824,0.624,1.625,1.075,2.364c0.646,1.06,1.488,1.991,2.549,2.676
	c1.507,0.973,3.314,1.448,5.1,1.458c3.131,0.018,6.355-1.244,8.681-3.326c1.809-1.619,3.219-3.901,3.894-6.284
	c0.131-0.464,0.235-0.932,0.308-1.4C275.767,368.986,275.207,366.371,273.736,364.361z"/>
<path style="fill:#67220D;" d="M273.588,368.188c-0.004-0.613-0.136-1.368-0.719-1.557c-0.503-0.163-1.04,0.249-1.234,0.742
	c-0.194,0.492-0.148,1.041-0.157,1.57c-0.03,1.725-0.677,3.394-1.581,4.863c-0.47,0.763-4.795,5.083-2.61,5.625
	c0.529,0.12,1.068-0.152,1.519-0.456c1.7-1.144,2.967-2.869,3.736-4.769C273.311,372.306,273.602,370.237,273.588,368.188z"/>
<path style="fill:#B56F40;" d="M365.59,287.09c-1.934-1.305-4.176-1.871-6.417-1.815c-0.617,0.016-1.234,0.078-1.844,0.186
	c-2.673,0.471-5.222,1.802-7.106,3.793c-1.402,1.481-2.423,3.318-2.948,5.289c-0.525,1.969-0.228,4.263,0.397,6.18
	c0.235,0.723,0.538,1.427,0.913,2.088c0.137,0.241,0.283,0.476,0.439,0.703c-0.544-1.838-0.774-3.967-0.282-5.812
	c0.525-1.97,1.546-3.807,2.948-5.289c2.315-2.445,5.632-3.896,8.951-3.979c2.241-0.056,4.482,0.51,6.417,1.815
	c0.811,0.547,1.495,1.219,2.049,1.976c-0.054-0.215-0.115-0.428-0.183-0.638C368.337,289.792,367.221,288.19,365.59,287.09z"/>
<path style="fill:#7F3518;" d="M367.056,290.249c-1.934-1.305-4.176-1.872-6.417-1.815c-3.319,0.083-6.636,1.534-8.951,3.979
	c-1.402,1.481-2.423,3.318-2.948,5.289c-0.492,1.845-0.262,3.974,0.282,5.812c0.037,0.124,0.075,0.247,0.114,0.368
	c0.653,2.007,1.824,3.878,3.623,5.039c1.507,0.973,3.314,1.447,5.1,1.458c0.2,0.001,0.4-0.003,0.6-0.012
	c2.939-0.134,5.903-1.365,8.081-3.314c2.161-1.934,3.754-4.816,4.202-7.685c0.393-2.517-0.168-5.133-1.639-7.142
	C368.551,291.468,367.867,290.796,367.056,290.249z"/>
<path style="fill:#67220D;" d="M368.238,294.495c-0.503-0.163-1.04,0.249-1.234,0.742c-0.194,0.492-0.148,1.041-0.157,1.57
	c-0.03,1.725-0.677,3.394-1.581,4.863c-0.47,0.763-4.795,5.083-2.61,5.625c0.529,0.12,1.068-0.152,1.519-0.456
	c1.7-1.144,2.967-2.869,3.736-4.769c0.769-1.9,1.059-3.969,1.046-6.019C368.953,295.439,368.821,294.684,368.238,294.495z"/>
<path style="fill:#B56F40;" d="M171.122,282.16c-1.073-0.864-2.572-1.308-3.928-1.447c-0.697-0.072-1.408-0.057-2.095,0.071
	c1.285,0.167,2.664,0.608,3.669,1.417c1.074,0.864,1.93,1.998,2.462,3.27c0.877,2.1,0.866,4.547,0.009,6.621
	c-0.579,1.4-1.543,2.631-2.879,3.469c-0.56,0.352-1.162,0.59-1.783,0.726c1.409,0.245,2.878,0.023,4.136-0.766
	c1.336-0.838,2.3-2.069,2.878-3.469c0.857-2.074,0.869-4.521-0.009-6.621C173.052,284.158,172.196,283.024,171.122,282.16z"/>
<path style="fill:#7F3518;" d="M171.239,292.092c0.857-2.074,0.869-4.521-0.009-6.621c-0.532-1.272-1.388-2.406-2.462-3.27
	c-1.005-0.809-2.384-1.25-3.669-1.417c-0.087-0.011-0.173-0.021-0.259-0.03c-1.419-0.146-2.896,0.066-4.107,0.86
	c-1.014,0.665-1.802,1.652-2.297,2.753c-0.868,1.93-0.971,4.268-0.321,6.276c0.604,1.865,1.949,3.639,3.599,4.701
	c1.448,0.932,3.218,1.302,4.863,0.942c0.62-0.135,1.222-0.374,1.783-0.726C169.696,294.722,170.66,293.492,171.239,292.092z"/>
<path style="fill:#67220D;" d="M164.254,295.147c0.38,0.165,0.883,0.29,1.159-0.018c0.239-0.267,0.131-0.711-0.121-0.966
	c-0.251-0.254-0.603-0.376-0.927-0.527c-1.058-0.491-1.912-1.347-2.573-2.309c-0.343-0.499-1.829-4.355-2.762-3.153
	c-0.219,0.294-0.199,0.702-0.135,1.064c0.242,1.364,0.961,2.619,1.925,3.615C161.784,293.849,162.983,294.595,164.254,295.147z"/>
<path style="fill:#B56F40;" d="M133.587,340.458c-1.224-1.986-3.033-3.427-5.097-4.299c-3.058-1.292-6.678-1.339-9.795-0.065
	c-1.485,0.607-2.846,1.512-3.988,2.639c-0.31,0.305-0.603,0.627-0.878,0.964c-1.29,1.578-1.965,3.79-2.187,5.794
	c-0.114,1.031-0.1,2.083,0.08,3.1c0.262-1.899,0.93-3.934,2.139-5.412c1.291-1.578,2.978-2.831,4.866-3.603
	c3.117-1.273,6.737-1.227,9.795,0.065c2.065,0.873,3.873,2.313,5.097,4.299c0.514,0.833,0.86,1.727,1.053,2.645
	C135.051,344.504,134.74,342.328,133.587,340.458z"/>
<path style="fill:#7F3518;" d="M133.221,353.768c0.316-0.483,0.589-0.99,0.817-1.514c0.78-1.792,1.03-3.783,0.634-5.668
	c-0.193-0.919-0.539-1.812-1.053-2.645c-1.224-1.986-3.033-3.427-5.097-4.299c-3.058-1.292-6.678-1.338-9.795-0.065
	c-1.888,0.771-3.575,2.024-4.866,3.603c-1.209,1.478-1.877,3.513-2.139,5.412c-0.018,0.128-0.034,0.256-0.048,0.382
	c-0.021,0.192-0.038,0.385-0.05,0.578c-0.121,1.917,0.22,3.872,1.274,5.507c0.972,1.508,2.422,2.685,4.046,3.431
	c2.763,1.27,6.104,1.475,9.022,0.626c0.086-0.025,0.173-0.051,0.258-0.078C128.99,358.165,131.63,356.197,133.221,353.768z"/>
<path style="fill:#67220D;" d="M117.553,345.782c0.522-0.084,0.971-0.403,1.431-0.665c1.499-0.853,3.265-1.147,4.99-1.118
	c0.896,0.015,6.817,1.536,6.17-0.62c-0.166-0.516-0.675-0.842-1.166-1.075c-1.851-0.88-3.981-1.091-6.007-0.784
	c-2.026,0.306-3.955,1.111-5.712,2.167c-0.525,0.316-1.108,0.814-0.973,1.412C116.402,345.614,117.031,345.866,117.553,345.782z"/>
<path style="fill:#B56F40;" d="M188.873,103.243c0.862,2.333,2.693,4.335,4.987,5.384c1.39,0.636,2.939,0.915,4.464,0.811
	c1.523-0.104,3.078-0.87,4.286-1.777c0.478-0.358,0.923-0.764,1.315-1.214c0.118-0.136,0.23-0.275,0.338-0.419
	c-1.172,0.831-2.626,1.509-4.053,1.606c-1.524,0.104-3.074-0.175-4.464-0.811c-2.294-1.05-4.125-3.051-4.987-5.384
	c-0.582-1.575-0.723-3.302-0.265-4.989c0.192-0.708,0.503-1.355,0.906-1.932c-1.331,0.86-2.361,2.146-2.791,3.735
	c-0.021,0.076-0.04,0.153-0.058,0.229C188.165,100.097,188.317,101.739,188.873,103.243z"/>
<path style="fill:#7F3518;" d="M190.759,101.439c0.862,2.333,2.693,4.335,4.987,5.384c1.39,0.636,2.939,0.915,4.464,0.811
	c1.427-0.097,2.881-0.776,4.053-1.606c0.079-0.056,0.157-0.113,0.233-0.17c1.265-0.949,2.308-2.232,2.697-3.789
	c0.325-1.304,0.224-2.7-0.2-3.969c-0.745-2.225-2.42-4.206-4.46-5.351c-1.895-1.064-4.323-1.497-6.466-1.12
	c-1.88,0.331-3.6,1.361-4.668,2.89c-0.403,0.577-0.714,1.224-0.906,1.932C190.036,98.137,190.177,99.864,190.759,101.439z"/>
<path style="fill:#67220D;" d="M194.148,93.697c-0.434,0.151-0.937,0.427-0.93,0.887c0.006,0.396,0.429,0.677,0.825,0.695
	c0.396,0.018,0.774-0.147,1.151-0.269c1.23-0.396,2.571-0.341,3.831-0.056c0.655,0.148,4.765,2.171,4.62,0.49
	c-0.043-0.404-0.366-0.72-0.691-0.967c-1.223-0.929-2.753-1.41-4.286-1.495C197.136,92.897,195.598,93.192,194.148,93.697z"/>
<path style="fill:#EA7573;" d="M167.118,225.14c8.689,0,15.732-3.951,15.732-8.826c0-1.408-0.588-2.739-1.633-3.92
	c-1.215,0.679-2.536,1.051-3.918,1.051c-3.44,0-6.505-2.308-8.489-5.906c-0.556-0.033-1.12-0.051-1.691-0.051
	c-8.689,0-15.732,3.951-15.732,8.826C151.386,221.189,158.43,225.14,167.118,225.14z"/>
<path style="fill:#EA7573;" d="M255.785,207.582c-1.985,3.574-5.04,5.863-8.466,5.863c-1.232,0-2.416-0.296-3.519-0.841
	c-0.933,1.128-1.454,2.385-1.454,3.71c0,4.874,7.043,8.826,15.732,8.826c1.604,0,3.151-0.135,4.608-0.385
	c6.44-1.105,11.124-4.466,11.124-8.441c0-3.999-4.742-7.378-11.244-8.461c-1.422-0.237-2.929-0.364-4.488-0.364
	C257.299,207.489,256.534,207.521,255.785,207.582z"/>
<path style="fill:#432918;" d="M177.299,213.445c1.382,0,2.703-0.373,3.918-1.051c4.046-2.261,6.915-7.919,6.915-14.543
	c0-8.613-4.85-15.594-10.833-15.594c-5.983,0-10.833,6.982-10.833,15.594c0,3.661,0.877,7.027,2.344,9.688
	C170.794,211.138,173.859,213.445,177.299,213.445z"/>
<path style="fill:#FFFFFF;" d="M175.261,196.206c1.983,0,3.59-2.314,3.59-5.169c0-2.854-1.608-5.169-3.59-5.169
	c-1.983,0-3.591,2.314-3.591,5.169C171.67,193.892,173.278,196.206,175.261,196.206z"/>
<path style="fill:#432918;" d="M255.785,207.582c1.482-2.667,2.368-6.05,2.368-9.731c0-8.613-4.85-15.594-10.833-15.594
	c-5.983,0-10.833,6.982-10.833,15.594c0,6.839,3.059,12.65,7.314,14.753c1.103,0.545,2.287,0.841,3.519,0.841
	C250.745,213.445,253.8,211.156,255.785,207.582z"/>
<path style="fill:#FFFFFF;" d="M248.872,191.037c0-2.854-1.607-5.169-3.591-5.169c-1.983,0-3.591,2.314-3.591,5.169
	c0,2.855,1.608,5.169,3.591,5.169C247.264,196.206,248.872,193.892,248.872,191.037z"/>
<path style="fill:#432918;" d="M212.598,230.833c5.167,0.001,9.865-2.082,13.254-5.446c3.392-3.36,5.499-8.029,5.498-13.168
	c0-1.105-0.895-2-2-2c-1.105,0-2,0.895-2,2l0,0c-0.001,4.037-1.644,7.675-4.315,10.328c-2.674,2.649-6.352,4.285-10.437,4.286
	c-4.085-0.001-7.763-1.637-10.437-4.286c-2.671-2.653-4.314-6.291-4.315-10.328c0-1.105-0.895-2-2-2c-1.105,0-2,0.895-2,2
	c-0.001,5.139,2.106,9.808,5.498,13.168C202.734,228.751,207.431,230.834,212.598,230.833z"/>
<path style="fill:#7F3518;" d="M203.443,346.126c3.262,3.224,6.066,7.214,6.696,11.738c0.021,0.149,0.209,0.181,0.277,0.046
	c1.559-3.064,4.319-5.361,7.053-7.472c2.465-1.904,5.078-3.751,6.945-6.287c0.243-0.33,0.477-0.683,0.696-1.054
	c0.012-0.02,0.023-0.04,0.035-0.06c1.091-1.865,1.869-4.038,1.448-6.217c-0.034-0.177-0.075-0.349-0.121-0.517
	c-0.847-3.076-3.664-4.701-6.493-5.853c-3.107-1.265-6.366-2.248-9.714-2.445c-2.279-0.134-4.613,0.109-6.717,0.997
	c-2.013,0.849-3.802,2.325-4.806,4.259c-0.046,0.088-0.09,0.176-0.132,0.266c-0.948,2.013-0.984,4.419-0.166,6.487
	c0.063,0.158,0.13,0.314,0.202,0.468C199.704,342.73,201.676,344.38,203.443,346.126z"/>
<path style="fill:#67220D;" d="M205.177,344.894c0.492,0.467,0.572,0.202,0.522,0.08c-0.653-1.584-1.192-2.283-1.389-3.925
	c-0.262-2.185,1.269-4.125,3.41-4.869c2.428-0.844,5.285-0.24,7.562,0.776c1.777,0.792,3.432,1.903,5.323,2.36
	c0.816,0.197,1.694,0.262,2.482-0.029c0.787-0.292,1.458-1.003,1.51-1.841c0.109-1.77-2.008-3.35-3.257-4.239
	c-2.404-1.711-5.213-2.948-8.111-3.46c-2.305-0.407-4.667-0.356-6.927,0.281c-1.966,0.554-3.922,1.645-4.823,3.478
	c-1.237,2.518-0.137,5.429,1.135,7.698C203.334,342.488,204.104,343.876,205.177,344.894z"/>
<path style="fill:#7F3518;" d="M52.78,171.372c0.758,0.464,1.536,0.755,2.323,0.909c2.526,0.497,5.148-0.412,7.533-1.549
	c3.256-1.552,6.4-3.429,8.982-5.947c1.758-1.714,3.256-3.745,4.075-6.06c0.679-1.916,0.863-4.04,0.375-6.003
	c-0.101-0.408-0.231-0.809-0.392-1.2c-0.982-2.381-3.092-4.253-5.553-5.012c-2.553-0.786-5.294-0.415-7.961-0.276
	c-1.743,0.091-3.52,0.066-5.268-0.127c-3.194-0.352-6.293-1.264-8.912-3.059c-0.134-0.092-0.295,0.035-0.238,0.187
	c1.305,3.459,1.13,7.317,0.826,11.019c-0.274,3.339-0.699,6.753-0.037,10.074c0.086,0.432,0.197,0.874,0.333,1.316
	c0.138,0.448,0.294,0.894,0.473,1.333C50.057,168.738,51.133,170.365,52.78,171.372z"/>
<path style="fill:#67220D;" d="M61.443,148.861c1.732,0.629,2.678,0.707,4.125,1.74c1.926,1.375,2.358,3.997,1.398,6.238
	c-1.089,2.541-3.64,4.373-6.096,5.447c-1.917,0.838-4,1.348-5.732,2.52c-0.748,0.506-1.436,1.156-1.775,1.993
	c-0.339,0.837-0.26,1.885,0.369,2.534c1.328,1.369,4.117,0.832,5.728,0.484c3.102-0.67,6.12-2.006,8.627-3.938
	c1.994-1.537,3.665-3.451,4.797-5.708c0.985-1.964,1.535-4.309,0.731-6.353c-1.105-2.808-4.215-4.043-6.94-4.677
	c-1.542-0.359-3.204-0.753-4.79-0.638C61.157,148.557,61.309,148.813,61.443,148.861z"/>
<path style="fill:#7F3518;" d="M135.374,71.16c1.231,1.008,2.7,1.796,4.176,2.468c3.482,1.584,7.151,2.854,10.958,3.232
	c2.592,0.257,5.262,0.087,7.7-0.828c2.438-0.914,4.632-2.621,5.835-4.93c0.063-0.122,0.123-0.245,0.18-0.369
	c1.087-2.353,1.109-5.17,0.098-7.559c-1.104-2.609-3.276-4.58-5.209-6.651c-0.28-0.3-0.557-0.606-0.83-0.917
	c-3.197-3.645-5.792-7.99-6.262-12.768c-0.017-0.171-0.23-0.215-0.314-0.065c-1.917,3.42-5.168,5.911-8.381,8.191
	c-2.897,2.057-5.959,4.041-8.203,6.845c-0.292,0.365-0.575,0.757-0.841,1.169c-1.309,2.026-2.299,4.405-2.009,6.853
	c0.009,0.077,0.02,0.155,0.031,0.233C132.636,68.256,133.815,69.884,135.374,71.16z"/>
<path style="fill:#67220D;" d="M138.124,70.425c2.661,2.06,5.805,3.599,9.085,4.315c2.609,0.57,5.303,0.62,7.907-0.002
	c2.266-0.541,4.545-1.695,5.656-3.743c1.525-2.813,0.405-6.18-0.94-8.825c-0.761-1.497-1.576-3.115-2.751-4.324
	c-0.539-0.555-0.643-0.256-0.591-0.114c0.671,1.835,1.254,2.656,1.403,4.536c0.199,2.502-1.635,4.642-4.11,5.392
	c-2.806,0.85-6.034,0.03-8.582-1.231c-1.988-0.984-3.824-2.327-5.958-2.933c-0.921-0.262-1.919-0.377-2.829-0.081
	c-0.911,0.296-1.708,1.076-1.805,2.029C134.402,67.458,136.742,69.355,138.124,70.425z"/>
<path style="fill:#7F3518;" d="M72.859,294.271c0.463-0.044,0.938-0.113,1.417-0.209c0.87-0.173,1.744-0.411,2.579-0.738
	c1.493-0.585,2.86-1.456,3.848-2.754c0.429-0.564,0.755-1.15,0.996-1.753c1.098-2.75,0.396-5.833-0.612-8.656
	c-1.28-3.582-2.912-7.081-5.278-10.06c-1.61-2.028-3.58-3.816-5.921-4.924c-2.341-1.108-5.077-1.492-7.559-0.753
	c-0.207,0.062-0.41,0.132-0.612,0.209c-2.332,0.89-4.266,2.778-5.241,5.081c-1.031,2.434-1.009,5.15-1.119,7.8
	c-0.007,0.174-0.015,0.348-0.024,0.522c-0.259,5.195-1.512,10.582-4.86,14.535c-0.11,0.131,0.005,0.313,0.17,0.269
	c3.769-0.999,7.797-0.402,11.648,0.313c0.227,0.042,0.454,0.085,0.681,0.128C66.229,293.899,69.536,294.588,72.859,294.271z"/>
<path style="fill:#67220D;" d="M58.015,279.072c0.845-1.75,1.028-2.733,2.267-4.141c1.649-1.874,4.446-2.046,6.694-0.798
	c2.549,1.415,4.198,4.286,5.062,6.979c0.674,2.1,0.986,4.34,2.03,6.283c0.451,0.839,1.059,1.63,1.901,2.076
	c0.842,0.445,1.95,0.474,2.698-0.116c1.579-1.246,1.314-4.23,1.121-5.958c-0.371-3.326-1.449-6.635-3.208-9.472
	c-1.399-2.257-3.228-4.214-5.475-5.643c-1.954-1.243-4.356-2.072-6.586-1.447c-3.064,0.858-4.692,3.989-5.649,6.78
	c-0.541,1.579-1.133,3.281-1.182,4.957C57.665,279.34,57.95,279.207,58.015,279.072z"/>
</svg>
