<?xml version="1.0" encoding="utf-8"?>
<!-- Generator: Adobe Illustrator 27.5.0, SVG Export Plug-In . SVG Version: 6.00 Build 0)  -->
<svg version="1.1" id="Capa_1" xmlns="http://www.w3.org/2000/svg" xmlns:xlink="http://www.w3.org/1999/xlink" x="0px" y="0px"
	 viewBox="0 0 2122 2122" style="enable-background:new 0 0 2122 2122;" xml:space="preserve">
<path style="fill:#0053A1;" d="M340.255,1334.516c42.054,12.03,84.934-4.9,120.23-27.371c5.167-3.289,10.254-6.703,15.28-10.213
	l-9.568-24.238l-14.698,4.501l-1.888,4.784l-1.481-3.752l-23.122,7.081l15.363-26.734l-6.579-16.664l-41.189,12.615l21.464-37.35
	l-35.544-24.338l42.584-6.506l-3.133-42.964l31.637,29.237l31.637-29.237l-3.133,42.964l19.186,2.931l16.352-15.111l-1.27,17.415
	l8.316,1.271l-8.85,6.06l-1.329,18.218l42.583,6.506l-35.543,24.338l6.718,11.69c11.243-9.16,22.402-18.403,33.668-27.402
	c30.392-24.274,61.653-47.793,96.032-66.19c36.535-19.55,76.137-31.958,117.478-35.513c45.084-3.876,90.236,0.972,134.103,11.653
	c44.089,10.735,86.708,26.773,128.468,44.362c38.939,16.401,76.942,35.232,116.969,48.922
	c74.283,25.406,158.017,38.074,234.781,16.119c72.628-20.772,131.662-73.74,168.262-138.839
	c35.561-63.249,52.476-136.507,54.4-208.715c2.209-82.836-7.096-165.982-30.165-245.669
	c-14.819-51.191-35.132-100.631-59.759-147.844c-0.937,0.664-1.901,1.284-2.856,1.868c-23.298,14.318-1.247,52.634,3.493,72.889
	c3.443,14.668,4.839,29.735,6.286,44.701c0.849,9.329,0.649,20.854-7.533,25.394c-1.996,1.148-4.241,1.696-6.087,2.993
	c-6.286,4.49-4.041,14.069-5.288,21.702c-2.047,12.673-17.511,21.203-29.336,16.115c-4.44,9.13-14.318,14.618-24.296,16.364
	c-10.028,1.696-20.255,0.2-30.284-1.247c-9.329-1.397-21.003-5.139-21.603-14.567c-0.25-3.942,1.646-8.332-0.498-11.625
	c-2.694-4.141-9.081-2.844-13.621-4.84c-6.535-2.893-7.633-11.574-7.483-18.708c0.448-21.503,3.143-43.055,1.048-64.408
	c-1.912-20.066-8.772-35.95-22.467-50.758c-11.869-12.834-30.934-16.665-41.537-30.037c-5.849-7.377-7.125-18.101-3.168-26.644
	c1.487-3.212,3.662-6.177,4.325-9.654c0.704-3.696-0.386-7.602,0.587-11.237c0.725-2.708,2.517-4.977,4.115-7.28
	c6.609-9.53,10.432-20.968,10.881-32.557c0.452-11.652-2.205-24.315,3.848-34.281c3.372-5.552,9.25-9.779,10.642-16.123
	c0.968-4.41-0.47-9.044,0.233-13.504c0.698-4.439,3.431-8.27,4.905-12.517c11.718-33.777-35.307-74.946-58.857-90.874
	c-9.972-6.744-21.268-13.274-25.809-24.422c-2.055-5.046-2.53-10.695-5.104-15.498c-6.909-12.892-24.744-14.021-39.301-12.595
	c-19.544,1.914-38.933,5.397-57.921,10.404c-6.91,1.822-14.376,4.288-18.174,10.342c-5.349,8.529-1.139,20.533-6.263,29.2
	c-6.51,11.012-24.466,10.968-30.325,22.338c-2.942,5.711-1.828,12.625-3.331,18.871c-4.332,18.011-26.559,23.419-42.359,33.089
	c-26.469,16.2-37.323,48.369-54.001,74.54c-16.677,26.171-50.594,48.991-77.129,32.9c-5.31-3.22-10.939-7.763-16.852-12.95
	L744.753,580.653l-37.105,32.802l-17.622,15.575h391.372v157.147H703.175l2.366,2.099l31.237,27.557l242.112,214.144H710.939
	l-100.276-88.67l-30.604-27.083l-22.382-19.796v136.653H381.952V901.453l-24.886,22.01l-30.636,27.113l-89.796,79.401h-7.057
	c0.445,0.842,0.75,1.756,0.867,2.676c0.548,3.941-1.097,7.733-2.046,11.575c-0.948,3.841-0.898,8.531,2.096,11.076
	c4.041,3.492,11.873,1.846,13.919,6.785c1.098,2.594-0.249,5.538-0.249,8.382c0,2.844,3.442,5.937,5.338,3.841
	c0.349,10.926,3.043,21.652,5.688,32.279c1.048,4.141,2.095,8.282,3.143,12.423c1.996,8.082,3.742,16.065,5.238,24.097
	c3.592,19.008,9.629,35.521,4.64,54.829c-1.946,7.583-4.64,14.468-2.445,22.251c2.644,9.479,10.277,17.461,13.521,26.94
	c5.065,14.801-3.081,27.874-10.985,39.83l-0.443,0.663C287.807,1308.758,312.719,1326.64,340.255,1334.516z"/>
<path style="fill:#204798;" d="M1905.189,1107.807c-0.58-1.37-1.212-2.724-1.889-4.062c-0.677-1.338-1.398-2.66-2.157-3.962
	c-0.38-0.652-0.769-1.299-1.167-1.941l-0.805-1.278l-0.411-0.634l-0.836-1.258l-0.425-0.624c-0.712-1.036-1.443-2.058-2.187-3.064
	l-0.448-0.602c-0.75-0.999-1.513-1.983-2.284-2.949c-1.721-2.195-3.517-4.353-5.201-6.585c-0.421-0.558-0.835-1.122-1.239-1.69
	c-0.337-0.475-0.665-0.955-0.986-1.44l-0.397-0.609l-0.561-0.898c-0.294-0.484-0.581-0.972-0.854-1.47l-0.491-0.927
	c-0.416-0.816-0.797-1.644-1.15-2.484l-0.343-0.844l-0.431-1.135c-0.739-2.029-1.344-4.111-1.891-6.218
	c-0.206-0.79-0.402-1.584-0.596-2.379c-0.129-0.53-0.256-1.061-0.383-1.593c-0.127-0.531-0.253-1.063-0.38-1.595
	c-0.254-1.064-0.51-2.127-0.78-3.187c-0.135-0.53-0.272-1.059-0.415-1.586c-0.355-1.319-0.737-2.628-1.166-3.922
	c-2.794-8.232-8.681-16.514-17.311-17.711c-3.031-0.393-6.504-0.028-9.531-0.415l-0.991-0.159l-0.951-0.227
	c-0.774-0.221-1.498-0.526-2.153-0.947l-0.478-0.338l-0.451-0.385l-0.812-0.921l-0.527-0.852l-0.108-0.218l-0.189-0.443
	l-0.219-0.681l-0.182-0.933l-0.049-0.477l-0.026-0.727c0.001-0.489,0.035-0.987,0.094-1.492l0.067-0.507l0.177-1.025l0.105-0.518
	l0.114-0.521l0.059-0.261l0.124-0.524l0.063-0.263l0.128-0.527l0.255-1.057l0.124-0.529l0.06-0.265l0.115-0.529l0.107-0.528
	l0.049-0.264l0.091-0.527l0.078-0.525l0.087-0.784l0.051-1.036c0.006-0.542-0.026-1.073-0.092-1.593l-0.099-0.629l-0.311-1.263
	l-0.28-0.806l-0.403-0.921l-0.732-1.305c-0.311-0.488-0.654-0.959-1.027-1.413l-0.767-0.866c-0.88-0.926-1.885-1.771-2.978-2.526
	l-0.668-0.444l-1.037-0.626l-0.713-0.39l-1.266-0.62l-0.844-0.368l-0.874-0.345l-0.385-0.14c-0.55-0.196-1.105-0.374-1.663-0.533
	l-0.568-0.156l-0.888-0.218c-0.523-0.118-1.046-0.219-1.567-0.303l-1.167-0.166l-1.173-0.136c-0.783-0.081-1.569-0.145-2.358-0.197
	c-1.041-0.068-2.084-0.116-3.13-0.154l-0.848-0.029c-0.512-0.017-1.024-0.033-1.536-0.048l-0.816-0.025
	c-0.518-0.016-1.036-0.034-1.554-0.054l-0.06-0.002c-1.288-0.049-2.573-0.115-3.85-0.219c-0.571-0.046-1.142-0.101-1.71-0.165
	c-0.707-0.08-1.411-0.175-2.112-0.289l-1.042-0.185c-0.46-0.089-0.919-0.185-1.375-0.293c-0.761-0.18-1.515-0.389-2.264-0.632
	l-1.122-0.4l-0.738-0.311l-1.088-0.531l-0.709-0.395l-0.349-0.208l-1.024-0.671l-0.66-0.482l-0.64-0.508l-0.918-0.809l-1.136-1.156
	l-0.526-0.608l-0.496-0.627l-0.684-0.97c-0.359-0.548-0.681-1.113-0.962-1.687c-0.338-0.69-0.617-1.396-0.828-2.111l-0.266-1.08
	l-0.174-1.271l-0.018-1.276l0.063-0.728l0.119-0.726l0.244-0.947l0.22-0.626l0.418-0.928l0,0c0.549,0.156,1.095,0.219,1.632,0.201
	l1.187-0.172l0.764-0.251l0.734-0.35l1.034-0.692l0.936-0.864l0.56-0.657l0.619-0.897l0.517-0.964l0.218-0.502l0.345-1.033
	l0.125-0.527l0.129-0.85l0.03-0.426l0.011-0.429c0.007-0.998-0.11-1.978-0.323-2.94l-0.205-0.82l-0.248-0.811
	c-0.892-2.69-2.428-5.239-3.925-7.671c-2.345-3.942-4.689-8.232-4.191-12.772c1.247-11.874,19.458-19.558,24.945-30.234
	c3.193-6.236,4.839-13.308,4.796-20.343c-0.005-0.659-0.023-1.319-0.057-1.977c-0.045-0.878-0.117-1.753-0.216-2.625l-0.169-1.305
	l-0.099-0.65l-0.229-1.295c-0.25-1.291-0.561-2.569-0.934-3.828c-0.187-0.63-0.389-1.255-0.606-1.874l-0.224-0.618
	c-0.761-2.054-1.697-4.044-2.811-5.947l-0.544-0.894l-0.658-1.034l-0.42-0.635c-0.341-0.509-0.689-1.014-1.042-1.519l-0.517-0.734
	c-0.566-0.798-1.139-1.593-1.709-2.389l-0.703-0.988c-0.884-1.25-1.746-2.508-2.543-3.793l-0.772-1.295
	c-1.37-2.392-2.467-4.895-3.015-7.622c-0.998-5.039-0.149-10.876-3.393-14.917c-5.737-7.134-18.409-2.295-25.643-7.933
	c-2.582-2.026-3.895-4.883-4.776-8.046l-0.221-0.832c-0.247-0.978-0.462-1.979-0.666-2.99l-0.26-1.304l-0.086-0.436l-0.174-0.871
	l-0.179-0.869l-0.286-1.297l-0.207-0.857l-0.224-0.847l-0.244-0.836l-0.267-0.823c-0.234-0.68-0.495-1.344-0.793-1.987l-0.376-0.761
	l-0.414-0.739l-0.456-0.714l-0.5-0.688c-0.749-0.963-1.591-1.785-2.51-2.491l-0.944-0.668l-0.49-0.306l-1.014-0.563l-0.523-0.258
	l-1.075-0.471l-0.551-0.215c-0.556-0.208-1.124-0.397-1.703-0.57c-0.579-0.173-1.169-0.331-1.767-0.475l-0.601-0.14
	c-1.006-0.228-2.035-0.424-3.075-0.602l-1.253-0.207c-0.629-0.101-1.261-0.197-1.893-0.293c-0.633-0.095-1.266-0.191-1.898-0.289
	c-0.632-0.098-1.263-0.198-1.89-0.304l-0.626-0.108l-1.243-0.232c-0.824-0.162-1.638-0.34-2.437-0.542l-1.187-0.322
	c-0.587-0.171-1.164-0.358-1.729-0.564l-1.114-0.438c-2.193-0.93-4.172-2.197-5.8-4.011c-1.197-1.335-2.064-2.781-2.675-4.318
	l-0.412-1.168l-0.323-1.2l-0.241-1.228l-0.092-0.625l-0.132-1.268c-0.099-1.28-0.102-2.595-0.04-3.937
	c0.021-0.447,0.048-0.897,0.082-1.349c0.033-0.453,0.073-0.907,0.118-1.364c0.044-0.457,0.094-0.917,0.147-1.378l0.082-0.693
	c0.056-0.462,0.116-0.927,0.177-1.392c0.214-1.629,0.451-3.273,0.661-4.916c0.211-1.65,0.394-3.3,0.498-4.934l0.058-1.087
	c0.022-0.541,0.034-1.081,0.035-1.618c0.001-0.895-0.031-1.782-0.105-2.658l-0.11-1.047c-0.09-0.715-0.21-1.424-0.366-2.122
	c-0.065-0.291-0.137-0.581-0.214-0.868c-0.234-0.864-0.526-1.711-0.888-2.54l-0.401-0.854c-0.282-0.562-0.594-1.111-0.928-1.646
	c-0.67-1.072-1.435-2.096-2.257-3.088l-0.947-1.104l-0.325-0.363c-0.436-0.483-0.88-0.96-1.33-1.433
	c-0.45-0.474-0.905-0.943-1.359-1.411c-1.137-1.17-2.275-2.332-3.338-3.517c-0.426-0.474-0.84-0.952-1.237-1.435l-0.295-0.364
	c-0.389-0.486-0.759-0.98-1.108-1.481l-0.257-0.378l-0.487-0.766l-0.448-0.781l-0.406-0.798l-0.186-0.405l-0.335-0.826l-0.149-0.421
	l-0.256-0.857c-0.229-0.869-0.372-1.772-0.414-2.716c-0.081-2.007,0.328-3.898,1.036-5.72l0.347-0.837l0.385-0.828l0.641-1.228
	c0.524-0.949,1.106-1.886,1.714-2.817l0.527-0.797l0.536-0.796c0.36-0.53,0.722-1.06,1.083-1.591l0.538-0.797l0.531-0.799
	l0.519-0.804l0.254-0.403l0.493-0.811l0.471-0.817l0.444-0.824l0.414-0.832l0.379-0.841l0.34-0.852l0.297-0.863l0.25-0.876
	l0.198-0.888c0.114-0.597,0.191-1.203,0.226-1.821c0.069-1.372-0.076-2.703-0.373-4.005l-0.176-0.708l-0.099-0.352l-0.217-0.7
	l-0.118-0.349c-0.281-0.812-0.61-1.616-0.971-2.416l-0.316-0.684l-0.218-0.453l-0.28-0.57c-0.226-0.453-0.459-0.906-0.696-1.359
	l-0.537-1.019l-0.181-0.34l-0.36-0.68l-0.359-0.681c-0.774-1.479-1.522-2.969-2.138-4.494l-0.497-1.326l-0.062-0.181l-0.166-0.516
	c-0.161-0.517-0.302-1.039-0.419-1.567l-0.207-1.009l-0.181-1.027c-0.074-0.46-0.141-0.924-0.2-1.394
	c-0.059-0.47-0.112-0.944-0.157-1.422l-0.063-0.721c-0.096-1.207-0.152-2.44-0.173-3.694c-0.008-0.501-0.011-1.007-0.008-1.515
	c0.005-1.016,0.03-2.044,0.073-3.081l0.035-0.78c0.064-1.303,0.153-2.619,0.262-3.944l0.067-0.796
	c0.139-1.594,0.304-3.2,0.483-4.808c0.059-0.536,0.121-1.072,0.183-1.608l0.094-0.804c0.064-0.536,0.128-1.072,0.193-1.607
	l0.098-0.803c0.065-0.534,0.131-1.068,0.197-1.601c0.065-0.533,0.131-1.065,0.196-1.595c0.065-0.531,0.129-1.06,0.193-1.588
	c0.095-0.791,0.189-1.579,0.278-2.361c0.09-0.782,0.176-1.56,0.257-2.332c0.081-0.772,0.158-1.538,0.228-2.296l0.068-0.756
	c0.044-0.502,0.085-1.002,0.122-1.498l0.053-0.74c0.034-0.492,0.064-0.98,0.09-1.464c0.065-1.21,0.104-2.395,0.112-3.548
	c0.037-3.405-0.002-6.82-0.141-10.234c-0.186-4.55-0.549-9.095-1.142-13.603c-0.593-4.508-1.415-8.978-2.521-13.379
	c-0.276-1.1-0.57-2.196-0.883-3.287c-1.25-4.364-2.797-8.652-4.692-12.83c-0.543-1.197-1.113-2.382-1.704-3.555
	c-1.184-2.347-2.457-4.651-3.776-6.932c-0.33-0.571-0.663-1.139-0.998-1.707c-0.754-1.278-1.52-2.55-2.29-3.82
	c-1.009-1.666-2.026-3.329-3.034-4.996c-0.375-0.62-0.747-1.241-1.119-1.862c-0.915-1.531-1.818-3.067-2.694-4.618
	c-1.222-2.151-2.398-4.328-3.532-6.526c-1.134-2.198-2.228-4.418-3.285-6.655c-0.265-0.559-0.527-1.12-0.787-1.681
	c-1.119-2.415-2.196-4.849-3.242-7.299c-0.415-0.97-0.825-1.941-1.229-2.916c-0.951-2.291-1.876-4.593-2.782-6.905
	c-1.358-3.467-2.672-6.955-3.959-10.449c-0.214-0.583-0.428-1.165-0.642-1.748c-1.28-3.498-2.537-7.001-3.79-10.5
	c-0.745-2.066-1.489-4.137-2.225-6.213c-0.256-0.72-0.509-1.441-0.763-2.163l-0.265-0.759c-0.467-1.339-0.929-2.681-1.382-4.025
	c-0.331-0.981-0.657-1.963-0.978-2.947c-0.321-0.984-0.637-1.97-0.947-2.957c-0.202-0.643-0.4-1.286-0.596-1.931
	c-0.255-0.839-0.507-1.68-0.751-2.522c-0.144-0.496-0.286-0.993-0.427-1.49c-0.421-1.491-0.823-2.987-1.202-4.487
	c-0.127-0.5-0.251-1-0.373-1.502c-0.243-1.002-0.476-2.007-0.698-3.013c-0.554-2.516-1.038-5.047-1.435-7.593
	c-0.159-1.019-0.304-2.04-0.435-3.063c-0.13-1.024-0.245-2.05-0.345-3.079c-1.797-18.708,1.696-37.467,5.189-55.976
	c1.346-7.283,2.694-14.617,2.593-22.051c-0.019-0.948-0.061-1.897-0.128-2.845c-0.066-0.948-0.158-1.895-0.272-2.84
	c-0.115-0.945-0.254-1.888-0.417-2.828c-0.489-2.818-1.192-5.605-2.108-8.318c-0.61-1.81-1.315-3.587-2.113-5.32l-0.546-1.139
	c-0.285-0.567-0.588-1.128-0.914-1.675l-0.682-1.073l-0.555-0.77l-0.595-0.734l-0.639-0.691l-0.685-0.642l-0.734-0.587l-0.787-0.524
	c-0.344-0.202-0.707-0.377-1.084-0.524c-0.126-0.049-0.252-0.095-0.381-0.138l-0.624-0.182l-0.317-0.072l-1.029-0.148l-0.518-0.025
	c-2.016-0.034-3.992,0.686-5.177,2.286c-0.387,0.524-0.667,1.101-0.891,1.708c-0.223,0.607-0.388,1.245-0.544,1.89l-0.233,0.971
	l-0.122,0.484l-0.28,0.957c-0.156,0.472-0.341,0.933-0.575,1.372c-4.091,7.683-17.361,1.547-24.097,7.085
	c-2.797,2.277-3.667,5.778-4.031,9.575l-0.084,0.997l-0.035,0.502l-0.06,1.01l-0.026,0.506l-0.049,1.015
	c-0.047,1.015-0.094,2.028-0.165,3.023c-0.047,0.663-0.105,1.318-0.182,1.96c-0.076,0.642-0.171,1.271-0.291,1.882l-0.201,0.902
	l-0.116,0.44c-0.652,2.325-1.806,4.306-3.939,5.628c-1.196,0.75-2.532,1.138-3.914,1.417l-0.32,0.063l-0.966,0.172l-0.324,0.054
	l-1.296,0.22l-0.323,0.059c-0.86,0.162-1.711,0.358-2.529,0.646l-0.305,0.112c-2.372,0.888-4.157,2.385-5.546,4.277l-0.474,0.684
	c-0.458,0.7-0.871,1.444-1.245,2.227c-0.748,1.565-1.344,3.275-1.856,5.057l-0.25,0.897c-0.122,0.451-0.238,0.905-0.352,1.362
	l-0.112,0.458c-0.185,0.764-0.362,1.535-0.535,2.305l-0.103,0.462l-0.205,0.924l-0.102,0.461c-0.102,0.46-0.204,0.919-0.307,1.376
	l-0.103,0.456c-0.139,0.606-0.28,1.207-0.427,1.8c-0.146,0.593-0.298,1.177-0.457,1.751c-1.996,7.184-5.937,13.62-9.878,19.956
	c-3.617,5.862-7.234,11.712-10.857,17.561c-3.624,5.849-7.253,11.699-10.895,17.561c-0.686,1.123-1.386,2.255-2.131,3.354
	c-1.637,2.419-3.485,4.678-5.852,6.324c-1.253,0.879-2.619,1.555-4.034,2.149c-2.358,0.989-4.853,1.749-7.192,2.841
	c-0.458,0.209-0.91,0.431-1.356,0.666c-1.114,0.587-2.185,1.253-3.207,1.99l-1.203,0.917c-1.178,0.949-2.282,1.996-3.298,3.122
	l-0.501,0.57c-0.658,0.769-1.276,1.572-1.851,2.405c-1.724,2.5-3.057,5.271-3.899,8.19c-0.998,3.492-1.198,7.583,0.998,10.527
	l0.679,0.764l0.528,0.436l0.88,0.539c0.727,0.369,1.527,0.603,2.328,0.691l0.639,0.039l0.012,0l0.998-0.073
	c0.87-0.139,1.679-0.478,2.327-1.038l0.838-1.008l0,0.001l0.001-0.001l-0.017,0.079l-0.074,0.339l-0.045,0.181l-0.067,0.251
	l-0.051,0.176l-0.082,0.257l-0.055,0.166l-0.116,0.316l-0.103,0.258l-0.078,0.188l-0.103,0.23l-0.062,0.133l-0.13,0.266
	l-0.023,0.046c-1.361,2.666-3.728,4.835-6.314,6.669c24.627,47.213,44.94,96.653,59.759,147.844
	c23.068,79.688,32.373,162.833,30.165,245.669c-1.925,72.208-18.84,145.466-54.4,208.715
	c-36.6,65.099-95.634,118.067-168.262,138.839c-76.764,21.955-160.499,9.287-234.781-16.119
	c-40.027-13.689-78.03-32.521-116.969-48.922c-41.76-17.589-84.38-33.626-128.468-44.362
	c-43.867-10.681-89.018-15.529-134.103-11.653c-41.341,3.555-80.944,15.963-117.478,35.513
	c-34.379,18.397-65.64,41.916-96.032,66.19c-11.266,8.998-22.426,18.241-33.668,27.402l14.745,25.659l-33.811-10.355
	c-3.941,3.1-7.905,6.167-11.898,9.189l-11.299,28.62l-6.25-15.83c-5.026,3.51-10.113,6.924-15.28,10.213
	c-35.295,22.471-78.176,39.4-120.23,27.371c-27.535-7.876-52.448-25.758-72.396-46.892c-2.751,4.109-5.862,8.321-8.277,12.688
	l-0.108,0.194l-0.419,0.785l-0.155,0.292l-0.381,0.761l-0.155,0.312l-0.498,1.071c-3.592,8.053-7.132,15.599-12.705,22.544
	c-4.005,4.99-8.877,10.151-8.91,16.55c-0.012,2.32,0.639,4.607,0.603,6.927c-0.061,3.931-2.063,7.526-3.357,11.238
	c-2.783,7.992-1.741,18.03,4.899,23.276c2.378,1.879,5.251,2.993,8.003,4.264c5.502,2.543,10.669,5.809,15.325,9.688
	c3.954,3.293,7.712,7.128,12.602,8.729l0.429,0.134c0.717,0.214,1.449,0.381,2.189,0.52l0.444,0.081l0.895,0.145l0.449,0.067
	c1.048,0.152,2.102,0.28,3.143,0.438c0.595,0.09,1.186,0.19,1.77,0.309c0.584,0.119,1.159,0.258,1.725,0.427
	c0.989,0.295,1.945,0.679,2.849,1.208c5.243,3.06,7.368,10.152,12.938,12.568c5.266,2.285,11.598-0.521,17.016,1.379
	c5.488,1.924,8.431,8.055,13.604,10.71c5.653,2.902,12.57,1.048,18.757,2.494c2.662,0.623,5.184,1.858,7.902,2.14
	c4.224,0.439,8.398-1.51,11.656-4.235c6.886-5.761,10.266-14.565,15.134-22.11c4.779-7.409,11.175-13.759,18.598-18.515
	c7.224-4.629,15.286-10.992,24.389-10.028c6.534,0.692,12.954,4.745,19.257,2.892c6.382-1.876,9.521-8.844,14.163-13.609
	c15.805-16.228,42.392-4.182,64.398,1.189c28.039,6.844,59.09-0.006,81.647-18.012c16.502-13.173,28.137-31.436,43.357-46.072
	c21.828-20.991,49.439-14.206,67.835-33.65c1.435-1.512,3.017-2.766,4.718-3.813l1.035-0.603c1.921-1.061,3.978-1.883,6.127-2.532
	l1.182-0.337l1.199-0.306l1.215-0.276l1.229-0.249c1.03-0.197,2.072-0.369,3.125-0.521c0.632-0.091,1.266-0.175,1.904-0.254
	l1.278-0.151l0.641-0.07l1.286-0.132l0.644-0.063l1.29-0.12l0.645-0.058c0.86-0.076,1.72-0.15,2.579-0.224
	c2.575-0.222,5.134-0.449,7.622-0.767c14.568-1.896,30.084-7.234,43.754-12.522c0.601-0.231,1.204-0.476,1.809-0.73l1.214-0.522
	l1.219-0.545l1.224-0.563l1.23-0.577l1.235-0.586l0.619-0.295c0.62-0.295,1.241-0.592,1.865-0.886
	c1.247-0.589,2.502-1.171,3.762-1.727l0.631-0.275c0.632-0.272,1.265-0.537,1.899-0.792l1.271-0.495
	c0.849-0.32,1.7-0.618,2.554-0.89c1.068-0.339,2.139-0.635,3.214-0.877l1.292-0.263c0.862-0.157,1.726-0.276,2.593-0.351
	l1.301-0.079l0.652-0.013c0.87-0.005,1.741,0.037,2.614,0.136l0.655,0.084l1.312,0.231l0.657,0.149
	c1.534,0.374,3.072,0.932,4.614,1.711l1.323,0.721c9.23,5.438,14.817,18.41,25.494,18.161c0.474-0.013,0.939-0.052,1.396-0.114
	c0.457-0.063,0.906-0.15,1.348-0.259l0.657-0.18l1.283-0.451l1.245-0.563l0.609-0.319c0.605-0.331,1.199-0.697,1.783-1.09
	c0.584-0.393,1.158-0.813,1.725-1.252l0.873-0.698l0.719-0.598l0.643-0.551c1.104-0.958,2.191-1.956,3.281-2.934
	c0.545-0.489,1.09-0.973,1.639-1.445c0.548-0.471,1.1-0.931,1.656-1.37l1.177-0.838l0.626-0.387
	c0.637-0.376,1.307-0.718,1.997-1.021l1.05-0.427l0.714-0.25l0.722-0.223l1.092-0.28l0.731-0.15l0.73-0.118l0.727-0.087
	c4.348-0.42,8.394,0.937,9.741,4.979c0.998,2.993,0,6.286,0.748,9.329c0.231,0.911,0.596,1.721,1.071,2.434l0.377,0.517l0.203,0.246
	l0.434,0.464l0.717,0.631l0.519,0.377l0.271,0.176c0.549,0.343,1.142,0.636,1.768,0.879l0.637,0.228l0.725,0.213l0.606,0.146
	l0.343,0.07l0.696,0.116l0.674,0.082l0.394,0.036c0.48,0.037,0.964,0.054,1.451,0.051l1.101-0.039l1.103-0.103l0.732-0.104
	l1.089-0.208l0.716-0.172l1.054-0.308l0.345-0.116c0.686-0.238,1.35-0.514,1.982-0.828l1.251-0.655
	c0.62-0.341,1.231-0.699,1.837-1.071l1.204-0.758l1.194-0.781c0.595-0.395,1.186-0.793,1.778-1.191l1.184-0.792l1.187-0.777
	c3.174-2.045,6.43-3.829,10.121-4.453c1.025-0.173,2.049-0.229,3.061-0.178l0.552,0.039l0.957,0.115l0.599,0.105l0.767,0.17
	l0.222,0.057l0.753,0.218c0.52,0.165,1.033,0.354,1.536,0.569l0.702,0.321l0.833,0.428l0.727,0.419l0.604,0.386l1.169,0.841
	l0.649,0.528l0.828,0.745c1.988,1.897,3.583,4.216,4.576,6.736l0.344,0.954l0.256,0.865l0.149,0.596
	c0.485,2.132,0.53,4.353,0.023,6.541c1.896,0.437,3.808,0.627,5.727,0.642l0.72-0.002c0.48-0.007,0.96-0.024,1.442-0.051
	c0.481-0.026,0.962-0.062,1.444-0.107c0.963-0.088,1.927-0.21,2.89-0.354c0.481-0.073,0.963-0.151,1.445-0.234
	c3.129-0.541,6.251-1.289,9.331-1.938c0.711-0.145,1.429-0.284,2.153-0.413c0.964-0.173,1.939-0.327,2.918-0.457
	c0.489-0.065,0.979-0.124,1.47-0.175c0.49-0.052,0.982-0.095,1.473-0.132c0.491-0.035,0.981-0.063,1.471-0.081
	c0.49-0.018,0.979-0.026,1.466-0.024c1.706,0.006,3.393,0.14,5.034,0.445c0.469,0.087,0.933,0.188,1.394,0.304
	c1.842,0.465,3.614,1.169,5.272,2.18c6.635,4.041,9.28,14.817,3.093,19.507c7.084,4.091,15.915,2.744,23.898,1.247
	c9.379-1.796,22.151-4.34,26.99,5.389c5.089,10.127,3.542,29.685,4.889,41.109c0.599,4.989,1.147,10.277-0.898,14.867
	c-2.395,5.288-7.933,8.731-10.278,14.019c-4.39,9.729,3.144,20.355,4.44,30.932c0.075,0.618,0.127,1.235,0.161,1.854l0.042,1.237
	l0.005,0.619c-0.01,5.366-1.193,10.765-1.355,16.197c-0.05,1.659,0.028,3.371,0.262,5.059c0.146,1.056,0.353,2.102,0.628,3.12
	l0.363,1.207c1.122,3.377,3.059,6.346,6.081,8.175c6.834,4.091,15.765,0.498,22.001-4.491c6.236-4.939,11.625-11.424,19.158-13.969
	c1.865-0.628,3.812-1.001,5.743-1.39l0.891-0.182c0.593-0.123,1.182-0.252,1.766-0.393l0.872-0.224l0.861-0.25l0.849-0.281
	c0.981-0.349,1.932-0.775,2.838-1.321c8.231-4.839,9.579-17.311,18.11-21.602c4.491-2.295,9.878-1.597,14.767-2.594
	c9.38-1.846,12.273-9.379,18.909-14.867c5.887-4.889,12.473-5.987,20.156-5.937c1.304,0.011,2.642,0.076,3.999,0.198
	c0.582,0.052,1.167,0.115,1.754,0.189c0.978,0.123,1.963,0.275,2.949,0.458l1.183,0.234l1.181,0.264l1.177,0.294l1.172,0.325
	l1.164,0.356l1.153,0.388c1.531,0.538,3.029,1.161,4.472,1.872l0.538,0.271c0.714,0.367,1.414,0.756,2.096,1.168l0.508,0.313
	c3.873,2.436,7.147,5.631,9.281,9.683c0.865,1.644,1.473,3.005,1.851,4.13l0.199,0.648l0.145,0.594l0.052,0.277l0.066,0.517
	l0.013,0.241l-0.069,0.849l-0.179,0.527l-0.664,0.805l-0.656,0.379l-0.388,0.149c-1.835,0.618-4.84,0.523-8.502,0.713
	c-8.831,0.449-17.312,3.143-24.246,8.731l-0.814,0.668l-0.794,0.693l-0.39,0.355l-0.764,0.728l-0.375,0.373l-0.732,0.762
	c-0.601,0.644-1.179,1.31-1.732,1.997l-0.652,0.833l-0.93,1.284c-0.5,0.724-0.974,1.466-1.418,2.224l-0.263,0.456l-0.505,0.923
	l-0.241,0.468c-0.555,1.094-1.049,2.214-1.478,3.356l-0.18,0.491c-0.176,0.492-0.339,0.987-0.489,1.486l-0.284,1.002
	c-0.401,1.508-0.685,3.043-0.842,4.59l-0.085,1.033c-0.054,0.862-0.069,1.728-0.041,2.594l0.021,0.52
	c0.045,0.866,0.133,1.734,0.266,2.599c0.224,1.473,0.571,2.933,0.995,4.382l0.293,0.964c0.254,0.803,0.527,1.603,0.814,2.399
	c0.286,0.797,0.585,1.592,0.89,2.385c0.487,1.268,0.987,2.532,1.467,3.793c0.181,0.473,0.357,0.945,0.53,1.418l0.34,0.944
	c0.666,1.889,1.243,3.775,1.625,5.667l0.174,0.947c0.417,2.525,0.455,5.063-0.144,7.633c-1.695,7.384-8.381,14.419-5.437,21.354
	c3.142,7.384,14.617,7.434,18.758,14.369c5.438,9.13-6.386,20.155-4.441,30.632c2.695,14.668,27.44,13.919,32.978,27.739
	c2.694,6.735-0.349,14.218-1.997,21.253c-0.617,2.657-0.883,5.608-0.623,8.407c0.087,0.932,0.232,1.848,0.443,2.731
	c0.158,0.662,0.353,1.305,0.586,1.922l0.521,1.197c0.288,0.58,0.617,1.129,0.989,1.64l0.805,0.971l0.927,0.859
	c0.66,0.532,1.404,0.981,2.24,1.331c0.578,0.24,1.182,0.424,1.805,0.566l0.268,0.058l0.816,0.148l1.109,0.144l0.562,0.053
	l0.565,0.044l0.566,0.037l0.85,0.047l0.566,0.029c3.578,0.186,7.022,0.408,9.008,3.163c2.893,4.041-0.2,8.232,0.997,12.323
	c1.646,5.388,5.588,7.434,10.128,10.925c11.574,8.831,23.198,17.561,34.823,26.392c0.671,0.507,1.348,1.017,2.035,1.52l0.829,0.599
	l0.418,0.295l0.844,0.58l0.854,0.562c0.86,0.551,1.736,1.069,2.634,1.534l0.451,0.228c0.452,0.224,0.909,0.433,1.372,0.626
	c1.543,0.643,3.149,1.103,4.832,1.29c7.283,0.799,14.468-3.742,21.602-2.245c6.785,1.347,13.321,7.933,19.507,4.839
	c3.542-1.746,5.138-6.037,8.432-8.182c5.236-3.341,12.317,0.147,16.309,4.883c6.456,7.661,12.154,17.48,18.353,26.846
	c0.62,0.936,1.245,1.868,1.876,2.793c0.631,0.925,1.268,1.842,1.913,2.75c0.43,0.606,0.864,1.206,1.301,1.802
	c3.059,4.171,6.3,8.092,9.85,11.497c3.044,2.919,6.315,5.458,9.894,7.452c0.89,0.495,1.793,0.987,2.705,1.478l0.685,0.368
	c1.375,0.735,2.768,1.468,4.166,2.209l0.699,0.371c0.933,0.495,1.866,0.993,2.797,1.498c0.466,0.252,0.93,0.505,1.393,0.761
	c1.622,0.894,3.227,1.808,4.796,2.757l0.67,0.409c1.112,0.684,2.204,1.387,3.267,2.113l0.635,0.438
	c1.051,0.735,2.072,1.494,3.055,2.281c0.59,0.473,1.166,0.955,1.726,1.449c2.242,1.975,4.236,4.129,5.872,6.526l0.402,0.604
	c0.394,0.61,0.765,1.235,1.112,1.876l0.338,0.647c0.22,0.435,0.428,0.877,0.626,1.328c0.197,0.45,0.382,0.908,0.555,1.375
	c0.173,0.466,0.334,0.94,0.482,1.422l0.212,0.73c1.059,3.846,1.158,7.857,1.255,11.868c0.012,0.502,0.024,1.003,0.038,1.504
	l0.023,0.751c0.024,0.751,0.055,1.501,0.098,2.249c0.029,0.498,0.063,0.996,0.105,1.493c0.167,1.985,0.453,3.95,0.977,5.875
	c1.54,5.649,4.886,10.292,8.904,14.575l0.578,0.609c0.777,0.809,1.577,1.607,2.391,2.397c0.814,0.79,1.643,1.572,2.478,2.351
	l1.257,1.167c6.721,6.218,13.62,12.378,16.68,20.758c4.665,12.774-0.894,26.997,0.643,40.51
	c1.363,11.984,8.182,22.571,15.101,32.451c6.931,9.898,14.812,20.098,26.172,24.216c4.26,1.544,9.097,1.788,13.606,0.864l1.12-0.255
	l1.103-0.303l1.083-0.351c2.323-0.811,4.483-1.956,6.336-3.411l0.833-0.694l0.787-0.737l0.736-0.781
	c0.829-0.936,1.55-1.959,2.14-3.067l0.474-0.97l0.311-0.754c0.292-0.765,0.525-1.566,0.694-2.398l0.129-0.718
	c0.113-0.719,0.181-1.441,0.215-2.166l0.025-0.83l0.001-0.832l-0.02-0.833c-0.063-1.807-0.242-3.625-0.349-5.44l-0.043-0.837
	c-0.024-0.558-0.039-1.116-0.039-1.673c0.001-2.187,0.223-4.303,0.634-6.359c0.091-0.456,0.192-0.911,0.301-1.361
	c0.11-0.451,0.228-0.899,0.355-1.344l0.249-0.832c0.173-0.552,0.358-1.1,0.556-1.644l0.306-0.813l0.529-1.289l0.573-1.274
	l0.303-0.632l0.637-1.254l0.676-1.241l0.715-1.229l0.75-1.217c0.511-0.808,1.046-1.609,1.6-2.404l0.846-1.187
	c1.003-1.38,2.063-2.742,3.164-4.09c0.63-0.771,1.273-1.537,1.927-2.299l0.492-0.571l0.997-1.139
	c0.502-0.568,1.009-1.135,1.52-1.701c0.511-0.565,1.026-1.13,1.543-1.693c0.863-0.939,1.733-1.876,2.606-2.812
	c0.523-0.562,1.048-1.123,1.573-1.685l1.048-1.123c0.873-0.936,1.742-1.874,2.603-2.814l0.516-0.564
	c0.515-0.565,1.026-1.131,1.533-1.698c0.676-0.756,1.344-1.515,2.002-2.278c1.972-2.287,3.849-4.607,5.558-6.981l0.424-0.595
	l0.825-1.196l0.401-0.602l0.777-1.212l0.744-1.223l0.707-1.235l0.339-0.622l0.649-1.254c0.629-1.261,1.196-2.541,1.692-3.844
	l0.472-1.312l0.218-0.661l0.397-1.336c0.124-0.448,0.239-0.898,0.345-1.353c0.212-0.907,0.388-1.826,0.525-2.758
	c0.069-0.466,0.127-0.935,0.176-1.408c0.097-0.945,0.154-1.903,0.168-2.875c0.175-12.314-7.01-24.146-5.358-36.35
	c0.26-1.923,0.729-3.781,1.358-5.589c0.269-0.775,0.568-1.541,0.892-2.298c0.216-0.505,0.443-1.007,0.682-1.505l0.364-0.745
	c0.495-0.99,1.029-1.968,1.593-2.937c0.423-0.726,0.862-1.447,1.314-2.163l0.571-0.893c0.385-0.594,0.777-1.186,1.176-1.775
	l0.601-0.883c0.322-0.47,0.648-0.939,0.975-1.407l0.492-0.702c0.493-0.701,0.988-1.401,1.482-2.101
	c0.33-0.466,0.658-0.933,0.985-1.399c0.49-0.7,0.977-1.4,1.456-2.103c0.479-0.702,0.951-1.406,1.41-2.113
	c1.38-2.12,2.656-4.265,3.725-6.466c0.237-0.489,0.465-0.981,0.68-1.476c1.512-3.464,2.468-7.079,2.478-10.96
	c0.038-15.434-15.086-31.333-6.747-44.32c2.575-4.011,6.924-6.512,10.078-10.085c2.185-2.476,3.704-5.332,4.9-8.377
	c0.218-0.554,0.424-1.114,0.622-1.678c0.594-1.695,1.111-3.437,1.605-5.192c0.33-1.17,0.65-2.348,0.976-3.523
	c0.163-0.587,0.328-1.174,0.497-1.759c0.169-0.585,0.341-1.168,0.519-1.749c0.357-1.161,0.736-2.31,1.156-3.438l0.322-0.842
	l0.439-1.045l0.47-0.988l0.245-0.474l0.513-0.907l0.267-0.434l0.366-0.56l0.768-1.054l0.401-0.496
	c0.542-0.648,1.113-1.243,1.71-1.793l0.452-0.404c0.914-0.791,1.883-1.481,2.898-2.096c0.507-0.307,1.026-0.595,1.554-0.867
	l1.07-0.523l1.093-0.485l1.115-0.452l1.133-0.424c1.142-0.411,2.309-0.789,3.489-1.155c0.59-0.183,1.183-0.364,1.779-0.544
	l0.596-0.181c0.796-0.242,1.594-0.484,2.392-0.737l0.598-0.191c0.599-0.193,1.196-0.392,1.791-0.599
	c0.596-0.208,1.189-0.423,1.779-0.651l1.174-0.472c0.779-0.327,1.551-0.677,2.312-1.058l1.131-0.597
	c0.561-0.311,1.116-0.641,1.661-0.993c0.932-0.602,1.856-1.23,2.773-1.883s1.826-1.329,2.726-2.027
	c0.45-0.349,0.898-0.704,1.344-1.065c1.338-1.08,2.657-2.208,3.956-3.375c1.299-1.168,2.579-2.376,3.837-3.618l0.94-0.937
	c0.936-0.943,1.86-1.904,2.772-2.88c2.027-2.168,3.993-4.409,5.894-6.69c0.76-0.913,1.511-1.831,2.25-2.755
	c1.109-1.385,2.194-2.78,3.254-4.177c1.06-1.397,2.095-2.797,3.104-4.193c0.421-0.582,0.836-1.162,1.247-1.742
	c1.234-1.739,2.427-3.466,3.576-5.169c0.496-0.734,0.986-1.473,1.474-2.215c0.488-0.741,0.971-1.486,1.454-2.231
	c0.644-0.994,1.286-1.99,1.931-2.984c0.483-0.745,0.968-1.489,1.457-2.231c0.652-0.988,1.31-1.972,1.979-2.947
	c0.335-0.487,0.672-0.973,1.013-1.456c1.194-1.689,2.43-3.345,3.734-4.948c0.373-0.458,0.751-0.911,1.135-1.36
	c0.769-0.897,1.563-1.775,2.385-2.629c1.408-1.462,2.895-2.846,4.424-4.187l1.32-1.141c0.664-0.566,1.335-1.126,2.008-1.683
	c0.448-0.372,0.899-0.741,1.35-1.111c0.451-0.37,0.901-0.739,1.352-1.108c1.126-0.924,2.25-1.85,3.359-2.792
	c0.887-0.754,1.763-1.517,2.623-2.298l1.276-1.184l1.246-1.215c0.614-0.616,1.215-1.245,1.799-1.89
	c3.311-3.621,6.039-7.667,8.511-11.882c0.412-0.703,0.817-1.41,1.216-2.12c0.266-0.474,0.53-0.949,0.792-1.425l0.391-0.716
	c0.26-0.478,0.518-0.956,0.775-1.435l0.384-0.72c0.383-0.719,0.764-1.441,1.144-2.162c0.253-0.48,0.505-0.961,0.758-1.441
	c1.858-3.567,3.717-7.134,5.576-10.7c5.578-10.699,11.162-21.391,16.775-32.056c0.426-0.819,0.855-1.64,1.289-2.463
	c0.289-0.548,0.581-1.096,0.877-1.643c0.295-0.547,0.594-1.094,0.896-1.637c0.454-0.816,0.917-1.627,1.39-2.431
	c0.474-0.803,0.959-1.599,1.459-2.383c0.333-0.523,0.672-1.041,1.018-1.552c0.519-0.767,1.053-1.521,1.606-2.257
	c0.368-0.491,0.745-0.974,1.13-1.449l0.585-0.705c0.789-0.931,1.614-1.825,2.482-2.675l0.659-0.629
	c0.445-0.414,0.901-0.815,1.369-1.204c0.467-0.388,0.947-0.764,1.439-1.127c0.491-0.362,0.996-0.71,1.514-1.044l1.191-0.727
	l0.61-0.35l1.242-0.677l0.63-0.33l1.271-0.648l1.276-0.641c0.638-0.32,1.275-0.641,1.904-0.968c0.629-0.327,1.251-0.66,1.861-1.005
	l1.199-0.707c0.589-0.363,1.162-0.74,1.712-1.139c0.917-0.665,1.772-1.386,2.537-2.19c0.459-0.482,0.887-0.994,1.277-1.541
	c0.39-0.547,0.742-1.129,1.051-1.751c0.237-0.489,0.438-0.988,0.608-1.493c0.17-0.506,0.308-1.019,0.42-1.538l0.148-0.784
	l0.154-1.192c0.051-0.534,0.082-1.073,0.096-1.616c0.017-0.678,0.008-1.362-0.018-2.052l-0.063-1.244l-0.057-0.833l-0.1-1.253
	c-0.07-0.835-0.144-1.672-0.208-2.506l-0.085-1.249l-0.058-1.242l-0.019-1.232l0.032-1.22l0.055-0.806
	c0.163-1.871,0.579-3.681,1.441-5.383c2.666-5.302,8.569-7.579,14.062-10.319l0.864-0.437c0.859-0.442,1.703-0.9,2.518-1.387
	l0.805-0.498l0.782-0.521l1.123-0.831l0.711-0.592c0.694-0.608,1.338-1.267,1.917-1.99l0.817-1.134l0.488-0.812l0.422-0.825
	c0.26-0.554,0.478-1.115,0.659-1.685c0.181-0.569,0.324-1.147,0.433-1.731l0.175-1.177c0.111-0.988,0.136-1.995,0.094-3.015
	l-0.074-1.159l-0.057-0.584l-0.148-1.176l-0.09-0.592l-0.208-1.19l-0.147-0.748c-0.102-0.5-0.212-1.002-0.326-1.506l-0.176-0.756
	c-0.384-1.617-0.813-3.251-1.223-4.889l-0.303-1.23l-0.29-1.23c-1.031-4.513-1.673-9.024-0.575-13.312
	c0.374-1.459,0.931-2.819,1.626-4.105l0.547-0.95c0.953-1.562,2.106-3.016,3.373-4.41l0.773-0.83l0.797-0.817l1.231-1.208
	l0.418-0.399c0.559-0.531,1.125-1.058,1.693-1.585l0.853-0.79c0.711-0.659,1.422-1.32,2.12-1.987l0.832-0.805l0.41-0.406
	c1.225-1.221,2.392-2.479,3.438-3.805l0.678-0.895c0.44-0.604,0.853-1.223,1.234-1.861l0.28-0.482
	c0.273-0.485,0.528-0.981,0.762-1.489c0.234-0.508,0.447-1.028,0.636-1.561c2.545-6.985,0.499-14.618-0.05-22.052
	c-2.295-29.585,15.616-51.187,26.741-76.631c0.234-0.527,0.465-1.055,0.692-1.584c0.456-1.059,0.9-2.121,1.334-3.188
	c0.868-2.133,1.696-4.282,2.498-6.441c0.4-1.08,0.794-2.161,1.183-3.246c0.972-2.711,1.914-5.434,2.85-8.161
	c0.374-1.091,0.747-2.182,1.121-3.273c0.299-0.88,0.599-1.761,0.894-2.645l0.22-0.664c0.438-1.328,0.865-2.662,1.262-4.003
	c0.2-0.67,0.392-1.342,0.575-2.016l0.18-0.674c0.118-0.45,0.233-0.901,0.342-1.352l0.16-0.677c0.104-0.452,0.203-0.905,0.297-1.359
	c0.094-0.453,0.182-0.908,0.263-1.363c0.123-0.684,0.232-1.369,0.325-2.056c0.062-0.458,0.117-0.917,0.165-1.377
	c0.119-1.15,0.191-2.305,0.207-3.467l0-0.823c-0.007-0.548-0.025-1.096-0.054-1.643c-0.029-0.547-0.068-1.094-0.117-1.64
	c-0.048-0.546-0.105-1.092-0.169-1.637c-0.063-0.546-0.134-1.091-0.211-1.635c-0.114-0.817-0.24-1.633-0.372-2.449l-0.133-0.816
	c-0.135-0.816-0.274-1.631-0.411-2.446l-0.136-0.815c-0.135-0.815-0.266-1.629-0.387-2.444c-0.08-0.543-0.157-1.087-0.228-1.63
	c-0.07-0.543-0.134-1.086-0.19-1.63l-0.078-0.815c-0.048-0.544-0.087-1.088-0.116-1.632c-0.072-1.36-0.079-2.722,0.007-4.086
	c0.599-8.88,4.939-17.112,6.037-25.943c0.935-7.367-0.42-14.612-3.142-21.507C1905.57,1108.721,1905.383,1108.263,1905.189,1107.807
	z"/>
<path style="fill:#0053A1;" d="M493.313,1284.142c3.994-3.022,7.957-6.089,11.898-9.189l-7.379-2.26L493.313,1284.142z"/>
<polygon style="fill:#FFFFFF;" points="580.059,839.507 565.868,826.914 554.007,816.496 553.373,815.834 529.362,794.602 
	529.362,1031.081 557.677,1031.081 557.677,894.428 580.059,914.224 610.663,941.308 710.939,1029.978 795.489,1029.978 
	610.663,866.498 "/>
<polygon style="fill:#FFFFFF;" points="592.235,762.709 607.907,776.535 610.663,778.997 615.002,782.88 621.145,788.277 
	652.277,815.834 894.332,1029.978 978.891,1029.978 736.779,815.834 705.542,788.277 703.175,786.177 1081.398,786.177 
	1081.398,760.857 590.127,760.857 "/>
<path style="fill:#FFFFFF;" d="M365.199,649.546l-0.499-0.449c-1.263,1.626-2.49,3.325-3.69,5.079h9.434L365.199,649.546z"/>
<path style="fill:#FFFFFF;" d="M326.43,950.576l30.636-27.113l24.886-22.01v129.628h28.119V801.715l-26.29,23.248l-0.634,0.663
	l-11.875,10.429l-14.205,12.608l-30.636,27.02l-81.053,71.691c1.776,2.122,3.381,4.236,3.028,6.853
	c-1.148,7.732-8.632,8.581-7.733,18.159c0.748,8.033,2.395,13.321,1.198,22.251c-6.536,10.577-13.022,21.153-19.558,31.73
	c2.83-1.147,5.806,0.844,7.266,3.611h7.057L326.43,950.576z"/>
<path style="fill:#FFFFFF;" d="M315.935,797.374l6.147-5.403l4.349-3.886l2.757-2.466l15.687-13.842l12.192-10.713l0.237-0.208
	h-119.95c7.124,14.01,18.475,27.675,14.195,42.253c-6.037,20.604-39.762,26.741-39.413,48.244
	c0.185,10.505,4.964,19.577,10.68,28.418l61.953-54.808L315.935,797.374z"/>
<path style="fill:#FFFFFF;" d="M577.573,653.747l-0.494,0.43h504.319V629.03H690.027l17.622-15.575l37.105-32.802l172.641-152.736
	c-13.078-11.471-27.557-26.094-43.102-36.547L579.481,652.039L577.573,653.747z"/>
<path style="fill:#E52623;" d="M357.066,848.663l14.205-12.608l11.875-10.429l0.634-0.663l26.29-23.248v229.366h119.292V794.602
	l24.011,21.232l0.634,0.663l11.86,10.418l14.191,12.593l30.604,26.991l184.826,163.48h98.843L652.277,815.834l-31.132-27.557
	l-6.143-5.397l-4.339-3.883l-2.755-2.463l-15.672-13.826l-2.108-1.852h491.271v-106.68H577.079l0.494-0.43l1.908-1.707
	L874.292,391.37c-16.935-11.387-35.135-17.823-54.172-9.842c-13.546,5.649-12.149,26.303-22.725,36.431
	c-7.883,7.583-20.106,7.334-30.682,10.127c-19.806,5.239-34.474,21.653-46.448,38.216c-4.44,6.186-8.781,12.522-13.32,18.758
	c-7.683,10.427-16.015,20.255-26.642,27.44c-2.445,1.646-4.989,3.143-7.633,4.59c-4.091,2.145-8.282,4.041-12.573,5.937
	c-14.019,6.086-28.437,11.425-38.714,22.501c-1.996,2.095-3.742,4.44-5.388,6.835c-3.642,5.338-6.636,11.175-9.779,16.813
	c-3.742,6.735-7.633,13.171-13.071,18.21c-1.197,1.197-2.445,2.245-3.792,3.243c-4.091,2.943-8.68,4.989-13.42,6.685
	c-9.529,3.442-19.707,5.588-27.989,11.376c-4.191,2.993-7.782,6.735-11.076,10.776c-3.043,3.742-5.936,7.684-8.93,11.376
	c-4.74,5.787-9.878,10.975-16.712,13.819c-8.482,3.542-18.061,2.744-27.241,3.243c-9.379,0.499-18.16,3.143-24.446,10.327
	c-9.629-5.987-16.912-8.781-27.14-13.071c-3.143-1.297-6.137-2.794-9.13-4.39c-9.18-4.79-18.059-9.878-29.036-9.38
	c-12.773,0.584-21.83,7.791-29.533,17.709l0.499,0.449l5.245,4.631h-9.434c-13.357,19.52-23.497,45.926-44.755,55.489
	c-28.537,12.822-76.232-2.894-83.516,27.539c-1.948,8.128,0.693,15.942,4.613,23.652h119.95l-0.237,0.208l-12.192,10.713
	l-15.687,13.842l-2.757,2.466l-4.349,3.886l-6.147,5.403l-31.167,27.589l-61.953,54.808c9.706,15.009,22.116,29.352,19.353,48.912
	c-0.698,4.69-2.245,9.778-0.15,14.069c0.799,1.66,2.121,3.143,3.359,4.622l81.053-71.691L357.066,848.663z"/>
<polygon style="fill:#243877;" points="425.007,1285.308 448.129,1278.227 440.37,1258.574 "/>
<polygon style="fill:#243877;" points="513.652,1174.151 497.3,1189.263 512.381,1191.567 "/>
<polygon style="fill:#243877;" points="553.102,1223.621 510.518,1217.115 511.847,1198.898 485.154,1217.175 506.618,1254.525 
	465.428,1241.91 451.498,1277.195 466.196,1272.694 475.764,1296.932 482.014,1312.762 493.313,1284.142 497.833,1272.694 
	505.212,1274.953 539.022,1285.308 524.277,1259.649 517.558,1247.959 "/>
<polygon style="fill:#FFFFFF;" points="506.618,1254.525 485.154,1217.175 511.847,1198.898 520.698,1192.837 512.381,1191.567 
	497.3,1189.263 478.114,1186.332 481.247,1143.368 449.61,1172.605 417.973,1143.368 421.106,1186.332 378.522,1192.837 
	414.066,1217.175 392.602,1254.525 433.791,1241.91 440.37,1258.574 448.129,1278.227 449.61,1281.979 451.498,1277.195 
	465.428,1241.91 "/>
<polygon style="fill:#243877;" points="1186.434,523.301 1201.411,518.471 1196.385,505.068 "/>
<polygon style="fill:#243877;" points="1243.849,447.491 1233.257,457.797 1243.026,459.368 "/>
<polygon style="fill:#243877;" points="1239.293,502.307 1212.615,493.703 1203.593,517.768 1213.112,514.698 1223.358,542.024 
	1233.603,514.698 1260.281,523.301 1246.379,497.828 1269.401,481.23 1241.82,476.793 1242.68,464.368 1225.391,476.834 "/>
<polygon style="fill:#FFFFFF;" points="1165.446,502.307 1192.124,493.703 1196.385,505.068 1201.411,518.471 1202.369,521.03 
	1203.593,517.768 1212.615,493.703 1239.293,502.307 1225.391,476.834 1242.68,464.368 1248.413,460.236 1243.026,459.368 
	1233.257,457.797 1220.831,455.798 1222.861,426.497 1202.369,446.436 1181.878,426.497 1183.907,455.798 1156.326,460.236 
	1179.348,476.834 "/>
<polygon style="fill:#243877;" points="1144.527,1179.692 1155.961,1176.004 1152.124,1165.772 "/>
<polygon style="fill:#243877;" points="1188.361,1121.814 1180.275,1129.682 1187.733,1130.882 "/>
<polygon style="fill:#243877;" points="1184.883,1163.663 1164.516,1157.095 1157.627,1175.468 1164.895,1173.124 
	1172.717,1193.986 1180.539,1173.124 1200.907,1179.692 1190.293,1160.245 1207.869,1147.572 1186.812,1144.184 1187.469,1134.699 
	1174.269,1144.216 "/>
<polygon style="fill:#FFFFFF;" points="1128.504,1163.663 1148.871,1157.095 1152.124,1165.772 1155.961,1176.004 
	1156.693,1177.958 1157.627,1175.468 1164.516,1157.095 1184.883,1163.663 1174.269,1144.216 1187.469,1134.699 1191.845,1131.544 
	1187.733,1130.882 1180.275,1129.682 1170.788,1128.156 1172.337,1105.785 1156.693,1121.008 1141.049,1105.785 1142.598,1128.156 
	1121.541,1131.544 1139.117,1144.216 "/>
<polygon style="fill:#243877;" points="1549.319,1404.475 1538.41,1415.092 1548.472,1416.71 "/>
<polygon style="fill:#243877;" points="1490.178,1482.565 1505.605,1477.591 1500.428,1463.784 "/>
<polygon style="fill:#243877;" points="1548.116,1421.86 1530.307,1434.701 1544.627,1460.939 1517.146,1452.077 1507.853,1476.866 
	1517.659,1473.703 1528.212,1501.852 1538.766,1473.703 1566.246,1482.565 1551.926,1456.327 1575.64,1439.229 1547.23,1434.659 "/>
<polygon style="fill:#FFFFFF;" points="1544.627,1460.939 1530.307,1434.701 1548.116,1421.86 1554.021,1417.603 1548.472,1416.71 
	1538.41,1415.092 1525.61,1413.032 1527.7,1382.85 1506.593,1403.389 1485.485,1382.85 1487.576,1413.032 1459.165,1417.603 
	1482.879,1434.701 1468.559,1460.939 1496.039,1452.077 1500.428,1463.784 1505.605,1477.591 1506.593,1480.226 1507.853,1476.866 
	1517.146,1452.077 "/>
<polygon style="fill:#243877;" points="1455.451,872.843 1450.938,877.235 1455.101,877.905 "/>
<polygon style="fill:#243877;" points="1453.51,896.203 1442.141,892.537 1438.296,902.792 1442.353,901.484 1446.719,913.13 
	1451.085,901.484 1462.454,905.151 1456.53,894.295 1466.341,887.221 1454.587,885.33 1454.953,880.035 1447.585,885.348 "/>
<polygon style="fill:#243877;" points="1430.983,905.151 1437.366,903.092 1435.224,897.38 "/>
<polygon style="fill:#FFFFFF;" points="1422.038,896.203 1433.408,892.537 1435.224,897.38 1437.366,903.092 1437.774,904.183 
	1438.296,902.792 1442.141,892.537 1453.51,896.203 1447.585,885.348 1454.953,880.035 1457.397,878.274 1455.101,877.905 
	1450.938,877.235 1445.642,876.383 1446.507,863.896 1437.774,872.393 1429.042,863.896 1429.907,876.383 1418.152,878.274 
	1427.963,885.348 "/>
</svg>
