<?xml version="1.0" encoding="UTF-8"?>
<svg xmlns="http://www.w3.org/2000/svg" version="1.1" xmlns:xlink="http://www.w3.org/1999/xlink" viewBox="0 0 349.127 242.347">
  <defs>
    <clipPath id="clippath">
      <path d="M267.889,206.431c.165.312.311.624.44.916.151.342.287.692.425,1.039.42.583.99,1.074,1.777,1.434,2.743,1.254,5.624,2.255,8.573,2.916,2.32-1.349,4.399-3.274,6.999-4.042,1.722-.509,3.521-.506,5.295-.349,1.655.147,3.318.411,4.983.27,1.717-.145,3.404-.854,4.657-2.048,1.044-.994,1.684-2.291,2.372-3.538.784-1.421,1.645-2.786,2.918-3.822,1.131-.921,2.449-1.528,3.739-2.188,1.527-.781,2.968-1.679,4.252-2.823.968-.862,1.826-1.84,2.802-2.693.931-.814,1.978-1.437,3.167-1.791,1.661-.495,3.432-.486,5.147-.602,1.685-.114,3.372-.262,5.019-.653,1.611-.382,3.131-1.006,4.585-1.783-.911-1.012-1.403-2.21-1.18-3.63.18-1.148.769-2.216.849-3.38.088-1.281-.538-2.486-1.164-3.56-.612-1.048-1.526-2.256-2.011-3.517-.177.081-.351.183-.509.32-.53.103-1.054.218-1.618.24-1.406.057-2.577-.236-3.817-.468-.773-.335-1.641-.602-2.425-.88-1.647-.585-3.195-1.127-4.26-2.177-1.956-1.929-2.411-4.309-1.514-6.584.837-2.122,3.286-4.908.68-6.827-1.317-.97-3.281-1.233-4.924-.762-.32-.978-1.467-1.727-2.733-2.352-.92-.454-2.02-.905-2.584-1.591-.292-.355-.496-.943-.166-1.315.933.685,2.629.581,3.965.276,2.056-.469,3.97-1.509,5.481-2.527,1.541-1.04,2.822-2.317,3.254-3.745.023-.077.038-.169.055-.256.34-.633.261-1.183-.132-1.644-.203-.443-.591-.778-1.231-.849-.241-.109-.497-.213-.777-.305-.988-.323-2.065-.579-2.588-1.27-.59-.781-.335-1.774-.575-2.616-.444-1.565-2.273-1.96-3.947-2.863-2.643-1.425,1.025-2.625,2.379-3.731,1.036-.846,2.145-2.44.667-3.303-.822-.48-2.058-.311-2.942-.709-1.04-.468-1.465-1.398-1.596-2.19-.279-1.695.276-3.488-1.521-4.876-4.173-3.224-11.281-.76-15.55,1.169-.308.139-.939.737-.428.956,1.445.616,1.72,1.769,1.082,2.721-1.589,1.03-3.694,1.64-5.947,1.653,2.021-1.455,3.898-3.296,3.604-5.216-.192-1.258-2.096-2.18-1.871-3.457.255-1.447,2.279-2.432,3.875-3.298,1.261-.682,2.544-1.406,3.416-2.327.99-1.045,1.046-2.104,1.04-3.284-.005-.862.225-1.52,1.127-2.183.809-.595,1.711-1.144,2.57-1.708l5.285-3.469c1.422-.934,5.999-3.302,5.944-5.164.063-.077.095-.161.073-.241-.287-1.055-1.76-1.66-3.267-1.882.265-.782.878-1.957,2.092-1.765.845.134,1.32.805,1.933,1.157.5.287,1.099.518,1.72.676,1.089.276,2.248.288,3.374.168-2.195-5.019-3.18-10.571-3.813-15.978-3.114-.783-6.211-1.631-9.28-2.561-3.628-1.098-7.342-2.189-10.81-3.736-1.991-.889-2.557-2.691-3.311-4.604-.38-.962-.607-1.846-1.736-1.808-1.137.037-2.313.565-3.431.775-1.069.2-2.139.327-3.151-.153-1.331-.632-2.582-1.738-3.731-2.651-2.618-2.082-4.935-4.495-7.16-6.984-3.717-4.156-8.004-9.065-13.834-10.066-4.026-.691-8.279.226-12.357-.134-6.026-.532-10.789-3.185-15.001-7.472-4.186-4.263-7.176-9.752-11.601-13.749-1.117-1.009-2.315-1.911-3.541-2.773-1.173.008-2.343.203-3.387.575.224-.975.262-1.949.034-2.864-1.737-1.183-3.425-2.42-4.956-3.854-1.193-.159-2.454-.073-3.645.331-1.376.468-2.551,1.299-2.968,2.266-.932-.407-1.559-1.086-1.468-1.875.031-.274-.22-.527-.7-.43-.998.202-1.977.242-2.965.123.104-.235.175-.471.193-.708.278-.142.52-.366.523-.548.047-2.209-1.07-4.822-2.909-6.635-.226-.223-.599-.158-.91-.024-3.34,1.447-7.353,2.453-11.025,3.448-3.775,1.022-7.635,1.865-11.562,2.563-.401.072-.939.401-.847.707.692,2.321,1.185,4.635,1.249,7.016.032,1.157.101,2.315.169,3.47.054.911.061,1.82.427,2.685-.507.278-.978.588-1.434.899-.267.182-.534.528-.348.777.33.444.661.888.992,1.332-1.14.407-2.017,1.088-2.718,1.872-1.109,1.239-2.004,2.437-3.66,3.425-.989.591-2.065,1.011-3.196,1.374-.111-.15-.32-.239-.667-.216-2.458.159-4.927.875-7.346,1.539-.397-.013-.796-.025-1.178-.067-.193-.021-.438.215-.327.306-1.221.216-2.382.567-3.494,1.036-2.074.515-4.146,1.045-6.187,1.657-2.553.767-4.957,1.839-6.64,3.984-.685.873-1.225,1.894-1.495,2.975-.19.761-.147,1.364-.01,2.001-.117.29-.253.567-.346.875-.141.47-.208.957-.298,1.439-.75.267-1.502.529-2.247.801-.837.307-1.59.664-2.556.572-.778-.074-1.569-.415-2.292-.606-4.317-1.139-9.213-1.275-13.824-.598-1.108-.532-2.676-.691-4.011-.583-1.339.108-2.625.501-3.602,1.117-.005-.492-.195-.976-.612-1.397-.007-.006-.014-.01-.021-.017.275-.188.43-.487.229-.666-.817-.725-1.521-1.357-1.679-2.296-.147-.868.137-1.788,1.014-2.485.196-.156.483-.453.296-.662-2.076-2.311-7.318-2.049-9.783-.066-2.24-1.084-4.942-1.894-7.726-2.11-.679-.052-1.348.56-1.148.959,1.218,2.431,2.437,4.861,3.749,7.269.61,1.119,1.207,2.247,1.906,3.342.382.599.757,1.2,1.159,1.794.244.358.52.732.906,1.036-.755,1.095-1.061,2.674-1.309,3.883-.323,1.573-.506,3.228-.458,4.835.022.757.243,1.503.378,2.246.132.731.297,1.459.501,2.173.013.047.036.091.05.138-1.391.135-2.766.38-4.067.711-.45-1.155-1.41-2.626-3.556-2.368-.928.111-1.962.627-2.376,1.237-1.469-.32-3.079-.2-4.467.336-.533-1.418-3.706-1.597-5.57-.905-1.684.624-2.797,1.718-4.426,2.382-1.396.569-3.718.583-4.243-.604-.076-.172-.299-.197-.546-.143-.43-.892-.745-1.83-1.232-2.705-.97-1.745-3.242-3.771-6.488-3.279-1.115.169-1.859.545-2.972.188-.699-.224-1.282-.525-2.052-.662-1.238-.219-2.562-.132-3.78.158-2.243.535-4.094,1.755-4.692,3.262-1.517-.089-3.034-.177-4.553-.257-.441-.023-.852.267-1.016.505-.26.379-.505.762-.754,1.145-.911-.553-1.837-1.097-2.802-1.62-.334-.181-.823-.009-1.081.171-1.564,1.091-4.278.799-6.301.856-2.466.069-4.51.675-6.697,1.427-3.501,1.203-8.131,3.698-5.97,6.601.099.134.335.182.551.14,3.434-.661,7.08-.394,10.107.738-1.39.413-2.946.336-4.345-.141-.381-.13-.912.17-1.098.358-.686.694-.869,1.421-.491,2.191.05.103.24.149.385.157,1.943.107,3.814.565,5.388,1.296.736.342,1.411.74,2.005,1.184.048.036.085.077.131.115-.286.036-.589.061-.918.08-1.286.069-2.559.055-3.845.065-2.423.017-4.959.269-6.035,1.925-.117.18-.057.515.35.487,3.616-.246,7.164,1.331,8.034,3.644-.339.37-.675.741-1.013,1.111-.139.153-.298.516.096.578,1.615.257,3.27.367,4.944.306.474-.018.834-.271.948-.563.165-.422.326-.844.489-1.266.34.037.686.068,1.031.096.405.131.808.262,1.212.396.632.209,1.209.476,1.859.661,1.353.387,2.755.713,4.136,1.054,1.35.335,2.702.659,4.066.97,1.023.234,2.139.58,3.254.726.465.393.937.784,1.385,1.188.106.095.359.047.491.011,1.829-.511,3.615-1.093,5.4-1.672l-.984,1.685c-.093.159-.113.446.209.502.636.109,1.18.296,1.692.519.193.544.504,1.07.801,1.477.118.162.351.171.595.152,1.282-.104,2.608-.506,3.786-.858.631-.188,1.226-.424,1.829-.651-.095,1.104-.147,2.213-.192,3.315-.016.401.335.625.678.685,1.601.28,3.202.615,4.812.842.813.115,1.661.093,2.482.131.376.017.752.033,1.128.051-.537.991-.628,2.075-.118,3.078.176.347.49.924.949,1.158.494.253,1.845.163,2.439.17,1.817.023,3.629-.106,5.424-.323.131.326.263.651.394.977-.879.464-1.547,1.043-1.971,1.768-.165.283-.044.532.421.586,2.241.261,3.811,2.457,2.472,3.773-.28-.181-.561-.362-.841-.543-.554-.357-1.475.274-1.565.634-.58,2.339,1.807,4.116,4.064,5.655.121.082.236.163.356.244.202.288.414.571.627.848.663.863,1.385,1.68,2.157,2.448.531.526,1.112.995,1.687,1.471.029.219.087.436.206.646.031.054.094.089.129.14.027.07.061.135.14.152.641.781,1.801,1.261,3.062,1.561,1.796,1.038,3.715,1.865,5.708,2.437.901.259,1.919.54,2.95.737.27.598.54,1.196.809,1.794.735,1.631,1.471,3.262,2.209,4.892.191.486.367.977.552,1.461.2.526.401,1.052.601,1.578.186.485.463.929.713,1.388-.021.058-.09.108-.08.17.078.494.262.954.518,1.394-.141-.031-.283-.062-.424-.092-.601-.128-1.25.304-1.35.67-.298,1.09.056,2.156,1.111,3.003.525.422.838.422,1.625.485.952.075,1.878.267,2.734.538,2.658.842,4.573,2.463,5.213,4.336-2.599-1.051-5.206-2.095-7.796-3.156-.59-.243-1.39.184-1.483.601-.754,3.381-1.471,6.766-2.228,10.148-.025.111-.046.222-.07.333.155,3.148.193,6.296.117,9.443,1.22-.216,2.473.209,2.937,1.001-.103.246-.251.484-.38.724-.851-.171-1.723-.311-2.587-.445-.189,5.515-.723,11.023-1.661,16.51-.494,2.889-.696,5.907-1.613,8.703-.859,2.616-2.336,4.223-4.047,6.283-.659.793-1.037,1.742-1.262,2.753,1.243.159,2.002.787,1.712,1.725-.266.859-1.118,1.647-1.993,2.308.008.324.017.643.028.958.963.369,1.926.738,2.885,1.111.355.139.869-.175,1.045-.341.303-.285.606-.569.909-.854,3.25,2.839,9.629,3.209,14.775,3.68-.245.432-.221.916.19,1.381.479.545,1.378.774,2.097,1.149.81.422.888,1.046,1.531,1.529.855.644,2.148.484,3.277.216,1.053-.249,2.93-1.124,3.796-.373.259.226.892-.031,1.088-.172.722-.523,1.445-1.047,2.166-1.571.828.864,1.658,1.727,2.481,2.593.612.645,1.181,1.309,2.443,1.399.986.07,1.978-.173,2.896-.399.765-.188,2.186-.719,2.701-.082.2.248.719.186,1.011.027.361-.198.719-.397,1.078-.597,3.546,1.767,8.201.864,12.249.189.486-.081,1.05-.459.974-.813-.259-1.217.945-2.347,2.926-2.294.376.01.765-.197,1.016-.443,2.09.404,4.084,1.061,6.096,1.62,3.019.838,6.108,1.46,9.379,1.529,1.129.796,2.823.875,4.486.915,1.158.029,2.272.038,3.306.409,1.034.37,2.494,1.256,1.617,2.096-.3.287-.148.635.418.586,3.24-.28,6.439,1.267,6.819,3.394.069.383.699.294,1.053.139,3.704-1.635,8.771-1.004,11.372,1.203.164.139.585.094.786.018,2.262-.851,4.597-1.609,6.97-2.306.636-1.302.969-2.783,1.274-4.164.806-3.646,1.27-7.331,3.327-10.546.381-.594.838-1.114,1.282-1.647,3.686-.292,7.337-.907,10.854-2.096,5.733-1.937,11.187-5.323,17.332-5.78,5.348-.399,10.609,1.426,15.753,2.578,4.141.926,8.39,1.121,12.041-1.083.195,1.534.215,3.196.587,4.652Z" style="fill: none;"/>
    </clipPath>
  </defs>
  <!-- Generator: Adobe Illustrator 28.7.7, SVG Export Plug-In . SVG Version: 1.2.0 Build 194)  -->
  <g style="isolation: isolate;">
    <g id="Layer_1">
      <g>
        <g>
          <path d="M220.414,216.213h8.173v2.639h-4.999v3.48h4.68v2.591h-4.68v5.935h-3.174v-14.645Z"/>
          <path d="M230.993,216.419c1.013-.181,2.455-.306,4.013-.306,1.988,0,3.474.301,4.489,1.139.879.729,1.297,1.743,1.297,3.063,0,1.769-1.159,3.093-2.486,3.617v.061c1.008.407,1.56,1.364,1.903,2.78.402,1.647.829,3.528,1.108,4.085h-3.265c-.212-.418-.567-1.686-.926-3.441-.36-1.828-.93-2.324-2.168-2.336h-.817v5.777h-3.148v-14.439ZM234.14,222.745h1.063c1.521,0,2.42-.889,2.42-2.162,0-1.314-.791-2.059-2.232-2.074-.632,0-1.04.043-1.252.103v4.133Z"/>
          <path d="M246.294,227.222l-.916,3.636h-3.226l4.083-14.645h4.056l4.046,14.645h-3.329l-.976-3.636h-3.739ZM249.613,224.833l-.785-3.099c-.218-.873-.459-2.083-.66-2.972h-.047c-.198.894-.417,2.127-.628,2.977l-.774,3.094h2.894Z"/>
          <path d="M256.192,230.858v-14.645h3.485l2.805,5.484c.747,1.413,1.559,3.258,2.145,4.797l.053-.005c-.173-1.815-.274-3.96-.274-6.317v-3.96h2.879v14.645h-3.213l-2.864-5.619c-.761-1.477-1.631-3.346-2.229-4.941l-.064.005c.097,1.8.157,3.928.157,6.487v4.069h-2.879Z"/>
          <path d="M279.674,230.511c-.538.264-1.749.546-3.281.546-4.672,0-7.039-3.141-7.039-7.31,0-5.152,3.424-7.733,7.371-7.733,1.508,0,2.632.296,3.121.57l-.615,2.553c-.562-.249-1.329-.472-2.345-.472-2.316,0-4.185,1.535-4.185,4.9,0,3.104,1.611,4.806,4.193,4.806.853,0,1.786-.172,2.35-.396l.43,2.537Z"/>
          <path d="M289.62,224.59h-4.774v3.628h5.346v2.64h-8.52v-14.645h8.227v2.639h-5.053v3.146h4.774v2.591Z"/>
        </g>
        <g>
          <path d="M339.79,186.367c-.647-.718-.666-1.248-.599-1.67.051-.325.179-.719.315-1.136.23-.709.493-1.512.557-2.451.129-1.871-.636-3.471-1.483-4.921-.2-.344-.431-.704-.67-1.077-.455-.709-.924-1.441-1.175-2.094-.235-.611-.712-1.098-1.318-1.346-.605-.249-1.286-.235-1.883.036-.163.074-.32.157-.47.246-.28.053-.533.093-.769.102-.902.038-1.727-.124-2.681-.313l-.347-.067c-.559-.229-1.122-.421-1.668-.607l-.724-.251c-1.36-.483-2.644-.94-3.319-1.607-1.222-1.205-1.548-2.558-.972-4.021.135-.34.358-.767.595-1.219.964-1.843,2.97-5.679-.715-8.392-1.413-1.041-3.322-1.544-5.218-1.433-.18-.186-.371-.36-.571-.523,1.548-.534,3.139-1.349,4.746-2.433,2.232-1.505,3.645-3.195,4.208-5.053.015-.049.028-.101.042-.159.537-1.264.396-2.6-.392-3.687-.544-.965-1.448-1.622-2.556-1.856-.229-.096-.468-.186-.721-.269l-.432-.137c-.293-.093-.703-.222-.944-.329-.01-.104-.018-.23-.024-.334-.026-.41-.058-.921-.216-1.476-.533-1.882-1.997-2.812-3.299-3.447.333-.206.658-.423.948-.66.73-.596,2.409-2.21,2.244-4.32-.094-1.199-.762-2.219-1.882-2.874-.856-.5-1.739-.612-2.45-.703-.24-.031-.604-.077-.714-.121-.047-.021-.172-.077-.226-.408-.048-.293-.061-.655-.074-1.038-.051-1.444-.129-3.625-2.338-5.333-3.824-2.954-9.665-2.747-17.372.615-.165-.211-.331-.401-.481-.573-.031-.035-.066-.075-.101-.116.509-.412,1.466-.926,2.038-1.233l.359-.195c1.489-.805,2.916-1.624,4.01-2.782,1.706-1.8,1.697-3.759,1.691-4.931,0-.062.002-.106,0-.123.027-.028.076-.072.158-.133.521-.382,1.099-.753,1.711-1.147l6.042-3.959c.22-.145.523-.326.874-.536,3.121-1.878,5.744-3.643,6.101-6.014.027-.084.049-.168.068-.253,1.144.234,2.382.277,3.777.127.752-.08,1.421-.515,1.801-1.169.38-.654.425-1.451.121-2.144-2.226-5.089-3.109-10.851-3.629-15.302-.115-.979-.823-1.786-1.779-2.026-3.202-.807-6.288-1.659-9.173-2.532l-.631-.191c-3.327-1.005-6.768-2.044-9.898-3.441-.867-.387-1.21-1.093-1.898-2.864l-.262-.674c-.364-.949-1.21-3.179-3.934-3.079-.997.032-1.904.297-2.703.531-.396.115-.771.225-1.086.284-.783.146-1.342.203-1.694.035-.848-.402-1.767-1.148-2.657-1.868l-.615-.495c-2.652-2.109-4.96-4.575-6.868-6.708l-.224-.25c-3.765-4.211-8.45-9.453-14.979-10.573-2.5-.43-4.987-.307-7.392-.188-1.806.089-3.515.173-5.157.029-5.129-.454-9.423-2.605-13.515-6.771-1.79-1.822-3.348-3.882-4.999-6.065-2.024-2.677-4.118-5.446-6.705-7.783-1.039-.938-2.236-1.877-3.767-2.953-.401-.281-.878-.432-1.367-.432h-.015c-.308.002-.616.015-.922.038-.031-.177-.068-.354-.111-.527-.141-.566-.485-1.059-.968-1.388-1.451-.988-3.14-2.191-4.669-3.624-.361-.339-.818-.556-1.309-.621-1.614-.216-3.246-.065-4.725.437-.691.235-1.327.533-1.893.88-.088-.11-.184-.214-.289-.311-.57-.524-1.332-.789-2.13-.752-.303-2.528-1.597-5.14-3.546-7.062-.898-.889-2.216-1.082-3.524-.516-2.801,1.213-6.174,2.118-9.435,2.993l-1.267.341c-3.55.961-7.371,1.808-11.358,2.518-.787.14-1.834.624-2.411,1.561-.403.656-.511,1.445-.296,2.163.733,2.459,1.099,4.494,1.151,6.402.031,1.117.095,2.235.161,3.351l.028.489c.019.349.039.731.085,1.135-.026.018-.052.035-.078.053-.757.518-1.27,1.283-1.406,2.099-.066.394-.046.788.056,1.16-.406.327-.79.693-1.152,1.097-.184.206-.362.41-.539.612-.839.961-1.501,1.721-2.57,2.358-.536.32-1.142.601-1.902.879-.285-.053-.585-.069-.897-.052-2.546.166-4.996.841-7.365,1.494l-.108.03c-.216-.007-.429-.019-.635-.041-.668-.081-1.339.121-1.875.504-1.002.228-1.992.542-2.954.936-2.268.564-4.188,1.064-6.124,1.644-2.476.745-5.603,1.962-7.824,4.794-.927,1.18-1.594,2.518-1.93,3.865-.225.9-.23,1.662-.159,2.29-.061.156-.118.314-.167.478-.034.113-.065.225-.093.337-.332.118-.663.237-.992.357l-.364.135c-.57.216-.88.321-1.151.302-.265-.026-.666-.155-1.055-.28-.292-.094-.58-.186-.856-.258-4.241-1.12-9.232-1.379-14.125-.742-1.799-.637-3.705-.574-4.507-.51-.582.047-1.157.137-1.712.268-.139-.236-.315-.451-.526-.638-.316-.28-.845-.751-.915-.918-.007-.043-.016-.096.157-.235.94-.753,1.193-1.584,1.239-2.148.059-.722-.176-1.417-.66-1.955-2.683-2.986-8.2-3.043-11.747-1.172-2.352-.98-4.865-1.593-7.347-1.786-1.259-.094-2.535.512-3.233,1.551-.589.878-.671,1.94-.219,2.842,1.199,2.393,2.438,4.866,3.788,7.342l.246.453c.538.99,1.094,2.013,1.742,3.029l.242.379c.312.492.623.983.956,1.473.013.019.026.038.04.058-.392,1.029-.608,2.083-.783,2.936l-.023.11c-.386,1.881-.556,3.692-.506,5.383.022.748.166,1.416.293,2.006.032.148.065.297.094.446-1.207-1.517-2.949-2.225-4.99-1.98-.847.102-1.943.442-2.866,1.082-.99-.087-1.995-.028-2.964.171-1.939-1.292-5.055-1.221-7.126-.453-1.111.412-1.991.965-2.768,1.453-.614.385-1.143.718-1.727.956-.461.188-1.091.232-1.433.183-.191-.268-.438-.509-.735-.7-.007-.015-.012-.031-.019-.046-.251-.594-.509-1.208-.862-1.843-1.377-2.477-4.54-5.139-8.922-4.473-.345.053-.66.121-.961.186-.628.138-.739.146-.93.087-.198-.063-.383-.135-.568-.205-.475-.18-1.066-.403-1.794-.533-1.49-.262-3.129-.199-4.745.187-2.316.553-4.226,1.672-5.409,3.119-1.053-.06-2.106-.12-3.16-.175-.911-.06-1.836.288-2.526.891-.353-.201-.695-.391-1.034-.575-1.299-.707-2.739-.276-3.577.309-.631.44-2.369.43-3.641.422-.476-.003-.937-.006-1.367.007-2.896.081-5.245.813-7.402,1.555-3.096,1.063-6.984,2.967-7.92,5.995-.447,1.445-.157,2.962.815,4.269.638.858,1.78,1.271,2.906,1.056.382-.073.768-.135,1.156-.182-.038.678.106,1.368.437,2.042.038.078.08.153.126.226-1.15.447-2.157,1.152-2.877,2.26-.551.853-.576,1.965-.064,2.833.52.882,1.508,1.39,2.569,1.312,2.055-.137,3.807.451,4.81,1.166-.483.735-.611,1.631-.329,2.432.323.915,1.11,1.555,2.103,1.712,1.799.287,3.617.398,5.405.333,1.154-.043,2.177-.606,2.764-1.483l.083.027c.23.076.452.161.673.246.417.16.834.316,1.278.443,1.086.311,2.198.583,3.273.845l.947.232c1.364.338,2.731.666,4.107.98.296.067.6.145.91.225.569.145,1.193.304,1.846.426.279.236.557.474.832.722.406.362,1.298.914,2.71.525.611-.172,1.218-.35,1.82-.534.404.58,1.026.973,1.763,1.1.12.02.237.046.355.076.215.392.436.724.618.972.343.474,1.143,1.24,2.71,1.126.986-.081,1.941-.291,2.856-.539-.003,1.477,1.091,2.729,2.645,3.003.53.093,1.061.191,1.592.29,1.071.199,2.178.405,3.295.563.391.055.777.084,1.149.102.069.65.255,1.284.559,1.882.348.686.933,1.659,1.983,2.196.856.439,1.879.46,3.124.435.143-.002.271-.002.367-.004.475.006.958.002,1.45-.01-.053.502.033,1.009.261,1.467.242.487.62.878,1.095,1.147-.342.362-.617.804-.746,1.323-1.009,4.07,2.921,6.749,5.028,8.186l.011.008c.142.193.286.384.431.572.718.934,1.514,1.838,2.368,2.688.423.419.854.791,1.278,1.145.066.16.142.318.23.473.092.16.19.29.284.398.136.195.295.366.474.514.855.891,2.084,1.541,3.736,1.977,1.904,1.071,3.903,1.909,5.947,2.497.588.169,1.24.352,1.931.52l2.503,5.544c.101.258.197.517.294.775l.83,2.189c.077.202.161.392.249.572-.45.402-.789.91-.945,1.482-.523,1.912.085,3.845,1.626,5.235-.112.217-.196.445-.249.682-.363,1.628-.718,3.257-1.072,4.886-.382,1.753-.764,3.507-1.154,5.254l-.074.346c-.046.207-.063.418-.053.629.151,3.061.19,6.18.115,9.269-.005.22.02.436.073.644-.06.197-.095.403-.102.611-.19,5.538-.738,10.985-1.629,16.191-.149.872-.273,1.755-.396,2.641-.283,2.031-.551,3.948-1.133,5.722-.638,1.945-1.692,3.204-3.15,4.947l-.466.558c-.843,1.014-1.417,2.242-1.754,3.754-.146.652-.01,1.335.374,1.881.147.211.326.392.527.543-.089.071-.187.148-.295.23-.612.462-.964,1.191-.944,1.958.008.334.017.664.03.987.037.949.635,1.785,1.521,2.125l.796.306c.694.266,1.387.532,2.074.8,1.137.449,2.248.067,2.984-.397,3.422,1.962,8.139,2.476,12.493,2.868.141.264.316.517.526.755.687.781,1.552,1.149,2.247,1.444.182.078.365.153.479.198.059.062.102.131.15.196.219.299.55.75,1.105,1.167,1.697,1.28,3.811.975,5.254.632.277-.066.603-.165.953-.275.309-.097.834-.262,1.156-.315,1.268.741,2.816.241,3.62-.343l.491-.356c.348.364.695.726,1.04,1.09l.085.089c.669.708,1.788,1.893,3.914,2.045,1.357.092,2.618-.213,3.628-.462.135-.032.288-.074.453-.12.145-.041.365-.101.555-.145,1.014.615,2.32.507,3.285-.016l.074-.041c3.792,1.359,8.086.636,11.916-.007l.581-.098c.785-.13,1.847-.596,2.472-1.515.316-.465.485-.989.495-1.522.114-.026.271-.05.479-.039.526.015,1.031-.09,1.516-.297,1.117.257,2.226.58,3.385.917.547.16,1.092.319,1.641.471,3.479.965,6.464,1.477,9.332,1.595,1.656.85,3.624.898,5.11.934l.169.005c.899.021,1.683.04,2.292.231-.031.427.043.86.227,1.267.491,1.086,1.605,1.694,2.916,1.58,2.381-.207,4.184.931,4.276,1.445.145.814.647,1.502,1.377,1.891,1.252.669,2.592.173,2.972.004,3.057-1.348,7.132-.638,8.872.837.568.484,1.257.661,1.902.661.465,0,.907-.092,1.262-.226,2.062-.776,4.288-1.512,6.803-2.251.64-.187,1.172-.636,1.465-1.236.77-1.574,1.152-3.304,1.459-4.693.14-.637.271-1.276.402-1.912.586-2.867,1.141-5.575,2.607-7.866.136-.213.299-.429.475-.648,3.871-.369,7.289-1.067,10.421-2.126,1.965-.663,3.887-1.485,5.747-2.279,3.734-1.596,7.261-3.103,11.001-3.382,3.779-.282,7.548.668,11.544,1.675,1.176.296,2.348.591,3.514.852,2.808.628,6.672,1.213,10.52.071.075.588.175,1.18.326,1.768.046.182.114.357.202.523.138.261.259.522.365.764.117.264.223.533.328.802l.062.155c.071.181.166.353.279.51.688.955,1.602,1.698,2.717,2.206,2.981,1.363,6.023,2.397,9.041,3.074.585.13,1.196.037,1.713-.264.84-.488,1.626-1.028,2.388-1.551,1.392-.955,2.706-1.857,4.09-2.266,1.174-.348,2.532-.428,4.411-.261.355.031.711.069,1.066.106,1.381.145,2.813.294,4.329.166,2.312-.197,4.476-1.153,6.095-2.696,1.191-1.135,1.929-2.488,2.579-3.682l.233-.426c.738-1.336,1.418-2.379,2.339-3.128.772-.629,1.74-1.117,2.765-1.634l.557-.282c1.924-.984,3.434-1.989,4.751-3.164.501-.447.975-.921,1.449-1.396.458-.459.891-.893,1.335-1.282.727-.636,1.473-1.062,2.282-1.302,1.057-.315,2.272-.379,3.559-.447.358-.02.715-.038,1.07-.062,1.623-.109,3.514-.263,5.408-.711,1.709-.406,3.396-1.059,5.156-1.999.644-.343,1.094-.965,1.22-1.684.127-.72-.085-1.457-.573-2Z" style="fill: #d1d3d4; mix-blend-mode: multiply;"/>
          <path d="M336.804,185.087c-.647-.718-.666-1.248-.599-1.67.051-.325.179-.719.315-1.136.23-.709.493-1.512.557-2.451.129-1.871-.636-3.471-1.483-4.921-.2-.344-.431-.704-.67-1.077-.454-.709-.924-1.441-1.175-2.094-.235-.611-.711-1.099-1.318-1.346-.605-.249-1.286-.235-1.883.036-.163.074-.32.157-.469.246-.28.053-.534.093-.769.102-.902.038-1.727-.124-2.681-.313l-.347-.067c-.559-.229-1.122-.421-1.668-.607l-.724-.251c-1.36-.483-2.644-.94-3.319-1.607-1.222-1.205-1.548-2.558-.972-4.021.135-.34.358-.767.595-1.219.964-1.843,2.97-5.679-.715-8.392-1.413-1.041-3.322-1.544-5.218-1.433-.18-.185-.371-.36-.571-.523,1.548-.534,3.139-1.349,4.746-2.434,2.232-1.505,3.645-3.195,4.208-5.053.015-.049.028-.101.042-.159.537-1.264.396-2.6-.391-3.687-.544-.965-1.448-1.622-2.556-1.856-.229-.096-.469-.186-.721-.269l-.432-.137c-.293-.093-.703-.222-.944-.329-.01-.104-.018-.23-.024-.334-.026-.41-.058-.921-.216-1.476-.533-1.882-1.997-2.812-3.299-3.447.333-.206.658-.423.948-.66.73-.596,2.409-2.21,2.244-4.32-.094-1.199-.762-2.219-1.882-2.874-.856-.5-1.739-.612-2.45-.703-.24-.031-.604-.077-.714-.121-.047-.021-.172-.077-.226-.408-.048-.293-.061-.655-.074-1.038-.051-1.444-.129-3.625-2.338-5.333-3.824-2.954-9.665-2.747-17.372.615-.165-.211-.331-.401-.482-.573-.031-.035-.066-.075-.101-.116.509-.412,1.466-.926,2.038-1.233l.359-.195c1.489-.805,2.916-1.624,4.01-2.782,1.706-1.8,1.697-3.759,1.691-4.931,0-.062.002-.106,0-.123.027-.028.076-.072.158-.133.521-.382,1.099-.753,1.711-1.147l6.042-3.959c.22-.145.523-.326.874-.536,3.121-1.878,5.744-3.643,6.101-6.014.027-.083.049-.168.068-.253,1.144.234,2.382.277,3.777.127.752-.08,1.421-.515,1.801-1.169.38-.654.425-1.451.122-2.144-2.226-5.089-3.109-10.851-3.629-15.302-.115-.979-.823-1.786-1.779-2.026-3.203-.807-6.288-1.659-9.173-2.532l-.631-.191c-3.327-1.005-6.768-2.044-9.898-3.441-.867-.387-1.21-1.093-1.898-2.864l-.262-.673c-.364-.949-1.21-3.179-3.934-3.079-.997.033-1.904.297-2.703.531-.396.115-.771.225-1.086.284-.783.146-1.342.203-1.694.035-.848-.402-1.767-1.148-2.657-1.868l-.615-.495c-2.652-2.109-4.96-4.575-6.868-6.709l-.224-.249c-3.765-4.211-8.45-9.453-14.979-10.573-2.5-.43-4.987-.307-7.392-.188-1.806.089-3.515.173-5.157.029-5.128-.454-9.423-2.605-13.515-6.771-1.79-1.822-3.348-3.883-4.999-6.065-2.024-2.677-4.118-5.446-6.705-7.783-1.039-.938-2.236-1.877-3.767-2.953-.401-.281-.878-.432-1.367-.432h-.015c-.308.002-.616.015-.922.038-.032-.177-.068-.354-.111-.527-.141-.566-.485-1.06-.968-1.388-1.451-.988-3.14-2.191-4.669-3.624-.361-.339-.818-.556-1.309-.621-1.614-.216-3.246-.065-4.725.437-.691.235-1.327.533-1.893.88-.088-.11-.184-.214-.289-.311-.57-.524-1.332-.789-2.13-.752-.303-2.528-1.597-5.14-3.546-7.062-.898-.889-2.216-1.082-3.524-.516-2.801,1.212-6.174,2.118-9.435,2.993l-1.267.341c-3.55.961-7.371,1.808-11.358,2.518-.787.14-1.834.624-2.411,1.561-.403.656-.511,1.445-.296,2.163.733,2.459,1.099,4.494,1.151,6.402.031,1.117.096,2.235.161,3.351l.028.489c.019.349.039.731.085,1.136-.026.018-.052.035-.078.053-.757.518-1.27,1.283-1.407,2.099-.066.394-.045.788.056,1.16-.406.327-.791.693-1.152,1.097-.184.206-.362.41-.539.612-.839.961-1.501,1.721-2.57,2.358-.536.32-1.142.601-1.902.879-.285-.053-.584-.069-.897-.052-2.546.166-4.996.841-7.365,1.494l-.108.03c-.216-.008-.429-.019-.635-.041-.668-.081-1.339.121-1.875.504-1.002.228-1.992.542-2.954.936-2.268.564-4.188,1.064-6.124,1.644-2.476.745-5.603,1.962-7.824,4.794-.927,1.18-1.594,2.518-1.93,3.865-.225.9-.23,1.662-.159,2.29-.061.156-.118.314-.167.478-.034.113-.065.225-.093.337-.332.118-.663.236-.992.357l-.364.135c-.57.216-.88.321-1.151.302-.265-.026-.666-.155-1.055-.28-.292-.094-.58-.186-.856-.258-4.241-1.12-9.232-1.379-14.125-.742-1.799-.637-3.705-.574-4.507-.51-.582.047-1.157.137-1.712.268-.139-.236-.315-.451-.526-.638-.316-.28-.845-.751-.915-.918-.007-.043-.016-.096.157-.235.94-.753,1.193-1.584,1.239-2.148.059-.722-.176-1.417-.66-1.955-2.683-2.986-8.2-3.043-11.747-1.172-2.352-.98-4.865-1.593-7.347-1.786-1.259-.094-2.535.512-3.233,1.551-.589.878-.671,1.94-.219,2.842,1.199,2.393,2.438,4.866,3.788,7.342l.246.453c.538.99,1.094,2.013,1.742,3.029l.242.38c.312.492.623.983.956,1.473.014.019.026.038.04.059-.392,1.029-.608,2.083-.783,2.936l-.023.11c-.386,1.881-.556,3.692-.506,5.383.022.748.166,1.416.293,2.006.032.149.064.297.094.446-1.207-1.517-2.949-2.225-4.99-1.98-.847.102-1.943.442-2.866,1.082-.99-.087-1.995-.028-2.964.171-1.939-1.292-5.055-1.221-7.126-.453-1.111.412-1.991.965-2.768,1.453-.614.385-1.143.718-1.727.956-.461.188-1.091.232-1.433.183-.191-.268-.438-.509-.735-.7-.007-.015-.012-.031-.019-.045-.251-.594-.509-1.208-.862-1.843-1.377-2.477-4.54-5.139-8.922-4.473-.345.053-.66.121-.961.186-.628.138-.739.147-.93.087-.198-.063-.383-.135-.568-.205-.475-.18-1.066-.404-1.794-.533-1.49-.262-3.129-.199-4.745.186-2.316.553-4.226,1.672-5.409,3.119-1.053-.06-2.106-.12-3.16-.175-.911-.06-1.836.289-2.526.892-.353-.201-.695-.391-1.034-.575-1.299-.707-2.739-.276-3.577.309-.631.44-2.369.43-3.641.422-.476-.003-.937-.006-1.367.007-2.896.081-5.245.813-7.402,1.555-3.096,1.063-6.984,2.967-7.92,5.995-.447,1.445-.157,2.962.815,4.269.638.858,1.78,1.271,2.906,1.056.382-.073.768-.135,1.156-.182-.038.678.106,1.368.437,2.042.038.078.08.153.126.226-1.15.447-2.157,1.152-2.877,2.26-.551.853-.576,1.965-.064,2.833.52.882,1.508,1.39,2.569,1.312,2.055-.137,3.807.451,4.81,1.166-.483.735-.611,1.631-.329,2.432.323.915,1.11,1.555,2.103,1.712,1.799.287,3.617.398,5.405.333,1.154-.043,2.177-.606,2.764-1.483l.083.027c.23.076.452.162.673.246.416.16.833.316,1.278.443,1.086.311,2.198.583,3.273.845l.947.232c1.364.338,2.731.666,4.107.98.296.067.6.145.91.225.569.145,1.193.304,1.846.426.279.236.557.474.832.722.406.362,1.298.914,2.71.525.611-.172,1.218-.35,1.82-.533.404.58,1.026.973,1.763,1.1.12.02.237.045.355.076.215.392.436.724.618.972.343.474,1.143,1.24,2.71,1.126.986-.081,1.941-.291,2.856-.539-.003,1.477,1.091,2.729,2.645,3.003.53.093,1.061.191,1.591.29,1.071.199,2.178.405,3.295.563.391.055.778.084,1.149.102.069.649.255,1.284.559,1.882.348.686.933,1.659,1.983,2.196.856.439,1.879.46,3.124.435.143-.002.271-.002.367-.004.475.006.958.002,1.45-.01-.053.502.033,1.009.261,1.467.242.487.62.878,1.095,1.147-.342.362-.617.804-.746,1.323-1.009,4.07,2.92,6.749,5.028,8.186l.011.008c.142.193.286.384.431.571.718.934,1.514,1.838,2.368,2.688.423.419.854.791,1.278,1.145.066.16.142.318.23.473.092.159.19.29.284.398.136.195.295.366.474.514.855.891,2.084,1.541,3.736,1.977,1.904,1.071,3.903,1.909,5.947,2.497.588.169,1.24.352,1.931.519l2.503,5.544c.101.258.197.517.294.776l.83,2.189c.077.202.161.392.249.572-.45.402-.789.91-.945,1.483-.523,1.912.085,3.844,1.626,5.235-.112.217-.196.445-.249.682-.363,1.628-.718,3.257-1.072,4.886-.382,1.753-.763,3.507-1.154,5.254l-.074.346c-.045.207-.063.418-.053.629.151,3.061.19,6.18.115,9.269-.005.22.02.436.073.644-.06.197-.095.403-.102.611-.19,5.538-.738,10.985-1.629,16.191-.149.872-.273,1.755-.396,2.641-.283,2.031-.551,3.948-1.133,5.722-.638,1.944-1.692,3.203-3.15,4.947l-.466.558c-.843,1.014-1.417,2.242-1.754,3.754-.146.652-.01,1.335.374,1.881.147.211.326.392.527.543-.089.072-.187.149-.296.23-.612.462-.964,1.191-.944,1.958.008.334.017.664.03.987.037.949.635,1.785,1.521,2.126l.796.306c.694.266,1.387.533,2.074.8,1.137.449,2.248.067,2.984-.397,3.422,1.962,8.139,2.476,12.493,2.868.141.263.316.517.526.755.687.781,1.552,1.148,2.247,1.444.182.078.366.153.479.198.059.062.102.131.15.196.219.299.55.75,1.105,1.167,1.697,1.28,3.811.975,5.254.632.277-.066.603-.165.953-.275.309-.097.834-.262,1.156-.315,1.268.741,2.816.241,3.62-.343l.491-.356c.348.364.695.727,1.04,1.09l.085.089c.669.708,1.788,1.893,3.914,2.045,1.357.092,2.618-.213,3.628-.462.135-.033.289-.074.453-.12.145-.041.365-.101.555-.145,1.014.615,2.32.507,3.285-.016l.074-.041c3.792,1.359,8.086.635,11.916-.007l.581-.098c.785-.13,1.847-.597,2.472-1.515.316-.465.485-.989.495-1.521.114-.026.271-.05.479-.039.525.015,1.031-.09,1.515-.297,1.118.257,2.226.58,3.385.918.547.16,1.092.319,1.641.471,3.479.965,6.464,1.477,9.332,1.595,1.656.85,3.624.898,5.109.934l.169.005c.899.021,1.683.04,2.292.231-.031.427.043.86.227,1.267.491,1.086,1.605,1.694,2.916,1.58,2.381-.207,4.184.931,4.276,1.445.145.814.647,1.502,1.377,1.891,1.253.669,2.592.172,2.972.004,3.057-1.348,7.132-.638,8.872.837.568.484,1.258.661,1.902.661.465,0,.907-.092,1.262-.226,2.062-.776,4.287-1.512,6.803-2.251.64-.187,1.172-.636,1.465-1.236.77-1.574,1.152-3.304,1.459-4.693.14-.637.271-1.276.402-1.912.586-2.867,1.141-5.575,2.607-7.866.136-.213.299-.429.475-.648,3.87-.369,7.289-1.067,10.421-2.126,1.965-.663,3.887-1.485,5.747-2.28,3.734-1.596,7.261-3.103,11.001-3.382,3.779-.282,7.548.668,11.544,1.676,1.176.296,2.348.591,3.514.852,2.808.628,6.672,1.213,10.52.071.075.588.175,1.18.326,1.768.046.182.114.357.202.523.138.261.259.522.365.764.117.264.223.532.328.802l.062.155c.071.181.166.353.279.51.687.955,1.602,1.698,2.717,2.206,2.981,1.363,6.023,2.397,9.041,3.074.585.13,1.196.037,1.713-.264.84-.488,1.626-1.028,2.388-1.551,1.392-.955,2.706-1.857,4.09-2.266,1.173-.348,2.532-.428,4.41-.261.355.032.711.069,1.066.106,1.381.145,2.813.294,4.329.166,2.312-.197,4.476-1.153,6.095-2.696,1.191-1.135,1.929-2.488,2.579-3.682l.233-.426c.737-1.336,1.417-2.379,2.339-3.128.772-.629,1.74-1.117,2.765-1.634l.557-.282c1.924-.984,3.433-1.989,4.751-3.163.501-.447.975-.921,1.449-1.396.458-.459.892-.893,1.335-1.282.727-.636,1.473-1.062,2.282-1.302,1.057-.315,2.272-.379,3.559-.447.358-.02.715-.038,1.07-.062,1.624-.109,3.514-.263,5.408-.711,1.709-.405,3.395-1.059,5.155-1.999.644-.343,1.094-.965,1.22-1.684.127-.72-.085-1.457-.573-2Z" style="fill: #fff;"/>
          <g style="clip-path: url(#clippath);">
            <g>
              <rect x="60.814" y="-48.216" width="226.729" height="331.123" transform="translate(291.525 -56.833) rotate(90)" style="fill: #f6f6f6;"/>
              <rect x="-49.56" y="62.159" width="226.729" height="110.374" transform="translate(181.15 53.542) rotate(90)" style="fill: #133062;"/>
              <rect x="171.189" y="62.159" width="226.729" height="110.374" transform="translate(401.899 -167.207) rotate(90)" style="fill: #a7332d;"/>
            </g>
          </g>
        </g>
        <g>
          <path d="M184.743,236.289c-1.526,0-2.768-1.242-2.768-2.768v-4.304c0-.824.362-1.565.935-2.072-.475-2.255-1.453-5.616-3.43-9.05-4.505-7.824-11.895-12.257-21.965-13.175l-2.8.002c-10.043.917-17.419,5.349-21.924,13.173-1.951,3.389-2.93,6.73-3.409,8.958.636.507,1.044,1.289,1.044,2.164v4.304c0,1.526-1.242,2.768-2.768,2.768h-26.164c-1.526,0-2.768-1.242-2.768-2.768v-4.304c0-1.526,1.242-2.768,2.768-2.768h1.368c8.733-10.089,16.403-23.544,22.832-40.049-1.269-.252-2.229-1.373-2.229-2.715v-4.587c0-1.526,1.242-2.768,2.768-2.768h3.103c3.024-9.014,5.751-18.906,8.119-29.458-.421-.486-.676-1.119-.676-1.81v-4.22c0-1.449,1.119-2.641,2.538-2.758,1.194-5.994,2.288-12.219,3.256-18.533,4.772-31.116,5.582-57.986,5.718-66.626-.761-.494-1.265-1.351-1.265-2.323v-1.995c-.509-.502-.824-1.2-.824-1.969v-2.564c0-.964.496-1.815,1.246-2.311v-.416c0-.695.257-1.33.681-1.817v-.622c0-1.526,1.242-2.768,2.768-2.768h1.086l.659-13.305c-.306-.57-.472-1.211-.472-1.866,0-2.186,1.778-3.964,3.964-3.964s3.964,1.778,3.964,3.964c0,.655-.166,1.296-.472,1.866l.659,13.305h1.086c1.526,0,2.768,1.242,2.768,2.768v.622c.424.486.681,1.122.681,1.817v.416c.75.496,1.246,1.346,1.246,2.311v2.564c0,.77-.316,1.467-.824,1.969v1.995c0,.973-.504,1.83-1.265,2.323.137,8.64.946,35.511,5.718,66.626.969,6.317,2.063,12.542,3.256,18.533,1.419.117,2.538,1.31,2.538,2.758v4.22c0,.692-.255,1.325-.676,1.81,2.368,10.551,5.095,20.443,8.119,29.458h3.103c1.526,0,2.768,1.242,2.768,2.768v4.587c0,1.342-.96,2.463-2.228,2.715,2.176,5.584,4.51,10.858,6.959,15.724.278.333.476.723.581,1.144.62,1.206,1.259,2.409,1.905,3.587.324.347.558.77.681,1.229,2.067,3.678,4.248,7.16,6.488,10.359.241.238.438.518.582.826,1.816,2.542,3.707,4.952,5.635,7.18h1.499c1.526,0,2.768,1.242,2.768,2.768v4.304c0,1.526-1.242,2.768-2.768,2.768h-26.164ZM118.423,221.303l4.901-1.602-1.076-1.258-4.844,2.31,1.019.549ZM193.979,221.303l1.019-.549-4.844-2.311-1.076,1.258,4.901,1.602ZM123.758,211.323l5.138-2.45-1.224-1.431-5.058,2.544,1.144,1.337ZM188.644,211.323l1.144-1.337-5.058-2.544-1.224,1.431,5.138,2.45Z" style="fill: #d1d3d4; mix-blend-mode: multiply;"/>
          <path d="M182.629,234.337c-1.526,0-2.768-1.242-2.768-2.768v-4.304c0-.824.362-1.565.934-2.072-.475-2.255-1.453-5.616-3.43-9.05-4.505-7.824-11.895-12.257-21.965-13.175l-2.8.002c-10.043.917-17.419,5.349-21.924,13.173-1.951,3.389-2.93,6.73-3.409,8.958.636.507,1.044,1.289,1.044,2.164v4.304c0,1.526-1.242,2.768-2.768,2.768h-26.164c-1.526,0-2.768-1.242-2.768-2.768v-4.304c0-1.526,1.242-2.768,2.768-2.768h1.368c8.733-10.089,16.403-23.544,22.832-40.049-1.269-.252-2.229-1.373-2.229-2.715v-4.587c0-1.526,1.242-2.768,2.768-2.768h3.103c3.025-9.014,5.751-18.906,8.119-29.458-.421-.486-.675-1.119-.675-1.81v-4.22c0-1.449,1.119-2.641,2.538-2.758,1.194-5.994,2.288-12.219,3.256-18.533,4.772-31.116,5.582-57.986,5.718-66.626-.761-.494-1.265-1.351-1.265-2.323v-1.995c-.509-.502-.825-1.2-.825-1.969v-2.564c0-.964.496-1.815,1.246-2.311v-.416c0-.695.257-1.33.681-1.817v-.622c0-1.526,1.242-2.768,2.768-2.768h1.086l.659-13.305c-.306-.57-.472-1.211-.472-1.866,0-2.186,1.778-3.964,3.964-3.964s3.964,1.778,3.964,3.964c0,.655-.166,1.296-.472,1.866l.659,13.305h1.086c1.526,0,2.768,1.242,2.768,2.768v.622c.424.486.681,1.122.681,1.817v.416c.75.496,1.246,1.346,1.246,2.311v2.564c0,.769-.316,1.467-.825,1.969v1.995c0,.973-.504,1.83-1.265,2.323.137,8.64.946,35.511,5.718,66.626.969,6.317,2.063,12.542,3.256,18.533,1.419.117,2.538,1.31,2.538,2.758v4.22c0,.692-.255,1.325-.675,1.81,2.368,10.551,5.095,20.443,8.119,29.458h3.103c1.526,0,2.768,1.242,2.768,2.768v4.587c0,1.342-.959,2.463-2.228,2.715,2.176,5.584,4.51,10.858,6.959,15.724.278.333.476.723.581,1.144.62,1.206,1.259,2.409,1.905,3.587.324.347.558.77.681,1.229,2.067,3.678,4.247,7.16,6.488,10.359.241.238.438.518.582.826,1.816,2.542,3.707,4.952,5.635,7.18h1.499c1.526,0,2.768,1.242,2.768,2.768v4.304c0,1.526-1.242,2.768-2.768,2.768h-26.164ZM116.309,219.352l4.901-1.602-1.076-1.258-4.844,2.31,1.019.549ZM191.865,219.352l1.019-.549-4.844-2.31-1.076,1.257,4.901,1.602ZM121.644,209.372l5.138-2.45-1.224-1.431-5.058,2.544,1.144,1.337ZM186.53,209.372l1.144-1.337-5.058-2.544-1.224,1.431,5.138,2.45Z" style="fill: #fff;"/>
          <g>
            <path d="M172.883,197.994c-.029-.098.018-.224.111-.272,1.077-.56,2.262-.883,3.452-1.095,2.485-.443,5.04-.462,7.555-.369.797.03,1.593.078,2.389.132-2.59-5.61-4.939-11.464-7.063-17.474h-50.61c-2.204,6.237-4.653,12.303-7.359,18.105.242.002.484.003.725-.002,4.41-.08,8.904-1.074,13.267,0,.158.039.213.22.144.354-.799,1.553-1.485,3.16-2.093,4.797-1.107,2.976-1.975,6.031-2.897,9.069,4.165-5.347,10.949-10.177,21.99-11.155h3.058c11.211.993,18.034,5.958,22.181,11.403-1.511-4.532-3.51-8.9-4.849-13.491Z" style="fill: #a08c77;"/>
            <path d="M206.179,228.086h-22.086c-.253,0-.463-.196-.48-.449-.004-.062-.468-6.282-4.161-12.695-4.936-8.572-12.992-13.41-23.944-14.381l-3.016.002c-10.909.968-18.965,5.807-23.901,14.379-3.693,6.414-4.157,12.633-4.161,12.695-.017.252-.227.449-.48.449h-22.086c-.19,0-.362-.112-.44-.285-.077-.174-.046-.376.081-.518,10.806-12.041,20.008-28.939,27.35-50.224,5.881-17.05,10.586-36.933,13.985-59.096,5.79-37.754,5.774-69.45,5.773-69.766,0-.128.05-.251.141-.341s.213-.141.341-.141h9.854c.128,0,.251.051.341.141.09.091.141.213.141.341-.001.316-.017,32.012,5.773,69.766,3.399,22.163,8.104,42.046,13.985,59.096,7.342,21.285,16.543,38.182,27.35,50.224.127.142.159.344.081.518-.077.173-.25.285-.44.285ZM184.531,227.124h20.578c-10.586-12.082-19.611-28.815-26.834-49.757-5.9-17.106-10.619-37.048-14.026-59.271-5.41-35.281-5.759-65.285-5.78-69.418h-8.894c-.022,4.133-.371,34.137-5.78,69.418-3.408,22.223-8.127,42.165-14.027,59.271-7.223,20.942-16.247,37.675-26.833,49.757h20.578c.171-1.57.968-6.954,4.226-12.628,3.506-6.106,10.639-13.646,24.712-14.893l3.101-.002c14.115,1.249,21.249,8.789,24.755,14.895,3.258,5.674,4.055,11.058,4.226,12.628ZM164.289,177.538h-20.221c-.145,0-.283-.065-.374-.178-.091-.113-.127-.261-.097-.403l4.383-20.647c.047-.222.244-.381.471-.381h11.273c.226,0,.421.157.47.378l4.565,20.646c.032.142-.003.291-.095.405-.091.114-.229.18-.375.18ZM144.662,176.575h19.028l-4.353-19.684h-10.497l-4.178,19.684Z" style="fill: #753f2e;"/>
            <path d="M179.911,214.374c-.126,0-.248-.066-.315-.184-10.317-18.282-17.278-43.111-21.281-75.907-5.209-42.685-4.428-88.953-4.42-89.415.004-.199.171-.355.368-.355.199.004.358.168.354.368-.008.462-.789,46.681,4.415,89.315,3.991,32.7,10.923,57.442,21.193,75.639.098.174.037.394-.137.492-.056.031-.117.047-.177.047Z" style="fill: #753f2e;"/>
            <path d="M128.552,214.374c-.06,0-.121-.015-.177-.047-.174-.098-.235-.318-.137-.492,10.27-18.197,17.202-42.939,21.193-75.639,5.204-42.635,4.423-88.853,4.415-89.315-.004-.199.155-.364.354-.368.197-.002.364.155.368.355.008.462.79,46.73-4.42,89.415-4.003,32.796-10.964,57.626-21.281,75.907-.066.118-.189.184-.315.184Z" style="fill: #753f2e;"/>
            <g>
              <g>
                <g>
                  <polygon points="155.565 37.493 154.623 18.465 154.257 18.465 153.786 18.465 153.42 18.465 152.478 37.493 155.565 37.493" style="fill: #c9ae93;"/>
                  <path d="M155.565,37.854h-3.087c-.099,0-.193-.04-.262-.112-.068-.072-.104-.168-.099-.267l.942-19.028c.009-.192.168-.343.361-.343h1.203c.193,0,.351.151.361.343l.942,19.028c.005.099-.031.195-.099.267-.068.072-.163.112-.262.112ZM152.857,37.132h2.328l-.906-18.306h-.516l-.906,18.306Z" style="fill: #753f2e;"/>
                </g>
                <g>
                  <path d="M155.338,19.017c0,.727-.59,1.317-1.317,1.317s-1.317-.59-1.317-1.317.59-1.317,1.317-1.317,1.317.59,1.317,1.317Z" style="fill: #c9ae93;"/>
                  <path d="M154.022,20.574c-.859,0-1.557-.698-1.557-1.557s.699-1.557,1.557-1.557,1.557.699,1.557,1.557-.698,1.557-1.557,1.557ZM154.022,17.941c-.593,0-1.076.483-1.076,1.076s.483,1.076,1.076,1.076,1.076-.483,1.076-1.076-.483-1.076-1.076-1.076Z" style="fill: #753f2e;"/>
                </g>
              </g>
              <g>
                <rect x="148.785" y="36.955" width="10.474" height="3.579" style="fill: #c9ae93;"/>
                <path d="M159.259,40.895h-10.474c-.199,0-.361-.162-.361-.361v-3.578c0-.199.162-.361.361-.361h10.474c.199,0,.361.162.361.361v3.578c0,.199-.162.361-.361.361ZM149.146,40.173h9.752v-2.856h-9.752v2.856Z" style="fill: #753f2e;"/>
              </g>
              <g>
                <rect x="148.103" y="39.394" width="11.836" height="3.973" style="fill: #a08c77;"/>
                <path d="M159.94,43.729h-11.836c-.199,0-.361-.162-.361-.361v-3.973c0-.199.162-.361.361-.361h11.836c.199,0,.361.162.361.361v3.973c0,.199-.162.361-.361.361ZM148.464,43.007h11.114v-3.251h-11.114v3.251Z" style="fill: #753f2e;"/>
              </g>
              <g>
                <rect x="147.682" y="44.317" width="12.679" height="4.332" style="fill: #a08c77;"/>
                <path d="M160.361,49.01h-12.679c-.199,0-.361-.162-.361-.361v-4.332c0-.199.162-.361.361-.361h12.679c.199,0,.361.162.361.361v4.332c0,.199-.162.361-.361.361ZM148.043,48.288h11.957v-3.61h-11.957v3.61Z" style="fill: #753f2e;"/>
              </g>
              <g>
                <rect x="146.858" y="42.121" width="14.328" height="2.564" style="fill: #c9ae93;"/>
                <path d="M161.185,45.046h-14.328c-.199,0-.361-.162-.361-.361v-2.564c0-.199.162-.361.361-.361h14.328c.199,0,.361.162.361.361v2.564c0,.199-.162.361-.361.361ZM147.219,44.324h13.606v-1.842h-13.606v1.842Z" style="fill: #753f2e;"/>
              </g>
            </g>
            <g>
              <rect x="137.435" y="138.89" width="33.174" height="4.22" style="fill: #a08c77;"/>
              <path d="M170.608,143.472h-33.174c-.199,0-.361-.162-.361-.361v-4.22c0-.199.162-.361.361-.361h33.174c.199,0,.361.162.361.361v4.22c0,.199-.162.361-.361.361ZM137.796,142.75h32.452v-3.498h-32.452v3.498Z" style="fill: #753f2e;"/>
            </g>
            <g style="mix-blend-mode: multiply;">
              <rect x="137.435" y="141.395" width="33.174" height="1.715" style="fill: #706353;"/>
            </g>
            <g>
              <polygon points="136.644 152.398 171.416 152.398 171.982 154.777 136.191 154.777 136.644 152.398" style="fill: #968364;"/>
              <path d="M171.982,155.258h-35.791c-.144,0-.28-.064-.371-.174-.091-.111-.129-.256-.102-.397l.453-2.378c.043-.227.242-.391.473-.391h34.772c.223,0,.417.153.468.37l.566,2.378c.034.143,0,.294-.091.41-.091.116-.23.183-.378.183ZM136.773,154.295h34.6l-.337-1.416h-33.993l-.27,1.416Z" style="fill: #753f2e;"/>
            </g>
            <path d="M174.644,203.841c-.077,0-.155-.024-.22-.075-19.598-15.113-39.972-.985-40.175-.841-.163.116-.388.078-.503-.085-.115-.162-.077-.388.085-.503.052-.037,5.287-3.715,12.914-5.431,7.051-1.586,17.653-1.783,28.12,6.289.158.122.187.348.065.506-.071.092-.178.141-.286.141Z" style="fill: #753f2e;"/>
            <g>
              <polygon points="159.724 156.41 148.451 156.41 144.068 177.056 164.29 177.056 159.724 156.41" style="fill: none;"/>
              <path d="M186.415,196.819h-64.787c-.123,0-.238-.063-.304-.167-.066-.104-.075-.234-.024-.346,1.511-3.27,2.986-6.731,4.384-10.288.054-.138.188-.229.336-.229h56.003c.148,0,.282.091.336.229,1.398,3.556,2.873,7.018,4.384,10.288.052.112.043.242-.023.346-.066.104-.181.167-.304.167ZM122.191,196.097h63.66c-1.402-3.06-2.771-6.281-4.075-9.585h-55.511c-1.303,3.304-2.673,6.525-4.075,9.585Z" style="fill: #753f2e;"/>
              <path d="M164.289,177.417h-20.221c-.109,0-.212-.049-.281-.134-.068-.085-.095-.196-.073-.302l4.383-20.647c.035-.167.183-.286.353-.286h11.273c.169,0,.316.118.353.283l4.565,20.646c.024.107-.003.219-.071.304-.069.085-.172.135-.282.135ZM144.514,176.695h19.326l-4.406-19.924h-10.691l-4.229,19.924Z" style="fill: #753f2e;"/>
              <path d="M182.023,186.512h-56.003c-.119,0-.231-.059-.298-.158s-.081-.224-.038-.335c.782-1.99,1.566-4.077,2.329-6.205.052-.143.188-.239.34-.239h51.338c.152,0,.288.096.34.239.762,2.125,1.545,4.212,2.329,6.205.043.111.029.237-.038.335s-.179.158-.298.158ZM126.549,185.79h54.944c-.692-1.774-1.383-3.619-2.057-5.493h-50.83c-.675,1.877-1.366,3.721-2.057,5.493Z" style="fill: #753f2e;"/>
              <g>
                <path d="M129.112,186.512c-.199,0-.361-.162-.361-.361v-6.173c0-.199.162-.361.361-.361s.361.162.361.361v6.173c0,.199-.162.361-.361.361Z" style="fill: #753f2e;"/>
                <path d="M132.946,186.512c-.199,0-.361-.162-.361-.361v-6.173c0-.199.162-.361.361-.361s.361.162.361.361v6.173c0,.199-.162.361-.361.361Z" style="fill: #753f2e;"/>
                <path d="M136.779,186.512c-.199,0-.361-.162-.361-.361v-6.173c0-.199.162-.361.361-.361s.361.162.361.361v6.173c0,.199-.162.361-.361.361Z" style="fill: #753f2e;"/>
                <path d="M140.613,186.512c-.199,0-.361-.162-.361-.361v-6.173c0-.199.162-.361.361-.361s.361.162.361.361v6.173c0,.199-.162.361-.361.361Z" style="fill: #753f2e;"/>
                <path d="M148.28,186.512c-.199,0-.361-.162-.361-.361v-6.173c0-.199.162-.361.361-.361s.361.162.361.361v6.173c0,.199-.162.361-.361.361Z" style="fill: #753f2e;"/>
                <path d="M155.947,186.512c-.199,0-.361-.162-.361-.361v-6.173c0-.199.162-.361.361-.361s.361.162.361.361v6.173c0,.199-.162.361-.361.361Z" style="fill: #753f2e;"/>
                <path d="M171.281,186.512c-.199,0-.361-.162-.361-.361v-6.173c0-.199.162-.361.361-.361s.361.162.361.361v6.173c0,.199-.162.361-.361.361Z" style="fill: #753f2e;"/>
                <path d="M167.447,186.512c-.199,0-.361-.162-.361-.361v-6.173c0-.199.162-.361.361-.361s.361.162.361.361v6.173c0,.199-.162.361-.361.361Z" style="fill: #753f2e;"/>
                <path d="M163.614,186.512c-.199,0-.361-.162-.361-.361v-6.173c0-.199.162-.361.361-.361s.361.162.361.361v6.173c0,.199-.162.361-.361.361Z" style="fill: #753f2e;"/>
                <path d="M175.115,186.512c-.199,0-.361-.162-.361-.361v-6.173c0-.199.162-.361.361-.361s.361.162.361.361v6.173c0,.199-.162.361-.361.361Z" style="fill: #753f2e;"/>
                <path d="M144.446,186.512c-.199,0-.361-.162-.361-.361v-6.173c0-.199.162-.361.361-.361s.361.162.361.361v6.173c0,.199-.162.361-.361.361Z" style="fill: #753f2e;"/>
                <path d="M152.113,186.512c-.199,0-.361-.162-.361-.361v-6.173c0-.199.162-.361.361-.361s.361.162.361.361v6.173c0,.199-.162.361-.361.361Z" style="fill: #753f2e;"/>
                <path d="M159.781,186.512c-.199,0-.361-.162-.361-.361v-6.173c0-.199.162-.361.361-.361s.361.162.361.361v6.173c0,.199-.162.361-.361.361Z" style="fill: #753f2e;"/>
                <path d="M178.948,186.512c-.199,0-.361-.162-.361-.361v-6.173c0-.199.162-.361.361-.361s.361.162.361.361v6.173c0,.199-.162.361-.361.361Z" style="fill: #753f2e;"/>
              </g>
              <g>
                <path d="M131.049,196.471c-.2,0-.361-.162-.361-.361v-9.86c0-.199.162-.361.361-.361s.361.162.361.361v9.86c0,.199-.162.361-.361.361Z" style="fill: #753f2e;"/>
                <path d="M126.455,196.471c-.199,0-.361-.162-.361-.361v-9.86c0-.199.162-.361.361-.361s.361.162.361.361v9.86c0,.199-.162.361-.361.361Z" style="fill: #753f2e;"/>
                <path d="M135.643,196.471c-.199,0-.361-.162-.361-.361v-9.86c0-.199.162-.361.361-.361s.361.162.361.361v9.86c0,.199-.162.361-.361.361Z" style="fill: #753f2e;"/>
                <path d="M140.237,196.471c-.199,0-.361-.162-.361-.361v-9.86c0-.199.162-.361.361-.361s.361.162.361.361v9.86c0,.199-.162.361-.361.361Z" style="fill: #753f2e;"/>
                <path d="M144.831,196.471c-.199,0-.361-.162-.361-.361v-9.86c0-.199.162-.361.361-.361s.361.162.361.361v9.86c0,.199-.162.361-.361.361Z" style="fill: #753f2e;"/>
                <path d="M149.426,196.471c-.199,0-.361-.162-.361-.361v-9.86c0-.199.162-.361.361-.361s.361.162.361.361v9.86c0,.199-.162.361-.361.361Z" style="fill: #753f2e;"/>
                <path d="M154.02,196.471c-.199,0-.361-.162-.361-.361v-9.86c0-.199.162-.361.361-.361s.361.162.361.361v9.86c0,.199-.162.361-.361.361Z" style="fill: #753f2e;"/>
                <path d="M158.614,196.471c-.199,0-.361-.162-.361-.361v-9.86c0-.199.162-.361.361-.361s.361.162.361.361v9.86c0,.199-.162.361-.361.361Z" style="fill: #753f2e;"/>
                <path d="M163.208,196.471c-.199,0-.361-.162-.361-.361v-9.86c0-.199.162-.361.361-.361s.361.162.361.361v9.86c0,.199-.162.361-.361.361Z" style="fill: #753f2e;"/>
                <path d="M167.802,196.471c-.199,0-.361-.162-.361-.361v-9.86c0-.199.162-.361.361-.361s.361.162.361.361v9.86c0,.199-.162.361-.361.361Z" style="fill: #753f2e;"/>
                <path d="M172.396,196.471c-.199,0-.361-.162-.361-.361v-9.86c0-.199.162-.361.361-.361s.361.162.361.361v9.86c0,.199-.162.361-.361.361Z" style="fill: #753f2e;"/>
                <path d="M176.99,196.471c-.199,0-.361-.162-.361-.361v-9.86c0-.199.162-.361.361-.361s.361.162.361.361v9.86c0,.199-.162.361-.361.361Z" style="fill: #753f2e;"/>
                <path d="M181.585,196.471c-.199,0-.361-.162-.361-.361v-9.86c0-.199.162-.361.361-.361s.361.162.361.361v9.86c0,.199-.162.361-.361.361Z" style="fill: #753f2e;"/>
              </g>
              <path d="M126.564,191.141c-.095,0-.191-.038-.262-.112-.137-.145-.132-.373.013-.51l4.375-4.162c.144-.138.373-.132.51.013.137.145.132.373-.013.511l-4.375,4.162c-.07.067-.16.1-.249.1Z" style="fill: #753f2e;"/>
              <path d="M126.691,196.663c-.088,0-.177-.032-.247-.098l-3.419-3.207c-.075-.07-.116-.169-.114-.271.002-.102.048-.199.126-.266l2.789-2.399-1.002-1.431c-.114-.163-.075-.389.089-.503.164-.115.388-.075.503.089l1.189,1.699c.106.152.08.36-.06.481l-2.732,2.35,3.126,2.932c.146.136.153.365.017.51-.071.076-.167.114-.264.114Z" style="fill: #753f2e;"/>
              <path d="M122.317,196.663c-.095,0-.191-.038-.262-.112-.137-.145-.132-.373.013-.511l4.375-4.162c.144-.138.373-.132.51.013.137.145.132.373-.013.511l-4.375,4.162c-.07.067-.159.099-.249.099Z" style="fill: #753f2e;"/>
              <path d="M181.383,196.663c-.096,0-.192-.038-.263-.114-.137-.145-.129-.374.016-.51l3.126-2.932-2.732-2.35c-.141-.121-.167-.329-.06-.481l1.189-1.699c.114-.164.34-.203.503-.089.163.114.203.339.089.503l-1.002,1.431,2.789,2.399c.078.067.123.163.126.266.002.102-.039.201-.114.271l-3.419,3.207c-.07.065-.158.098-.247.098Z" style="fill: #753f2e;"/>
              <path d="M185.758,196.663c-.09,0-.179-.033-.249-.099l-4.375-4.162c-.144-.138-.15-.366-.013-.511.138-.144.366-.15.511-.013l4.375,4.162c.144.137.15.366.013.511-.071.074-.166.112-.262.112Z" style="fill: #753f2e;"/>
              <g>
                <path d="M130.939,196.663c-.09,0-.179-.033-.249-.099l-4.375-4.162c-.144-.138-.15-.366-.013-.511.138-.144.366-.15.511-.013l4.375,4.162c.144.137.15.366.013.511-.071.074-.166.112-.262.112Z" style="fill: #753f2e;"/>
                <path d="M126.564,196.663c-.095,0-.191-.038-.262-.112-.137-.145-.132-.373.013-.511l4.375-4.162c.144-.138.373-.132.51.013.137.145.132.373-.013.511l-4.375,4.162c-.07.067-.16.099-.249.099Z" style="fill: #753f2e;"/>
                <path d="M130.939,191.141c-.09,0-.179-.033-.249-.1l-4.375-4.162c-.144-.138-.15-.366-.013-.511.138-.144.366-.15.511-.013l4.375,4.162c.144.137.15.366.013.51-.071.075-.166.112-.262.112Z" style="fill: #753f2e;"/>
                <path d="M135.498,196.663c-.09,0-.179-.033-.249-.099l-4.375-4.162c-.144-.138-.15-.366-.013-.511.138-.144.366-.15.51-.013l4.375,4.162c.144.137.15.366.013.511-.071.074-.166.112-.262.112Z" style="fill: #753f2e;"/>
                <path d="M131.123,196.663c-.095,0-.191-.038-.262-.112-.137-.145-.132-.373.013-.511l4.375-4.162c.144-.138.373-.132.511.013.137.145.132.373-.013.511l-4.375,4.162c-.07.067-.159.099-.249.099Z" style="fill: #753f2e;"/>
                <path d="M135.498,191.141c-.09,0-.179-.033-.249-.1l-4.375-4.162c-.144-.138-.15-.366-.013-.511.138-.144.366-.15.51-.013l4.375,4.162c.144.137.15.366.013.51-.071.075-.166.112-.262.112Z" style="fill: #753f2e;"/>
                <path d="M131.123,191.141c-.095,0-.191-.038-.262-.112-.137-.145-.132-.373.013-.51l4.375-4.162c.144-.138.373-.132.511.013.137.145.132.373-.013.511l-4.375,4.162c-.07.067-.159.1-.249.1Z" style="fill: #753f2e;"/>
              </g>
              <path d="M135.795,191.141c-.095,0-.191-.038-.262-.112-.137-.145-.132-.373.013-.51l4.375-4.162c.144-.138.373-.132.511.013.137.145.132.373-.013.511l-4.375,4.162c-.07.067-.16.1-.249.1Z" style="fill: #753f2e;"/>
              <g>
                <path d="M140.17,196.663c-.09,0-.179-.033-.249-.099l-4.375-4.162c-.145-.138-.15-.366-.013-.511.138-.144.366-.15.511-.013l4.375,4.162c.144.137.15.366.013.511-.071.074-.166.112-.262.112Z" style="fill: #753f2e;"/>
                <path d="M135.795,196.663c-.095,0-.191-.038-.262-.112-.137-.145-.132-.373.013-.511l4.375-4.162c.144-.138.373-.132.511.013.137.145.132.373-.013.511l-4.375,4.162c-.07.067-.16.099-.249.099Z" style="fill: #753f2e;"/>
                <path d="M140.17,191.141c-.09,0-.179-.033-.249-.1l-4.375-4.162c-.145-.138-.15-.366-.013-.511.138-.144.366-.15.511-.013l4.375,4.162c.144.137.15.366.013.51-.071.075-.166.112-.262.112Z" style="fill: #753f2e;"/>
                <path d="M144.729,196.663c-.09,0-.179-.033-.249-.099l-4.375-4.162c-.144-.138-.15-.366-.013-.511.138-.144.366-.15.511-.013l4.375,4.162c.144.137.15.366.013.511-.071.074-.166.112-.262.112Z" style="fill: #753f2e;"/>
                <path d="M140.354,196.663c-.095,0-.191-.038-.262-.112-.137-.145-.132-.373.013-.511l4.375-4.162c.144-.138.373-.132.511.013.137.145.132.373-.013.511l-4.375,4.162c-.07.067-.16.099-.249.099Z" style="fill: #753f2e;"/>
                <path d="M144.729,191.141c-.09,0-.179-.033-.249-.1l-4.375-4.162c-.144-.138-.15-.366-.013-.511.138-.144.366-.15.511-.013l4.375,4.162c.144.137.15.366.013.51-.071.075-.166.112-.262.112Z" style="fill: #753f2e;"/>
                <path d="M140.354,191.141c-.095,0-.191-.038-.262-.112-.137-.145-.132-.373.013-.51l4.375-4.162c.144-.138.373-.132.511.013.137.145.132.373-.013.511l-4.375,4.162c-.07.067-.16.1-.249.1Z" style="fill: #753f2e;"/>
              </g>
              <path d="M144.969,191.141c-.095,0-.191-.038-.262-.112-.137-.145-.132-.373.013-.51l4.375-4.162c.144-.138.373-.132.511.013.137.145.132.373-.013.511l-4.375,4.162c-.07.067-.159.1-.249.1Z" style="fill: #753f2e;"/>
              <g>
                <path d="M149.344,196.663c-.09,0-.179-.033-.249-.099l-4.375-4.162c-.144-.138-.15-.366-.013-.511.138-.144.366-.15.511-.013l4.375,4.162c.144.137.15.366.013.511-.071.074-.166.112-.262.112Z" style="fill: #753f2e;"/>
                <path d="M144.969,196.663c-.095,0-.191-.038-.262-.112-.137-.145-.132-.373.013-.511l4.375-4.162c.144-.138.373-.132.511.013.137.145.132.373-.013.511l-4.375,4.162c-.07.067-.159.099-.249.099Z" style="fill: #753f2e;"/>
                <path d="M149.344,191.141c-.09,0-.179-.033-.249-.1l-4.375-4.162c-.144-.138-.15-.366-.013-.511.138-.144.366-.15.511-.013l4.375,4.162c.144.137.15.366.013.51-.071.075-.166.112-.262.112Z" style="fill: #753f2e;"/>
                <path d="M153.903,196.663c-.09,0-.179-.033-.249-.099l-4.375-4.162c-.144-.138-.15-.366-.013-.511.138-.144.366-.15.511-.013l4.375,4.162c.144.137.15.366.013.511-.071.074-.166.112-.262.112Z" style="fill: #753f2e;"/>
                <path d="M149.528,196.663c-.095,0-.191-.038-.262-.112-.138-.145-.132-.373.013-.511l4.375-4.162c.144-.138.373-.132.511.013.137.145.132.373-.013.511l-4.375,4.162c-.07.067-.159.099-.249.099Z" style="fill: #753f2e;"/>
                <path d="M153.903,191.141c-.09,0-.179-.033-.249-.1l-4.375-4.162c-.144-.138-.15-.366-.013-.511.138-.144.366-.15.511-.013l4.375,4.162c.144.137.15.366.013.51-.071.075-.166.112-.262.112Z" style="fill: #753f2e;"/>
                <path d="M149.528,191.141c-.095,0-.191-.038-.262-.112-.138-.145-.132-.373.013-.51l4.375-4.162c.144-.138.373-.132.511.013.137.145.132.373-.013.511l-4.375,4.162c-.07.067-.159.1-.249.1Z" style="fill: #753f2e;"/>
              </g>
              <path d="M154.087,191.141c-.095,0-.191-.038-.262-.112-.138-.145-.132-.373.013-.51l4.375-4.162c.144-.138.373-.132.511.013.137.145.132.373-.013.511l-4.375,4.162c-.07.067-.159.1-.249.1Z" style="fill: #753f2e;"/>
              <g>
                <path d="M158.462,196.663c-.09,0-.179-.033-.249-.099l-4.375-4.162c-.144-.138-.15-.366-.013-.511.138-.144.366-.15.511-.013l4.375,4.162c.144.137.15.366.013.511-.071.074-.166.112-.262.112Z" style="fill: #753f2e;"/>
                <path d="M154.087,196.663c-.095,0-.191-.038-.262-.112-.138-.145-.132-.373.013-.511l4.375-4.162c.144-.138.373-.132.511.013.137.145.132.373-.013.511l-4.375,4.162c-.07.067-.159.099-.249.099Z" style="fill: #753f2e;"/>
                <path d="M158.462,191.141c-.09,0-.179-.033-.249-.1l-4.375-4.162c-.144-.138-.15-.366-.013-.511.138-.144.366-.15.511-.013l4.375,4.162c.144.137.15.366.013.51-.071.075-.166.112-.262.112Z" style="fill: #753f2e;"/>
                <path d="M163.02,196.663c-.09,0-.179-.033-.249-.099l-4.375-4.162c-.144-.138-.15-.366-.013-.511.138-.144.366-.15.511-.013l4.375,4.162c.144.137.15.366.013.511-.071.074-.166.112-.262.112Z" style="fill: #753f2e;"/>
                <path d="M158.646,196.663c-.096,0-.191-.038-.262-.112-.137-.145-.132-.373.013-.511l4.375-4.162c.144-.138.373-.132.511.013.137.145.132.373-.013.511l-4.375,4.162c-.07.067-.159.099-.249.099Z" style="fill: #753f2e;"/>
                <path d="M163.02,191.141c-.09,0-.179-.033-.249-.1l-4.375-4.162c-.144-.138-.15-.366-.013-.511.138-.144.366-.15.511-.013l4.375,4.162c.144.137.15.366.013.51-.071.075-.166.112-.262.112Z" style="fill: #753f2e;"/>
                <path d="M158.646,191.141c-.096,0-.191-.038-.262-.112-.137-.145-.132-.373.013-.51l4.375-4.162c.144-.138.373-.132.511.013.137.145.132.373-.013.511l-4.375,4.162c-.07.067-.159.1-.249.1Z" style="fill: #753f2e;"/>
              </g>
              <path d="M154.087,191.141c-.095,0-.191-.038-.262-.112-.138-.145-.132-.373.013-.51l4.375-4.162c.144-.138.373-.132.511.013.137.145.132.373-.013.511l-4.375,4.162c-.07.067-.159.1-.249.1Z" style="fill: #753f2e;"/>
              <g>
                <path d="M167.579,196.663c-.09,0-.179-.033-.249-.099l-4.375-4.162c-.144-.138-.15-.366-.013-.511.138-.144.366-.15.511-.013l4.375,4.162c.144.137.15.366.013.511-.071.074-.166.112-.262.112Z" style="fill: #753f2e;"/>
                <path d="M163.204,196.663c-.095,0-.191-.038-.262-.112-.137-.145-.132-.373.013-.511l4.375-4.162c.144-.138.373-.132.511.013.137.145.132.373-.013.511l-4.375,4.162c-.07.067-.159.099-.249.099Z" style="fill: #753f2e;"/>
                <path d="M167.579,191.141c-.09,0-.179-.033-.249-.1l-4.375-4.162c-.144-.138-.15-.366-.013-.511.138-.144.366-.15.511-.013l4.375,4.162c.144.137.15.366.013.51-.071.075-.166.112-.262.112Z" style="fill: #753f2e;"/>
                <path d="M172.138,196.663c-.09,0-.179-.033-.249-.099l-4.375-4.162c-.144-.138-.15-.366-.013-.511.138-.144.366-.15.511-.013l4.375,4.162c.144.137.15.366.013.511-.071.074-.166.112-.262.112Z" style="fill: #753f2e;"/>
                <path d="M167.763,196.663c-.095,0-.191-.038-.262-.112-.137-.145-.132-.373.013-.511l4.375-4.162c.144-.138.373-.132.511.013.137.145.132.373-.013.511l-4.375,4.162c-.07.067-.159.099-.249.099Z" style="fill: #753f2e;"/>
                <path d="M172.138,191.141c-.09,0-.179-.033-.249-.1l-4.375-4.162c-.144-.138-.15-.366-.013-.511.138-.144.366-.15.511-.013l4.375,4.162c.144.137.15.366.013.51-.071.075-.166.112-.262.112Z" style="fill: #753f2e;"/>
                <path d="M167.763,191.141c-.095,0-.191-.038-.262-.112-.137-.145-.132-.373.013-.51l4.375-4.162c.144-.138.373-.132.511.013.137.145.132.373-.013.511l-4.375,4.162c-.07.067-.159.1-.249.1Z" style="fill: #753f2e;"/>
              </g>
              <g>
                <path d="M176.924,196.663c-.09,0-.179-.033-.249-.099l-4.375-4.162c-.144-.138-.15-.366-.013-.511.138-.144.366-.15.511-.013l4.375,4.162c.144.137.15.366.013.511-.071.074-.166.112-.262.112Z" style="fill: #753f2e;"/>
                <path d="M172.549,196.663c-.095,0-.191-.038-.262-.112-.137-.145-.132-.373.013-.511l4.375-4.162c.144-.138.373-.132.511.013.138.145.132.373-.013.511l-4.375,4.162c-.07.067-.159.099-.249.099Z" style="fill: #753f2e;"/>
                <path d="M176.924,191.141c-.09,0-.179-.033-.249-.1l-4.375-4.162c-.144-.138-.15-.366-.013-.511.138-.144.366-.15.511-.013l4.375,4.162c.144.137.15.366.013.51-.071.075-.166.112-.262.112Z" style="fill: #753f2e;"/>
                <path d="M181.482,196.663c-.09,0-.179-.033-.249-.099l-4.375-4.162c-.144-.138-.15-.366-.013-.511.138-.144.366-.15.511-.013l4.375,4.162c.144.137.15.366.013.511-.071.074-.166.112-.262.112Z" style="fill: #753f2e;"/>
                <path d="M177.108,196.663c-.095,0-.191-.038-.262-.112-.137-.145-.132-.373.013-.511l4.375-4.162c.144-.138.373-.132.511.013.138.145.132.373-.013.511l-4.375,4.162c-.07.067-.159.099-.249.099Z" style="fill: #753f2e;"/>
                <path d="M181.482,191.141c-.09,0-.179-.033-.249-.1l-4.375-4.162c-.144-.138-.15-.366-.013-.511.138-.144.366-.15.511-.013l4.375,4.162c.144.137.15.366.013.51-.071.075-.166.112-.262.112Z" style="fill: #753f2e;"/>
                <path d="M177.108,191.141c-.095,0-.191-.038-.262-.112-.137-.145-.132-.373.013-.51l4.375-4.162c.144-.138.373-.132.511.013.138.145.132.373-.013.511l-4.375,4.162c-.07.067-.159.1-.249.1Z" style="fill: #753f2e;"/>
              </g>
            </g>
            <g>
              <rect x="182.629" y="227.265" width="26.164" height="4.304" style="fill: #a7917c;"/>
              <path d="M208.793,231.93h-26.164c-.199,0-.361-.162-.361-.361v-4.304c0-.199.162-.361.361-.361h26.164c.199,0,.361.162.361.361v4.304c0,.199-.162.361-.361.361ZM182.99,231.208h25.442v-3.582h-25.442v3.582Z" style="fill: #753f2e;"/>
            </g>
            <g>
              <rect x="99.381" y="227.265" width="26.164" height="4.304" style="fill: #a7917c;"/>
              <path d="M125.545,231.93h-26.164c-.199,0-.361-.162-.361-.361v-4.304c0-.199.162-.361.361-.361h26.164c.199,0,.361.162.361.361v4.304c0,.199-.162.361-.361.361ZM99.742,231.208h25.442v-3.582h-25.442v3.582Z" style="fill: #753f2e;"/>
            </g>
            <g>
              <rect x="124.12" y="177.146" width="59.803" height="4.587" style="fill: #a08c77;"/>
              <path d="M183.923,182.094h-59.803c-.199,0-.361-.162-.361-.361v-4.587c0-.199.162-.361.361-.361h59.803c.199,0,.361.162.361.361v4.587c0,.199-.162.361-.361.361ZM124.481,181.372h59.081v-3.865h-59.081v3.865Z" style="fill: #753f2e;"/>
            </g>
            <g style="mix-blend-mode: multiply;">
              <rect x="124.12" y="180.223" width="59.803" height="1.51" style="fill: #706353;"/>
            </g>
            <g>
              <g>
                <path d="M158.963,55.106c-.09,0-.18-.033-.25-.1l-4.563-4.373c-.144-.138-.149-.366-.011-.511.138-.144.366-.149.511-.011l4.563,4.373c.144.138.149.366.011.511-.071.074-.166.111-.261.111Z" style="fill: #753f2e;"/>
                <path d="M154.4,55.106c-.095,0-.19-.037-.261-.111-.138-.144-.133-.373.011-.511l4.563-4.373c.144-.138.372-.133.511.011.138.144.133.373-.011.511l-4.563,4.373c-.07.067-.16.1-.25.1Z" style="fill: #753f2e;"/>
              </g>
              <g>
                <path d="M158.963,59.756c-.09,0-.18-.033-.25-.1l-4.563-4.373c-.144-.138-.149-.366-.011-.511.138-.144.366-.149.511-.011l4.563,4.373c.144.138.149.367.011.511-.071.074-.166.111-.261.111Z" style="fill: #753f2e;"/>
                <path d="M154.4,59.756c-.095,0-.19-.037-.261-.111-.138-.144-.133-.373.011-.511l4.563-4.373c.144-.138.372-.133.511.011.138.144.133.373-.011.511l-4.563,4.373c-.07.067-.16.1-.25.1Z" style="fill: #753f2e;"/>
              </g>
              <g>
                <path d="M158.963,64.823c-.09,0-.18-.033-.25-.1l-4.563-4.372c-.144-.138-.149-.367-.011-.511.138-.144.366-.149.511-.011l4.563,4.373c.144.138.149.367.011.511-.071.074-.166.111-.261.111Z" style="fill: #753f2e;"/>
                <path d="M154.4,64.823c-.095,0-.19-.037-.261-.111-.138-.144-.133-.373.011-.511l4.563-4.373c.144-.138.372-.133.511.011.138.144.133.373-.011.511l-4.563,4.372c-.07.067-.16.1-.25.1Z" style="fill: #753f2e;"/>
              </g>
              <g>
                <path d="M159.467,70.306c-.09,0-.18-.033-.25-.1l-5.067-4.858c-.144-.138-.149-.367-.011-.511.138-.144.367-.148.511-.011l5.067,4.858c.144.138.149.367.011.511-.071.074-.166.111-.261.111Z" style="fill: #753f2e;"/>
                <path d="M154.4,69.82c-.095,0-.19-.037-.261-.111-.138-.144-.133-.372.011-.51l4.563-4.373c.144-.138.372-.133.511.011.138.144.133.373-.011.511l-4.563,4.372c-.07.067-.16.1-.25.1Z" style="fill: #753f2e;"/>
              </g>
              <g>
                <path d="M159.467,75.581c-.09,0-.18-.033-.25-.1l-5.067-4.858c-.144-.138-.149-.367-.011-.511.138-.144.367-.148.511-.011l5.067,4.858c.144.138.149.367.011.511-.071.074-.166.111-.261.111Z" style="fill: #753f2e;"/>
                <path d="M154.4,75.095c-.095,0-.19-.037-.261-.111-.138-.144-.133-.373.011-.511l4.563-4.372c.144-.138.372-.134.511.011.138.144.133.372-.011.511l-4.563,4.372c-.07.067-.16.1-.25.1Z" style="fill: #753f2e;"/>
              </g>
              <g>
                <path d="M159.976,80.439c-.081,0-.162-.027-.229-.082l-5.577-4.581c-.154-.127-.176-.354-.05-.508.127-.154.354-.177.508-.05l5.577,4.581c.154.127.176.354.05.508-.072.087-.175.132-.279.132Z" style="fill: #753f2e;"/>
                <path d="M154.4,80.231c-.101,0-.202-.042-.273-.125-.131-.151-.114-.379.037-.509l5.293-4.581c.15-.131.379-.114.509.037.131.151.114.379-.037.509l-5.293,4.581c-.068.059-.152.088-.236.088Z" style="fill: #753f2e;"/>
              </g>
              <g>
                <path d="M160.68,86.415c-.079,0-.158-.026-.225-.079l-5.758-4.581c-.156-.124-.182-.351-.058-.507.124-.156.352-.182.507-.058l5.758,4.581c.156.124.182.351.058.507-.071.09-.177.136-.283.136Z" style="fill: #753f2e;"/>
                <path d="M154.922,86.207c-.103,0-.205-.044-.277-.129-.128-.153-.108-.381.045-.509l5.466-4.581c.153-.128.381-.108.509.045.128.153.108.381-.045.509l-5.466,4.581c-.068.057-.15.084-.232.084Z" style="fill: #753f2e;"/>
              </g>
              <g>
                <path d="M161.329,91.882c-.069,0-.139-.02-.201-.061l-6.395-4.285c-.166-.111-.21-.335-.099-.501.111-.166.336-.21.501-.099l6.395,4.286c.166.111.21.335.099.501-.07.104-.184.16-.3.16Z" style="fill: #753f2e;"/>
                <path d="M155.104,91.965c-.102,0-.204-.043-.276-.128-.129-.152-.11-.38.042-.509l5.724-4.853c.152-.129.38-.11.509.042.129.152.11.38-.042.509l-5.724,4.853c-.068.057-.151.086-.233.086Z" style="fill: #753f2e;"/>
              </g>
              <g>
                <path d="M161.823,96.949c-.067,0-.135-.019-.195-.057l-6.646-4.286c-.168-.108-.216-.331-.108-.499.108-.168.332-.216.499-.108l6.646,4.286c.168.108.216.331.108.499-.069.107-.185.165-.304.165Z" style="fill: #753f2e;"/>
                <path d="M155.354,97.032c-.105,0-.209-.045-.28-.133-.126-.154-.103-.382.051-.508l5.949-4.853c.155-.127.382-.103.508.051.126.154.103.382-.051.508l-5.949,4.853c-.067.055-.148.081-.228.081Z" style="fill: #753f2e;"/>
              </g>
              <g>
                <path d="M162.18,102.015c-.066,0-.134-.018-.194-.057l-6.718-4.286c-.168-.107-.217-.33-.11-.498.107-.168.331-.217.499-.11l6.718,4.285c.168.107.217.331.11.499-.069.108-.185.167-.305.167Z" style="fill: #753f2e;"/>
                <path d="M155.641,102.099c-.105,0-.21-.046-.281-.134-.125-.155-.101-.383.054-.508l6.013-4.853c.155-.125.383-.101.508.054.125.155.101.383-.054.508l-6.013,4.853c-.067.054-.147.08-.227.08Z" style="fill: #753f2e;"/>
              </g>
              <g>
                <path d="M163.176,107.426c-.07,0-.142-.02-.204-.063l-7.188-4.938c-.164-.113-.206-.338-.093-.502.113-.164.337-.206.502-.093l7.188,4.938c.164.113.206.338.093.502-.07.102-.183.157-.298.157Z" style="fill: #753f2e;"/>
                <path d="M156.149,106.856c-.113,0-.224-.053-.295-.152-.115-.163-.077-.388.086-.504l6.263-4.442c.162-.115.388-.077.503.086.115.163.077.388-.086.503l-6.263,4.442c-.064.045-.136.066-.209.066Z" style="fill: #753f2e;"/>
              </g>
              <g>
                <path d="M163.884,113.4c-.071,0-.143-.021-.206-.065l-7.707-5.374c-.163-.114-.204-.339-.09-.503.114-.164.339-.204.503-.09l7.707,5.375c.163.114.204.339.09.503-.07.101-.182.154-.296.154Z" style="fill: #753f2e;"/>
                <path d="M156.347,113.269c-.105,0-.208-.045-.28-.133-.126-.154-.103-.382.052-.508l6.745-5.504c.154-.127.382-.103.508.051.126.154.103.382-.051.508l-6.745,5.504c-.067.055-.148.081-.228.081Z" style="fill: #753f2e;"/>
              </g>
              <g>
                <path d="M164.733,119.573c-.072,0-.144-.021-.207-.065l-8.16-5.714c-.163-.114-.203-.339-.089-.503.114-.164.34-.203.503-.089l8.159,5.714c.163.114.203.339.089.503-.07.1-.182.154-.296.154Z" style="fill: #753f2e;"/>
                <path d="M156.862,120.253c-.092,0-.184-.035-.255-.105-.141-.14-.142-.369,0-.51l6.626-6.654c.141-.141.369-.142.511,0,.141.14.142.369,0,.511l-6.626,6.654c-.07.071-.163.106-.256.106Z" style="fill: #753f2e;"/>
              </g>
              <g>
                <path d="M165.979,126.313c-.068,0-.138-.019-.199-.06l-8.896-5.884c-.166-.11-.212-.334-.102-.5.11-.167.334-.213.5-.102l8.896,5.884c.166.11.212.334.102.5-.069.105-.184.162-.301.162Z" style="fill: #753f2e;"/>
                <path d="M157.372,126.822c-.098,0-.196-.04-.267-.118-.134-.147-.123-.376.024-.51l7.589-6.909c.147-.134.376-.123.51.024.134.147.123.376-.024.51l-7.589,6.909c-.069.063-.156.094-.243.094Z" style="fill: #753f2e;"/>
              </g>
              <g>
                <path d="M166.829,132.995c-.068,0-.138-.019-.199-.06l-8.896-5.884c-.166-.11-.212-.334-.102-.5.11-.167.334-.212.5-.102l8.896,5.884c.166.11.212.334.102.5-.069.105-.184.162-.301.162Z" style="fill: #753f2e;"/>
                <path d="M158.221,133.505c-.098,0-.196-.04-.267-.118-.134-.147-.123-.376.024-.51l7.589-6.909c.147-.134.376-.123.51.024.134.147.123.376-.024.51l-7.589,6.909c-.069.063-.156.094-.243.094Z" style="fill: #753f2e;"/>
              </g>
              <g>
                <path d="M168.035,138.77c-.059,0-.118-.014-.173-.044l-9.348-5.125c-.175-.096-.239-.315-.143-.49.096-.175.316-.239.49-.143l9.348,5.125c.175.096.239.315.143.49-.066.12-.189.188-.317.188Z" style="fill: #753f2e;"/>
                <path d="M158.99,139.214c-.109,0-.217-.05-.288-.144-.12-.159-.088-.386.071-.506l7.974-6.018c.159-.12.385-.089.506.071.12.159.088.386-.071.506l-7.974,6.018c-.065.049-.141.073-.217.073Z" style="fill: #753f2e;"/>
              </g>
            </g>
            <g>
              <g>
                <path d="M149.202,55.106c-.095,0-.19-.037-.261-.111-.138-.144-.133-.373.011-.511l4.563-4.373c.144-.138.372-.133.511.011.138.144.133.373-.011.511l-4.563,4.373c-.07.067-.16.1-.25.1Z" style="fill: #753f2e;"/>
                <path d="M153.764,55.106c-.09,0-.18-.033-.25-.1l-4.563-4.373c-.144-.138-.149-.366-.011-.511s.366-.149.511-.011l4.563,4.373c.144.138.149.366.011.511-.071.074-.166.111-.261.111Z" style="fill: #753f2e;"/>
              </g>
              <g>
                <path d="M149.202,59.756c-.095,0-.19-.037-.261-.111-.138-.144-.133-.373.011-.511l4.563-4.373c.144-.138.372-.133.511.011.138.144.133.373-.011.511l-4.563,4.373c-.07.067-.16.1-.25.1Z" style="fill: #753f2e;"/>
                <path d="M153.764,59.756c-.09,0-.18-.033-.25-.1l-4.563-4.373c-.144-.138-.149-.366-.011-.511.138-.144.366-.149.511-.011l4.563,4.373c.144.138.149.367.011.511-.071.074-.166.111-.261.111Z" style="fill: #753f2e;"/>
              </g>
              <g>
                <path d="M149.202,64.823c-.095,0-.19-.037-.261-.111-.138-.144-.133-.373.011-.511l4.563-4.373c.144-.138.372-.133.511.011.138.144.133.373-.011.511l-4.563,4.372c-.07.067-.16.1-.25.1Z" style="fill: #753f2e;"/>
                <path d="M153.764,64.823c-.09,0-.18-.033-.25-.1l-4.563-4.372c-.144-.138-.149-.367-.011-.511.138-.144.366-.149.511-.011l4.563,4.373c.144.138.149.367.011.511-.071.074-.166.111-.261.111Z" style="fill: #753f2e;"/>
              </g>
              <g>
                <path d="M148.697,70.306c-.095,0-.19-.037-.261-.111-.138-.144-.133-.373.011-.511l5.067-4.858c.144-.138.372-.133.511.011.138.144.133.373-.011.511l-5.067,4.858c-.07.067-.16.1-.25.1Z" style="fill: #753f2e;"/>
                <path d="M153.764,69.82c-.09,0-.18-.033-.25-.1l-4.563-4.372c-.144-.138-.149-.366-.011-.511.138-.144.366-.149.511-.011l4.563,4.373c.144.138.149.366.011.51-.071.074-.166.111-.261.111Z" style="fill: #753f2e;"/>
              </g>
              <g>
                <path d="M148.697,75.581c-.095,0-.19-.037-.261-.111-.138-.144-.133-.373.011-.511l5.067-4.858c.144-.138.372-.134.511.011.138.144.133.372-.011.511l-5.067,4.858c-.07.067-.16.1-.25.1Z" style="fill: #753f2e;"/>
                <path d="M153.764,75.095c-.09,0-.18-.033-.25-.1l-4.563-4.372c-.144-.138-.149-.367-.011-.511.138-.144.366-.149.511-.011l4.563,4.372c.144.138.149.366.011.511-.071.074-.166.111-.261.111Z" style="fill: #753f2e;"/>
              </g>
              <g>
                <path d="M148.188,80.439c-.104,0-.208-.045-.279-.132-.127-.154-.104-.382.05-.508l5.577-4.581c.154-.127.381-.104.508.05.127.154.104.381-.05.508l-5.577,4.581c-.067.055-.148.082-.229.082Z" style="fill: #753f2e;"/>
                <path d="M153.764,80.231c-.084,0-.168-.029-.236-.088l-5.293-4.581c-.151-.131-.167-.358-.037-.509.13-.151.359-.168.509-.037l5.293,4.581c.151.13.167.358.037.509-.071.082-.172.125-.273.125Z" style="fill: #753f2e;"/>
              </g>
              <g>
                <path d="M147.485,86.415c-.108,0-.215-.048-.287-.141-.122-.158-.092-.385.066-.506l6.376-4.899c.158-.121.385-.092.506.066.122.158.092.385-.066.506l-6.376,4.899c-.065.05-.143.075-.22.075Z" style="fill: #753f2e;"/>
                <path d="M153.242,86.207c-.082,0-.164-.028-.232-.084l-5.466-4.581c-.153-.128-.173-.356-.045-.509.128-.152.356-.173.509-.045l5.466,4.581c.153.128.173.356.045.509-.071.085-.174.129-.277.129Z" style="fill: #753f2e;"/>
              </g>
              <g>
                <path d="M146.835,91.882c-.116,0-.23-.056-.3-.16-.111-.166-.067-.39.099-.501l6.395-4.286c.165-.111.39-.067.501.099.111.166.067.39-.099.501l-6.395,4.285c-.062.041-.132.061-.201.061Z" style="fill: #753f2e;"/>
                <path d="M153.06,91.965c-.082,0-.166-.028-.233-.086l-5.724-4.853c-.152-.129-.171-.357-.042-.509.129-.153.357-.171.509-.042l5.724,4.853c.152.129.171.357.042.509-.071.084-.173.128-.276.128Z" style="fill: #753f2e;"/>
              </g>
              <g>
                <path d="M146.341,96.949c-.118,0-.235-.058-.304-.165-.108-.168-.06-.391.108-.499l6.646-4.286c.167-.108.391-.06.499.108.108.168.06.391-.108.499l-6.646,4.286c-.06.039-.128.057-.195.057Z" style="fill: #753f2e;"/>
                <path d="M152.811,97.032c-.08,0-.161-.027-.228-.081l-5.949-4.853c-.154-.126-.177-.354-.051-.508.126-.154.353-.178.508-.051l5.949,4.853c.154.126.177.353.051.508-.071.087-.175.133-.28.133Z" style="fill: #753f2e;"/>
              </g>
              <g>
                <path d="M145.984,102.015c-.119,0-.236-.059-.305-.167-.107-.168-.058-.391.11-.499l6.718-4.285c.168-.107.391-.058.499.11.107.168.058.391-.11.498l-6.717,4.286c-.06.038-.127.057-.194.057Z" style="fill: #753f2e;"/>
                <path d="M152.523,102.099c-.08,0-.16-.026-.226-.08l-6.013-4.853c-.155-.125-.179-.353-.054-.508.125-.156.353-.18.508-.054l6.013,4.853c.155.125.179.353.054.508-.071.088-.176.134-.281.134Z" style="fill: #753f2e;"/>
              </g>
              <g>
                <path d="M144.988,107.426c-.115,0-.228-.055-.298-.157-.113-.164-.071-.389.093-.502l7.188-4.938c.164-.113.389-.071.502.093.113.164.071.389-.093.502l-7.188,4.938c-.063.043-.134.063-.204.063Z" style="fill: #753f2e;"/>
                <path d="M152.015,106.856c-.072,0-.145-.022-.209-.066l-6.263-4.442c-.163-.115-.201-.341-.086-.503.116-.163.341-.201.503-.086l6.263,4.442c.163.115.201.341.085.504-.07.099-.182.152-.295.152Z" style="fill: #753f2e;"/>
              </g>
              <g>
                <path d="M144.28,113.4c-.114,0-.226-.054-.296-.154-.114-.164-.074-.389.09-.503l7.707-5.375c.164-.114.388-.074.503.09.114.164.074.389-.09.503l-7.707,5.374c-.063.044-.135.065-.206.065Z" style="fill: #753f2e;"/>
                <path d="M151.818,113.269c-.08,0-.161-.026-.228-.081l-6.745-5.504c-.155-.126-.177-.354-.051-.508s.353-.178.508-.051l6.745,5.504c.154.126.177.354.051.508-.071.087-.175.133-.28.133Z" style="fill: #753f2e;"/>
              </g>
              <g>
                <path d="M143.431,119.573c-.114,0-.226-.054-.296-.154-.114-.163-.075-.389.089-.503l8.159-5.714c.163-.114.388-.075.503.089.114.163.075.389-.089.503l-8.16,5.714c-.063.044-.135.065-.207.065Z" style="fill: #753f2e;"/>
                <path d="M151.302,120.253c-.093,0-.185-.035-.256-.106l-6.626-6.654c-.141-.141-.14-.37,0-.511.141-.141.37-.14.51,0l6.626,6.654c.141.141.14.37,0,.51-.07.07-.163.105-.255.105Z" style="fill: #753f2e;"/>
              </g>
              <g>
                <path d="M142.185,126.313c-.117,0-.232-.057-.301-.162-.11-.166-.064-.39.102-.5l8.896-5.884c.166-.111.39-.065.5.102.11.166.064.39-.102.5l-8.896,5.884c-.061.041-.131.06-.199.06Z" style="fill: #753f2e;"/>
                <path d="M150.793,126.822c-.087,0-.174-.031-.243-.094l-7.589-6.909c-.147-.134-.158-.363-.024-.51.135-.148.363-.158.51-.024l7.589,6.909c.147.134.158.363.024.51-.071.078-.169.118-.267.118Z" style="fill: #753f2e;"/>
              </g>
              <g>
                <path d="M141.336,132.995c-.117,0-.232-.057-.301-.162-.11-.166-.064-.39.102-.5l8.896-5.884c.165-.111.39-.065.5.102.11.166.064.39-.102.5l-8.896,5.884c-.061.041-.13.06-.199.06Z" style="fill: #753f2e;"/>
                <path d="M149.943,133.505c-.087,0-.174-.031-.243-.094l-7.588-6.909c-.148-.134-.158-.363-.024-.51.134-.148.362-.158.51-.024l7.588,6.909c.147.134.158.363.024.51-.071.078-.169.118-.267.118Z" style="fill: #753f2e;"/>
              </g>
              <g>
                <path d="M140.129,138.77c-.128,0-.251-.068-.317-.188-.096-.175-.032-.394.143-.49l9.348-5.125c.174-.096.394-.032.49.143.096.175.032.394-.143.49l-9.348,5.125c-.055.03-.114.044-.173.044Z" style="fill: #753f2e;"/>
                <path d="M149.174,139.214c-.076,0-.152-.024-.217-.073l-7.974-6.018c-.159-.12-.191-.347-.071-.506.12-.159.347-.191.506-.071l7.974,6.018c.159.12.191.346.071.506-.071.094-.179.144-.288.144Z" style="fill: #753f2e;"/>
              </g>
            </g>
            <path d="M171.331,152.448c-.073,0-.146-.022-.21-.067l-11.892-8.495c-.162-.116-.2-.341-.084-.504.116-.162.341-.2.504-.084l11.892,8.495c.162.116.2.341.084.504-.07.099-.181.151-.294.151Z" style="fill: #753f2e;"/>
            <path d="M160.883,152.533c-.091,0-.181-.034-.252-.102-.143-.139-.146-.367-.007-.511l8.41-8.665c.139-.143.367-.146.51-.008.143.139.146.367.008.511l-8.41,8.665c-.071.073-.165.109-.259.109Z" style="fill: #753f2e;"/>
            <path d="M136.9,152.448c-.113,0-.224-.052-.294-.151-.116-.162-.078-.388.084-.504l11.893-8.495c.163-.116.388-.078.504.084s.078.388-.084.504l-11.893,8.495c-.064.045-.137.067-.209.067Z" style="fill: #753f2e;"/>
            <path d="M147.348,152.533c-.094,0-.188-.037-.259-.109l-8.41-8.665c-.139-.143-.136-.372.007-.511s.372-.136.511.008l8.41,8.665c.139.143.136.372-.007.511-.07.068-.161.102-.252.102Z" style="fill: #753f2e;"/>
            <g>
              <path d="M173.679,161.958c-.058,0-.116-.014-.171-.043l-12.193-6.554c-.176-.095-.242-.313-.147-.489s.314-.24.489-.147l12.193,6.554c.176.094.242.313.147.489-.065.121-.19.19-.318.19Z" style="fill: #753f2e;"/>
              <path d="M162.967,162.023c-.108,0-.214-.048-.286-.14-.122-.157-.093-.384.064-.506l8.622-6.685c.158-.122.385-.094.507.064.122.158.093.384-.064.507l-8.622,6.685c-.066.051-.144.076-.221.076Z" style="fill: #753f2e;"/>
              <path d="M177.702,176.743c-.06,0-.12-.015-.176-.046l-13.676-7.645c-.174-.097-.236-.317-.139-.491.097-.174.318-.235.491-.139l13.676,7.645c.174.097.237.317.139.491-.066.119-.189.185-.316.185Z" style="fill: #753f2e;"/>
              <path d="M166.11,176.974c-.102,0-.204-.043-.275-.127-.129-.152-.111-.38.041-.509l9.553-8.131c.152-.129.38-.111.509.041.129.152.111.38-.041.509l-9.553,8.131c-.068.058-.151.086-.234.086Z" style="fill: #753f2e;"/>
              <path d="M175.748,168.588c-.053,0-.107-.012-.158-.037l-13.073-6.388c-.179-.088-.253-.304-.166-.483.087-.179.303-.254.483-.166l13.073,6.388c.179.087.253.304.166.483-.063.128-.191.203-.325.203Z" style="fill: #753f2e;"/>
              <path d="M164.156,168.819c-.115,0-.228-.055-.298-.156-.113-.164-.071-.389.093-.502l9.724-6.687c.164-.112.389-.071.502.093.113.164.071.389-.093.502l-9.724,6.687c-.062.043-.134.063-.204.063Z" style="fill: #753f2e;"/>
              <path d="M171.841,176.828c-.161,0-.307-.108-.349-.271l-5.522-21.322c-.05-.193.066-.39.259-.44.194-.049.39.066.44.259l5.522,21.322c.05.193-.066.39-.259.44-.03.008-.061.012-.091.012Z" style="fill: #753f2e;"/>
            </g>
            <g>
              <path d="M134.759,161.958c-.129,0-.253-.069-.318-.19-.094-.176-.029-.394.147-.489l12.193-6.554c.175-.093.395-.029.489.147.095.176.028.394-.147.489l-12.193,6.554c-.054.029-.113.043-.171.043Z" style="fill: #753f2e;"/>
              <path d="M145.47,162.023c-.077,0-.155-.025-.221-.076l-8.622-6.685c-.158-.122-.186-.349-.064-.507.122-.158.349-.186.507-.064l8.622,6.685c.158.122.186.349.064.506-.071.092-.178.14-.286.14Z" style="fill: #753f2e;"/>
              <path d="M130.736,176.743c-.126,0-.249-.067-.315-.185-.097-.174-.035-.394.139-.491l13.677-7.645c.174-.096.394-.035.491.139.097.174.035.394-.139.491l-13.676,7.645c-.056.031-.116.046-.176.046Z" style="fill: #753f2e;"/>
              <path d="M142.328,176.974c-.083,0-.166-.028-.234-.086l-9.553-8.131c-.152-.129-.17-.357-.041-.509.129-.152.357-.17.509-.041l9.554,8.131c.152.129.17.357.041.509-.071.084-.173.127-.275.127Z" style="fill: #753f2e;"/>
              <path d="M132.689,168.588c-.134,0-.262-.074-.325-.203-.088-.179-.013-.395.166-.483l13.073-6.388c.179-.088.395-.013.483.166.087.179.013.395-.166.483l-13.073,6.388c-.051.025-.105.037-.158.037Z" style="fill: #753f2e;"/>
              <path d="M144.281,168.819c-.07,0-.142-.021-.204-.063l-9.724-6.687c-.164-.113-.206-.338-.093-.502.113-.164.338-.205.502-.093l9.723,6.687c.164.113.206.338.093.502-.07.102-.183.156-.298.156Z" style="fill: #753f2e;"/>
              <path d="M136.597,176.828c-.03,0-.06-.004-.091-.012-.193-.05-.309-.247-.259-.44l5.522-21.322c.05-.193.248-.308.44-.259.193.05.309.247.259.44l-5.522,21.322c-.042.163-.189.271-.349.271Z" style="fill: #753f2e;"/>
            </g>
            <path d="M166.206,129.654h-24.805c-.199,0-.361-.162-.361-.361s.162-.361.361-.361h24.805c.199,0,.361.162.361.361s-.162.361-.361.361Z" style="fill: #753f2e;"/>
            <path d="M166.206,129.654h-24.805c-.199,0-.361-.162-.361-.361s.162-.361.361-.361h24.805c.199,0,.361.162.361.361s-.162.361-.361.361Z" style="fill: #753f2e;"/>
            <path d="M164.537,119.573h-21.262c-.199,0-.361-.162-.361-.361s.162-.361.361-.361h21.262c.199,0,.361.162.361.361s-.162.361-.361.361Z" style="fill: #753f2e;"/>
            <path d="M164.537,119.573h-21.262c-.199,0-.361-.162-.361-.361s.162-.361.361-.361h21.262c.199,0,.361.162.361.361s-.162.361-.361.361Z" style="fill: #753f2e;"/>
            <path d="M164.537,119.573h-21.262c-.199,0-.361-.162-.361-.361s.162-.361.361-.361h21.262c.199,0,.361.162.361.361s-.162.361-.361.361Z" style="fill: #753f2e;"/>
            <path d="M162.957,107.59h-17.926c-.199,0-.361-.162-.361-.361s.162-.361.361-.361h17.926c.199,0,.361.162.361.361s-.162.361-.361.361Z" style="fill: #753f2e;"/>
            <path d="M161.262,97.283h-14.932c-.199,0-.361-.162-.361-.361s.162-.361.361-.361h14.932c.199,0,.361.162.361.361s-.162.361-.361.361Z" style="fill: #753f2e;"/>
            <path d="M160.557,86.863h-13.47c-.199,0-.361-.162-.361-.361s.162-.361.361-.361h13.47c.199,0,.361.162.361.361s-.162.361-.361.361Z" style="fill: #753f2e;"/>
            <path d="M159.646,73.017h-11.259c-.199,0-.361-.162-.361-.361s.162-.361.361-.361h11.259c.199,0,.361.162.361.361s-.162.361-.361.361Z" style="fill: #753f2e;"/>
            <path d="M159.04,60.19h-9.767c-.199,0-.361-.162-.361-.361s.162-.361.361-.361h9.767c.199,0,.361.162.361.361s-.162.361-.361.361Z" style="fill: #753f2e;"/>
            <path d="M150.094,138.856c-.081,0-.162-.027-.229-.082-.154-.127-.177-.354-.05-.508l7.39-9.005c.126-.154.354-.177.508-.05.154.126.177.354.05.508l-7.39,9.005c-.071.087-.175.132-.279.132Z" style="fill: #753f2e;"/>
            <path d="M158.504,138.941c-.103,0-.206-.044-.278-.13l-7.645-9.174c-.128-.153-.107-.381.046-.508.153-.127.381-.107.508.046l7.645,9.174c.128.153.107.381-.046.508-.068.056-.149.084-.231.084Z" style="fill: #753f2e;"/>
            <path d="M150.862,129.257c-.066,0-.133-.018-.193-.056-.168-.107-.218-.33-.111-.498l5.723-9.004c.107-.168.33-.218.498-.111.168.107.218.33.111.498l-5.723,9.004c-.069.108-.186.167-.305.167Z" style="fill: #753f2e;"/>
            <path d="M157.375,129.342c-.118,0-.235-.058-.304-.165l-5.921-9.174c-.108-.167-.06-.391.108-.499.168-.108.391-.06.499.108l5.921,9.174c.108.168.06.391-.108.499-.061.039-.128.058-.196.058Z" style="fill: #753f2e;"/>
            <path d="M152.107,118.88c-.04,0-.081-.007-.121-.021-.188-.067-.286-.273-.219-.461l3.912-10.995c.067-.188.273-.287.461-.219.188.067.286.273.219.461l-3.912,10.995c-.053.148-.191.24-.34.24Z" style="fill: #753f2e;"/>
            <path d="M156.558,118.984c-.148,0-.287-.091-.34-.238l-4.047-11.202c-.068-.188.029-.394.217-.462.187-.068.394.03.462.217l4.047,11.202c.068.188-.029.394-.217.462-.04.015-.082.021-.123.021Z" style="fill: #753f2e;"/>
            <path d="M152.824,106.969c-.03,0-.061-.004-.092-.012-.193-.051-.308-.248-.258-.441l2.476-9.423c.051-.193.249-.308.441-.258.193.051.308.248.258.441l-2.476,9.423c-.043.162-.189.269-.349.269Z" style="fill: #753f2e;"/>
            <path d="M155.642,107.058c-.16,0-.306-.106-.349-.268l-2.562-9.601c-.051-.193.063-.39.256-.442.193-.051.391.063.442.256l2.562,9.601c.051.193-.063.39-.256.442-.031.008-.063.012-.093.012Z" style="fill: #753f2e;"/>
            <g>
              <path d="M138.372,155.081c-.199,0-.361-.162-.361-.361v-2.038c0-.199.162-.361.361-.361s.361.162.361.361v2.038c0,.199-.162.361-.361.361Z" style="fill: #753f2e;"/>
              <path d="M141.157,155.081c-.199,0-.361-.162-.361-.361v-2.038c0-.199.162-.361.361-.361s.361.162.361.361v2.038c0,.199-.162.361-.361.361Z" style="fill: #753f2e;"/>
              <path d="M143.942,155.081c-.199,0-.361-.162-.361-.361v-2.038c0-.199.162-.361.361-.361s.361.162.361.361v2.038c0,.199-.162.361-.361.361Z" style="fill: #753f2e;"/>
              <path d="M146.727,155.081c-.199,0-.361-.162-.361-.361v-2.038c0-.199.162-.361.361-.361s.361.162.361.361v2.038c0,.199-.162.361-.361.361Z" style="fill: #753f2e;"/>
              <path d="M152.298,155.081c-.199,0-.361-.162-.361-.361v-2.038c0-.199.162-.361.361-.361s.361.162.361.361v2.038c0,.199-.162.361-.361.361Z" style="fill: #753f2e;"/>
              <path d="M157.868,155.081c-.199,0-.361-.162-.361-.361v-2.038c0-.199.162-.361.361-.361s.361.162.361.361v2.038c0,.199-.162.361-.361.361Z" style="fill: #753f2e;"/>
              <path d="M163.439,155.081c-.199,0-.361-.162-.361-.361v-2.038c0-.199.162-.361.361-.361s.361.162.361.361v2.038c0,.199-.162.361-.361.361Z" style="fill: #753f2e;"/>
              <path d="M166.224,155.081c-.199,0-.361-.162-.361-.361v-2.038c0-.199.162-.361.361-.361s.361.162.361.361v2.038c0,.199-.162.361-.361.361Z" style="fill: #753f2e;"/>
              <path d="M149.513,155.081c-.199,0-.361-.162-.361-.361v-2.038c0-.199.162-.361.361-.361s.361.162.361.361v2.038c0,.199-.162.361-.361.361Z" style="fill: #753f2e;"/>
              <path d="M155.083,155.081c-.199,0-.361-.162-.361-.361v-2.038c0-.199.162-.361.361-.361s.361.162.361.361v2.038c0,.199-.162.361-.361.361Z" style="fill: #753f2e;"/>
              <path d="M160.654,155.081c-.199,0-.361-.162-.361-.361v-2.038c0-.199.162-.361.361-.361s.361.162.361.361v2.038c0,.199-.162.361-.361.361Z" style="fill: #753f2e;"/>
              <path d="M169.009,155.081c-.199,0-.361-.162-.361-.361v-2.038c0-.199.162-.361.361-.361s.361.162.361.361v2.038c0,.199-.162.361-.361.361Z" style="fill: #753f2e;"/>
            </g>
            <g>
              <path d="M147.971,152.398c-.144,0-.286-.064-.381-.186-.163-.21-.125-.513.086-.675l10.958-8.495c.21-.163.512-.124.675.086.163.21.125.513-.086.675l-10.958,8.495c-.088.068-.192.101-.295.101Z" style="fill: #753f2e;"/>
              <path d="M160.542,152.653c-.099,0-.2-.031-.285-.094l-11.383-8.41c-.214-.158-.259-.459-.101-.673.157-.214.459-.26.673-.101l11.383,8.41c.214.158.259.459.101.673-.094.128-.24.195-.388.195Z" style="fill: #753f2e;"/>
            </g>
            <path d="M191.803,207.359c-.073,0-.146-.016-.216-.051l-19.368-9.741c-.238-.12-.333-.409-.214-.646s.409-.333.646-.214l19.368,9.741c.238.12.333.409.214.646-.085.168-.254.265-.431.265Z" style="fill: #753f2e;"/>
            <path d="M176.853,208.265c-.111,0-.222-.038-.313-.116-.202-.173-.226-.477-.053-.678l9.401-10.987c.173-.202.476-.226.679-.053.202.173.226.477.053.679l-9.401,10.987c-.095.111-.23.168-.366.168Z" style="fill: #753f2e;"/>
            <path d="M174.021,202.602c-.264,0-.479-.213-.481-.478-.002-.266.212-.483.478-.485l15.177-.113h.004c.264,0,.479.213.481.478.002.266-.212.483-.478.485l-15.177.113h-.003Z" style="fill: #753f2e;"/>
            <path d="M199.052,219.026c-.07,0-.14-.015-.207-.047l-22.086-10.533c-.24-.114-.342-.402-.227-.642.115-.24.402-.341.642-.227l22.086,10.533c.24.114.342.402.227.642-.083.173-.255.274-.435.274Z" style="fill: #753f2e;"/>
            <path d="M182.289,219.252c-.111,0-.222-.038-.313-.116-.202-.173-.225-.477-.053-.679l9.401-10.987c.173-.202.476-.225.679-.053.202.173.225.477.053.679l-9.401,10.986c-.095.111-.23.168-.366.168Z" style="fill: #753f2e;"/>
            <path d="M194.862,213.815h-.007l-15.404-.227c-.266-.004-.478-.223-.474-.488.004-.263.218-.474.481-.474h.007l15.404.227c.266.004.478.223.474.488-.004.263-.219.474-.481.474Z" style="fill: #753f2e;"/>
            <g>
              <path d="M205.395,227.294c-.049,0-.1-.008-.149-.024l-23.219-7.589c-.253-.083-.391-.354-.308-.607.083-.253.355-.39.607-.308l23.219,7.589c.253.083.391.354.308.607-.067.203-.255.332-.458.332Z" style="fill: #753f2e;"/>
              <path d="M184.102,227.294c-.171,0-.337-.092-.424-.253-.126-.234-.039-.526.196-.652l14.724-7.928c.234-.127.526-.038.652.196.126.234.039.526-.196.652l-14.724,7.928c-.073.039-.151.058-.228.058Z" style="fill: #753f2e;"/>
              <path d="M183.648,223.443c-.256,0-.469-.201-.48-.46-.012-.266.193-.491.459-.503l17.443-.793c.26-.011.49.193.503.459.012.266-.194.491-.459.503l-17.443.793c-.007,0-.015,0-.022,0Z" style="fill: #753f2e;"/>
            </g>
            <path d="M116.371,207.359c-.176,0-.346-.097-.43-.265-.12-.237-.024-.527.214-.646l19.368-9.741c.237-.12.527-.024.646.214.119.237.024.527-.214.646l-19.368,9.741c-.069.035-.143.051-.216.051Z" style="fill: #753f2e;"/>
            <path d="M131.321,208.265c-.136,0-.271-.057-.366-.168l-9.401-10.987c-.173-.202-.149-.506.053-.679.202-.173.506-.149.679.053l9.401,10.987c.173.202.149.506-.053.678-.091.078-.202.116-.313.116Z" style="fill: #753f2e;"/>
            <path d="M134.153,202.602h-.004l-15.177-.113c-.266-.002-.48-.219-.478-.485.002-.266.22-.478.485-.478l15.177.113c.266.002.48.219.478.485-.002.265-.217.478-.481.478Z" style="fill: #753f2e;"/>
            <path d="M109.122,219.026c-.18,0-.352-.101-.435-.274-.114-.24-.013-.527.227-.642l22.086-10.533c.24-.113.527-.012.642.227.114.24.013.527-.227.642l-22.086,10.533c-.067.032-.137.047-.207.047Z" style="fill: #753f2e;"/>
            <path d="M125.885,219.252c-.136,0-.271-.057-.366-.168l-9.401-10.986c-.173-.202-.149-.506.053-.679.202-.173.506-.149.679.053l9.401,10.987c.173.202.149.506-.053.679-.091.077-.202.116-.313.116Z" style="fill: #753f2e;"/>
            <path d="M113.312,213.815c-.262,0-.477-.211-.481-.474-.004-.266.208-.484.474-.488l15.404-.227c.265-.006.484.208.488.474.004.266-.208.485-.474.488l-15.404.227h-.007Z" style="fill: #753f2e;"/>
            <g>
              <path d="M102.778,227.294c-.203,0-.391-.129-.457-.332-.083-.253.055-.524.308-.607l23.219-7.589c.252-.083.524.055.607.308.083.253-.055.524-.308.607l-23.219,7.589c-.05.016-.1.024-.15.024Z" style="fill: #753f2e;"/>
              <path d="M124.072,227.294c-.077,0-.155-.018-.228-.058l-14.724-7.928c-.234-.126-.322-.418-.196-.652.126-.234.418-.323.652-.196l14.724,7.928c.234.126.322.418.196.652-.087.161-.253.253-.424.253Z" style="fill: #753f2e;"/>
              <path d="M124.526,223.443c-.007,0-.015,0-.022,0l-17.443-.793c-.266-.012-.471-.237-.459-.503.012-.266.239-.467.503-.459l17.443.793c.266.012.471.237.459.503-.012.258-.225.46-.48.46Z" style="fill: #753f2e;"/>
            </g>
          </g>
        </g>
      </g>
    </g>
  </g>
</svg>