<?xml version="1.0" encoding="utf-8"?>
<!-- Generator: Adobe Illustrator 27.5.0, SVG Export Plug-In . SVG Version: 6.00 Build 0)  -->
<svg version="1.1" id="Capa_2" xmlns="http://www.w3.org/2000/svg" xmlns:xlink="http://www.w3.org/1999/xlink" x="0px" y="0px"
	 viewBox="0 0 1975 2279" style="enable-background:new 0 0 1975 2279;" xml:space="preserve">
<g>
	<path style="fill:#2D2828;" d="M1510.285,563.891c-12.961,2.207-24.246-1.59-20.336-15.422
		c3.266-11.543,21.57-18.586,20.215-31.469c-0.988-9.488-8.164-7.316-16.039-6.301c-11.184,1.438-23.648,0.805-32.176-7.422
		c-3.59-3.461-4.82-10.605-8.227-13.371c-5.211-4.242-12.473-1.07-18.902-3.66c-5.945-2.391-10.508-9.078-15.527-12.699
		c-7.102-5.129-10.762-7.91-16.012-14.734c-4.922-6.402-7.289-6.043-14.301-9.055c-3.988-1.711-3.922,0-6.934-3.113
		c-2.965-3.055-3.156-9.809-5.512-13.418c-2.852-4.371-7.734-9.281-12.461-11.426c-14.535-6.598-34.195-3.477-48.594,0.969
		c-8.41,2.598-15.656,3.109-21.586,9.938c-4.926,5.668-6.109,12.383-14.074,15.023c-5.918,1.961-10.164,1.395-14.945,6.031
		c-4.555,4.414-5.121,10.672-11.559,13.422c-6.164,2.637-12.715-0.805-18.938,0.258c-7.637,1.316-9.414,5.52-14.113,11.098
		c-11.43,13.586-21.063,7.508-35.055,13.453c-11.855,5.039-14.555,13.184-28.941,14.094c-6.109,0.387-11.566-0.477-17.016,3.047
		c-5.207,3.371-6.762,9.898-11.414,13.644c-9.051,7.297-23.633,4.25-34.281,10.059c-12.469,6.793-18.805,9.395-33.082,5.641
		c-9.41-2.469-25.008-7.809-15.805-19.504c4.672-5.93,20.406-11.621,27.602-14.953c13.246-6.137,22.875-4.262,28.223-19.977
		c3.156-9.254,13.449-27.211,9.121-36.676c-9.355-20.465-21.664,2.777-31.508,4.598c-6.414,1.184-10.582-4.973-15.965-7.34
		c-8.516-3.746-16.156-1.867-25.059-1.09c-18.781,1.633-25.293-11.707-41.805-14.488c-12.754-2.141-28.301,3.695-41.125,4.93
		c-3.297-16.094,18.07-14.496,25.582-17.781c8.668-3.797,12.766-20.34,16.188-28.527c-17.938-5.008-26.637,20.199-43.344,18.195
		c-0.004-7.906,1.805-13.645,6.457-19.93c3.781-5.117,11.582-9.988,10.473-17.391c-2.609-17.43-29.398-5.242-38.309-14.461
		c-5.293-5.469-4.047-15.352-9.211-21.156c-6.246-7.031-13.789-5.23-22.047-3.105c-9.391,2.418-18.215,6.207-28.129,4.965
		c-9.641-1.207-18.238-6.707-27.586-9.125c-21.566-5.59-42.891,1.457-64.051,5.348c-19.582,3.594-37.156,12.027-57.441,9.004
		c-14.309-2.129-31.547,2.809-30.934,21.785c0.519,16,18.031,23.98,25.852,34.402c2.855,3.805,4.726,9.211,3.582,14.59
		c-1.059,4.984-3.465,4.934-5.356,9.32c-5.129,11.891,5.492,14.148,15.945,17.473c1.477,10.418-7.777,18.066-5.719,27.738
		c2.191,10.313,15.387,13.875,17.961,23.852c2.137,8.277-4.988,15.227-1.648,23.469c3.898,9.621,19.051,12.055,9.492,23.523
		c-7.129,8.543-16.238,2.285-23.277,7.211c-10.066,7.047-0.711,23.402-6.453,31.875c-7.215,10.644-15.348,2.609-20.531-3.523
		c-8.93-10.559-10.453-6.492-17.933,3.477c-10.254,13.66-17.844,12.027-31.898,6.086c-12.856-5.434-21.781-1.484-23.25,13.324
		c-4.781,0.32-10.406,1.063-15.199,0.082c-6.391-1.301-15.207-9.719-21.184-13.648c-5.629-3.699-9.496-10.168-16.027-12.48
		c-19.402-6.863-26.301,0.715-36.059,15.813c-7.207,11.152-24.109,8.512-30.277,21.242c-5.043,10.406-1.477,30.207,0.598,41.211
		c4.902,25.957,26.09,54.024,19.738,81.164c-4.379,18.723-20.363,30.059-24.5,48.106c-6.16,26.84-38.902,34.922-61.762,41.793
		c-12.543,3.77-28.523,3.449-29.125,18.902c-0.656,17.059,0.125,29.852,19.074,30.082c13.125,0.16,30.309,6.098,21.969,23.129
		c-2.688,5.488-13.086,9.539-11.648,16.793c1.602,8.09,15.828,8.27,22.137,8.762c0.766,8.844,1.906,22.09-6.184,28.32
		c-9.602,7.402-19.957-4.227-30.824-1.762c1.789,11.551,8.5,23.875-7.523,24.652c-14,0.684-29.105-3.836-43.176-1.703
		c-12.719,1.926-14.293,15.91-22.668,24.492c-11.84,12.141-14.883,18.051-2.176,30.547c7.16,7.047,17.043,14.305,17.906,25.051
		c1.18,14.703-13.754,20.348-15.766,33.309c-0.84,5.445,2.414,8.297,2.719,13.246c0.488,7.82-4.262,13.445-8.012,19.91
		c-4.797,8.262-15.598,22.438-12.867,32.086c1.75,6.164,8.742,9.465,10.438,15.867c1.891,7.137-1.59,15.945-3.199,22.832
		c-0.898,3.867-2.578,9.035-3.441,14.078c335.785-195.359,872.488-51.754,1118.727-398.195c-7.031-2.746-13.004-6.695-15.645-15.481
		c-5.691-18.844,6.047-23.551,18.148-35.387c5.664-5.547,10.781-8.328,11.297-16.973c0.754-12.469-3.969-17.074,10.313-23.34
		c12.762-5.605,22.434-7.148,25.297-22.711c3.113-16.961-6.379-22.637-15.996-33.699c-7.16-8.238-6.367-14.984-4-24.996
		c2.992-12.668-2.336-11.281-12.289-18.019c5.02-16.125,30.02-9.328,41.297-13.996c10.594-4.379,25.094-21.973,27.074-32.684
		C1531.883,556.797,1523.262,561.676,1510.285,563.891z"/>
	<path style="fill:#D63722;" d="M1623.523,1103.469c-8.418-5.438-10.055-7.711-13.148-17.598
		c-5.5-17.586-12.125-27.73-31.348-31.773c-2.824-9.895-13.043-14.832-15.801-24.281c-2.434-8.336,4.422-14.199,2.504-22.352
		c-2.016-8.578-11.563-11.871-15.723-18.867c-4.512-7.59-1.914-15.023-1.125-23.258c0.734-7.617,4.293-19.719,1.453-26.746
		c-5.012-12.406-22.93-11.605-26.133-25.391c-4.914-21.168,11.02-40.555-11.344-52.883c-21.43-11.805-6.922-36.328-27.102-51.543
		c-7.559-5.695-17.254-7.262-25.5-10.484c-246.238,346.441-782.941,202.836-1118.727,398.195c-1.391,8.164-0.621,16.016,9.18,17.477
		c0.805,9.063-1.242,18.836,0.27,27.801c1.582,9.402,8.504,10.789,12.223,18.734c4.18,8.93-0.809,17.188,8.086,24.105
		c4.906,3.809,14.039,6.496,20.047,7.41c3.809,20.117-17.305,20.074-27.41,31.59c-11.82,13.453,1.027,26.152,2.105,40.477
		c1.406,18.555-8.789,34.148,13.082,40.34c9.219,2.609,11.043,5.324,15.945,13.742c5.133,8.813,7.336,9.586,16.258,13.16
		c45.641,18.281-66.121,57.848-33.047,84.465c12.598,10.137,29.957,8.77,41.773,20.879c14.145,14.504,18.152,31.977,38.883,39.602
		c10.465,3.852,14.086,8.926,22.539,15.91c0.961,0.793,1.82,1.418,2.637,1.965c256.496-109.594,614.32-48.234,922.48-70.676
		c-0.738-0.75-1.477-1.504-2.355-2.227c-10.074-8.269-25.637-5.238-36.551-12.141c-11.363-7.188-21.082-19.738-31.789-28.227
		c-16.93-13.414-2.352-15.441,12.848-19.953c12.691-3.773,34.551-8.68,24.211-25.066c-7.98-12.648-16.836-18.32-20.148-33.883
		c-2.996-14.059-6.188-14.656-19.238-19.91c-15.648-6.301-19.543-17.512-2.395-26.004c14.398-7.125,38.43-3.289,49.336-15.91
		c3.75-4.34,4.848-10.66,8.441-15.25c5.98-7.609,14.902-11.668,23.406-15.754c21.074-10.109,33.906-20.809,47.848-39.453
		c11.238-15.043,26.086-21.766,39.734-33.824c10.508-9.285,25.129-28.844,41.262-18.324c11.105,7.266,5.992,22.414,11.156,32.297
		c4.758,9.117,14.863,13.258,20.965,4.109c6.051-9.063,6.582-21.023,13.52-30.52c9.57-13.086,22.203-25.926,23.605-43.113
		c0.828-10.09-3.285-16.809,2.496-25.793c6.832-10.613,24.789-16.914,24.605-31.184
		C1637.418,1113.918,1630.5,1107.969,1623.523,1103.469z"/>
	<path style="fill:#F9B23D;" d="M1518.629,1673.824c2.375-16.293-12.832-23.148-19.035-36.547
		c-6.461-13.957-1.496-29.961-14.277-40.773c-12.309-10.41-23.23-12.09-29.855-27.988c-6.41-15.383-15.168-17.301-29.586-24.379
		c-10.695-5.242-12.375-13.594-19.293-20.668c-308.16,22.442-665.984-38.918-922.48,70.676c7.961,5.316,9.602-0.617,17.836-5.676
		c21.688-13.34,47.668,21.113,70.719,17.281c11.707-1.945,18.891-14.512,30.199-17.699c11.504-3.254,15.109,4.754,24.828,7.957
		c7.703,2.527,17.074-3.148,24.113,0.578c31.965,16.93-47.664,42.93-53.68,45.77c-28.977,13.664-17.898,30.332-24.754,55.484
		c-4.25,15.563-13.156,29.773-14.875,46.047c-1.742,16.457,6.773,27.48,11.754,42.242c9.297,27.504-11.559,52.449-7.461,79.988
		c1.535,10.375,4.352,20.262,5.082,30.797c0.527,7.574-1.602,20.625,6.402,24.973c8.344,4.535,18.953-4.992,27.492-4.398
		c9.008,0.621,14.246,9.141,23.207,10.523c13.508,2.082,25.414-8.215,38.434-9.73c10.332-1.203,18.106,0.828,28.133-3.242
		c11.453-4.652,16.242-5.531,28.516-2.402c9.512,2.434,18.336,4.258,22.75-6.672c-9.297-0.383-8.297-14.34-12.102-20.184
		c11.695-5.211,16.973-5.672,28.418-0.719c4.746,2.051,13.027,2.824,16.941,5.98c4.879,3.93,2.582,10.266,6.242,14.063
		c8.383,8.699,15.371-4.543,23.125-5.992c10.383-1.941,14.707,8.223,22.633,10.773c6.891,2.219,16.84-4.051,23.922-5.828
		c3.832-0.969,7.047,0.137,9.938-2.941c3.172-3.371,0.98-8.043,5.219-11.305c9.695-7.461,14.606,5.176,20.535,10.863
		c2.762,2.648,6.57,7.254,9.625,9.391c4.738,3.297,8.75,1.898,13.75,3.719c6.574,2.398,4.941,5.016,8.844,9.004
		c3.566,3.637,5.895,2.281,9.977,5.27c8.445,6.18,4.945,11.41,1.461,17.285c-1.777,3.012-3.555,6.184-3.727,9.746
		c11.621-6.426,34.793-1.695,48.367-8.535c3.625-1.828,6.605-4.434,8.449-8.355c10.48-22.289-25.027-28.137-20.887-44.77
		c5.297-0.691,16.277-2.148,20.965,0.34c9.195,4.883,9.516,13.273,21.387,15.93c9.453,2.125,33.449-1.953,39.586,4.094
		c4.957,4.871-0.898,14.016,2.988,18.551c2.863,3.344,17.383,3.277,21.852,3.961c10.906,1.684,20.426,3.043,31.035-0.102
		c10.965-3.262,13.836-1.441,24.297-0.441c11.598,1.109,24.762-6.59,36.105-9.152c7.453-1.684,14-1.543,21.566-2.406
		c0.484-4.449,1.457-9.332-2.336-12.344c17.477,0.531,35.137-0.965,52.578,0.074c7.965,0.477,19.422,5.023,24.488-3.727
		c2.578-4.469,0.859-18.223-0.91-22.242c5.965,2.125,11.805,3.602,16.664,7.172c6.43,4.727,5.996,7.625,15.18,9.496
		c12.34,2.516,21.91,2.109,33.324,8.02c0.426,3.91,0.125,8.051,0.512,11.984c10.918-0.422,23.734,0.219,29.039,11.246
		c5.27,10.949,1.535,17.219,17.543,15.457c10.008-1.102,29.906-6.223,29.629-18.77c-0.273-12.504-7.527-10.941,3.734-21.93
		c5.918-5.77,17.586-20.941,4.777-27.086c-8.766-4.207-14.75,6.953-23.582,0.016c-20.949-16.465,14.492-28.973,14.895-44.02
		c0.332-11.973-16.922-11.742-18.914-23.559c-0.934-5.586,0.754-10.59-0.945-16.426c-1.359-4.656-3.93-8.512-4.621-13.453
		c11.926-4.098,22.707-7.711,34.887-9.691c3.996-0.652,13.09-0.621,15.574-4.289c6.219-9.172-8.426-8.133-9.684-13.102
		c-1.316-5.199,11.09-9.543,15.273-11.207c6.934-2.773,10.168-0.242,15.711-0.477c17.07-0.742,4.797-15.715,1.57-25.23
		c10.988-1.34,22.918-0.496,33.426,1.313c7.969,1.379,11.473,1.441,19.621-1.668c5.563-2.125,16.605-3.316,20.086-7.348
		C1509.023,1697.996,1516.316,1689.68,1518.629,1673.824z"/>
</g>
</svg>
