<?xml version="1.0" encoding="utf-8"?>
<!-- Generator: Adobe Illustrator 27.5.0, SVG Export Plug-In . SVG Version: 6.00 Build 0)  -->
<svg version="1.1" id="Layer_1" xmlns="http://www.w3.org/2000/svg" xmlns:xlink="http://www.w3.org/1999/xlink" x="0px" y="0px"
	 viewBox="0 0 251.659 316.095" style="enable-background:new 0 0 251.659 316.095;" xml:space="preserve">
<g>
	<path style="fill:#D1D3D4;" d="M245.232,163.211c-0.399-1.626-1.595-2.782-2.468-3.626c-0.176-0.171-0.348-0.335-0.502-0.497
		c-2.153-2.258-4.272-4.365-6.819-6.886c-0.385-0.381-0.759-0.782-1.134-1.182c-0.669-0.716-1.361-1.456-2.149-2.143
		c-1.666-1.452-3.368-1.578-4.968-1.583c-1.456-0.005-2.834-0.572-4.43-1.229c-0.679-0.28-1.381-0.569-2.124-0.826
		c-3.535-1.225-6.489-0.621-9.215,0.1c-1.264,0.334-2.38,0.457-3.615,0.395l-0.775-0.045c-1.299-0.08-2.77-0.169-4.27,0.09
		c-2.952,0.509-6.471,2.706-7.221,6.327c-0.118,0.569-0.155,1.143-0.11,1.735c-0.273-0.219-0.556-0.42-0.851-0.604
		c-0.161-0.396-0.391-0.763-0.688-1.092c-0.101-0.111-0.208-0.216-0.321-0.316l0.198-0.217c0.415-0.453,0.841-0.901,1.27-1.352
		c1.157-1.216,2.353-2.473,3.394-3.885c1.704-2.312,1.143-4.809,0.733-6.632c-0.062-0.275-0.123-0.549-0.177-0.821l-0.125-0.642
		c-0.663-3.413-1.415-7.282-3.401-10.605c-1.747-2.925-4.196-4.559-6.615-6.07c0.493-0.137,0.972-0.301,1.43-0.491
		c1.63-0.675,2.972-2.636,2.298-4.624c-0.753-2.225-2.001-4.068-4.045-5.975c-0.267-0.249-0.54-0.496-0.815-0.744
		c-1.207-1.089-2.346-2.117-2.872-3.317c-0.186-0.424-0.325-0.945-0.471-1.496c-0.218-0.815-0.464-1.739-0.939-2.656
		c-0.714-1.378-1.735-2.326-2.636-3.162l-0.379-0.354c-0.059-0.055-0.124-0.116-0.197-0.179c0.037-0.087,0.074-0.171,0.104-0.241
		c0.135-0.31,0.257-0.6,0.335-0.836c0.135-0.406,0.276-0.813,0.417-1.221c0.415-1.196,0.843-2.433,1.148-3.731
		c0.198-0.848,0.046-1.701-0.426-2.404c-0.468-0.694-1.221-1.168-2.071-1.302c-0.879-0.138-1.755-0.181-2.603-0.128
		c-1.089-2.386-2.779-4.522-4.195-6.314l-0.648-0.823c-0.578-0.742-1.236-1.623-1.729-2.537c-0.241-0.446-0.447-0.962-0.666-1.508
		c-0.219-0.548-0.446-1.115-0.739-1.697c-1.037-2.067-2.827-3.663-5.322-4.745c-1.779-0.772-3.591-1.294-5.345-1.799
		c-2.331-0.671-4.534-1.305-6.476-2.459c-3.329-1.978-4.73-5.498-6.219-9.892c-0.393-1.159-0.768-2.322-1.144-3.485
		c-0.563-1.74-1.145-3.539-1.777-5.31c-0.593-1.66-1.139-3.155-1.828-4.647l-0.376-0.823c-0.038-0.638-0.285-1.249-0.723-1.748
		c-0.093-0.175-0.087-0.843-0.083-1.242c0.004-0.432,0.005-0.857-0.03-1.258c-0.139-1.666-0.861-3.12-2.207-4.446
		c-0.161-0.158-0.329-0.314-0.5-0.471c-0.254-0.234-0.68-0.625-0.739-0.757c-0.052-0.398,0.033-0.955,0.123-1.544
		c0.121-0.792,0.258-1.691,0.164-2.684c-0.138-1.474-0.564-2.98-1.343-4.741l-0.098-0.223c-0.524-1.188-1.118-2.534-2.016-3.713
		c-1.136-1.494-2.817-2.316-4.586-2.257c-0.263,0.009-0.518,0.04-0.761,0.086c-0.244-0.391-0.473-0.792-0.684-1.168
		c-1.206-2.151-2.965-4.745-5.887-5.727c-1.433-0.482-3.056,0.123-3.946,1.47c-1.135,1.717-2.292,3.417-3.45,5.118
		c-0.201,0.296-0.42,0.594-0.642,0.898c-0.818,1.119-1.745,2.388-2.228,3.917c-0.678,2.146,0.007,4.072,0.557,5.619
		c0.088,0.246,0.175,0.49,0.254,0.731c0.341,1.043,0.664,2.092,0.982,3.143c-2.656,1.47-5.374,2.981-8.038,4.51
		c-1.501,0.862-3.204,1.992-4.449,3.842c-0.652,0.969-1.088,1.991-1.473,2.893c-0.226,0.528-0.438,1.027-0.676,1.48
		c-1.124,2.146-3.077,3.921-5.355,4.871l-0.377,0.154c-1.364,0.556-3.233,1.316-4.243,3.506c-0.181,0.393-0.356,0.806-0.53,1.251
		c-0.348-0.052-0.696-0.103-1.044-0.153c-1.124-0.16-2.287,0.286-3.098,1.199c-0.569,0.641-0.901,1.415-0.964,2.2
		c-0.001,0-0.001,0.001-0.002,0.001c-0.312,0.158-0.603,0.314-0.83,0.467c-0.961,0.645-1.756,1.456-2.363,2.408
		c-0.891,1.397-1.388,2.966-1.826,4.349c-0.133,0.419-0.264,0.834-0.405,1.237l-1.805,5.172c-0.78,2.237-1.56,4.473-2.343,6.706
		c-0.628,1.787,0.209,3.214,1.318,3.836c2.117,1.187,3.262,3.633,4.438,6.471c0.604,1.456,2.21,5.335,5.535,6.572
		c0.008,1.516,0.122,2.891,0.347,4.224l0.054,0.348c0.185,1.244,0.748,5.009,4.189,5.009c0.029,0,0.057-0.001,0.086-0.001
		c2.416-0.043,4.151-2.116,5.393-3.918c0.344-0.499,0.655-1.026,0.935-1.581c0.2,0.022,0.4,0.037,0.6,0.045
		c-0.047,0.082-0.094,0.164-0.139,0.248c-0.505,0.935-0.821,1.945-0.962,3.095c-1.966,0.766-3.724,2.385-4.576,4.361
		c-0.829,1.923-0.812,4.253,0.049,6.393c0.688,1.713,1.783,2.845,2.749,3.844c0.065,0.067,0.13,0.134,0.196,0.204
		c-0.089,0.096-0.181,0.191-0.258,0.271c-0.272,0.284-0.582,0.605-0.863,0.966c-1.076,1.378-1.882,3.069-2.332,4.888
		c-0.536,2.173-0.47,4.467,0.171,6.618c-0.103,0.118-0.202,0.241-0.298,0.369c-1.395,1.855-1.657,4.243-0.739,6.726
		c0.96,2.599,2.752,4.97,5.14,6.842c-0.071,0.061-0.147,0.118-0.226,0.173c-1.715,1.19-2.194,3.28-1.116,4.859l0.726,1.071
		c0.663,0.981,1.327,1.962,2.01,2.92c0.032,0.135,0.064,0.271,0.095,0.407c0.056,0.241,0.112,0.482,0.172,0.725
		c-1.26,0.042-2.532,0.448-3.653,1.184c-1.245-0.411-2.659-0.058-3.684,0.988c-2.049,2.09-3.145,4.211-3.258,6.301
		c-0.144,2.639,1.507,4.705,4.422,5.542c-0.076,0.142-0.141,0.272-0.192,0.383c-1.148,2.52-2.29,5.041-3.413,7.574
		c-0.154,0.348-0.246,0.713-0.277,1.079c-0.064,0.028-0.129,0.056-0.193,0.083c-0.993,0.419-1.873,1.338-2.242,2.341
		c-0.313,0.851-0.271,1.746,0.119,2.52c1.23,2.453,3.358,4.458,5.838,5.501c0.385,0.161,0.79,0.3,1.2,0.434
		c-0.115,0.138-0.22,0.284-0.315,0.438c-0.372,0.074-0.743,0.183-1.116,0.326c-1.483,0.566-2.85,2.299-2.473,4.111
		c0.176,0.845,0.188,1.537,0.037,2.182c-0.048,0.207-0.173,0.496-0.305,0.803c-0.283,0.656-0.635,1.473-0.698,2.475
		c-0.109,1.719,0.707,2.958,1.302,3.864l2.018,3.14c0.128,0.199,0.259,0.445,0.403,0.709c0.829,1.518,2.367,4.353,5.403,3.985
		c0.553-0.066,1.019-0.187,1.431-0.296c0.358-0.094,0.605-0.156,0.804-0.172c0.188,0.601,0.46,1.137,0.821,1.617
		c0.643,0.855,1.562,1.428,2.626,1.645c-0.003,0.098-0.006,0.197-0.009,0.295c-0.039,1.245-0.08,2.532,0.017,3.875
		c0.146,2.019,0.464,4.075,0.973,6.286c0.216,0.94,0.891,1.691,1.805,2.012c0.12,0.042,0.241,0.075,0.363,0.101
		c-2.293,1.019-4.09,3.286-5.17,5.529c-1.23,2.554-2.411,5.169-3.552,7.699l-0.448,0.991c-2.054,0.151-4.231,0.442-6.608,0.879
		c-1.144,0.211-2.429,0.402-3.184,0.005c-0.133-0.07-0.416-0.375-0.623-0.597c-0.763-0.821-2.039-2.202-4.265-1.999
		c-1.259,0.11-2.16,0.692-2.819,1.117l-0.191,0.122c-0.261,0.164-0.497,0.239-1.07,0.195c-0.745-0.059-1.535-0.242-2.372-0.436
		c-0.737-0.17-1.5-0.347-2.315-0.46c-2.374-0.327-4.371,0.175-6.01,0.71c-0.233,0.076-0.476,0.162-0.727,0.251
		c-0.54,0.193-1.806,0.639-2.065,0.468c-1.254-0.853-2.966-0.737-4.258,0.288c-1.316,1.044-1.828,2.715-1.274,4.158
		c0.689,1.79,0.706,3.747,0.078,5.565c-1.505-0.367-3.151-0.715-4.98-1.054c-1.161-0.218-2.371,0.236-3.226,1.208
		c-0.871,0.991-1.185,2.314-0.818,3.452c1.519,4.727,0.03,10.19-3.543,13.265c-0.715,0.081-1.381,0.211-2.019,0.395
		c-1.483,0.429-2.549,1.575-2.821,2.964c-2.169-0.041-4.32,0.703-6.03,2.138c-2.326,1.953-3.575,5.041-3.351,8.048
		c-0.861,0.875-1.483,1.906-2.051,2.85c-0.248,0.412-0.494,0.823-0.757,1.203c-1.268,1.827-3.316,4.322-5.902,5.888
		c-0.177-0.021-0.531-0.126-0.775-0.198c-0.696-0.206-1.562-0.46-2.58-0.405c-1.715,0.101-3.397,0.824-4.862,2.089
		c-2.432,2.1-3.648,5.332-3.613,9.6c0.011,1.493,1.12,2.714,2.635,2.905c3.448,0.437,5.931-1.914,7.417-3.317l0.337-0.323
		c0.365-0.353,0.739-0.713,1.072-0.942c0.522,0.945,1.004,1.915,1.513,2.936c0.384,0.771,0.768,1.542,1.169,2.303
		c0.473,0.898,1.284,2.184,2.855,2.986c0.782,0.401,1.638,0.602,2.489,0.602c0.809,0,1.615-0.182,2.349-0.546
		c1.322-0.658,2.161-1.865,2.249-3.202c1.531-1.161,2.367-3.196,2.368-5.758c0.341,0.017,0.688-0.021,1.033-0.115
		c1.127-0.308,2.12-1.208,2.53-2.293c0.536-1.416,1.897-2.422,3.552-2.626c1.359-0.169,2.688-1.291,3.16-2.669
		c0.183-0.533,0.227-1.072,0.142-1.583c0.172,0.022,0.343,0.045,0.515,0.067c0.804,0.103,1.608,0.207,2.408,0.316
		c0.222,0.031,0.441,0.07,0.657,0.108c1.24,0.219,3.112,0.546,4.905-0.742c0.278-0.199,0.546-0.42,0.802-0.66
		c1.852,0.344,3.832,0.046,5.568-0.83c2.663,2.613,5.972,4.543,9.577,5.582l0.126,0.547c0.282,1.236,1.467,2.158,2.76,2.158
		c0.011,0,0.021,0,0.032,0c1.227-0.012,2.456,0.004,3.684,0.019l0.235,0.003c0.014,0,0.027,0,0.041,0
		c0.952,0,1.896-0.395,2.597-1.087c0.712-0.702,1.12-1.66,1.121-2.626c0.001-2.344,1.285-4.383,3.27-5.193
		c1.644-0.673,2.593-2.441,2.205-4.114l-0.2-0.838c-0.429-1.771-0.872-3.602-0.503-5.022c0.293-1.129,1.011-2.058,2.193-2.838
		c1.407-0.928,3.062-1.528,4.813-2.164c1.06-0.385,2.151-0.781,3.23-1.267c0.314,0.019,0.663,0.014,1.038-0.036
		c0.942-0.129,1.68-0.485,2.273-0.771l0.284-0.136c0.58-0.27,1.216-0.474,1.89-0.607c1.17-0.233,2.393-0.2,3.591,0.1
		c1.111,0.653,2.165,1.658,3.235,2.716l0.221,0.219c2.032,2.015,4.335,4.299,7.572,5.302c0.956,0.297,1.986,0.125,2.827-0.465
		c0.908-0.638,1.48-1.669,1.531-2.756c0.02-0.42,0.047-0.841,0.076-1.262c1.511,0.173,3.021,0.354,4.532,0.542
		c1.364,0.168,2.727,0.337,4.089,0.511c0.166,0.021,0.336,0.048,0.508,0.074c0.99,0.154,2.344,0.363,3.711-0.121
		c1.267-0.447,2.287-1.397,2.797-2.605c0.32-0.759,0.424-1.565,0.313-2.355c2.338-0.12,4.672-0.502,6.885-1.128
		c-0.287,0.296-0.542,0.689-0.675,1.217c-0.057,0.234-0.07,0.425-0.072,0.522c-0.064,0.94,0.433,1.828,1.268,2.266
		c2.361,1.236,4.783,2.099,7.197,2.565c0.656,0.127,1.495,0.289,2.42,0.289c0.782,0,1.626-0.116,2.476-0.466
		c1.797-0.741,2.721-2.151,3.463-3.285l0.871-1.318c0.499-0.752,0.998-1.506,1.486-2.262c0.435-0.671,0.735-1.294,0.917-1.907
		c0.323-1.086-0.167-2.251-1.17-2.779c-0.37-0.195-0.733-0.42-1.092-0.642c-0.208-0.128-0.414-0.249-0.621-0.372
		c0.169-0.238,0.317-0.489,0.426-0.758c0.837,0.089,1.675,0.152,2.511,0.186c0.29,0.642,0.595,1.238,0.921,1.797
		c1.865,3.199,4.467,2.968,5.848,2.544c2.809-0.857,5.548-1.981,8.197-3.067c1.114-0.456,2.227-0.913,3.341-1.348
		c0.353-0.138,0.71-0.288,1.069-0.441c1.27-0.537,2.471-1.038,3.457-0.89c1.36,0.213,2.728,0.576,4.177,0.961
		c0.618,0.163,1.233,0.327,1.847,0.478l1.423,0.353c1.432,0.355,2.862,0.711,4.299,1.046l0.108,0.025
		c1.784,0.415,4.228,0.983,6.582-0.651c1.027-0.714,1.628-1.628,2.111-2.364c0.268-0.408,0.521-0.793,0.738-0.977
		c0.247-0.144,1.168-0.13,1.668-0.122c0.306,0.005,0.601,0.007,0.879,0.001c1.693-0.045,3.489-0.24,5.151-1.356
		c1.696-1.138,2.502-2.795,3.141-4.158c0.179,0.029,0.373,0.067,0.53,0.098c0.369,0.073,0.734,0.143,1.085,0.182
		c2.174,0.236,4.147-0.312,5.572-1.55c0.919-0.797,1.551-1.793,1.83-2.882c0.224-0.878,0.16-1.664,0.112-2.239
		c-0.02-0.239-0.038-0.465-0.029-0.617c0.059-0.944,1.106-1.698,1.553-1.977c1.06-0.663,2.376-1.042,3.769-1.443
		c0.485-0.14,0.97-0.28,1.448-0.432c2.594-0.822,4.168-2.873,4.318-5.628c0.042-0.765,0.022-1.474,0.004-2.159
		c-0.029-1.066-0.053-1.987,0.155-2.886c0.326-1.397,1.06-2.678,2.123-3.703c0.954-0.917,1.645-2.701,1.048-4.203
		c-0.453-1.141-1.536-1.856-2.83-1.869c-5.144-0.04-10.264,0.789-15.253,2.479c-1.001-1.268-2.45-2.184-4.085-2.569
		c3.049-3.085,4.486-7.718,3.7-11.925c0.986,0.299,2.038,0.418,3.096,0.328c3.118-0.262,5.955-2.315,8.206-5.939
		c0.227-0.367,0.93-1.674,0.417-3.077c-0.149-0.407-0.385-0.767-0.686-1.061c0.513-0.256,1.018-0.544,1.5-0.886
		c2.514-1.783,4.49-4.473,5.564-7.577c0.943-2.727,1.238-5.726,0.875-8.915c-0.032-0.274-0.07-0.565-0.11-0.867
		c-0.122-0.913-0.255-1.922-0.2-2.746c0.891-0.977,1.596-2.174,2.02-3.448c0.56-1.687,0.577-3.36,0.591-4.837
		c0.01-1.082,0.02-2.104,0.237-2.993c0.05-0.208,0.162-0.482,0.28-0.774C245.08,166.132,245.622,164.802,245.232,163.211z
		 M210.129,221.76c-0.282,0.02-0.561,0.034-0.839,0.042c-0.474,0.014-0.951,0.012-1.427,0.003c0.484-0.091,0.981-0.144,1.505-0.124
		C209.619,221.685,209.871,221.714,210.129,221.76z"/>
	<path style="fill:#FFFFFF;" d="M242.276,160.467c-0.399-1.626-1.595-2.782-2.468-3.626c-0.176-0.171-0.348-0.335-0.502-0.497
		c-2.153-2.258-4.272-4.365-6.819-6.886c-0.385-0.381-0.759-0.782-1.134-1.182c-0.669-0.716-1.361-1.456-2.149-2.143
		c-1.666-1.452-3.368-1.578-4.968-1.583c-1.457-0.005-2.834-0.572-4.43-1.229c-0.679-0.28-1.381-0.569-2.125-0.826
		c-3.535-1.225-6.489-0.621-9.215,0.1c-1.264,0.334-2.38,0.457-3.615,0.395l-0.776-0.044c-1.299-0.08-2.77-0.169-4.269,0.09
		c-2.952,0.509-6.471,2.706-7.221,6.327c-0.118,0.569-0.155,1.143-0.11,1.735c-0.273-0.219-0.556-0.42-0.851-0.604
		c-0.161-0.396-0.391-0.763-0.688-1.092c-0.101-0.111-0.208-0.216-0.321-0.316l0.198-0.217c0.415-0.453,0.841-0.901,1.27-1.352
		c1.157-1.216,2.353-2.473,3.394-3.885c1.704-2.312,1.143-4.809,0.733-6.632c-0.062-0.275-0.123-0.549-0.177-0.821l-0.125-0.642
		c-0.663-3.413-1.415-7.282-3.401-10.605c-1.747-2.925-4.196-4.559-6.615-6.07c0.493-0.137,0.972-0.301,1.43-0.491
		c1.63-0.675,2.973-2.636,2.298-4.624c-0.753-2.225-2.001-4.068-4.045-5.975c-0.267-0.249-0.54-0.496-0.815-0.744
		c-1.207-1.089-2.346-2.117-2.872-3.317c-0.186-0.424-0.325-0.945-0.471-1.496c-0.218-0.815-0.464-1.739-0.939-2.656
		c-0.714-1.378-1.735-2.326-2.636-3.162l-0.379-0.354c-0.059-0.055-0.124-0.116-0.197-0.179c0.037-0.087,0.074-0.171,0.104-0.241
		c0.135-0.31,0.257-0.6,0.335-0.836c0.134-0.406,0.275-0.813,0.417-1.221c0.415-1.196,0.843-2.433,1.148-3.731
		c0.198-0.848,0.046-1.701-0.426-2.404c-0.468-0.694-1.221-1.169-2.071-1.302c-0.879-0.138-1.755-0.18-2.603-0.128
		c-1.089-2.386-2.779-4.522-4.195-6.314l-0.647-0.823c-0.578-0.742-1.236-1.624-1.729-2.537c-0.241-0.446-0.447-0.962-0.666-1.508
		c-0.219-0.548-0.446-1.115-0.739-1.697c-1.037-2.066-2.827-3.663-5.322-4.745c-1.779-0.772-3.591-1.294-5.345-1.799
		c-2.331-0.671-4.534-1.305-6.476-2.46c-3.329-1.978-4.73-5.498-6.219-9.892c-0.392-1.159-0.768-2.322-1.144-3.485
		c-0.563-1.74-1.145-3.539-1.777-5.31c-0.593-1.66-1.139-3.155-1.828-4.647l-0.376-0.823c-0.038-0.638-0.285-1.249-0.723-1.748
		c-0.093-0.175-0.087-0.843-0.083-1.242c0.004-0.432,0.005-0.857-0.03-1.258c-0.139-1.666-0.861-3.12-2.207-4.446
		c-0.161-0.158-0.329-0.314-0.5-0.471c-0.254-0.234-0.68-0.625-0.738-0.757c-0.052-0.398,0.032-0.955,0.122-1.544
		c0.121-0.792,0.258-1.691,0.164-2.684c-0.138-1.474-0.564-2.98-1.342-4.741l-0.098-0.223c-0.524-1.188-1.118-2.534-2.016-3.713
		c-1.137-1.494-2.817-2.316-4.586-2.257c-0.263,0.009-0.518,0.04-0.761,0.086c-0.244-0.391-0.473-0.792-0.684-1.168
		c-1.206-2.151-2.965-4.745-5.887-5.727c-1.433-0.482-3.056,0.123-3.946,1.469c-1.135,1.717-2.292,3.417-3.45,5.118
		c-0.201,0.296-0.42,0.594-0.642,0.898c-0.818,1.119-1.745,2.388-2.228,3.916c-0.678,2.146,0.007,4.072,0.557,5.619
		c0.088,0.246,0.175,0.49,0.254,0.731c0.341,1.043,0.664,2.092,0.983,3.143c-2.656,1.47-5.374,2.981-8.038,4.51
		c-1.501,0.862-3.203,1.992-4.448,3.842c-0.652,0.969-1.088,1.991-1.473,2.893c-0.225,0.528-0.438,1.027-0.676,1.48
		c-1.124,2.146-3.077,3.921-5.355,4.871l-0.377,0.154c-1.364,0.556-3.233,1.317-4.243,3.506c-0.181,0.393-0.356,0.806-0.53,1.251
		c-0.348-0.052-0.696-0.103-1.044-0.153c-1.124-0.16-2.287,0.286-3.098,1.2c-0.569,0.641-0.901,1.415-0.964,2.2
		c-0.001,0-0.001,0.001-0.002,0.001c-0.312,0.158-0.603,0.314-0.83,0.467c-0.961,0.645-1.756,1.456-2.363,2.408
		c-0.891,1.397-1.388,2.965-1.826,4.349c-0.133,0.419-0.264,0.834-0.405,1.237l-1.805,5.172c-0.78,2.237-1.56,4.473-2.343,6.706
		c-0.628,1.787,0.209,3.214,1.318,3.836c2.117,1.187,3.262,3.633,4.438,6.471c0.604,1.457,2.21,5.335,5.535,6.572
		c0.008,1.516,0.122,2.891,0.347,4.224l0.054,0.348c0.185,1.244,0.748,5.009,4.189,5.009c0.029,0,0.057,0,0.086-0.001
		c2.416-0.043,4.151-2.116,5.393-3.918c0.344-0.499,0.656-1.027,0.935-1.581c0.2,0.022,0.4,0.037,0.6,0.045
		c-0.047,0.082-0.094,0.164-0.139,0.248c-0.505,0.935-0.821,1.945-0.962,3.095c-1.966,0.766-3.724,2.385-4.576,4.361
		c-0.829,1.923-0.812,4.253,0.049,6.394c0.688,1.713,1.783,2.845,2.749,3.844c0.064,0.067,0.13,0.134,0.196,0.204
		c-0.089,0.095-0.181,0.191-0.258,0.271c-0.272,0.284-0.582,0.605-0.863,0.966c-1.076,1.378-1.882,3.068-2.332,4.888
		c-0.536,2.173-0.47,4.467,0.171,6.618c-0.103,0.118-0.202,0.241-0.298,0.369c-1.395,1.854-1.657,4.243-0.739,6.726
		c0.96,2.599,2.752,4.97,5.141,6.842c-0.071,0.061-0.147,0.118-0.226,0.173c-1.714,1.19-2.194,3.28-1.116,4.859l0.726,1.071
		c0.663,0.981,1.327,1.962,2.01,2.92c0.032,0.135,0.063,0.271,0.095,0.407c0.056,0.241,0.112,0.482,0.172,0.725
		c-1.26,0.042-2.532,0.448-3.653,1.184c-1.244-0.411-2.659-0.058-3.684,0.988c-2.049,2.09-3.145,4.21-3.258,6.301
		c-0.144,2.639,1.507,4.705,4.422,5.542c-0.076,0.142-0.141,0.272-0.192,0.383c-1.148,2.52-2.29,5.041-3.413,7.574
		c-0.154,0.348-0.246,0.713-0.277,1.079c-0.064,0.028-0.129,0.056-0.193,0.083c-0.993,0.419-1.873,1.338-2.242,2.341
		c-0.313,0.851-0.27,1.746,0.119,2.52c1.23,2.453,3.358,4.458,5.838,5.502c0.385,0.161,0.79,0.3,1.2,0.434
		c-0.115,0.138-0.22,0.284-0.315,0.438c-0.372,0.074-0.743,0.183-1.116,0.326c-1.483,0.566-2.851,2.299-2.473,4.111
		c0.176,0.845,0.188,1.537,0.038,2.182c-0.048,0.207-0.173,0.496-0.305,0.803c-0.283,0.656-0.635,1.473-0.698,2.475
		c-0.109,1.719,0.707,2.959,1.302,3.864l2.018,3.14c0.128,0.199,0.259,0.445,0.403,0.709c0.829,1.518,2.367,4.353,5.403,3.985
		c0.553-0.066,1.019-0.187,1.431-0.296c0.358-0.094,0.605-0.156,0.804-0.172c0.188,0.601,0.46,1.137,0.821,1.617
		c0.642,0.855,1.562,1.428,2.626,1.645c-0.003,0.098-0.006,0.197-0.009,0.295c-0.04,1.245-0.08,2.532,0.017,3.875
		c0.146,2.019,0.464,4.075,0.973,6.286c0.216,0.94,0.891,1.691,1.804,2.012c0.12,0.042,0.241,0.075,0.363,0.101
		c-2.292,1.019-4.089,3.286-5.17,5.529c-1.23,2.554-2.411,5.169-3.552,7.699l-0.449,0.991c-2.054,0.151-4.23,0.442-6.608,0.879
		c-1.144,0.211-2.429,0.402-3.184,0.006c-0.133-0.07-0.416-0.375-0.622-0.598c-0.763-0.821-2.039-2.202-4.265-1.999
		c-1.258,0.11-2.16,0.692-2.818,1.117l-0.191,0.122c-0.261,0.164-0.497,0.238-1.07,0.195c-0.745-0.059-1.535-0.242-2.372-0.436
		c-0.737-0.17-1.5-0.347-2.315-0.46c-2.374-0.327-4.371,0.175-6.01,0.71c-0.233,0.076-0.476,0.162-0.726,0.251
		c-0.54,0.193-1.806,0.639-2.065,0.467c-1.254-0.852-2.966-0.737-4.258,0.289c-1.316,1.044-1.828,2.715-1.274,4.158
		c0.689,1.791,0.706,3.747,0.078,5.564c-1.505-0.367-3.151-0.715-4.98-1.054c-1.161-0.218-2.371,0.236-3.226,1.208
		c-0.871,0.991-1.185,2.314-0.818,3.452c1.519,4.727,0.03,10.19-3.543,13.265c-0.715,0.081-1.381,0.211-2.019,0.395
		c-1.483,0.429-2.549,1.575-2.821,2.964c-2.169-0.041-4.321,0.703-6.03,2.138c-2.326,1.953-3.575,5.041-3.351,8.048
		c-0.861,0.875-1.483,1.906-2.051,2.85c-0.248,0.412-0.494,0.823-0.757,1.203c-1.268,1.827-3.316,4.322-5.902,5.888
		c-0.177-0.021-0.531-0.126-0.775-0.198c-0.696-0.206-1.562-0.46-2.58-0.405c-1.715,0.101-3.397,0.824-4.862,2.089
		c-2.432,2.1-3.648,5.332-3.613,9.6c0.011,1.493,1.12,2.715,2.635,2.905c3.448,0.437,5.931-1.914,7.417-3.317l0.337-0.323
		c0.365-0.353,0.739-0.714,1.071-0.942c0.522,0.945,1.004,1.915,1.513,2.936c0.384,0.771,0.768,1.542,1.169,2.303
		c0.473,0.898,1.284,2.184,2.855,2.986c0.782,0.401,1.637,0.602,2.489,0.602c0.809,0,1.615-0.182,2.349-0.546
		c1.322-0.658,2.161-1.865,2.249-3.202c1.531-1.161,2.367-3.196,2.369-5.758c0.341,0.017,0.688-0.02,1.033-0.115
		c1.127-0.308,2.12-1.208,2.53-2.293c0.536-1.416,1.897-2.422,3.552-2.626c1.359-0.169,2.688-1.291,3.16-2.669
		c0.183-0.533,0.227-1.072,0.141-1.583c0.172,0.022,0.343,0.044,0.515,0.067c0.804,0.103,1.608,0.207,2.408,0.316
		c0.222,0.031,0.441,0.07,0.657,0.108c1.24,0.219,3.112,0.546,4.905-0.742c0.278-0.199,0.546-0.42,0.802-0.661
		c1.852,0.344,3.832,0.046,5.568-0.83c2.663,2.612,5.972,4.543,9.577,5.582l0.126,0.547c0.282,1.236,1.467,2.158,2.76,2.158
		c0.011,0,0.021,0,0.032,0c1.227-0.012,2.456,0.004,3.684,0.019l0.235,0.003c0.014,0,0.027,0,0.041,0
		c0.952,0,1.896-0.395,2.597-1.087c0.711-0.702,1.12-1.66,1.121-2.626c0.001-2.344,1.284-4.383,3.27-5.193
		c1.644-0.673,2.592-2.441,2.205-4.113l-0.2-0.838c-0.429-1.771-0.872-3.602-0.503-5.022c0.293-1.129,1.011-2.058,2.193-2.838
		c1.407-0.928,3.062-1.528,4.814-2.164c1.06-0.385,2.151-0.781,3.23-1.267c0.314,0.018,0.663,0.014,1.038-0.036
		c0.943-0.129,1.68-0.485,2.273-0.771l0.284-0.136c0.58-0.27,1.216-0.474,1.89-0.607c1.17-0.233,2.393-0.2,3.591,0.1
		c1.111,0.653,2.165,1.658,3.235,2.716l0.221,0.219c2.032,2.015,4.335,4.299,7.572,5.302c0.956,0.297,1.986,0.125,2.827-0.465
		c0.908-0.638,1.48-1.669,1.531-2.756c0.02-0.42,0.047-0.841,0.076-1.262c1.511,0.172,3.021,0.354,4.532,0.542
		c1.364,0.168,2.727,0.337,4.089,0.511c0.166,0.021,0.336,0.048,0.507,0.074c0.99,0.154,2.344,0.363,3.711-0.121
		c1.267-0.447,2.287-1.397,2.797-2.605c0.32-0.759,0.424-1.565,0.313-2.355c2.338-0.12,4.672-0.502,6.885-1.128
		c-0.287,0.296-0.542,0.689-0.676,1.217c-0.057,0.234-0.069,0.425-0.072,0.522c-0.064,0.94,0.433,1.829,1.268,2.266
		c2.361,1.236,4.783,2.099,7.196,2.565c0.656,0.127,1.495,0.289,2.421,0.289c0.782,0,1.626-0.116,2.476-0.466
		c1.797-0.741,2.721-2.151,3.463-3.285l0.871-1.318c0.499-0.752,0.998-1.506,1.486-2.262c0.435-0.671,0.735-1.294,0.918-1.906
		c0.323-1.086-0.167-2.251-1.17-2.779c-0.37-0.195-0.733-0.42-1.092-0.642c-0.208-0.128-0.414-0.25-0.621-0.372
		c0.169-0.238,0.317-0.489,0.426-0.758c0.837,0.089,1.675,0.152,2.511,0.186c0.289,0.642,0.595,1.238,0.921,1.797
		c1.865,3.199,4.467,2.968,5.848,2.544c2.809-0.857,5.548-1.981,8.197-3.067c1.114-0.457,2.227-0.913,3.341-1.348
		c0.354-0.138,0.71-0.289,1.069-0.441c1.27-0.537,2.471-1.038,3.457-0.89c1.36,0.213,2.729,0.576,4.177,0.961
		c0.618,0.163,1.233,0.327,1.847,0.478l1.423,0.353c1.431,0.355,2.862,0.711,4.299,1.046l0.108,0.025
		c1.784,0.415,4.228,0.983,6.582-0.651c1.027-0.713,1.628-1.628,2.111-2.364c0.268-0.408,0.521-0.793,0.738-0.977
		c0.247-0.144,1.168-0.13,1.668-0.122c0.306,0.005,0.601,0.007,0.879,0.001c1.693-0.045,3.489-0.24,5.151-1.356
		c1.696-1.138,2.502-2.795,3.141-4.158c0.179,0.029,0.373,0.067,0.53,0.098c0.369,0.073,0.734,0.143,1.085,0.182
		c2.174,0.237,4.147-0.312,5.572-1.55c0.918-0.797,1.551-1.793,1.83-2.882c0.224-0.878,0.16-1.664,0.112-2.239
		c-0.019-0.239-0.038-0.465-0.029-0.617c0.058-0.945,1.106-1.698,1.553-1.977c1.06-0.663,2.376-1.042,3.769-1.444
		c0.485-0.14,0.97-0.28,1.448-0.432c2.594-0.822,4.168-2.873,4.318-5.628c0.042-0.765,0.022-1.474,0.004-2.159
		c-0.029-1.066-0.053-1.987,0.155-2.886c0.326-1.397,1.06-2.678,2.123-3.703c0.954-0.917,1.645-2.701,1.048-4.203
		c-0.453-1.141-1.536-1.856-2.83-1.869c-5.144-0.04-10.264,0.789-15.253,2.479c-1.001-1.268-2.45-2.184-4.085-2.569
		c3.049-3.085,4.486-7.718,3.7-11.925c0.986,0.299,2.038,0.418,3.096,0.328c3.118-0.262,5.955-2.315,8.206-5.939
		c0.227-0.367,0.93-1.674,0.417-3.077c-0.149-0.407-0.385-0.767-0.686-1.061c0.513-0.256,1.018-0.544,1.5-0.886
		c2.514-1.783,4.49-4.474,5.565-7.577c0.943-2.727,1.238-5.726,0.875-8.915c-0.032-0.274-0.07-0.565-0.11-0.867
		c-0.122-0.913-0.255-1.922-0.2-2.746c0.892-0.977,1.596-2.174,2.02-3.448c0.56-1.687,0.577-3.36,0.591-4.837
		c0.01-1.082,0.02-2.104,0.237-2.993c0.05-0.208,0.162-0.482,0.28-0.774C242.125,163.388,242.667,162.058,242.276,160.467z
		 M207.174,219.016c-0.282,0.02-0.561,0.034-0.839,0.042c-0.474,0.014-0.951,0.012-1.427,0.003c0.484-0.091,0.981-0.144,1.505-0.124
		C206.663,218.941,206.916,218.969,207.174,219.016z"/>
	<g>
		<g>
			<path style="fill:#F7D173;" d="M239.97,161.033c-0.299-1.221-1.558-2.186-2.382-3.05c-2.215-2.322-4.49-4.579-6.771-6.836
				c-1.064-1.052-2.045-2.24-3.173-3.223c-1.043-0.909-2.077-0.994-3.415-0.999c-2.66-0.008-4.876-1.338-7.325-2.186
				c-2.746-0.951-5.078-0.576-7.829,0.152c-1.462,0.387-2.828,0.547-4.342,0.471c-1.501-0.075-3.03-0.244-4.523,0.014
				c-2.297,0.396-4.799,2.053-5.299,4.468c-0.123,0.595-0.094,1.174,0.035,1.765c0.13,0.596,0.611,1.518,0.265,2.089
				c-0.42,0.692-1.933,0.8-2.797,0.832c-0.558-0.839-1.251-1.545-2.13-2.072c-0.219-0.131-0.482-0.269-0.765-0.397
				c0.089-1.419-1.414-1.789-2.64-1.835c-0.084-0.003-0.265-0.054-0.434-0.101c0.015-0.018,0.032-0.04,0.045-0.054
				c0.866-0.927,1.714-1.871,2.57-2.806c1.507-1.646,3.178-3.244,4.504-5.043c1.255-1.704,0.508-3.696,0.137-5.587
				c-0.697-3.558-1.349-7.329-3.235-10.486c-2.028-3.394-5.317-4.809-8.452-6.945c-0.809-0.551-1.479-1.229-2.125-1.93
				c-0.665-0.267-1.322-0.555-1.952-0.9c-2.019-1.107-3.73-2.684-5.351-4.3c-0.226-0.225-0.149-0.712,0.203-0.77
				c1.205-0.199,2.476-0.272,3.632,0.193c0.844,0.34,1.51,0.937,2.065,1.647c1.138,1.456,1.958,3.05,3.673,3.832
				c1.428,0.039,2.98-0.273,4.252-0.8c0.6-0.249,1.187-0.99,0.958-1.668c-0.689-2.035-1.853-3.542-3.416-5
				c-1.554-1.45-3.366-2.847-4.242-4.843c-0.569-1.296-0.69-2.751-1.345-4.014c-0.609-1.175-1.596-1.992-2.54-2.885
				c-0.337-0.319-1.026-0.828-1.113-1.318c-0.12-0.676,0.524-1.775,0.734-2.409c0.518-1.564,1.131-3.142,1.508-4.746
				c0.098-0.416-0.145-0.755-0.551-0.819c-1.234-0.194-2.561-0.169-3.782,0.178c-0.856-3.106-3.359-6.003-5.171-8.329
				c-0.711-0.912-1.394-1.849-1.945-2.869c-0.568-1.052-0.902-2.201-1.437-3.267c-0.867-1.729-2.399-2.874-4.145-3.632
				c-3.954-1.716-8.324-2.159-12.088-4.396c-4.141-2.461-5.784-6.826-7.255-11.173c-0.986-2.914-1.872-5.858-2.908-8.757
				c-0.537-1.504-1.077-2.998-1.746-4.449c-0.21-0.455-0.422-0.926-0.638-1.399c0.077-0.205,0.071-0.422-0.101-0.619
				c-0.923-1.052-0.576-2.59-0.683-3.853c-0.102-1.208-0.659-2.117-1.507-2.952c-0.772-0.761-1.777-1.455-1.928-2.614
				c-0.185-1.42,0.413-2.864,0.277-4.313c-0.13-1.39-0.589-2.731-1.15-4.001c-0.516-1.166-1.054-2.437-1.832-3.459
				c-0.629-0.827-1.564-1.356-2.615-1.321c-0.59,0.02-1.174,0.264-1.756,0.499c-0.749-0.874-1.356-1.926-1.842-2.793
				c-1.048-1.868-2.457-3.927-4.572-4.637c-0.455-0.153-0.961,0.152-1.21,0.528c-1.141,1.726-2.304,3.435-3.468,5.145
				c-0.889,1.305-2.086,2.665-2.569,4.193c-0.525,1.662,0.291,3.33,0.803,4.896c0.546,1.667,1.045,3.351,1.553,5.03
				c-3.237,1.791-6.476,3.579-9.683,5.42c-1.413,0.812-2.737,1.737-3.66,3.109c-0.867,1.289-1.301,2.784-2.016,4.149
				c-1.401,2.673-3.766,4.802-6.546,5.961c-1.394,0.581-2.695,0.984-3.377,2.464c-0.421,0.912-0.778,1.899-1.1,2.894
				c-0.99-0.146-1.979-0.298-2.967-0.439c-0.779-0.112-1.521,0.86-1.33,1.572c0.285,1.065-1.225,1.46-1.904,1.917
				c-0.676,0.454-1.247,1.027-1.685,1.713c-0.967,1.517-1.403,3.41-1.992,5.092c-1.385,3.96-2.761,7.923-4.149,11.882
				c-0.132,0.376-0.144,0.761,0.24,0.976c2.867,1.608,4.266,4.727,5.47,7.633c1.052,2.54,2.705,5.657,5.765,5.485
				c-0.101,1.958-0.063,3.877,0.266,5.826c0.193,1.141,0.342,3.405,1.945,3.376c1.421-0.025,2.756-1.842,3.479-2.891
				c0.643-0.934,1.128-1.956,1.476-3.025c1.674,0.695,3.635,0.626,5.192-0.281c0.203,0.802,0.47,1.58,0.809,2.343
				c-0.857,0.467-1.541,1.233-2.036,2.15c-0.654,1.212-0.799,2.534-0.757,3.867c-1.972,0.073-3.929,1.635-4.691,3.402
				c-0.625,1.449-0.508,3.125,0.072,4.567c0.63,1.568,1.744,2.516,2.86,3.716c1.47,1.582-0.405,2.684-1.367,3.917
				c-0.913,1.17-1.543,2.559-1.898,3.996c-0.566,2.295-0.303,4.671,0.672,6.771c-0.46,0.262-0.872,0.628-1.207,1.074
				c-0.999,1.328-0.966,2.97-0.41,4.475c1.083,2.932,3.402,5.359,6.06,6.952c-0.344,1.16-0.995,2.129-2.019,2.839
				c-0.501,0.348-0.891,1.009-0.508,1.571c0.953,1.398,1.888,2.811,2.877,4.185c0.021,0.029,0.052,0.034,0.076,0.057
				c0.203,0.788,0.359,1.587,0.591,2.398c0.243,0.85,1.383,0.019,1.653-0.305c-0.177,0.213,0.301,0.119,0.581,0.247
				c0.3,0.137,0.569,0.357,0.748,0.636c0.619,0.967,0.013,2.17-0.52,3.034c-0.072,0.117-0.476,0.891-0.629,0.943
				c-0.335,0.114-0.673-0.36-0.868-0.565c-0.451-0.472-0.83-0.99-1.408-1.322c-1.802-1.035-4.121-0.274-5.456,1.229l-0.76-0.516
				c-0.494-0.336-1.081-0.138-1.485,0.274c-1.239,1.263-2.483,2.931-2.583,4.767c-0.097,1.788,1.188,2.709,2.757,3.145
				c0.6,0.167,1.448,0.246,1.937,0.661c0.796,0.676-0.351,2.264-0.675,2.975c-1.145,2.513-2.283,5.027-3.402,7.552
				c-0.239,0.54,0.026,1.253,0.728,1.081c0.132-0.032,0.249-0.041,0.367-0.051c-0.918,0.489-1.85,0.949-2.814,1.357
				c-0.501,0.212-1.233,0.992-0.923,1.608c0.968,1.93,2.639,3.536,4.636,4.376c1.157,0.487,2.53,0.704,3.541,1.49
				c0.776,0.603,1.861,2.647-0.033,2.135c-0.635-0.172-1.416,0.277-1.629,0.911c-0.089,0.267-0.179,0.533-0.268,0.8
				c-0.63-0.064-1.255,0.017-1.917,0.27c-0.472,0.18-1.11,0.85-0.994,1.409c0.222,1.068,0.275,2.133,0.026,3.203
				c-0.229,0.986-0.882,1.872-0.946,2.892c-0.067,1.053,0.574,1.868,1.115,2.712c0.611,0.952,1.223,1.905,1.834,2.858
				c0.779,1.215,1.736,3.831,3.528,3.618c1.016-0.12,1.842-0.571,2.911-0.473c0.588,0.053,1.142,0.211,1.672,0.434
				c0.037,0.765,0.202,1.521,0.652,2.121c0.352,0.47,0.883,0.73,1.467,0.783c0.366,0.033,0.729-0.054,1.092-0.063
				c0.494-0.012,0.572,0.157,0.573,0.633c0.006,1.915-0.168,3.795-0.029,5.716c0.145,2,0.469,3.972,0.918,5.925
				c0.122,0.531,0.964,0.338,1.24,0.118c0.14-0.112,0.274-0.235,0.413-0.349c0.423,0.098,0.849,0.03,1.262-0.128
				c1.036-1.27,1.593-2.924,2.442-4.299c1.142-1.852,3.042-2.633,5.002-3.371c0.341-0.129,0.649,0.252,0.567,0.567
				c-0.812,3.117-3.119,5.209-5.584,7.099c-0.956,1.551-1.785,3.174-2.477,4.858c-2.72-0.335-4.942,2.43-6.042,4.712
				c-1.583,3.285-3.06,6.624-4.568,9.946c-2.591,0.111-5.149,0.449-7.751,0.928c-1.533,0.282-3.28,0.528-4.719-0.229
				c-1.308-0.688-1.864-2.482-3.574-2.332c-0.758,0.066-1.328,0.488-1.947,0.88c-0.802,0.508-1.587,0.63-2.529,0.556
				c-1.636-0.13-3.203-0.686-4.824-0.911c-1.742-0.242-3.297,0.076-4.947,0.615c-1.484,0.484-3.397,1.42-4.862,0.426
				c-0.896-0.608-2.373,0.61-1.981,1.629c1.201,3.125,0.794,6.469-0.829,9.212c-2.218-0.617-4.501-1.102-6.72-1.513
				c-0.763-0.141-1.578,0.896-1.352,1.598c1.83,5.693-0.03,12.626-4.878,16.294c-0.774,0.046-1.533,0.156-2.286,0.374
				c-0.625,0.18-1.172,0.693-1.173,1.383c-0.001,0.697-0.05,1.394-0.11,2.091c-2.232-0.825-4.796-0.432-6.7,1.166
				c-2.032,1.705-2.977,4.628-2.323,7.197c-1.541,0.955-2.349,2.907-3.412,4.439c-1.747,2.518-4.059,5.039-6.715,6.621
				c-1.408,0.839-2.834-0.408-4.353-0.319c-1.293,0.076-2.481,0.68-3.449,1.516c-2.243,1.937-2.813,4.954-2.79,7.786
				c0.003,0.322,0.262,0.527,0.558,0.565c2.247,0.284,3.968-1.252,5.488-2.687c0.752-0.71,1.535-1.559,2.52-1.94
				c0.954-0.369,1.854-0.094,2.632,0.432c-0.171,0.169-0.271,0.397-0.165,0.585c1.011,1.801,1.872,3.689,2.836,5.516
				c0.44,0.834,0.978,1.542,1.837,1.981c0.831,0.425,1.857,0.46,2.696,0.042c0.507-0.252,0.952-0.732,0.94-1.332
				c-0.008-0.392-0.012-0.785-0.018-1.177c2.613-0.707,2.612-4.39,2.103-6.781c0.518-0.698,1.678-0.607,2.34-0.077
				c0.573,0.458,1.432-0.131,1.653-0.714c0.882-2.331,3.046-3.843,5.481-4.144c0.667-0.082,1.697-1.223,1.057-1.861
				c-0.78-0.777-1.001-1.869-0.776-2.887c2.181,0.332,4.379,0.585,6.559,0.884c1.384,0.19,2.651,0.652,3.853-0.211
				c0.556-0.399,1.02-0.892,1.412-1.438c2.212,0.977,4.916,0.388,6.707-1.225c2.863,3.416,6.852,5.8,11.204,6.735
				c0.151,0.656,0.301,1.311,0.451,1.967c0.039,0.169,0.296,0.313,0.455,0.311c1.323-0.013,2.646,0.005,3.969,0.021
				c0.705,0.008,1.355-0.636,1.355-1.34c0.002-3.194,1.743-6.164,4.746-7.39c0.542-0.221,0.924-0.8,0.791-1.377
				c-0.515-2.218-1.278-4.723-0.688-6.993c0.473-1.821,1.638-3.204,3.185-4.224c2.744-1.809,6.032-2.457,8.95-3.884
				c0.367,0.061,0.737,0.097,1.119,0.045c0.688-0.093,1.259-0.42,1.876-0.707c0.776-0.361,1.592-0.618,2.431-0.784
				c1.607-0.317,3.275-0.254,4.853,0.186c0.022,0.006,0.045,0.005,0.067,0.01c1.507,0.805,2.81,2.048,4.037,3.264
				c2.012,1.993,4.041,4.077,6.822,4.939c0.646,0.2,1.257-0.456,1.286-1.064c0.06-1.26,0.176-2.521,0.244-3.782
				c2.345,0.249,4.685,0.527,7.026,0.816c1.367,0.169,2.735,0.338,4.102,0.513c1.001,0.129,2.137,0.418,3.124,0.07
				c1.254-0.443,1.928-1.783,1.364-3.003c-0.165-0.357-1.141-1.411-1.663-2.172c4.133,0.388,8.507-0.161,12.364-1.583
				c1.896-0.699,4.197-1.614,5.652-3.069c0.637-0.637,1.048-1.452,1.067-2.361c0.009-0.406-0.539-2.06-0.459-2.8
				c1.938,1.23,3.752,2.656,5.596,4.021c0.628,0.465,1.48-0.247,1.614-0.893c0.112-0.536,0.323-1.051,0.614-1.516
				c1.882,0.294,3.761,0.442,5.646,0.443c0.381,1.016,0.824,2.009,1.368,2.942c0.73,1.252,1.628,1.919,3.103,1.469
				c3.859-1.178,7.608-2.889,11.364-4.356c1.838-0.718,3.736-1.782,5.758-1.465c2.094,0.328,4.168,0.973,6.226,1.48
				c1.896,0.467,3.789,0.948,5.69,1.391c1.669,0.388,3.276,0.793,4.798-0.263c1.209-0.839,1.613-2.316,2.695-3.222
				c1.041-0.872,2.738-0.63,3.992-0.663c1.359-0.036,2.73-0.175,3.89-0.954c1.195-0.803,1.775-2.041,2.364-3.301
				c0.286-0.61,0.48-1.124,1.19-1.258c0.895-0.17,1.9,0.194,2.786,0.292c1.313,0.145,2.732-0.094,3.754-0.981
				c0.51-0.443,0.917-1.016,1.087-1.677c0.208-0.813-0.036-1.596,0.014-2.413c0.103-1.677,1.303-2.995,2.664-3.845
				c1.756-1.098,3.811-1.508,5.759-2.126c1.692-0.537,2.568-1.738,2.663-3.493c0.101-1.865-0.216-3.588,0.218-5.454
				c0.436-1.875,1.408-3.545,2.79-4.877c0.475-0.458,0.999-1.974-0.157-1.984c-5.625-0.05-11.118,1.01-16.344,3.032
				c-0.594-2.082-2.786-3.428-4.973-3.317c-1.485,0.075-2.743,0.796-3.683,1.934c-0.426,0.516-0.835,1.532-1.397,1.873
				c-0.269,0.163-0.56,0.174-0.798,0.07c1.033-1.155,1.733-2.558,2.059-4.095c-1.334,0.273-2.687,0.444-4.057,0.482
				c-2.351,0.066-4.697-0.173-7.035-0.377c-0.338-0.029-0.587-0.372-0.398-0.693c1.523-2.586,4.567-3.858,7.491-3.8
				c1.418,0.028,2.72,0.529,4.046,0.98c1.044,0.355,2.075,0.55,3.136,0.62c3.451-2.7,5.053-7.736,3.69-11.881
				c-0.191-0.581-0.992-0.354-1.345-0.128c-1.034,0.663-2.119,1.09-3.285,1.306c1.027-2.181,2.58-3.973,4.592-5.315
				c1.125,1.933,3.317,3.07,5.581,2.88c2.85-0.24,4.965-2.536,6.386-4.825c0.214-0.344,0.465-1.115-0.11-1.303
				c-1.37-0.447-2.749-0.866-4.128-1.284c1.763-1.357,4.332-1.858,6.115-3.123c2.199-1.56,3.816-3.879,4.694-6.416
				c0.876-2.532,1.06-5.223,0.759-7.87c-0.165-1.45-0.554-3.411-0.182-5.011c0.918-0.817,1.613-1.912,1.997-3.068
				c0.823-2.473,0.164-5.14,0.773-7.641C239.461,163.319,240.277,162.284,239.97,161.033z"/>
		</g>
	</g>
	<g>
		<circle style="fill:#FFFFFF;" cx="180.892" cy="197.837" r="11.643"/>
		<path style="fill:#D6364B;" d="M180.892,184.792c-7.135,0-12.919,5.785-12.919,12.92c0,2.349,0.637,4.545,1.733,6.444
			l11.301,23.414l11.218-23.653c1.011-1.842,1.588-3.955,1.588-6.205C193.812,190.577,188.027,184.792,180.892,184.792z
			 M180.699,206.656c-5.208,0-9.429-4.221-9.429-9.43c0-5.208,4.222-9.429,9.429-9.429c5.208,0,9.43,4.222,9.43,9.429
			C190.128,202.434,185.907,206.656,180.699,206.656z"/>
	</g>
	<g>
		<path d="M168.851,238.732h-5.66v-9.048h1.197v7.974h4.463V238.732z"/>
		<path d="M172.782,232.036c0.885,0,1.618,0.288,2.2,0.864c0.582,0.576,0.873,1.395,0.873,2.456c0,1.289-0.315,2.199-0.944,2.731
			c-0.63,0.533-1.339,0.799-2.129,0.799c-0.827,0-1.545-0.273-2.154-0.821c-0.609-0.547-0.913-1.415-0.913-2.604
			c0-1.152,0.294-2.011,0.882-2.576C171.186,232.319,171.914,232.036,172.782,232.036z M172.782,237.973
			c0.634,0,1.115-0.234,1.444-0.703c0.329-0.47,0.494-1.087,0.494-1.852c0-0.819-0.186-1.436-0.558-1.851
			c-0.373-0.416-0.832-0.624-1.38-0.624c-0.564,0-1.027,0.211-1.388,0.633c-0.362,0.422-0.543,1.05-0.543,1.885
			c0,0.831,0.184,1.458,0.552,1.879C171.771,237.762,172.231,237.973,172.782,237.973z"/>
		<path d="M182.497,238.732h-1.117v-3.981c0-0.671-0.121-1.131-0.361-1.382c-0.241-0.251-0.576-0.376-1.003-0.376
			c-0.329,0-0.641,0.08-0.936,0.24c-0.294,0.16-0.503,0.387-0.626,0.68c-0.123,0.291-0.185,0.705-0.185,1.24v3.58h-1.111v-6.548h1
			v0.926h0.025c0.234-0.358,0.523-0.626,0.867-0.805c0.343-0.179,0.742-0.268,1.194-0.268c0.346,0,0.687,0.061,1.025,0.184
			c0.337,0.124,0.602,0.309,0.793,0.556c0.191,0.247,0.311,0.51,0.361,0.79c0.049,0.28,0.074,0.658,0.074,1.135V238.732z"/>
		<path d="M189.471,238.732h-1.037v-0.833h-0.025c-0.399,0.659-1.002,0.987-1.808,0.987c-0.802,0-1.472-0.318-2.009-0.953
			c-0.537-0.636-0.805-1.46-0.805-2.472c0-1.057,0.253-1.893,0.759-2.505c0.506-0.614,1.175-0.92,2.006-0.92
			c0.782,0,1.376,0.298,1.784,0.894h0.025v-3.246h1.111V238.732z M186.719,237.973c0.485,0,0.897-0.199,1.234-0.598
			c0.337-0.399,0.506-1.003,0.506-1.814c0-0.798-0.154-1.434-0.463-1.907c-0.309-0.473-0.751-0.71-1.327-0.71
			c-0.576,0-1.011,0.231-1.305,0.694c-0.294,0.463-0.441,1.071-0.441,1.824c0,0.544,0.079,1.003,0.237,1.38
			c0.158,0.376,0.38,0.66,0.664,0.849C186.108,237.878,186.406,237.973,186.719,237.973z"/>
		<path d="M193.872,232.036c0.885,0,1.618,0.288,2.2,0.864c0.582,0.576,0.873,1.395,0.873,2.456c0,1.289-0.315,2.199-0.944,2.731
			c-0.63,0.533-1.339,0.799-2.129,0.799c-0.827,0-1.545-0.273-2.154-0.821c-0.609-0.547-0.913-1.415-0.913-2.604
			c0-1.152,0.294-2.011,0.882-2.576C192.276,232.319,193.004,232.036,193.872,232.036z M193.872,237.973
			c0.633,0,1.115-0.234,1.444-0.703c0.329-0.47,0.494-1.087,0.494-1.852c0-0.819-0.186-1.436-0.558-1.851
			c-0.372-0.416-0.832-0.624-1.38-0.624c-0.564,0-1.027,0.211-1.389,0.633c-0.362,0.422-0.543,1.05-0.543,1.885
			c0,0.831,0.184,1.458,0.552,1.879C192.861,237.762,193.32,237.973,193.872,237.973z"/>
		<path d="M203.587,238.732h-1.117v-3.981c0-0.671-0.121-1.131-0.361-1.382c-0.241-0.251-0.575-0.376-1.003-0.376
			c-0.329,0-0.641,0.08-0.935,0.24c-0.294,0.16-0.503,0.387-0.626,0.68c-0.123,0.291-0.185,0.705-0.185,1.24v3.58h-1.111v-6.548h1
			v0.926h0.025c0.234-0.358,0.523-0.626,0.867-0.805c0.343-0.179,0.742-0.268,1.194-0.268c0.346,0,0.687,0.061,1.025,0.184
			c0.337,0.124,0.602,0.309,0.793,0.556c0.191,0.247,0.311,0.51,0.361,0.79c0.049,0.28,0.074,0.658,0.074,1.135V238.732z"/>
	</g>
	<g>
		<defs>
			<path id="SVGID_1_" d="M239.97,161.033c-0.299-1.221-1.558-2.186-2.382-3.05c-2.215-2.322-4.49-4.579-6.771-6.836
				c-1.064-1.052-2.045-2.24-3.173-3.223c-1.043-0.909-2.077-0.994-3.415-0.999c-2.66-0.008-4.876-1.338-7.325-2.186
				c-2.746-0.951-5.078-0.576-7.829,0.152c-1.462,0.387-2.828,0.547-4.342,0.471c-1.501-0.075-3.03-0.244-4.523,0.014
				c-2.297,0.396-4.799,2.053-5.299,4.468c-0.123,0.595-0.094,1.174,0.035,1.765c0.13,0.596,0.611,1.518,0.265,2.089
				c-0.42,0.692-1.933,0.8-2.797,0.832c-0.558-0.839-1.251-1.545-2.13-2.072c-0.219-0.131-0.482-0.269-0.765-0.397
				c0.089-1.419-1.414-1.789-2.64-1.835c-0.084-0.003-0.265-0.054-0.434-0.101c0.015-0.018,0.032-0.04,0.045-0.054
				c0.866-0.927,1.714-1.871,2.57-2.806c1.507-1.646,3.178-3.244,4.504-5.043c1.255-1.704,0.508-3.696,0.137-5.587
				c-0.697-3.558-1.349-7.329-3.235-10.486c-2.028-3.394-5.317-4.809-8.452-6.945c-0.809-0.551-1.479-1.229-2.125-1.93
				c-0.665-0.267-1.322-0.555-1.952-0.9c-2.019-1.107-3.73-2.684-5.351-4.3c-0.226-0.225-0.149-0.712,0.203-0.77
				c1.205-0.199,2.476-0.272,3.632,0.193c0.844,0.34,1.51,0.937,2.065,1.647c1.138,1.456,1.958,3.05,3.673,3.832
				c1.428,0.039,2.98-0.273,4.252-0.8c0.6-0.249,1.187-0.99,0.958-1.668c-0.689-2.035-1.853-3.542-3.416-5
				c-1.554-1.45-3.366-2.847-4.242-4.843c-0.569-1.296-0.69-2.751-1.345-4.014c-0.609-1.175-1.596-1.992-2.54-2.885
				c-0.337-0.319-1.026-0.828-1.113-1.318c-0.12-0.676,0.524-1.775,0.734-2.409c0.518-1.564,1.131-3.142,1.508-4.746
				c0.098-0.416-0.145-0.755-0.551-0.819c-1.234-0.194-2.561-0.169-3.782,0.178c-0.856-3.106-3.359-6.003-5.171-8.329
				c-0.711-0.912-1.394-1.849-1.945-2.869c-0.568-1.052-0.902-2.201-1.437-3.267c-0.867-1.729-2.399-2.874-4.145-3.632
				c-3.954-1.716-8.324-2.159-12.088-4.396c-4.141-2.461-5.784-6.826-7.255-11.173c-0.986-2.914-1.872-5.858-2.908-8.757
				c-0.537-1.504-1.077-2.998-1.746-4.449c-0.21-0.455-0.422-0.926-0.638-1.399c0.077-0.205,0.071-0.422-0.101-0.619
				c-0.923-1.052-0.576-2.59-0.683-3.853c-0.102-1.208-0.659-2.117-1.507-2.952c-0.772-0.761-1.777-1.455-1.928-2.614
				c-0.185-1.42,0.413-2.864,0.277-4.313c-0.13-1.39-0.589-2.731-1.15-4.001c-0.516-1.166-1.054-2.437-1.832-3.459
				c-0.629-0.827-1.564-1.356-2.615-1.321c-0.59,0.02-1.174,0.264-1.756,0.499c-0.749-0.874-1.356-1.926-1.842-2.793
				c-1.048-1.868-2.457-3.927-4.572-4.637c-0.455-0.153-0.961,0.152-1.21,0.528c-1.141,1.726-2.304,3.435-3.468,5.145
				c-0.889,1.305-2.086,2.665-2.569,4.193c-0.525,1.662,0.291,3.33,0.803,4.896c0.546,1.667,1.045,3.351,1.553,5.03
				c-3.237,1.791-6.476,3.579-9.683,5.42c-1.413,0.812-2.737,1.737-3.66,3.109c-0.867,1.289-1.301,2.784-2.016,4.149
				c-1.401,2.673-3.766,4.802-6.546,5.961c-1.394,0.581-2.695,0.984-3.377,2.464c-0.421,0.912-0.778,1.899-1.1,2.894
				c-0.99-0.146-1.979-0.298-2.967-0.439c-0.779-0.112-1.521,0.86-1.33,1.572c0.285,1.065-1.225,1.46-1.904,1.917
				c-0.676,0.454-1.247,1.027-1.685,1.713c-0.967,1.517-1.403,3.41-1.992,5.092c-1.385,3.96-2.761,7.923-4.149,11.882
				c-0.132,0.376-0.144,0.761,0.24,0.976c2.867,1.608,4.266,4.727,5.47,7.633c1.052,2.54,2.705,5.657,5.765,5.485
				c-0.101,1.958-0.063,3.877,0.266,5.826c0.193,1.141,0.342,3.405,1.945,3.376c1.421-0.025,2.756-1.842,3.479-2.891
				c0.643-0.934,1.128-1.956,1.476-3.025c1.674,0.695,3.635,0.626,5.192-0.281c0.203,0.802,0.47,1.58,0.809,2.343
				c-0.857,0.467-1.541,1.233-2.036,2.15c-0.654,1.212-0.799,2.534-0.757,3.867c-1.972,0.073-3.929,1.635-4.691,3.402
				c-0.625,1.449-0.508,3.125,0.072,4.567c0.63,1.568,1.744,2.516,2.86,3.716c1.47,1.582-0.405,2.684-1.367,3.917
				c-0.913,1.17-1.543,2.559-1.898,3.996c-0.566,2.295-0.303,4.671,0.672,6.771c-0.46,0.262-0.872,0.628-1.207,1.074
				c-0.999,1.328-0.966,2.97-0.41,4.475c1.083,2.932,3.402,5.359,6.06,6.952c-0.344,1.16-0.995,2.129-2.019,2.839
				c-0.501,0.348-0.891,1.009-0.508,1.571c0.953,1.398,1.888,2.811,2.877,4.185c0.021,0.029,0.052,0.034,0.076,0.057
				c0.203,0.788,0.359,1.587,0.591,2.398c0.243,0.85,1.383,0.019,1.653-0.305c-0.177,0.213,0.301,0.119,0.581,0.247
				c0.3,0.137,0.569,0.357,0.748,0.636c0.619,0.967,0.013,2.17-0.52,3.034c-0.072,0.117-0.476,0.891-0.629,0.943
				c-0.335,0.114-0.673-0.36-0.868-0.565c-0.451-0.472-0.83-0.99-1.408-1.322c-1.802-1.035-4.121-0.274-5.456,1.229l-0.76-0.516
				c-0.494-0.336-1.081-0.138-1.485,0.274c-1.239,1.263-2.483,2.931-2.583,4.767c-0.097,1.788,1.188,2.709,2.757,3.145
				c0.6,0.167,1.448,0.246,1.937,0.661c0.796,0.676-0.351,2.264-0.675,2.975c-1.145,2.513-2.283,5.027-3.402,7.552
				c-0.239,0.54,0.026,1.253,0.728,1.081c0.132-0.032,0.249-0.041,0.367-0.051c-0.918,0.489-1.85,0.949-2.814,1.357
				c-0.501,0.212-1.233,0.992-0.923,1.608c0.968,1.93,2.639,3.536,4.636,4.376c1.157,0.487,2.53,0.704,3.541,1.49
				c0.776,0.603,1.861,2.647-0.033,2.135c-0.635-0.172-1.416,0.277-1.629,0.911c-0.089,0.267-0.179,0.533-0.268,0.8
				c-0.63-0.064-1.255,0.017-1.917,0.27c-0.472,0.18-1.11,0.85-0.994,1.409c0.222,1.068,0.275,2.133,0.026,3.203
				c-0.229,0.986-0.882,1.872-0.946,2.892c-0.067,1.053,0.574,1.868,1.115,2.712c0.611,0.952,1.223,1.905,1.834,2.858
				c0.779,1.215,1.736,3.831,3.528,3.618c1.016-0.12,1.842-0.571,2.911-0.473c0.588,0.053,1.142,0.211,1.672,0.434
				c0.037,0.765,0.202,1.521,0.652,2.121c0.352,0.47,0.883,0.73,1.467,0.783c0.366,0.033,0.729-0.054,1.092-0.063
				c0.494-0.012,0.572,0.157,0.573,0.633c0.006,1.915-0.168,3.795-0.029,5.716c0.145,2,0.469,3.972,0.918,5.925
				c0.122,0.531,0.964,0.338,1.24,0.118c0.14-0.112,0.274-0.235,0.413-0.349c0.423,0.098,0.849,0.03,1.262-0.128
				c1.036-1.27,1.593-2.924,2.442-4.299c1.142-1.852,3.042-2.633,5.002-3.371c0.341-0.129,0.649,0.252,0.567,0.567
				c-0.812,3.117-3.119,5.209-5.584,7.099c-0.956,1.551-1.785,3.174-2.477,4.858c-2.72-0.335-4.942,2.43-6.042,4.712
				c-1.583,3.285-3.06,6.624-4.568,9.946c-2.591,0.111-5.149,0.449-7.751,0.928c-1.533,0.282-3.28,0.528-4.719-0.229
				c-1.308-0.688-1.864-2.482-3.574-2.332c-0.758,0.066-1.328,0.488-1.947,0.88c-0.802,0.508-1.587,0.63-2.529,0.556
				c-1.636-0.13-3.203-0.686-4.824-0.911c-1.742-0.242-3.297,0.076-4.947,0.615c-1.484,0.484-3.397,1.42-4.862,0.426
				c-0.896-0.608-2.373,0.61-1.981,1.629c1.201,3.125,0.794,6.469-0.829,9.212c-2.218-0.617-4.501-1.102-6.72-1.513
				c-0.763-0.141-1.578,0.896-1.352,1.598c1.83,5.693-0.03,12.626-4.878,16.294c-0.774,0.046-1.533,0.156-2.286,0.374
				c-0.625,0.18-1.172,0.693-1.173,1.383c-0.001,0.697-0.05,1.394-0.11,2.091c-2.232-0.825-4.796-0.432-6.7,1.166
				c-2.032,1.705-2.977,4.628-2.323,7.197c-1.541,0.955-2.349,2.907-3.412,4.439c-1.747,2.518-4.059,5.039-6.715,6.621
				c-1.408,0.839-2.834-0.408-4.353-0.319c-1.293,0.076-2.481,0.68-3.449,1.516c-2.243,1.937-2.813,4.954-2.79,7.786
				c0.003,0.322,0.262,0.527,0.558,0.565c2.247,0.284,3.968-1.252,5.488-2.687c0.752-0.71,1.535-1.559,2.52-1.94
				c0.954-0.369,1.854-0.094,2.632,0.432c-0.171,0.169-0.271,0.397-0.165,0.585c1.011,1.801,1.872,3.689,2.836,5.516
				c0.44,0.834,0.978,1.542,1.837,1.981c0.831,0.425,1.857,0.46,2.696,0.042c0.507-0.252,0.952-0.732,0.94-1.332
				c-0.008-0.392-0.012-0.785-0.018-1.177c2.613-0.707,2.612-4.39,2.103-6.781c0.518-0.698,1.678-0.607,2.34-0.077
				c0.573,0.458,1.432-0.131,1.653-0.714c0.882-2.331,3.046-3.843,5.481-4.144c0.667-0.082,1.697-1.223,1.057-1.861
				c-0.78-0.777-1.001-1.869-0.776-2.887c2.181,0.332,4.379,0.585,6.559,0.884c1.384,0.19,2.651,0.652,3.853-0.211
				c0.556-0.399,1.02-0.892,1.412-1.438c2.212,0.977,4.916,0.388,6.707-1.225c2.863,3.416,6.852,5.8,11.204,6.735
				c0.151,0.656,0.301,1.311,0.451,1.967c0.039,0.169,0.296,0.313,0.455,0.311c1.323-0.013,2.646,0.005,3.969,0.021
				c0.705,0.008,1.355-0.636,1.355-1.34c0.002-3.194,1.743-6.164,4.746-7.39c0.542-0.221,0.924-0.8,0.791-1.377
				c-0.515-2.218-1.278-4.723-0.688-6.993c0.473-1.821,1.638-3.204,3.185-4.224c2.744-1.809,6.032-2.457,8.95-3.884
				c0.367,0.061,0.737,0.097,1.119,0.045c0.688-0.093,1.259-0.42,1.876-0.707c0.776-0.361,1.592-0.618,2.431-0.784
				c1.607-0.317,3.275-0.254,4.853,0.186c0.022,0.006,0.045,0.005,0.067,0.01c1.507,0.805,2.81,2.048,4.037,3.264
				c2.012,1.993,4.041,4.077,6.822,4.939c0.646,0.2,1.257-0.456,1.286-1.064c0.06-1.26,0.176-2.521,0.244-3.782
				c2.345,0.249,4.685,0.527,7.026,0.816c1.367,0.169,2.735,0.338,4.102,0.513c1.001,0.129,2.137,0.418,3.124,0.07
				c1.254-0.443,1.928-1.783,1.364-3.003c-0.165-0.357-1.141-1.411-1.663-2.172c4.133,0.388,8.507-0.161,12.364-1.583
				c1.896-0.699,4.197-1.614,5.652-3.069c0.637-0.637,1.048-1.452,1.067-2.361c0.009-0.406-0.539-2.06-0.459-2.8
				c1.938,1.23,3.752,2.656,5.596,4.021c0.628,0.465,1.48-0.247,1.614-0.893c0.112-0.536,0.323-1.051,0.614-1.516
				c1.882,0.294,3.761,0.442,5.646,0.443c0.381,1.016,0.824,2.009,1.368,2.942c0.73,1.252,1.628,1.919,3.103,1.469
				c3.859-1.178,7.608-2.889,11.364-4.356c1.838-0.718,3.736-1.782,5.758-1.465c2.094,0.328,4.168,0.973,6.226,1.48
				c1.896,0.467,3.789,0.948,5.69,1.391c1.669,0.388,3.276,0.793,4.798-0.263c1.209-0.839,1.613-2.316,2.695-3.222
				c1.041-0.872,2.738-0.63,3.992-0.663c1.359-0.036,2.73-0.175,3.89-0.954c1.195-0.803,1.775-2.041,2.364-3.301
				c0.286-0.61,0.48-1.124,1.19-1.258c0.895-0.17,1.9,0.194,2.786,0.292c1.313,0.145,2.732-0.094,3.754-0.981
				c0.51-0.443,0.917-1.016,1.087-1.677c0.208-0.813-0.036-1.596,0.014-2.413c0.103-1.677,1.303-2.995,2.664-3.845
				c1.756-1.098,3.811-1.508,5.759-2.126c1.692-0.537,2.568-1.738,2.663-3.493c0.101-1.865-0.216-3.588,0.218-5.454
				c0.436-1.875,1.408-3.545,2.79-4.877c0.475-0.458,0.999-1.974-0.157-1.984c-5.625-0.05-11.118,1.01-16.344,3.032
				c-0.594-2.082-2.786-3.428-4.973-3.317c-1.485,0.075-2.743,0.796-3.683,1.934c-0.426,0.516-0.835,1.532-1.397,1.873
				c-0.269,0.163-0.56,0.174-0.798,0.07c1.033-1.155,1.733-2.558,2.059-4.095c-1.334,0.273-2.687,0.444-4.057,0.482
				c-2.351,0.066-4.697-0.173-7.035-0.377c-0.338-0.029-0.587-0.372-0.398-0.693c1.523-2.586,4.567-3.858,7.491-3.8
				c1.418,0.028,2.72,0.529,4.046,0.98c1.044,0.355,2.075,0.55,3.136,0.62c3.451-2.7,5.053-7.736,3.69-11.881
				c-0.191-0.581-0.992-0.354-1.345-0.128c-1.034,0.663-2.119,1.09-3.285,1.306c1.027-2.181,2.58-3.973,4.592-5.315
				c1.125,1.933,3.317,3.07,5.581,2.88c2.85-0.24,4.965-2.536,6.386-4.825c0.214-0.344,0.465-1.115-0.11-1.303
				c-1.37-0.447-2.749-0.866-4.128-1.284c1.763-1.357,4.332-1.858,6.115-3.123c2.199-1.56,3.816-3.879,4.694-6.416
				c0.876-2.532,1.06-5.223,0.759-7.87c-0.165-1.45-0.554-3.411-0.182-5.011c0.918-0.817,1.613-1.912,1.997-3.068
				c0.823-2.473,0.164-5.14,0.773-7.641C239.461,163.319,240.277,162.284,239.97,161.033z"/>
		</defs>
		<clipPath id="SVGID_00000137841707091094254710000004617996861052311732_">
			<use xlink:href="#SVGID_1_"  style="overflow:visible;"/>
		</clipPath>
		<g style="clip-path:url(#SVGID_00000137841707091094254710000004617996861052311732_);">
			<g>
				<polygon style="fill:#FFFFFF;" points="146.758,304.128 161.67,304.128 161.67,207.843 349.017,207.843 349.017,185.134 
					146.758,185.134 				"/>
				<polygon style="fill:#FFFFFF;" points="-100.313,185.134 -100.313,207.843 87.185,207.843 87.185,304.128 101.945,304.128 
					101.945,185.134 				"/>
				<polygon style="fill:#FFFFFF;" points="161.67,110.347 161.67,9.218 146.758,9.218 146.758,128.212 349.017,128.212 
					349.017,110.347 				"/>
				<polygon style="fill:#FFFFFF;" points="101.945,9.218 87.185,9.218 87.185,110.347 -100.313,110.347 -100.313,128.212 
					101.945,128.212 				"/>
				<polygon style="fill:#C03323;" points="146.758,9.218 101.945,9.218 101.945,128.212 -100.313,128.212 -100.313,185.134 
					101.945,185.134 101.945,304.128 146.758,304.128 146.758,185.134 349.017,185.134 349.017,128.212 146.758,128.212 				"/>
			</g>
			<g>
				<polygon style="fill:#FFFFFF;" points="87.185,110.347 87.185,99.394 -53.695,9.218 -100.313,9.218 -100.313,13.073 
					51.656,110.347 				"/>
				<polygon style="fill:#C03323;" points="-100.313,13.073 -100.313,33.432 19.847,110.347 51.656,110.347 				"/>
				<polygon style="fill:#081F64;" points="-100.313,110.347 -0.324,110.347 -100.313,46.345 				"/>
				<polygon style="fill:#081F64;" points="87.185,9.218 -53.695,9.218 87.185,99.394 				"/>
				<polygon style="fill:#FFFFFF;" points="-100.313,46.345 -0.324,110.347 19.847,110.347 -100.313,33.432 				"/>
				<polygon style="fill:#081F64;" points="161.67,9.218 161.67,101.394 301.807,9.218 				"/>
				<polygon style="fill:#C03323;" points="349.017,9.218 318.669,9.218 164.919,110.347 197.019,110.347 349.017,10.37 				"/>
				<polygon style="fill:#FFFFFF;" points="349.017,10.37 197.019,110.347 250.22,110.347 349.017,45.364 				"/>
				<polygon style="fill:#081F64;" points="349.017,45.364 250.22,110.347 349.017,110.347 				"/>
				<polygon style="fill:#FFFFFF;" points="301.807,9.218 161.67,101.394 161.67,110.347 164.919,110.347 318.669,9.218 				"/>
				<polygon style="fill:#081F64;" points="-100.313,207.843 -100.313,271.549 -0.679,207.843 				"/>
				<polygon style="fill:#FFFFFF;" points="-0.679,207.843 -100.313,271.549 -100.313,304.128 -99.253,304.128 51.335,207.843 				
					"/>
				<polygon style="fill:#C03323;" points="51.335,207.843 -99.253,304.128 -66.648,304.128 83.941,207.843 				"/>
				<polygon style="fill:#FFFFFF;" points="83.941,207.843 -66.648,304.128 -47.238,304.128 87.185,218.179 87.185,207.843 				"/>
				<polygon style="fill:#081F64;" points="87.185,304.128 87.185,218.179 -47.238,304.128 				"/>
				<polygon style="fill:#FFFFFF;" points="349.017,271.155 250.107,207.843 229.937,207.843 349.017,284.066 				"/>
				<polygon style="fill:#C03323;" points="229.937,207.843 198.904,207.843 349.017,303.93 349.017,284.066 				"/>
				<polygon style="fill:#FFFFFF;" points="161.67,207.843 161.67,216.785 298.123,304.128 349.017,304.128 349.017,303.93 
					198.904,207.843 				"/>
				<polygon style="fill:#081F64;" points="161.67,304.128 298.123,304.128 161.67,216.785 				"/>
				<polygon style="fill:#081F64;" points="349.017,207.843 250.107,207.843 349.017,271.155 				"/>
			</g>
		</g>
	</g>
	<g>
		<defs>
			<path id="SVGID_00000129887244810488959720000010467002657178155708_" d="M155.551,261.001c-0.756-0.43-1.532-0.738-2.409-0.756
				c-0.898-0.018-1.805,0.083-2.686,0.246c-0.754,0.139-1.534,0.306-2.195,0.711c-0.951,0.582-1.502,1.48-2.04,2.424
				c-0.463,0.812-0.93,1.607-1.691,2.171c-0.527,0.391-1.109,0.651-1.72,0.88c-0.279,0.105-0.555,0.183-0.609,0.399
				c-0.009,0.038-0.008,0.08-0.011,0.12c2.063,1.081,4.256,1.896,6.547,2.339c1.184,0.229,2.387,0.434,3.54-0.041
				c1.19-0.491,1.826-1.548,2.504-2.577c0.743-1.128,1.496-2.25,2.229-3.384c0.227-0.351,0.491-0.816,0.633-1.292
				C156.928,261.863,156.237,261.391,155.551,261.001z"/>
		</defs>
		<clipPath id="SVGID_00000034771226074208822920000011296352847790468999_">
			<use xlink:href="#SVGID_00000129887244810488959720000010467002657178155708_"  style="overflow:visible;"/>
		</clipPath>
		<g style="clip-path:url(#SVGID_00000034771226074208822920000011296352847790468999_);">
			<g>
				<polygon style="fill:#FFFFFF;" points="146.758,304.128 161.67,304.128 161.67,207.843 349.017,207.843 349.017,185.134 
					146.758,185.134 				"/>
				<polygon style="fill:#FFFFFF;" points="-100.313,185.134 -100.313,207.843 87.185,207.843 87.185,304.128 101.945,304.128 
					101.945,185.134 				"/>
				<polygon style="fill:#FFFFFF;" points="161.67,110.347 161.67,9.218 146.758,9.218 146.758,128.212 349.017,128.212 
					349.017,110.347 				"/>
				<polygon style="fill:#FFFFFF;" points="101.945,9.218 87.185,9.218 87.185,110.347 -100.313,110.347 -100.313,128.212 
					101.945,128.212 				"/>
				<polygon style="fill:#C03323;" points="146.758,9.218 101.945,9.218 101.945,128.212 -100.313,128.212 -100.313,185.134 
					101.945,185.134 101.945,304.128 146.758,304.128 146.758,185.134 349.017,185.134 349.017,128.212 146.758,128.212 				"/>
			</g>
			<g>
				<polygon style="fill:#FFFFFF;" points="87.185,110.347 87.185,99.394 -53.695,9.218 -100.313,9.218 -100.313,13.073 
					51.656,110.347 				"/>
				<polygon style="fill:#C03323;" points="-100.313,13.073 -100.313,33.432 19.847,110.347 51.656,110.347 				"/>
				<polygon style="fill:#081F64;" points="-100.313,110.347 -0.324,110.347 -100.313,46.345 				"/>
				<polygon style="fill:#081F64;" points="87.185,9.218 -53.695,9.218 87.185,99.394 				"/>
				<polygon style="fill:#FFFFFF;" points="-100.313,46.345 -0.324,110.347 19.847,110.347 -100.313,33.432 				"/>
				<polygon style="fill:#081F64;" points="161.67,9.218 161.67,101.394 301.807,9.218 				"/>
				<polygon style="fill:#C03323;" points="349.017,9.218 318.669,9.218 164.919,110.347 197.019,110.347 349.017,10.37 				"/>
				<polygon style="fill:#FFFFFF;" points="349.017,10.37 197.019,110.347 250.22,110.347 349.017,45.364 				"/>
				<polygon style="fill:#081F64;" points="349.017,45.364 250.22,110.347 349.017,110.347 				"/>
				<polygon style="fill:#FFFFFF;" points="301.807,9.218 161.67,101.394 161.67,110.347 164.919,110.347 318.669,9.218 				"/>
				<polygon style="fill:#081F64;" points="-100.313,207.843 -100.313,271.549 -0.679,207.843 				"/>
				<polygon style="fill:#FFFFFF;" points="-0.679,207.843 -100.313,271.549 -100.313,304.128 -99.253,304.128 51.335,207.843 				
					"/>
				<polygon style="fill:#C03323;" points="51.335,207.843 -99.253,304.128 -66.648,304.128 83.941,207.843 				"/>
				<polygon style="fill:#FFFFFF;" points="83.941,207.843 -66.648,304.128 -47.238,304.128 87.185,218.179 87.185,207.843 				"/>
				<polygon style="fill:#081F64;" points="87.185,304.128 87.185,218.179 -47.238,304.128 				"/>
				<polygon style="fill:#FFFFFF;" points="349.017,271.155 250.107,207.843 229.937,207.843 349.017,284.066 				"/>
				<polygon style="fill:#C03323;" points="229.937,207.843 198.904,207.843 349.017,303.93 349.017,284.066 				"/>
				<polygon style="fill:#FFFFFF;" points="161.67,207.843 161.67,216.785 298.123,304.128 349.017,304.128 349.017,303.93 
					198.904,207.843 				"/>
				<polygon style="fill:#081F64;" points="161.67,304.128 298.123,304.128 161.67,216.785 				"/>
				<polygon style="fill:#081F64;" points="349.017,207.843 250.107,207.843 349.017,271.155 				"/>
			</g>
		</g>
	</g>
</g>
</svg>
