<?xml version="1.0" encoding="utf-8"?>
<!-- Generator: Adobe Illustrator 27.5.0, SVG Export Plug-In . SVG Version: 6.00 Build 0)  -->
<svg version="1.1" id="Layer_1" xmlns="http://www.w3.org/2000/svg" xmlns:xlink="http://www.w3.org/1999/xlink" x="0px" y="0px"
	 viewBox="0 0 7000 4081" style="enable-background:new 0 0 7000 4081;" xml:space="preserve">
<g>
	<rect x="0" style="fill-rule:evenodd;clip-rule:evenodd;fill:#003780;" width="7000" height="4081"/>
	<g>
		<defs>
			<path id="SVGID_1_" d="M1938.303,843.717C-311.14,2646.847,918.617,2842.341,3337.641,4081c0,0,425.567,0,394.958,0h30.609
				c21.65-75.045,29.38-152.171,32.922-230.778C3871.134,2185.239,770.038,2178.555,1938.303,843.717"/>
		</defs>
		<clipPath id="SVGID_00000142160102094554883740000001279914637253823121_">
			<use xlink:href="#SVGID_1_"  style="overflow:visible;"/>
		</clipPath>
		
			<linearGradient id="SVGID_00000147189379440722816160000012043760858614323361_" gradientUnits="userSpaceOnUse" x1="4260.4316" y1="-932.6057" x2="1841.3746" y2="2378.3508">
			<stop  offset="0" style="stop-color:#5EFAF7"/>
			<stop  offset="1" style="stop-color:#004790"/>
		</linearGradient>
		
			<rect x="-311.14" y="843.717" style="clip-path:url(#SVGID_00000142160102094554883740000001279914637253823121_);fill:url(#SVGID_00000147189379440722816160000012043760858614323361_);" width="4182.274" height="3237.283"/>
	</g>
	<g>
		<defs>
			<path id="SVGID_00000096769779377956252570000015818982725286505618_" d="M2418.857,72.776c0-24.388-0.918-48.649-2.732-72.776H0
				v1612.743v2092.738V4081h3337.641c-986.74-550.158-2415.041-523.643-2415.041-1791.385
				C922.601,1227.256,2418.857,1132.073,2418.857,72.776"/>
		</defs>
		<clipPath id="SVGID_00000106862676891855176130000000525281278262272446_">
			<use xlink:href="#SVGID_00000096769779377956252570000015818982725286505618_"  style="overflow:visible;"/>
		</clipPath>
		
			<linearGradient id="SVGID_00000042698360134227962080000003197672845272906172_" gradientUnits="userSpaceOnUse" x1="288.6367" y1="1611.793" x2="3149.9895" y2="2500.5745">
			<stop  offset="0" style="stop-color:#0067B0"/>
			<stop  offset="1" style="stop-color:#37DBD0"/>
		</linearGradient>
		
			<rect x="0" style="clip-path:url(#SVGID_00000106862676891855176130000000525281278262272446_);fill:url(#SVGID_00000042698360134227962080000003197672845272906172_);" width="3337.641" height="4081"/>
	</g>
	<g>
		<defs>
			<path id="SVGID_00000022518175295374717890000010833552110627909268_" d="M1868.59,72.776c0-24.388-0.918-48.649-2.732-72.776H0
				v1612.743v2092.738V4081h2787.374c-986.74-550.158-2415.04-523.643-2415.04-1791.385
				C372.333,1227.256,1868.59,1132.073,1868.59,72.776"/>
		</defs>
		<clipPath id="SVGID_00000162326599618148001620000004294681956943858573_">
			<use xlink:href="#SVGID_00000022518175295374717890000010833552110627909268_"  style="overflow:visible;"/>
		</clipPath>
		
			<linearGradient id="SVGID_00000075139576111761556120000002653331612661234604_" gradientUnits="userSpaceOnUse" x1="-249.222" y1="1285.4305" x2="1784.339" y2="2220.041">
			<stop  offset="0" style="stop-color:#0067B0"/>
			<stop  offset="1" style="stop-color:#37DBD0"/>
		</linearGradient>
		
			<rect x="0" style="clip-path:url(#SVGID_00000162326599618148001620000004294681956943858573_);fill:url(#SVGID_00000075139576111761556120000002653331612661234604_);" width="2787.374" height="4081"/>
	</g>
	<g>
		<defs>
			<path id="SVGID_00000164500075790416150920000009210007994432531889_" d="M1388.274,1728.857
				c0-149.426,44.222-292.83,125.454-426.005c-315.006,252.506-591.127,530.393-591.127,986.763
				c0,115.896,11.937,220.976,34.381,316.668C1180.06,3557.329,2441.11,3581.136,3337.641,4081h28.169
				c19.927-69.067,30.299-140.023,30.299-212.39C3396.11,2709.986,1388.274,2888.197,1388.274,1728.857"/>
		</defs>
		<clipPath id="SVGID_00000022545081177632303290000007503502076788863415_">
			<use xlink:href="#SVGID_00000164500075790416150920000009210007994432531889_"  style="overflow:visible;"/>
		</clipPath>
		
			<linearGradient id="SVGID_00000009552277634323772280000016624500396412633533_" gradientUnits="userSpaceOnUse" x1="3713.6506" y1="26.0705" x2="1925.0784" y2="3093.7471">
			<stop  offset="0" style="stop-color:#5EFAF7"/>
			<stop  offset="1" style="stop-color:#004790"/>
		</linearGradient>
		
			<rect x="922.601" y="1302.852" style="clip-path:url(#SVGID_00000022545081177632303290000007503502076788863415_);fill:url(#SVGID_00000009552277634323772280000016624500396412633533_);" width="2473.509" height="2778.148"/>
	</g>
</g>
</svg>
